%TF.GenerationSoftware,KiCad,Pcbnew,9.0.5*%
%TF.CreationDate,2025-10-23T11:37:32+01:00*%
%TF.ProjectId,Gotek,476f7465-6b2e-46b6-9963-61645f706362,rev?*%
%TF.SameCoordinates,Original*%
%TF.FileFunction,Legend,Top*%
%TF.FilePolarity,Positive*%
%FSLAX46Y46*%
G04 Gerber Fmt 4.6, Leading zero omitted, Abs format (unit mm)*
G04 Created by KiCad (PCBNEW 9.0.5) date 2025-10-23 11:37:32*
%MOMM*%
%LPD*%
G01*
G04 APERTURE LIST*
%ADD10C,0.100000*%
%ADD11C,0.150000*%
%ADD12C,0.254000*%
%ADD13C,0.120000*%
%ADD14C,0.200000*%
%ADD15C,0.152400*%
%ADD16C,0.250000*%
G04 APERTURE END LIST*
D10*
X164261800Y-60020200D02*
X181660800Y-60020200D01*
X114808000Y-65354200D02*
X121488200Y-65354200D01*
X106832400Y-90601800D02*
X112572800Y-90601800D01*
X112572800Y-91998800D02*
X112572800Y-86360000D01*
X170891200Y-56261000D02*
X170891200Y-63627000D01*
X164287200Y-58267600D02*
X181635400Y-58267600D01*
X164287200Y-61671200D02*
X181635400Y-61671200D01*
X140868400Y-108762800D02*
X150088600Y-108762800D01*
X121488200Y-65354200D02*
X114808000Y-65354200D01*
X145542000Y-103433784D02*
X145542000Y-110566200D01*
X114808000Y-68503800D02*
X121513600Y-68503800D01*
X121513600Y-70002400D02*
X114833400Y-70002400D01*
X112572800Y-86360000D02*
X106807000Y-86360000D01*
X140893800Y-105537000D02*
X150088600Y-105537000D01*
X106807000Y-89179400D02*
X112572800Y-89179400D01*
X106807000Y-86360000D02*
X106807000Y-91998800D01*
X140893800Y-107020408D02*
X150073408Y-107020408D01*
X114833400Y-66979800D02*
X121488200Y-66979800D01*
X106807000Y-91998800D02*
X112572800Y-91998800D01*
X118160800Y-63296800D02*
X118160800Y-71778327D01*
X121513600Y-68503800D02*
X121513600Y-70002400D01*
X121488200Y-65354200D02*
X114833400Y-65354200D01*
X106807000Y-87807800D02*
X112572800Y-87807800D01*
X150088600Y-105537000D02*
X150088600Y-106400600D01*
D11*
X199602838Y-64366611D02*
X199555219Y-64461849D01*
X199555219Y-64461849D02*
X199555219Y-64604706D01*
X199555219Y-64604706D02*
X199602838Y-64747563D01*
X199602838Y-64747563D02*
X199698076Y-64842801D01*
X199698076Y-64842801D02*
X199793314Y-64890420D01*
X199793314Y-64890420D02*
X199983790Y-64938039D01*
X199983790Y-64938039D02*
X200126647Y-64938039D01*
X200126647Y-64938039D02*
X200317123Y-64890420D01*
X200317123Y-64890420D02*
X200412361Y-64842801D01*
X200412361Y-64842801D02*
X200507600Y-64747563D01*
X200507600Y-64747563D02*
X200555219Y-64604706D01*
X200555219Y-64604706D02*
X200555219Y-64509468D01*
X200555219Y-64509468D02*
X200507600Y-64366611D01*
X200507600Y-64366611D02*
X200459980Y-64318992D01*
X200459980Y-64318992D02*
X200126647Y-64318992D01*
X200126647Y-64318992D02*
X200126647Y-64509468D01*
X200555219Y-63318992D02*
X200079028Y-63652325D01*
X200555219Y-63890420D02*
X199555219Y-63890420D01*
X199555219Y-63890420D02*
X199555219Y-63509468D01*
X199555219Y-63509468D02*
X199602838Y-63414230D01*
X199602838Y-63414230D02*
X199650457Y-63366611D01*
X199650457Y-63366611D02*
X199745695Y-63318992D01*
X199745695Y-63318992D02*
X199888552Y-63318992D01*
X199888552Y-63318992D02*
X199983790Y-63366611D01*
X199983790Y-63366611D02*
X200031409Y-63414230D01*
X200031409Y-63414230D02*
X200079028Y-63509468D01*
X200079028Y-63509468D02*
X200079028Y-63890420D01*
X200031409Y-62890420D02*
X200031409Y-62557087D01*
X200555219Y-62414230D02*
X200555219Y-62890420D01*
X200555219Y-62890420D02*
X199555219Y-62890420D01*
X199555219Y-62890420D02*
X199555219Y-62414230D01*
X200031409Y-61985658D02*
X200031409Y-61652325D01*
X200555219Y-61509468D02*
X200555219Y-61985658D01*
X200555219Y-61985658D02*
X199555219Y-61985658D01*
X199555219Y-61985658D02*
X199555219Y-61509468D01*
X200555219Y-61080896D02*
X199555219Y-61080896D01*
X199555219Y-61080896D02*
X200555219Y-60509468D01*
X200555219Y-60509468D02*
X199555219Y-60509468D01*
D10*
X97087427Y-111877019D02*
X97420760Y-112877019D01*
X97420760Y-112877019D02*
X97754093Y-111877019D01*
X98468379Y-112829400D02*
X98373141Y-112877019D01*
X98373141Y-112877019D02*
X98182665Y-112877019D01*
X98182665Y-112877019D02*
X98087427Y-112829400D01*
X98087427Y-112829400D02*
X98039808Y-112734161D01*
X98039808Y-112734161D02*
X98039808Y-112353209D01*
X98039808Y-112353209D02*
X98087427Y-112257971D01*
X98087427Y-112257971D02*
X98182665Y-112210352D01*
X98182665Y-112210352D02*
X98373141Y-112210352D01*
X98373141Y-112210352D02*
X98468379Y-112257971D01*
X98468379Y-112257971D02*
X98515998Y-112353209D01*
X98515998Y-112353209D02*
X98515998Y-112448447D01*
X98515998Y-112448447D02*
X98039808Y-112543685D01*
X98944570Y-112877019D02*
X98944570Y-112210352D01*
X98944570Y-112400828D02*
X98992189Y-112305590D01*
X98992189Y-112305590D02*
X99039808Y-112257971D01*
X99039808Y-112257971D02*
X99135046Y-112210352D01*
X99135046Y-112210352D02*
X99230284Y-112210352D01*
X100849332Y-112877019D02*
X100277904Y-112877019D01*
X100563618Y-112877019D02*
X100563618Y-111877019D01*
X100563618Y-111877019D02*
X100468380Y-112019876D01*
X100468380Y-112019876D02*
X100373142Y-112115114D01*
X100373142Y-112115114D02*
X100277904Y-112162733D01*
X101277904Y-112781780D02*
X101325523Y-112829400D01*
X101325523Y-112829400D02*
X101277904Y-112877019D01*
X101277904Y-112877019D02*
X101230285Y-112829400D01*
X101230285Y-112829400D02*
X101277904Y-112781780D01*
X101277904Y-112781780D02*
X101277904Y-112877019D01*
X101944570Y-111877019D02*
X102039808Y-111877019D01*
X102039808Y-111877019D02*
X102135046Y-111924638D01*
X102135046Y-111924638D02*
X102182665Y-111972257D01*
X102182665Y-111972257D02*
X102230284Y-112067495D01*
X102230284Y-112067495D02*
X102277903Y-112257971D01*
X102277903Y-112257971D02*
X102277903Y-112496066D01*
X102277903Y-112496066D02*
X102230284Y-112686542D01*
X102230284Y-112686542D02*
X102182665Y-112781780D01*
X102182665Y-112781780D02*
X102135046Y-112829400D01*
X102135046Y-112829400D02*
X102039808Y-112877019D01*
X102039808Y-112877019D02*
X101944570Y-112877019D01*
X101944570Y-112877019D02*
X101849332Y-112829400D01*
X101849332Y-112829400D02*
X101801713Y-112781780D01*
X101801713Y-112781780D02*
X101754094Y-112686542D01*
X101754094Y-112686542D02*
X101706475Y-112496066D01*
X101706475Y-112496066D02*
X101706475Y-112257971D01*
X101706475Y-112257971D02*
X101754094Y-112067495D01*
X101754094Y-112067495D02*
X101801713Y-111972257D01*
X101801713Y-111972257D02*
X101849332Y-111924638D01*
X101849332Y-111924638D02*
X101944570Y-111877019D01*
D11*
X109207493Y-87973019D02*
X109207493Y-88687304D01*
X109207493Y-88687304D02*
X109159874Y-88830161D01*
X109159874Y-88830161D02*
X109064636Y-88925400D01*
X109064636Y-88925400D02*
X108921779Y-88973019D01*
X108921779Y-88973019D02*
X108826541Y-88973019D01*
X109636065Y-88687304D02*
X110112255Y-88687304D01*
X109540827Y-88973019D02*
X109874160Y-87973019D01*
X109874160Y-87973019D02*
X110207493Y-88973019D01*
D10*
X107441084Y-87527819D02*
X107441084Y-86527819D01*
X107441084Y-86527819D02*
X107774417Y-87242104D01*
X107774417Y-87242104D02*
X108107750Y-86527819D01*
X108107750Y-86527819D02*
X108107750Y-87527819D01*
X108441084Y-86527819D02*
X109012512Y-86527819D01*
X108726798Y-87527819D02*
X108726798Y-86527819D01*
X109917274Y-87527819D02*
X109583941Y-87051628D01*
X109345846Y-87527819D02*
X109345846Y-86527819D01*
X109345846Y-86527819D02*
X109726798Y-86527819D01*
X109726798Y-86527819D02*
X109822036Y-86575438D01*
X109822036Y-86575438D02*
X109869655Y-86623057D01*
X109869655Y-86623057D02*
X109917274Y-86718295D01*
X109917274Y-86718295D02*
X109917274Y-86861152D01*
X109917274Y-86861152D02*
X109869655Y-86956390D01*
X109869655Y-86956390D02*
X109822036Y-87004009D01*
X109822036Y-87004009D02*
X109726798Y-87051628D01*
X109726798Y-87051628D02*
X109345846Y-87051628D01*
X110536322Y-86527819D02*
X110726798Y-86527819D01*
X110726798Y-86527819D02*
X110822036Y-86575438D01*
X110822036Y-86575438D02*
X110917274Y-86670676D01*
X110917274Y-86670676D02*
X110964893Y-86861152D01*
X110964893Y-86861152D02*
X110964893Y-87194485D01*
X110964893Y-87194485D02*
X110917274Y-87384961D01*
X110917274Y-87384961D02*
X110822036Y-87480200D01*
X110822036Y-87480200D02*
X110726798Y-87527819D01*
X110726798Y-87527819D02*
X110536322Y-87527819D01*
X110536322Y-87527819D02*
X110441084Y-87480200D01*
X110441084Y-87480200D02*
X110345846Y-87384961D01*
X110345846Y-87384961D02*
X110298227Y-87194485D01*
X110298227Y-87194485D02*
X110298227Y-86861152D01*
X110298227Y-86861152D02*
X110345846Y-86670676D01*
X110345846Y-86670676D02*
X110441084Y-86575438D01*
X110441084Y-86575438D02*
X110536322Y-86527819D01*
X111393465Y-87527819D02*
X111393465Y-86527819D01*
X111393465Y-86527819D02*
X111964893Y-87527819D01*
X111964893Y-87527819D02*
X111964893Y-86527819D01*
D11*
X200453619Y-71024592D02*
X199977428Y-71357925D01*
X200453619Y-71596020D02*
X199453619Y-71596020D01*
X199453619Y-71596020D02*
X199453619Y-71215068D01*
X199453619Y-71215068D02*
X199501238Y-71119830D01*
X199501238Y-71119830D02*
X199548857Y-71072211D01*
X199548857Y-71072211D02*
X199644095Y-71024592D01*
X199644095Y-71024592D02*
X199786952Y-71024592D01*
X199786952Y-71024592D02*
X199882190Y-71072211D01*
X199882190Y-71072211D02*
X199929809Y-71119830D01*
X199929809Y-71119830D02*
X199977428Y-71215068D01*
X199977428Y-71215068D02*
X199977428Y-71596020D01*
X199929809Y-70596020D02*
X199929809Y-70262687D01*
X200453619Y-70119830D02*
X200453619Y-70596020D01*
X200453619Y-70596020D02*
X199453619Y-70596020D01*
X199453619Y-70596020D02*
X199453619Y-70119830D01*
X200453619Y-69691258D02*
X199453619Y-69691258D01*
X199453619Y-69691258D02*
X199453619Y-69453163D01*
X199453619Y-69453163D02*
X199501238Y-69310306D01*
X199501238Y-69310306D02*
X199596476Y-69215068D01*
X199596476Y-69215068D02*
X199691714Y-69167449D01*
X199691714Y-69167449D02*
X199882190Y-69119830D01*
X199882190Y-69119830D02*
X200025047Y-69119830D01*
X200025047Y-69119830D02*
X200215523Y-69167449D01*
X200215523Y-69167449D02*
X200310761Y-69215068D01*
X200310761Y-69215068D02*
X200406000Y-69310306D01*
X200406000Y-69310306D02*
X200453619Y-69453163D01*
X200453619Y-69453163D02*
X200453619Y-69691258D01*
X109055093Y-90817819D02*
X109055093Y-91532104D01*
X109055093Y-91532104D02*
X109007474Y-91674961D01*
X109007474Y-91674961D02*
X108912236Y-91770200D01*
X108912236Y-91770200D02*
X108769379Y-91817819D01*
X108769379Y-91817819D02*
X108674141Y-91817819D01*
X109864617Y-91294009D02*
X110007474Y-91341628D01*
X110007474Y-91341628D02*
X110055093Y-91389247D01*
X110055093Y-91389247D02*
X110102712Y-91484485D01*
X110102712Y-91484485D02*
X110102712Y-91627342D01*
X110102712Y-91627342D02*
X110055093Y-91722580D01*
X110055093Y-91722580D02*
X110007474Y-91770200D01*
X110007474Y-91770200D02*
X109912236Y-91817819D01*
X109912236Y-91817819D02*
X109531284Y-91817819D01*
X109531284Y-91817819D02*
X109531284Y-90817819D01*
X109531284Y-90817819D02*
X109864617Y-90817819D01*
X109864617Y-90817819D02*
X109959855Y-90865438D01*
X109959855Y-90865438D02*
X110007474Y-90913057D01*
X110007474Y-90913057D02*
X110055093Y-91008295D01*
X110055093Y-91008295D02*
X110055093Y-91103533D01*
X110055093Y-91103533D02*
X110007474Y-91198771D01*
X110007474Y-91198771D02*
X109959855Y-91246390D01*
X109959855Y-91246390D02*
X109864617Y-91294009D01*
X109864617Y-91294009D02*
X109531284Y-91294009D01*
X109131293Y-89446219D02*
X109131293Y-90160504D01*
X109131293Y-90160504D02*
X109083674Y-90303361D01*
X109083674Y-90303361D02*
X108988436Y-90398600D01*
X108988436Y-90398600D02*
X108845579Y-90446219D01*
X108845579Y-90446219D02*
X108750341Y-90446219D01*
X110178912Y-90350980D02*
X110131293Y-90398600D01*
X110131293Y-90398600D02*
X109988436Y-90446219D01*
X109988436Y-90446219D02*
X109893198Y-90446219D01*
X109893198Y-90446219D02*
X109750341Y-90398600D01*
X109750341Y-90398600D02*
X109655103Y-90303361D01*
X109655103Y-90303361D02*
X109607484Y-90208123D01*
X109607484Y-90208123D02*
X109559865Y-90017647D01*
X109559865Y-90017647D02*
X109559865Y-89874790D01*
X109559865Y-89874790D02*
X109607484Y-89684314D01*
X109607484Y-89684314D02*
X109655103Y-89589076D01*
X109655103Y-89589076D02*
X109750341Y-89493838D01*
X109750341Y-89493838D02*
X109893198Y-89446219D01*
X109893198Y-89446219D02*
X109988436Y-89446219D01*
X109988436Y-89446219D02*
X110131293Y-89493838D01*
X110131293Y-89493838D02*
X110178912Y-89541457D01*
D10*
X104332055Y-97780790D02*
X104332055Y-96780790D01*
X104332055Y-96780790D02*
X104665388Y-97495075D01*
X104665388Y-97495075D02*
X104998721Y-96780790D01*
X104998721Y-96780790D02*
X104998721Y-97780790D01*
X105665388Y-96780790D02*
X105760626Y-96780790D01*
X105760626Y-96780790D02*
X105855864Y-96828409D01*
X105855864Y-96828409D02*
X105903483Y-96876028D01*
X105903483Y-96876028D02*
X105951102Y-96971266D01*
X105951102Y-96971266D02*
X105998721Y-97161742D01*
X105998721Y-97161742D02*
X105998721Y-97399837D01*
X105998721Y-97399837D02*
X105951102Y-97590313D01*
X105951102Y-97590313D02*
X105903483Y-97685551D01*
X105903483Y-97685551D02*
X105855864Y-97733171D01*
X105855864Y-97733171D02*
X105760626Y-97780790D01*
X105760626Y-97780790D02*
X105665388Y-97780790D01*
X105665388Y-97780790D02*
X105570150Y-97733171D01*
X105570150Y-97733171D02*
X105522531Y-97685551D01*
X105522531Y-97685551D02*
X105474912Y-97590313D01*
X105474912Y-97590313D02*
X105427293Y-97399837D01*
X105427293Y-97399837D02*
X105427293Y-97161742D01*
X105427293Y-97161742D02*
X105474912Y-96971266D01*
X105474912Y-96971266D02*
X105522531Y-96876028D01*
X105522531Y-96876028D02*
X105570150Y-96828409D01*
X105570150Y-96828409D02*
X105665388Y-96780790D01*
X106951102Y-97780790D02*
X106379674Y-97780790D01*
X106665388Y-97780790D02*
X106665388Y-96780790D01*
X106665388Y-96780790D02*
X106570150Y-96923647D01*
X106570150Y-96923647D02*
X106474912Y-97018885D01*
X106474912Y-97018885D02*
X106379674Y-97066504D01*
X108141579Y-97780790D02*
X108141579Y-96780790D01*
X108141579Y-96780790D02*
X108522531Y-96780790D01*
X108522531Y-96780790D02*
X108617769Y-96828409D01*
X108617769Y-96828409D02*
X108665388Y-96876028D01*
X108665388Y-96876028D02*
X108713007Y-96971266D01*
X108713007Y-96971266D02*
X108713007Y-97114123D01*
X108713007Y-97114123D02*
X108665388Y-97209361D01*
X108665388Y-97209361D02*
X108617769Y-97256980D01*
X108617769Y-97256980D02*
X108522531Y-97304599D01*
X108522531Y-97304599D02*
X108141579Y-97304599D01*
X109141579Y-97780790D02*
X109141579Y-97114123D01*
X109141579Y-96780790D02*
X109093960Y-96828409D01*
X109093960Y-96828409D02*
X109141579Y-96876028D01*
X109141579Y-96876028D02*
X109189198Y-96828409D01*
X109189198Y-96828409D02*
X109141579Y-96780790D01*
X109141579Y-96780790D02*
X109141579Y-96876028D01*
X109617769Y-97114123D02*
X109617769Y-97780790D01*
X109617769Y-97209361D02*
X109665388Y-97161742D01*
X109665388Y-97161742D02*
X109760626Y-97114123D01*
X109760626Y-97114123D02*
X109903483Y-97114123D01*
X109903483Y-97114123D02*
X109998721Y-97161742D01*
X109998721Y-97161742D02*
X110046340Y-97256980D01*
X110046340Y-97256980D02*
X110046340Y-97780790D01*
X110474912Y-97733171D02*
X110570150Y-97780790D01*
X110570150Y-97780790D02*
X110760626Y-97780790D01*
X110760626Y-97780790D02*
X110855864Y-97733171D01*
X110855864Y-97733171D02*
X110903483Y-97637932D01*
X110903483Y-97637932D02*
X110903483Y-97590313D01*
X110903483Y-97590313D02*
X110855864Y-97495075D01*
X110855864Y-97495075D02*
X110760626Y-97447456D01*
X110760626Y-97447456D02*
X110617769Y-97447456D01*
X110617769Y-97447456D02*
X110522531Y-97399837D01*
X110522531Y-97399837D02*
X110474912Y-97304599D01*
X110474912Y-97304599D02*
X110474912Y-97256980D01*
X110474912Y-97256980D02*
X110522531Y-97161742D01*
X110522531Y-97161742D02*
X110617769Y-97114123D01*
X110617769Y-97114123D02*
X110760626Y-97114123D01*
X110760626Y-97114123D02*
X110855864Y-97161742D01*
X104855864Y-99390734D02*
X104284436Y-99390734D01*
X104570150Y-99390734D02*
X104570150Y-98390734D01*
X104570150Y-98390734D02*
X104474912Y-98533591D01*
X104474912Y-98533591D02*
X104379674Y-98628829D01*
X104379674Y-98628829D02*
X104284436Y-98676448D01*
X106046341Y-99390734D02*
X106046341Y-98390734D01*
X106046341Y-98866924D02*
X106617769Y-98866924D01*
X106617769Y-99390734D02*
X106617769Y-98390734D01*
X107093960Y-99390734D02*
X107093960Y-98390734D01*
X107093960Y-98390734D02*
X107332055Y-98390734D01*
X107332055Y-98390734D02*
X107474912Y-98438353D01*
X107474912Y-98438353D02*
X107570150Y-98533591D01*
X107570150Y-98533591D02*
X107617769Y-98628829D01*
X107617769Y-98628829D02*
X107665388Y-98819305D01*
X107665388Y-98819305D02*
X107665388Y-98962162D01*
X107665388Y-98962162D02*
X107617769Y-99152638D01*
X107617769Y-99152638D02*
X107570150Y-99247876D01*
X107570150Y-99247876D02*
X107474912Y-99343115D01*
X107474912Y-99343115D02*
X107332055Y-99390734D01*
X107332055Y-99390734D02*
X107093960Y-99390734D01*
X108284436Y-98390734D02*
X108474912Y-98390734D01*
X108474912Y-98390734D02*
X108570150Y-98438353D01*
X108570150Y-98438353D02*
X108665388Y-98533591D01*
X108665388Y-98533591D02*
X108713007Y-98724067D01*
X108713007Y-98724067D02*
X108713007Y-99057400D01*
X108713007Y-99057400D02*
X108665388Y-99247876D01*
X108665388Y-99247876D02*
X108570150Y-99343115D01*
X108570150Y-99343115D02*
X108474912Y-99390734D01*
X108474912Y-99390734D02*
X108284436Y-99390734D01*
X108284436Y-99390734D02*
X108189198Y-99343115D01*
X108189198Y-99343115D02*
X108093960Y-99247876D01*
X108093960Y-99247876D02*
X108046341Y-99057400D01*
X108046341Y-99057400D02*
X108046341Y-98724067D01*
X108046341Y-98724067D02*
X108093960Y-98533591D01*
X108093960Y-98533591D02*
X108189198Y-98438353D01*
X108189198Y-98438353D02*
X108284436Y-98390734D01*
X109141579Y-98390734D02*
X109141579Y-99200257D01*
X109141579Y-99200257D02*
X109189198Y-99295495D01*
X109189198Y-99295495D02*
X109236817Y-99343115D01*
X109236817Y-99343115D02*
X109332055Y-99390734D01*
X109332055Y-99390734D02*
X109522531Y-99390734D01*
X109522531Y-99390734D02*
X109617769Y-99343115D01*
X109617769Y-99343115D02*
X109665388Y-99295495D01*
X109665388Y-99295495D02*
X109713007Y-99200257D01*
X109713007Y-99200257D02*
X109713007Y-98390734D01*
X110046341Y-98390734D02*
X110617769Y-98390734D01*
X110332055Y-99390734D02*
X110332055Y-98390734D01*
X104284436Y-100095916D02*
X104332055Y-100048297D01*
X104332055Y-100048297D02*
X104427293Y-100000678D01*
X104427293Y-100000678D02*
X104665388Y-100000678D01*
X104665388Y-100000678D02*
X104760626Y-100048297D01*
X104760626Y-100048297D02*
X104808245Y-100095916D01*
X104808245Y-100095916D02*
X104855864Y-100191154D01*
X104855864Y-100191154D02*
X104855864Y-100286392D01*
X104855864Y-100286392D02*
X104808245Y-100429249D01*
X104808245Y-100429249D02*
X104236817Y-101000678D01*
X104236817Y-101000678D02*
X104855864Y-101000678D01*
X106570150Y-100048297D02*
X106474912Y-100000678D01*
X106474912Y-100000678D02*
X106332055Y-100000678D01*
X106332055Y-100000678D02*
X106189198Y-100048297D01*
X106189198Y-100048297D02*
X106093960Y-100143535D01*
X106093960Y-100143535D02*
X106046341Y-100238773D01*
X106046341Y-100238773D02*
X105998722Y-100429249D01*
X105998722Y-100429249D02*
X105998722Y-100572106D01*
X105998722Y-100572106D02*
X106046341Y-100762582D01*
X106046341Y-100762582D02*
X106093960Y-100857820D01*
X106093960Y-100857820D02*
X106189198Y-100953059D01*
X106189198Y-100953059D02*
X106332055Y-101000678D01*
X106332055Y-101000678D02*
X106427293Y-101000678D01*
X106427293Y-101000678D02*
X106570150Y-100953059D01*
X106570150Y-100953059D02*
X106617769Y-100905439D01*
X106617769Y-100905439D02*
X106617769Y-100572106D01*
X106617769Y-100572106D02*
X106427293Y-100572106D01*
X107046341Y-101000678D02*
X107046341Y-100000678D01*
X107046341Y-100000678D02*
X107617769Y-101000678D01*
X107617769Y-101000678D02*
X107617769Y-100000678D01*
X108093960Y-101000678D02*
X108093960Y-100000678D01*
X108093960Y-100000678D02*
X108332055Y-100000678D01*
X108332055Y-100000678D02*
X108474912Y-100048297D01*
X108474912Y-100048297D02*
X108570150Y-100143535D01*
X108570150Y-100143535D02*
X108617769Y-100238773D01*
X108617769Y-100238773D02*
X108665388Y-100429249D01*
X108665388Y-100429249D02*
X108665388Y-100572106D01*
X108665388Y-100572106D02*
X108617769Y-100762582D01*
X108617769Y-100762582D02*
X108570150Y-100857820D01*
X108570150Y-100857820D02*
X108474912Y-100953059D01*
X108474912Y-100953059D02*
X108332055Y-101000678D01*
X108332055Y-101000678D02*
X108093960Y-101000678D01*
X104236817Y-101610622D02*
X104855864Y-101610622D01*
X104855864Y-101610622D02*
X104522531Y-101991574D01*
X104522531Y-101991574D02*
X104665388Y-101991574D01*
X104665388Y-101991574D02*
X104760626Y-102039193D01*
X104760626Y-102039193D02*
X104808245Y-102086812D01*
X104808245Y-102086812D02*
X104855864Y-102182050D01*
X104855864Y-102182050D02*
X104855864Y-102420145D01*
X104855864Y-102420145D02*
X104808245Y-102515383D01*
X104808245Y-102515383D02*
X104760626Y-102563003D01*
X104760626Y-102563003D02*
X104665388Y-102610622D01*
X104665388Y-102610622D02*
X104379674Y-102610622D01*
X104379674Y-102610622D02*
X104284436Y-102563003D01*
X104284436Y-102563003D02*
X104236817Y-102515383D01*
X106046341Y-102610622D02*
X106046341Y-101610622D01*
X106046341Y-101610622D02*
X106284436Y-101610622D01*
X106284436Y-101610622D02*
X106427293Y-101658241D01*
X106427293Y-101658241D02*
X106522531Y-101753479D01*
X106522531Y-101753479D02*
X106570150Y-101848717D01*
X106570150Y-101848717D02*
X106617769Y-102039193D01*
X106617769Y-102039193D02*
X106617769Y-102182050D01*
X106617769Y-102182050D02*
X106570150Y-102372526D01*
X106570150Y-102372526D02*
X106522531Y-102467764D01*
X106522531Y-102467764D02*
X106427293Y-102563003D01*
X106427293Y-102563003D02*
X106284436Y-102610622D01*
X106284436Y-102610622D02*
X106046341Y-102610622D01*
X107046341Y-102610622D02*
X107046341Y-101610622D01*
X107522531Y-102610622D02*
X107522531Y-101610622D01*
X107522531Y-101610622D02*
X108093959Y-102610622D01*
X108093959Y-102610622D02*
X108093959Y-101610622D01*
X108522531Y-102563003D02*
X108665388Y-102610622D01*
X108665388Y-102610622D02*
X108903483Y-102610622D01*
X108903483Y-102610622D02*
X108998721Y-102563003D01*
X108998721Y-102563003D02*
X109046340Y-102515383D01*
X109046340Y-102515383D02*
X109093959Y-102420145D01*
X109093959Y-102420145D02*
X109093959Y-102324907D01*
X109093959Y-102324907D02*
X109046340Y-102229669D01*
X109046340Y-102229669D02*
X108998721Y-102182050D01*
X108998721Y-102182050D02*
X108903483Y-102134431D01*
X108903483Y-102134431D02*
X108713007Y-102086812D01*
X108713007Y-102086812D02*
X108617769Y-102039193D01*
X108617769Y-102039193D02*
X108570150Y-101991574D01*
X108570150Y-101991574D02*
X108522531Y-101896336D01*
X108522531Y-101896336D02*
X108522531Y-101801098D01*
X108522531Y-101801098D02*
X108570150Y-101705860D01*
X108570150Y-101705860D02*
X108617769Y-101658241D01*
X108617769Y-101658241D02*
X108713007Y-101610622D01*
X108713007Y-101610622D02*
X108951102Y-101610622D01*
X108951102Y-101610622D02*
X109093959Y-101658241D01*
X109379674Y-101610622D02*
X109951102Y-101610622D01*
X109665388Y-102610622D02*
X109665388Y-101610622D01*
X104760626Y-103553899D02*
X104760626Y-104220566D01*
X104522531Y-103172947D02*
X104284436Y-103887232D01*
X104284436Y-103887232D02*
X104903483Y-103887232D01*
X106570150Y-103268185D02*
X106474912Y-103220566D01*
X106474912Y-103220566D02*
X106332055Y-103220566D01*
X106332055Y-103220566D02*
X106189198Y-103268185D01*
X106189198Y-103268185D02*
X106093960Y-103363423D01*
X106093960Y-103363423D02*
X106046341Y-103458661D01*
X106046341Y-103458661D02*
X105998722Y-103649137D01*
X105998722Y-103649137D02*
X105998722Y-103791994D01*
X105998722Y-103791994D02*
X106046341Y-103982470D01*
X106046341Y-103982470D02*
X106093960Y-104077708D01*
X106093960Y-104077708D02*
X106189198Y-104172947D01*
X106189198Y-104172947D02*
X106332055Y-104220566D01*
X106332055Y-104220566D02*
X106427293Y-104220566D01*
X106427293Y-104220566D02*
X106570150Y-104172947D01*
X106570150Y-104172947D02*
X106617769Y-104125327D01*
X106617769Y-104125327D02*
X106617769Y-103791994D01*
X106617769Y-103791994D02*
X106427293Y-103791994D01*
X107046341Y-104220566D02*
X107046341Y-103220566D01*
X107046341Y-103220566D02*
X107617769Y-104220566D01*
X107617769Y-104220566D02*
X107617769Y-103220566D01*
X108093960Y-104220566D02*
X108093960Y-103220566D01*
X108093960Y-103220566D02*
X108332055Y-103220566D01*
X108332055Y-103220566D02*
X108474912Y-103268185D01*
X108474912Y-103268185D02*
X108570150Y-103363423D01*
X108570150Y-103363423D02*
X108617769Y-103458661D01*
X108617769Y-103458661D02*
X108665388Y-103649137D01*
X108665388Y-103649137D02*
X108665388Y-103791994D01*
X108665388Y-103791994D02*
X108617769Y-103982470D01*
X108617769Y-103982470D02*
X108570150Y-104077708D01*
X108570150Y-104077708D02*
X108474912Y-104172947D01*
X108474912Y-104172947D02*
X108332055Y-104220566D01*
X108332055Y-104220566D02*
X108093960Y-104220566D01*
X104808245Y-104830510D02*
X104332055Y-104830510D01*
X104332055Y-104830510D02*
X104284436Y-105306700D01*
X104284436Y-105306700D02*
X104332055Y-105259081D01*
X104332055Y-105259081D02*
X104427293Y-105211462D01*
X104427293Y-105211462D02*
X104665388Y-105211462D01*
X104665388Y-105211462D02*
X104760626Y-105259081D01*
X104760626Y-105259081D02*
X104808245Y-105306700D01*
X104808245Y-105306700D02*
X104855864Y-105401938D01*
X104855864Y-105401938D02*
X104855864Y-105640033D01*
X104855864Y-105640033D02*
X104808245Y-105735271D01*
X104808245Y-105735271D02*
X104760626Y-105782891D01*
X104760626Y-105782891D02*
X104665388Y-105830510D01*
X104665388Y-105830510D02*
X104427293Y-105830510D01*
X104427293Y-105830510D02*
X104332055Y-105782891D01*
X104332055Y-105782891D02*
X104284436Y-105735271D01*
X106046341Y-105830510D02*
X106046341Y-104830510D01*
X106046341Y-104830510D02*
X106379674Y-105544795D01*
X106379674Y-105544795D02*
X106713007Y-104830510D01*
X106713007Y-104830510D02*
X106713007Y-105830510D01*
X107046341Y-104830510D02*
X107617769Y-104830510D01*
X107332055Y-105830510D02*
X107332055Y-104830510D01*
X108522531Y-105830510D02*
X108189198Y-105354319D01*
X107951103Y-105830510D02*
X107951103Y-104830510D01*
X107951103Y-104830510D02*
X108332055Y-104830510D01*
X108332055Y-104830510D02*
X108427293Y-104878129D01*
X108427293Y-104878129D02*
X108474912Y-104925748D01*
X108474912Y-104925748D02*
X108522531Y-105020986D01*
X108522531Y-105020986D02*
X108522531Y-105163843D01*
X108522531Y-105163843D02*
X108474912Y-105259081D01*
X108474912Y-105259081D02*
X108427293Y-105306700D01*
X108427293Y-105306700D02*
X108332055Y-105354319D01*
X108332055Y-105354319D02*
X107951103Y-105354319D01*
X109141579Y-104830510D02*
X109332055Y-104830510D01*
X109332055Y-104830510D02*
X109427293Y-104878129D01*
X109427293Y-104878129D02*
X109522531Y-104973367D01*
X109522531Y-104973367D02*
X109570150Y-105163843D01*
X109570150Y-105163843D02*
X109570150Y-105497176D01*
X109570150Y-105497176D02*
X109522531Y-105687652D01*
X109522531Y-105687652D02*
X109427293Y-105782891D01*
X109427293Y-105782891D02*
X109332055Y-105830510D01*
X109332055Y-105830510D02*
X109141579Y-105830510D01*
X109141579Y-105830510D02*
X109046341Y-105782891D01*
X109046341Y-105782891D02*
X108951103Y-105687652D01*
X108951103Y-105687652D02*
X108903484Y-105497176D01*
X108903484Y-105497176D02*
X108903484Y-105163843D01*
X108903484Y-105163843D02*
X108951103Y-104973367D01*
X108951103Y-104973367D02*
X109046341Y-104878129D01*
X109046341Y-104878129D02*
X109141579Y-104830510D01*
X109998722Y-105830510D02*
X109998722Y-104830510D01*
X109998722Y-104830510D02*
X110570150Y-105830510D01*
X110570150Y-105830510D02*
X110570150Y-104830510D01*
X104760626Y-106440454D02*
X104570150Y-106440454D01*
X104570150Y-106440454D02*
X104474912Y-106488073D01*
X104474912Y-106488073D02*
X104427293Y-106535692D01*
X104427293Y-106535692D02*
X104332055Y-106678549D01*
X104332055Y-106678549D02*
X104284436Y-106869025D01*
X104284436Y-106869025D02*
X104284436Y-107249977D01*
X104284436Y-107249977D02*
X104332055Y-107345215D01*
X104332055Y-107345215D02*
X104379674Y-107392835D01*
X104379674Y-107392835D02*
X104474912Y-107440454D01*
X104474912Y-107440454D02*
X104665388Y-107440454D01*
X104665388Y-107440454D02*
X104760626Y-107392835D01*
X104760626Y-107392835D02*
X104808245Y-107345215D01*
X104808245Y-107345215D02*
X104855864Y-107249977D01*
X104855864Y-107249977D02*
X104855864Y-107011882D01*
X104855864Y-107011882D02*
X104808245Y-106916644D01*
X104808245Y-106916644D02*
X104760626Y-106869025D01*
X104760626Y-106869025D02*
X104665388Y-106821406D01*
X104665388Y-106821406D02*
X104474912Y-106821406D01*
X104474912Y-106821406D02*
X104379674Y-106869025D01*
X104379674Y-106869025D02*
X104332055Y-106916644D01*
X104332055Y-106916644D02*
X104284436Y-107011882D01*
X105998722Y-107392835D02*
X106141579Y-107440454D01*
X106141579Y-107440454D02*
X106379674Y-107440454D01*
X106379674Y-107440454D02*
X106474912Y-107392835D01*
X106474912Y-107392835D02*
X106522531Y-107345215D01*
X106522531Y-107345215D02*
X106570150Y-107249977D01*
X106570150Y-107249977D02*
X106570150Y-107154739D01*
X106570150Y-107154739D02*
X106522531Y-107059501D01*
X106522531Y-107059501D02*
X106474912Y-107011882D01*
X106474912Y-107011882D02*
X106379674Y-106964263D01*
X106379674Y-106964263D02*
X106189198Y-106916644D01*
X106189198Y-106916644D02*
X106093960Y-106869025D01*
X106093960Y-106869025D02*
X106046341Y-106821406D01*
X106046341Y-106821406D02*
X105998722Y-106726168D01*
X105998722Y-106726168D02*
X105998722Y-106630930D01*
X105998722Y-106630930D02*
X106046341Y-106535692D01*
X106046341Y-106535692D02*
X106093960Y-106488073D01*
X106093960Y-106488073D02*
X106189198Y-106440454D01*
X106189198Y-106440454D02*
X106427293Y-106440454D01*
X106427293Y-106440454D02*
X106570150Y-106488073D01*
X106998722Y-106916644D02*
X107332055Y-106916644D01*
X107474912Y-107440454D02*
X106998722Y-107440454D01*
X106998722Y-107440454D02*
X106998722Y-106440454D01*
X106998722Y-106440454D02*
X107474912Y-106440454D01*
X108379674Y-107440454D02*
X107903484Y-107440454D01*
X107903484Y-107440454D02*
X107903484Y-106440454D01*
X104236817Y-108050398D02*
X104903483Y-108050398D01*
X104903483Y-108050398D02*
X104474912Y-109050398D01*
X106046341Y-109050398D02*
X106046341Y-108050398D01*
X106046341Y-108050398D02*
X106284436Y-108050398D01*
X106284436Y-108050398D02*
X106427293Y-108098017D01*
X106427293Y-108098017D02*
X106522531Y-108193255D01*
X106522531Y-108193255D02*
X106570150Y-108288493D01*
X106570150Y-108288493D02*
X106617769Y-108478969D01*
X106617769Y-108478969D02*
X106617769Y-108621826D01*
X106617769Y-108621826D02*
X106570150Y-108812302D01*
X106570150Y-108812302D02*
X106522531Y-108907540D01*
X106522531Y-108907540D02*
X106427293Y-109002779D01*
X106427293Y-109002779D02*
X106284436Y-109050398D01*
X106284436Y-109050398D02*
X106046341Y-109050398D01*
X107617769Y-109050398D02*
X107284436Y-108574207D01*
X107046341Y-109050398D02*
X107046341Y-108050398D01*
X107046341Y-108050398D02*
X107427293Y-108050398D01*
X107427293Y-108050398D02*
X107522531Y-108098017D01*
X107522531Y-108098017D02*
X107570150Y-108145636D01*
X107570150Y-108145636D02*
X107617769Y-108240874D01*
X107617769Y-108240874D02*
X107617769Y-108383731D01*
X107617769Y-108383731D02*
X107570150Y-108478969D01*
X107570150Y-108478969D02*
X107522531Y-108526588D01*
X107522531Y-108526588D02*
X107427293Y-108574207D01*
X107427293Y-108574207D02*
X107046341Y-108574207D01*
X107903484Y-108050398D02*
X108236817Y-109050398D01*
X108236817Y-109050398D02*
X108570150Y-108050398D01*
X108855865Y-109002779D02*
X108998722Y-109050398D01*
X108998722Y-109050398D02*
X109236817Y-109050398D01*
X109236817Y-109050398D02*
X109332055Y-109002779D01*
X109332055Y-109002779D02*
X109379674Y-108955159D01*
X109379674Y-108955159D02*
X109427293Y-108859921D01*
X109427293Y-108859921D02*
X109427293Y-108764683D01*
X109427293Y-108764683D02*
X109379674Y-108669445D01*
X109379674Y-108669445D02*
X109332055Y-108621826D01*
X109332055Y-108621826D02*
X109236817Y-108574207D01*
X109236817Y-108574207D02*
X109046341Y-108526588D01*
X109046341Y-108526588D02*
X108951103Y-108478969D01*
X108951103Y-108478969D02*
X108903484Y-108431350D01*
X108903484Y-108431350D02*
X108855865Y-108336112D01*
X108855865Y-108336112D02*
X108855865Y-108240874D01*
X108855865Y-108240874D02*
X108903484Y-108145636D01*
X108903484Y-108145636D02*
X108951103Y-108098017D01*
X108951103Y-108098017D02*
X109046341Y-108050398D01*
X109046341Y-108050398D02*
X109284436Y-108050398D01*
X109284436Y-108050398D02*
X109427293Y-108098017D01*
X109855865Y-108526588D02*
X110189198Y-108526588D01*
X110332055Y-109050398D02*
X109855865Y-109050398D01*
X109855865Y-109050398D02*
X109855865Y-108050398D01*
X109855865Y-108050398D02*
X110332055Y-108050398D01*
X111236817Y-109050398D02*
X110760627Y-109050398D01*
X110760627Y-109050398D02*
X110760627Y-108050398D01*
X103278171Y-95988371D02*
X112420400Y-95988371D01*
X112420400Y-109599229D01*
X103278171Y-109599229D01*
X103278171Y-95988371D01*
X142114763Y-104246619D02*
X142114763Y-105056142D01*
X142114763Y-105056142D02*
X142143334Y-105151380D01*
X142143334Y-105151380D02*
X142171906Y-105199000D01*
X142171906Y-105199000D02*
X142229048Y-105246619D01*
X142229048Y-105246619D02*
X142343334Y-105246619D01*
X142343334Y-105246619D02*
X142400477Y-105199000D01*
X142400477Y-105199000D02*
X142429048Y-105151380D01*
X142429048Y-105151380D02*
X142457620Y-105056142D01*
X142457620Y-105056142D02*
X142457620Y-104246619D01*
X142743334Y-105246619D02*
X142743334Y-104246619D01*
X142743334Y-104246619D02*
X142971905Y-104246619D01*
X142971905Y-104246619D02*
X143029048Y-104294238D01*
X143029048Y-104294238D02*
X143057619Y-104341857D01*
X143057619Y-104341857D02*
X143086191Y-104437095D01*
X143086191Y-104437095D02*
X143086191Y-104579952D01*
X143086191Y-104579952D02*
X143057619Y-104675190D01*
X143057619Y-104675190D02*
X143029048Y-104722809D01*
X143029048Y-104722809D02*
X142971905Y-104770428D01*
X142971905Y-104770428D02*
X142743334Y-104770428D01*
X143343334Y-105246619D02*
X143343334Y-104246619D01*
X143343334Y-104246619D02*
X143571905Y-104246619D01*
X143571905Y-104246619D02*
X143629048Y-104294238D01*
X143629048Y-104294238D02*
X143657619Y-104341857D01*
X143657619Y-104341857D02*
X143686191Y-104437095D01*
X143686191Y-104437095D02*
X143686191Y-104579952D01*
X143686191Y-104579952D02*
X143657619Y-104675190D01*
X143657619Y-104675190D02*
X143629048Y-104722809D01*
X143629048Y-104722809D02*
X143571905Y-104770428D01*
X143571905Y-104770428D02*
X143343334Y-104770428D01*
X143943334Y-104722809D02*
X144143334Y-104722809D01*
X144229048Y-105246619D02*
X143943334Y-105246619D01*
X143943334Y-105246619D02*
X143943334Y-104246619D01*
X143943334Y-104246619D02*
X144229048Y-104246619D01*
X144829048Y-105246619D02*
X144629048Y-104770428D01*
X144486191Y-105246619D02*
X144486191Y-104246619D01*
X144486191Y-104246619D02*
X144714762Y-104246619D01*
X144714762Y-104246619D02*
X144771905Y-104294238D01*
X144771905Y-104294238D02*
X144800476Y-104341857D01*
X144800476Y-104341857D02*
X144829048Y-104437095D01*
X144829048Y-104437095D02*
X144829048Y-104579952D01*
X144829048Y-104579952D02*
X144800476Y-104675190D01*
X144800476Y-104675190D02*
X144771905Y-104722809D01*
X144771905Y-104722809D02*
X144714762Y-104770428D01*
X144714762Y-104770428D02*
X144486191Y-104770428D01*
X146743334Y-105246619D02*
X146457620Y-105246619D01*
X146457620Y-105246619D02*
X146457620Y-104246619D01*
X147057619Y-104246619D02*
X147171905Y-104246619D01*
X147171905Y-104246619D02*
X147229048Y-104294238D01*
X147229048Y-104294238D02*
X147286191Y-104389476D01*
X147286191Y-104389476D02*
X147314762Y-104579952D01*
X147314762Y-104579952D02*
X147314762Y-104913285D01*
X147314762Y-104913285D02*
X147286191Y-105103761D01*
X147286191Y-105103761D02*
X147229048Y-105199000D01*
X147229048Y-105199000D02*
X147171905Y-105246619D01*
X147171905Y-105246619D02*
X147057619Y-105246619D01*
X147057619Y-105246619D02*
X147000477Y-105199000D01*
X147000477Y-105199000D02*
X146943334Y-105103761D01*
X146943334Y-105103761D02*
X146914762Y-104913285D01*
X146914762Y-104913285D02*
X146914762Y-104579952D01*
X146914762Y-104579952D02*
X146943334Y-104389476D01*
X146943334Y-104389476D02*
X147000477Y-104294238D01*
X147000477Y-104294238D02*
X147057619Y-104246619D01*
X147514762Y-104246619D02*
X147657619Y-105246619D01*
X147657619Y-105246619D02*
X147771905Y-104532333D01*
X147771905Y-104532333D02*
X147886190Y-105246619D01*
X147886190Y-105246619D02*
X148029048Y-104246619D01*
X148257619Y-104722809D02*
X148457619Y-104722809D01*
X148543333Y-105246619D02*
X148257619Y-105246619D01*
X148257619Y-105246619D02*
X148257619Y-104246619D01*
X148257619Y-104246619D02*
X148543333Y-104246619D01*
X149143333Y-105246619D02*
X148943333Y-104770428D01*
X148800476Y-105246619D02*
X148800476Y-104246619D01*
X148800476Y-104246619D02*
X149029047Y-104246619D01*
X149029047Y-104246619D02*
X149086190Y-104294238D01*
X149086190Y-104294238D02*
X149114761Y-104341857D01*
X149114761Y-104341857D02*
X149143333Y-104437095D01*
X149143333Y-104437095D02*
X149143333Y-104579952D01*
X149143333Y-104579952D02*
X149114761Y-104675190D01*
X149114761Y-104675190D02*
X149086190Y-104722809D01*
X149086190Y-104722809D02*
X149029047Y-104770428D01*
X149029047Y-104770428D02*
X148800476Y-104770428D01*
X142200473Y-105856563D02*
X142200473Y-106570848D01*
X142200473Y-106570848D02*
X142171902Y-106713705D01*
X142171902Y-106713705D02*
X142114759Y-106808944D01*
X142114759Y-106808944D02*
X142029045Y-106856563D01*
X142029045Y-106856563D02*
X141971902Y-106856563D01*
X142486188Y-106856563D02*
X142486188Y-105856563D01*
X142829045Y-106856563D02*
X142571902Y-106285134D01*
X142829045Y-105856563D02*
X142486188Y-106427991D01*
X143057616Y-106570848D02*
X143343331Y-106570848D01*
X143000473Y-106856563D02*
X143200473Y-105856563D01*
X143200473Y-105856563D02*
X143400473Y-106856563D01*
X143914759Y-106856563D02*
X143571902Y-106856563D01*
X143743331Y-106856563D02*
X143743331Y-105856563D01*
X143743331Y-105856563D02*
X143686188Y-105999420D01*
X143686188Y-105999420D02*
X143629045Y-106094658D01*
X143629045Y-106094658D02*
X143571902Y-106142277D01*
X144171903Y-106475610D02*
X144629046Y-106475610D01*
X145229045Y-106856563D02*
X144886188Y-106856563D01*
X145057617Y-106856563D02*
X145057617Y-105856563D01*
X145057617Y-105856563D02*
X145000474Y-105999420D01*
X145000474Y-105999420D02*
X144943331Y-106094658D01*
X144943331Y-106094658D02*
X144886188Y-106142277D01*
X146114760Y-105856563D02*
X146114760Y-106570848D01*
X146114760Y-106570848D02*
X146086189Y-106713705D01*
X146086189Y-106713705D02*
X146029046Y-106808944D01*
X146029046Y-106808944D02*
X145943332Y-106856563D01*
X145943332Y-106856563D02*
X145886189Y-106856563D01*
X146400475Y-106856563D02*
X146400475Y-105856563D01*
X146743332Y-106856563D02*
X146486189Y-106285134D01*
X146743332Y-105856563D02*
X146400475Y-106427991D01*
X146971903Y-106570848D02*
X147257618Y-106570848D01*
X146914760Y-106856563D02*
X147114760Y-105856563D01*
X147114760Y-105856563D02*
X147314760Y-106856563D01*
X147829046Y-106856563D02*
X147486189Y-106856563D01*
X147657618Y-106856563D02*
X147657618Y-105856563D01*
X147657618Y-105856563D02*
X147600475Y-105999420D01*
X147600475Y-105999420D02*
X147543332Y-106094658D01*
X147543332Y-106094658D02*
X147486189Y-106142277D01*
X148086190Y-106475610D02*
X148543333Y-106475610D01*
X148800475Y-105951801D02*
X148829047Y-105904182D01*
X148829047Y-105904182D02*
X148886190Y-105856563D01*
X148886190Y-105856563D02*
X149029047Y-105856563D01*
X149029047Y-105856563D02*
X149086190Y-105904182D01*
X149086190Y-105904182D02*
X149114761Y-105951801D01*
X149114761Y-105951801D02*
X149143332Y-106047039D01*
X149143332Y-106047039D02*
X149143332Y-106142277D01*
X149143332Y-106142277D02*
X149114761Y-106285134D01*
X149114761Y-106285134D02*
X148771904Y-106856563D01*
X148771904Y-106856563D02*
X149143332Y-106856563D01*
X141800475Y-108466507D02*
X141800475Y-107466507D01*
X142057617Y-107561745D02*
X142086189Y-107514126D01*
X142086189Y-107514126D02*
X142143332Y-107466507D01*
X142143332Y-107466507D02*
X142286189Y-107466507D01*
X142286189Y-107466507D02*
X142343332Y-107514126D01*
X142343332Y-107514126D02*
X142371903Y-107561745D01*
X142371903Y-107561745D02*
X142400474Y-107656983D01*
X142400474Y-107656983D02*
X142400474Y-107752221D01*
X142400474Y-107752221D02*
X142371903Y-107895078D01*
X142371903Y-107895078D02*
X142029046Y-108466507D01*
X142029046Y-108466507D02*
X142400474Y-108466507D01*
X143000475Y-108371268D02*
X142971903Y-108418888D01*
X142971903Y-108418888D02*
X142886189Y-108466507D01*
X142886189Y-108466507D02*
X142829046Y-108466507D01*
X142829046Y-108466507D02*
X142743332Y-108418888D01*
X142743332Y-108418888D02*
X142686189Y-108323649D01*
X142686189Y-108323649D02*
X142657618Y-108228411D01*
X142657618Y-108228411D02*
X142629046Y-108037935D01*
X142629046Y-108037935D02*
X142629046Y-107895078D01*
X142629046Y-107895078D02*
X142657618Y-107704602D01*
X142657618Y-107704602D02*
X142686189Y-107609364D01*
X142686189Y-107609364D02*
X142743332Y-107514126D01*
X142743332Y-107514126D02*
X142829046Y-107466507D01*
X142829046Y-107466507D02*
X142886189Y-107466507D01*
X142886189Y-107466507D02*
X142971903Y-107514126D01*
X142971903Y-107514126D02*
X143000475Y-107561745D01*
X143600475Y-108371268D02*
X143571903Y-108418888D01*
X143571903Y-108418888D02*
X143486189Y-108466507D01*
X143486189Y-108466507D02*
X143429046Y-108466507D01*
X143429046Y-108466507D02*
X143343332Y-108418888D01*
X143343332Y-108418888D02*
X143286189Y-108323649D01*
X143286189Y-108323649D02*
X143257618Y-108228411D01*
X143257618Y-108228411D02*
X143229046Y-108037935D01*
X143229046Y-108037935D02*
X143229046Y-107895078D01*
X143229046Y-107895078D02*
X143257618Y-107704602D01*
X143257618Y-107704602D02*
X143286189Y-107609364D01*
X143286189Y-107609364D02*
X143343332Y-107514126D01*
X143343332Y-107514126D02*
X143429046Y-107466507D01*
X143429046Y-107466507D02*
X143486189Y-107466507D01*
X143486189Y-107466507D02*
X143571903Y-107514126D01*
X143571903Y-107514126D02*
X143600475Y-107561745D01*
X144143332Y-108466507D02*
X143857618Y-108466507D01*
X143857618Y-108466507D02*
X143857618Y-107466507D01*
X144343332Y-108466507D02*
X144343332Y-107466507D01*
X144686189Y-108466507D02*
X144429046Y-107895078D01*
X144686189Y-107466507D02*
X144343332Y-108037935D01*
X145857618Y-108466507D02*
X145857618Y-107466507D01*
X146114760Y-107561745D02*
X146143332Y-107514126D01*
X146143332Y-107514126D02*
X146200475Y-107466507D01*
X146200475Y-107466507D02*
X146343332Y-107466507D01*
X146343332Y-107466507D02*
X146400475Y-107514126D01*
X146400475Y-107514126D02*
X146429046Y-107561745D01*
X146429046Y-107561745D02*
X146457617Y-107656983D01*
X146457617Y-107656983D02*
X146457617Y-107752221D01*
X146457617Y-107752221D02*
X146429046Y-107895078D01*
X146429046Y-107895078D02*
X146086189Y-108466507D01*
X146086189Y-108466507D02*
X146457617Y-108466507D01*
X147057618Y-108371268D02*
X147029046Y-108418888D01*
X147029046Y-108418888D02*
X146943332Y-108466507D01*
X146943332Y-108466507D02*
X146886189Y-108466507D01*
X146886189Y-108466507D02*
X146800475Y-108418888D01*
X146800475Y-108418888D02*
X146743332Y-108323649D01*
X146743332Y-108323649D02*
X146714761Y-108228411D01*
X146714761Y-108228411D02*
X146686189Y-108037935D01*
X146686189Y-108037935D02*
X146686189Y-107895078D01*
X146686189Y-107895078D02*
X146714761Y-107704602D01*
X146714761Y-107704602D02*
X146743332Y-107609364D01*
X146743332Y-107609364D02*
X146800475Y-107514126D01*
X146800475Y-107514126D02*
X146886189Y-107466507D01*
X146886189Y-107466507D02*
X146943332Y-107466507D01*
X146943332Y-107466507D02*
X147029046Y-107514126D01*
X147029046Y-107514126D02*
X147057618Y-107561745D01*
X147314761Y-108466507D02*
X147314761Y-107466507D01*
X147314761Y-107466507D02*
X147457618Y-107466507D01*
X147457618Y-107466507D02*
X147543332Y-107514126D01*
X147543332Y-107514126D02*
X147600475Y-107609364D01*
X147600475Y-107609364D02*
X147629046Y-107704602D01*
X147629046Y-107704602D02*
X147657618Y-107895078D01*
X147657618Y-107895078D02*
X147657618Y-108037935D01*
X147657618Y-108037935D02*
X147629046Y-108228411D01*
X147629046Y-108228411D02*
X147600475Y-108323649D01*
X147600475Y-108323649D02*
X147543332Y-108418888D01*
X147543332Y-108418888D02*
X147457618Y-108466507D01*
X147457618Y-108466507D02*
X147314761Y-108466507D01*
X147886189Y-108180792D02*
X148171904Y-108180792D01*
X147829046Y-108466507D02*
X148029046Y-107466507D01*
X148029046Y-107466507D02*
X148229046Y-108466507D01*
X148343332Y-107466507D02*
X148686190Y-107466507D01*
X148514761Y-108466507D02*
X148514761Y-107466507D01*
X148857618Y-108180792D02*
X149143333Y-108180792D01*
X148800475Y-108466507D02*
X149000475Y-107466507D01*
X149000475Y-107466507D02*
X149200475Y-108466507D01*
X143029045Y-109124070D02*
X142971903Y-109076451D01*
X142971903Y-109076451D02*
X142886188Y-109076451D01*
X142886188Y-109076451D02*
X142800474Y-109124070D01*
X142800474Y-109124070D02*
X142743331Y-109219308D01*
X142743331Y-109219308D02*
X142714760Y-109314546D01*
X142714760Y-109314546D02*
X142686188Y-109505022D01*
X142686188Y-109505022D02*
X142686188Y-109647879D01*
X142686188Y-109647879D02*
X142714760Y-109838355D01*
X142714760Y-109838355D02*
X142743331Y-109933593D01*
X142743331Y-109933593D02*
X142800474Y-110028832D01*
X142800474Y-110028832D02*
X142886188Y-110076451D01*
X142886188Y-110076451D02*
X142943331Y-110076451D01*
X142943331Y-110076451D02*
X143029045Y-110028832D01*
X143029045Y-110028832D02*
X143057617Y-109981212D01*
X143057617Y-109981212D02*
X143057617Y-109647879D01*
X143057617Y-109647879D02*
X142943331Y-109647879D01*
X143314760Y-110076451D02*
X143314760Y-109076451D01*
X143314760Y-109076451D02*
X143657617Y-110076451D01*
X143657617Y-110076451D02*
X143657617Y-109076451D01*
X143943331Y-110076451D02*
X143943331Y-109076451D01*
X143943331Y-109076451D02*
X144086188Y-109076451D01*
X144086188Y-109076451D02*
X144171902Y-109124070D01*
X144171902Y-109124070D02*
X144229045Y-109219308D01*
X144229045Y-109219308D02*
X144257616Y-109314546D01*
X144257616Y-109314546D02*
X144286188Y-109505022D01*
X144286188Y-109505022D02*
X144286188Y-109647879D01*
X144286188Y-109647879D02*
X144257616Y-109838355D01*
X144257616Y-109838355D02*
X144229045Y-109933593D01*
X144229045Y-109933593D02*
X144171902Y-110028832D01*
X144171902Y-110028832D02*
X144086188Y-110076451D01*
X144086188Y-110076451D02*
X143943331Y-110076451D01*
X147686189Y-109076451D02*
X148057617Y-109076451D01*
X148057617Y-109076451D02*
X147857617Y-109457403D01*
X147857617Y-109457403D02*
X147943332Y-109457403D01*
X147943332Y-109457403D02*
X148000475Y-109505022D01*
X148000475Y-109505022D02*
X148029046Y-109552641D01*
X148029046Y-109552641D02*
X148057617Y-109647879D01*
X148057617Y-109647879D02*
X148057617Y-109885974D01*
X148057617Y-109885974D02*
X148029046Y-109981212D01*
X148029046Y-109981212D02*
X148000475Y-110028832D01*
X148000475Y-110028832D02*
X147943332Y-110076451D01*
X147943332Y-110076451D02*
X147771903Y-110076451D01*
X147771903Y-110076451D02*
X147714760Y-110028832D01*
X147714760Y-110028832D02*
X147686189Y-109981212D01*
X148229046Y-109076451D02*
X148429046Y-110076451D01*
X148429046Y-110076451D02*
X148629046Y-109076451D01*
X148771904Y-109076451D02*
X149143332Y-109076451D01*
X149143332Y-109076451D02*
X148943332Y-109457403D01*
X148943332Y-109457403D02*
X149029047Y-109457403D01*
X149029047Y-109457403D02*
X149086190Y-109505022D01*
X149086190Y-109505022D02*
X149114761Y-109552641D01*
X149114761Y-109552641D02*
X149143332Y-109647879D01*
X149143332Y-109647879D02*
X149143332Y-109885974D01*
X149143332Y-109885974D02*
X149114761Y-109981212D01*
X149114761Y-109981212D02*
X149086190Y-110028832D01*
X149086190Y-110028832D02*
X149029047Y-110076451D01*
X149029047Y-110076451D02*
X148857618Y-110076451D01*
X148857618Y-110076451D02*
X148800475Y-110028832D01*
X148800475Y-110028832D02*
X148771904Y-109981212D01*
X140858192Y-103454200D02*
X150073408Y-103454200D01*
X150073408Y-110586616D01*
X140858192Y-110586616D01*
X140858192Y-103454200D01*
X165315684Y-57053419D02*
X165315684Y-57862942D01*
X165315684Y-57862942D02*
X165363303Y-57958180D01*
X165363303Y-57958180D02*
X165410922Y-58005800D01*
X165410922Y-58005800D02*
X165506160Y-58053419D01*
X165506160Y-58053419D02*
X165696636Y-58053419D01*
X165696636Y-58053419D02*
X165791874Y-58005800D01*
X165791874Y-58005800D02*
X165839493Y-57958180D01*
X165839493Y-57958180D02*
X165887112Y-57862942D01*
X165887112Y-57862942D02*
X165887112Y-57053419D01*
X166363303Y-58053419D02*
X166363303Y-57053419D01*
X166363303Y-57053419D02*
X166744255Y-57053419D01*
X166744255Y-57053419D02*
X166839493Y-57101038D01*
X166839493Y-57101038D02*
X166887112Y-57148657D01*
X166887112Y-57148657D02*
X166934731Y-57243895D01*
X166934731Y-57243895D02*
X166934731Y-57386752D01*
X166934731Y-57386752D02*
X166887112Y-57481990D01*
X166887112Y-57481990D02*
X166839493Y-57529609D01*
X166839493Y-57529609D02*
X166744255Y-57577228D01*
X166744255Y-57577228D02*
X166363303Y-57577228D01*
X167363303Y-58053419D02*
X167363303Y-57053419D01*
X167363303Y-57053419D02*
X167744255Y-57053419D01*
X167744255Y-57053419D02*
X167839493Y-57101038D01*
X167839493Y-57101038D02*
X167887112Y-57148657D01*
X167887112Y-57148657D02*
X167934731Y-57243895D01*
X167934731Y-57243895D02*
X167934731Y-57386752D01*
X167934731Y-57386752D02*
X167887112Y-57481990D01*
X167887112Y-57481990D02*
X167839493Y-57529609D01*
X167839493Y-57529609D02*
X167744255Y-57577228D01*
X167744255Y-57577228D02*
X167363303Y-57577228D01*
X168363303Y-57529609D02*
X168696636Y-57529609D01*
X168839493Y-58053419D02*
X168363303Y-58053419D01*
X168363303Y-58053419D02*
X168363303Y-57053419D01*
X168363303Y-57053419D02*
X168839493Y-57053419D01*
X169839493Y-58053419D02*
X169506160Y-57577228D01*
X169268065Y-58053419D02*
X169268065Y-57053419D01*
X169268065Y-57053419D02*
X169649017Y-57053419D01*
X169649017Y-57053419D02*
X169744255Y-57101038D01*
X169744255Y-57101038D02*
X169791874Y-57148657D01*
X169791874Y-57148657D02*
X169839493Y-57243895D01*
X169839493Y-57243895D02*
X169839493Y-57386752D01*
X169839493Y-57386752D02*
X169791874Y-57481990D01*
X169791874Y-57481990D02*
X169744255Y-57529609D01*
X169744255Y-57529609D02*
X169649017Y-57577228D01*
X169649017Y-57577228D02*
X169268065Y-57577228D01*
X172268065Y-58053419D02*
X171791875Y-58053419D01*
X171791875Y-58053419D02*
X171791875Y-57053419D01*
X172791875Y-57053419D02*
X172982351Y-57053419D01*
X172982351Y-57053419D02*
X173077589Y-57101038D01*
X173077589Y-57101038D02*
X173172827Y-57196276D01*
X173172827Y-57196276D02*
X173220446Y-57386752D01*
X173220446Y-57386752D02*
X173220446Y-57720085D01*
X173220446Y-57720085D02*
X173172827Y-57910561D01*
X173172827Y-57910561D02*
X173077589Y-58005800D01*
X173077589Y-58005800D02*
X172982351Y-58053419D01*
X172982351Y-58053419D02*
X172791875Y-58053419D01*
X172791875Y-58053419D02*
X172696637Y-58005800D01*
X172696637Y-58005800D02*
X172601399Y-57910561D01*
X172601399Y-57910561D02*
X172553780Y-57720085D01*
X172553780Y-57720085D02*
X172553780Y-57386752D01*
X172553780Y-57386752D02*
X172601399Y-57196276D01*
X172601399Y-57196276D02*
X172696637Y-57101038D01*
X172696637Y-57101038D02*
X172791875Y-57053419D01*
X173553780Y-57053419D02*
X173791875Y-58053419D01*
X173791875Y-58053419D02*
X173982351Y-57339133D01*
X173982351Y-57339133D02*
X174172827Y-58053419D01*
X174172827Y-58053419D02*
X174410923Y-57053419D01*
X174791875Y-57529609D02*
X175125208Y-57529609D01*
X175268065Y-58053419D02*
X174791875Y-58053419D01*
X174791875Y-58053419D02*
X174791875Y-57053419D01*
X174791875Y-57053419D02*
X175268065Y-57053419D01*
X176268065Y-58053419D02*
X175934732Y-57577228D01*
X175696637Y-58053419D02*
X175696637Y-57053419D01*
X175696637Y-57053419D02*
X176077589Y-57053419D01*
X176077589Y-57053419D02*
X176172827Y-57101038D01*
X176172827Y-57101038D02*
X176220446Y-57148657D01*
X176220446Y-57148657D02*
X176268065Y-57243895D01*
X176268065Y-57243895D02*
X176268065Y-57386752D01*
X176268065Y-57386752D02*
X176220446Y-57481990D01*
X176220446Y-57481990D02*
X176172827Y-57529609D01*
X176172827Y-57529609D02*
X176077589Y-57577228D01*
X176077589Y-57577228D02*
X175696637Y-57577228D01*
X165268065Y-59615744D02*
X165410922Y-59663363D01*
X165410922Y-59663363D02*
X165649017Y-59663363D01*
X165649017Y-59663363D02*
X165744255Y-59615744D01*
X165744255Y-59615744D02*
X165791874Y-59568124D01*
X165791874Y-59568124D02*
X165839493Y-59472886D01*
X165839493Y-59472886D02*
X165839493Y-59377648D01*
X165839493Y-59377648D02*
X165791874Y-59282410D01*
X165791874Y-59282410D02*
X165744255Y-59234791D01*
X165744255Y-59234791D02*
X165649017Y-59187172D01*
X165649017Y-59187172D02*
X165458541Y-59139553D01*
X165458541Y-59139553D02*
X165363303Y-59091934D01*
X165363303Y-59091934D02*
X165315684Y-59044315D01*
X165315684Y-59044315D02*
X165268065Y-58949077D01*
X165268065Y-58949077D02*
X165268065Y-58853839D01*
X165268065Y-58853839D02*
X165315684Y-58758601D01*
X165315684Y-58758601D02*
X165363303Y-58710982D01*
X165363303Y-58710982D02*
X165458541Y-58663363D01*
X165458541Y-58663363D02*
X165696636Y-58663363D01*
X165696636Y-58663363D02*
X165839493Y-58710982D01*
X166172827Y-58663363D02*
X166410922Y-59663363D01*
X166410922Y-59663363D02*
X166601398Y-58949077D01*
X166601398Y-58949077D02*
X166791874Y-59663363D01*
X166791874Y-59663363D02*
X167029970Y-58663363D01*
X167410922Y-59663363D02*
X167410922Y-58663363D01*
X167744255Y-58663363D02*
X168315683Y-58663363D01*
X168029969Y-59663363D02*
X168029969Y-58663363D01*
X169220445Y-59568124D02*
X169172826Y-59615744D01*
X169172826Y-59615744D02*
X169029969Y-59663363D01*
X169029969Y-59663363D02*
X168934731Y-59663363D01*
X168934731Y-59663363D02*
X168791874Y-59615744D01*
X168791874Y-59615744D02*
X168696636Y-59520505D01*
X168696636Y-59520505D02*
X168649017Y-59425267D01*
X168649017Y-59425267D02*
X168601398Y-59234791D01*
X168601398Y-59234791D02*
X168601398Y-59091934D01*
X168601398Y-59091934D02*
X168649017Y-58901458D01*
X168649017Y-58901458D02*
X168696636Y-58806220D01*
X168696636Y-58806220D02*
X168791874Y-58710982D01*
X168791874Y-58710982D02*
X168934731Y-58663363D01*
X168934731Y-58663363D02*
X169029969Y-58663363D01*
X169029969Y-58663363D02*
X169172826Y-58710982D01*
X169172826Y-58710982D02*
X169220445Y-58758601D01*
X169649017Y-59663363D02*
X169649017Y-58663363D01*
X169649017Y-59139553D02*
X170220445Y-59139553D01*
X170220445Y-59663363D02*
X170220445Y-58663363D01*
X171458541Y-58663363D02*
X171458541Y-59472886D01*
X171458541Y-59472886D02*
X171506160Y-59568124D01*
X171506160Y-59568124D02*
X171553779Y-59615744D01*
X171553779Y-59615744D02*
X171649017Y-59663363D01*
X171649017Y-59663363D02*
X171839493Y-59663363D01*
X171839493Y-59663363D02*
X171934731Y-59615744D01*
X171934731Y-59615744D02*
X171982350Y-59568124D01*
X171982350Y-59568124D02*
X172029969Y-59472886D01*
X172029969Y-59472886D02*
X172029969Y-58663363D01*
X172410922Y-58663363D02*
X173029969Y-58663363D01*
X173029969Y-58663363D02*
X172696636Y-59044315D01*
X172696636Y-59044315D02*
X172839493Y-59044315D01*
X172839493Y-59044315D02*
X172934731Y-59091934D01*
X172934731Y-59091934D02*
X172982350Y-59139553D01*
X172982350Y-59139553D02*
X173029969Y-59234791D01*
X173029969Y-59234791D02*
X173029969Y-59472886D01*
X173029969Y-59472886D02*
X172982350Y-59568124D01*
X172982350Y-59568124D02*
X172934731Y-59615744D01*
X172934731Y-59615744D02*
X172839493Y-59663363D01*
X172839493Y-59663363D02*
X172553779Y-59663363D01*
X172553779Y-59663363D02*
X172458541Y-59615744D01*
X172458541Y-59615744D02*
X172410922Y-59568124D01*
X173458541Y-59282410D02*
X174220446Y-59282410D01*
X175125207Y-58996696D02*
X175125207Y-59663363D01*
X174887112Y-58615744D02*
X174649017Y-59330029D01*
X174649017Y-59330029D02*
X175268064Y-59330029D01*
X175839493Y-58663363D02*
X175934731Y-58663363D01*
X175934731Y-58663363D02*
X176029969Y-58710982D01*
X176029969Y-58710982D02*
X176077588Y-58758601D01*
X176077588Y-58758601D02*
X176125207Y-58853839D01*
X176125207Y-58853839D02*
X176172826Y-59044315D01*
X176172826Y-59044315D02*
X176172826Y-59282410D01*
X176172826Y-59282410D02*
X176125207Y-59472886D01*
X176125207Y-59472886D02*
X176077588Y-59568124D01*
X176077588Y-59568124D02*
X176029969Y-59615744D01*
X176029969Y-59615744D02*
X175934731Y-59663363D01*
X175934731Y-59663363D02*
X175839493Y-59663363D01*
X175839493Y-59663363D02*
X175744255Y-59615744D01*
X175744255Y-59615744D02*
X175696636Y-59568124D01*
X175696636Y-59568124D02*
X175649017Y-59472886D01*
X175649017Y-59472886D02*
X175601398Y-59282410D01*
X175601398Y-59282410D02*
X175601398Y-59044315D01*
X175601398Y-59044315D02*
X175649017Y-58853839D01*
X175649017Y-58853839D02*
X175696636Y-58758601D01*
X175696636Y-58758601D02*
X175744255Y-58710982D01*
X175744255Y-58710982D02*
X175839493Y-58663363D01*
X176601398Y-59282410D02*
X177363303Y-59282410D01*
X177839493Y-59663363D02*
X177839493Y-58663363D01*
X177839493Y-58663363D02*
X178220445Y-58663363D01*
X178220445Y-58663363D02*
X178315683Y-58710982D01*
X178315683Y-58710982D02*
X178363302Y-58758601D01*
X178363302Y-58758601D02*
X178410921Y-58853839D01*
X178410921Y-58853839D02*
X178410921Y-58996696D01*
X178410921Y-58996696D02*
X178363302Y-59091934D01*
X178363302Y-59091934D02*
X178315683Y-59139553D01*
X178315683Y-59139553D02*
X178220445Y-59187172D01*
X178220445Y-59187172D02*
X177839493Y-59187172D01*
X179410921Y-59568124D02*
X179363302Y-59615744D01*
X179363302Y-59615744D02*
X179220445Y-59663363D01*
X179220445Y-59663363D02*
X179125207Y-59663363D01*
X179125207Y-59663363D02*
X178982350Y-59615744D01*
X178982350Y-59615744D02*
X178887112Y-59520505D01*
X178887112Y-59520505D02*
X178839493Y-59425267D01*
X178839493Y-59425267D02*
X178791874Y-59234791D01*
X178791874Y-59234791D02*
X178791874Y-59091934D01*
X178791874Y-59091934D02*
X178839493Y-58901458D01*
X178839493Y-58901458D02*
X178887112Y-58806220D01*
X178887112Y-58806220D02*
X178982350Y-58710982D01*
X178982350Y-58710982D02*
X179125207Y-58663363D01*
X179125207Y-58663363D02*
X179220445Y-58663363D01*
X179220445Y-58663363D02*
X179363302Y-58710982D01*
X179363302Y-58710982D02*
X179410921Y-58758601D01*
X179887112Y-59663363D02*
X180077588Y-59663363D01*
X180077588Y-59663363D02*
X180172826Y-59615744D01*
X180172826Y-59615744D02*
X180220445Y-59568124D01*
X180220445Y-59568124D02*
X180315683Y-59425267D01*
X180315683Y-59425267D02*
X180363302Y-59234791D01*
X180363302Y-59234791D02*
X180363302Y-58853839D01*
X180363302Y-58853839D02*
X180315683Y-58758601D01*
X180315683Y-58758601D02*
X180268064Y-58710982D01*
X180268064Y-58710982D02*
X180172826Y-58663363D01*
X180172826Y-58663363D02*
X179982350Y-58663363D01*
X179982350Y-58663363D02*
X179887112Y-58710982D01*
X179887112Y-58710982D02*
X179839493Y-58758601D01*
X179839493Y-58758601D02*
X179791874Y-58853839D01*
X179791874Y-58853839D02*
X179791874Y-59091934D01*
X179791874Y-59091934D02*
X179839493Y-59187172D01*
X179839493Y-59187172D02*
X179887112Y-59234791D01*
X179887112Y-59234791D02*
X179982350Y-59282410D01*
X179982350Y-59282410D02*
X180172826Y-59282410D01*
X180172826Y-59282410D02*
X180268064Y-59234791D01*
X180268064Y-59234791D02*
X180315683Y-59187172D01*
X180315683Y-59187172D02*
X180363302Y-59091934D01*
X165315684Y-60749497D02*
X165649017Y-60749497D01*
X165791874Y-61273307D02*
X165315684Y-61273307D01*
X165315684Y-61273307D02*
X165315684Y-60273307D01*
X165315684Y-60273307D02*
X165791874Y-60273307D01*
X166220446Y-61273307D02*
X166220446Y-60273307D01*
X166220446Y-60273307D02*
X166791874Y-61273307D01*
X166791874Y-61273307D02*
X166791874Y-60273307D01*
X167839493Y-61178068D02*
X167791874Y-61225688D01*
X167791874Y-61225688D02*
X167649017Y-61273307D01*
X167649017Y-61273307D02*
X167553779Y-61273307D01*
X167553779Y-61273307D02*
X167410922Y-61225688D01*
X167410922Y-61225688D02*
X167315684Y-61130449D01*
X167315684Y-61130449D02*
X167268065Y-61035211D01*
X167268065Y-61035211D02*
X167220446Y-60844735D01*
X167220446Y-60844735D02*
X167220446Y-60701878D01*
X167220446Y-60701878D02*
X167268065Y-60511402D01*
X167268065Y-60511402D02*
X167315684Y-60416164D01*
X167315684Y-60416164D02*
X167410922Y-60320926D01*
X167410922Y-60320926D02*
X167553779Y-60273307D01*
X167553779Y-60273307D02*
X167649017Y-60273307D01*
X167649017Y-60273307D02*
X167791874Y-60320926D01*
X167791874Y-60320926D02*
X167839493Y-60368545D01*
X168791874Y-61273307D02*
X168220446Y-61273307D01*
X168506160Y-61273307D02*
X168506160Y-60273307D01*
X168506160Y-60273307D02*
X168410922Y-60416164D01*
X168410922Y-60416164D02*
X168315684Y-60511402D01*
X168315684Y-60511402D02*
X168220446Y-60559021D01*
X171506161Y-60749497D02*
X171839494Y-60749497D01*
X171982351Y-61273307D02*
X171506161Y-61273307D01*
X171506161Y-61273307D02*
X171506161Y-60273307D01*
X171506161Y-60273307D02*
X171982351Y-60273307D01*
X172410923Y-61273307D02*
X172410923Y-60273307D01*
X172410923Y-60273307D02*
X172982351Y-61273307D01*
X172982351Y-61273307D02*
X172982351Y-60273307D01*
X174029970Y-61178068D02*
X173982351Y-61225688D01*
X173982351Y-61225688D02*
X173839494Y-61273307D01*
X173839494Y-61273307D02*
X173744256Y-61273307D01*
X173744256Y-61273307D02*
X173601399Y-61225688D01*
X173601399Y-61225688D02*
X173506161Y-61130449D01*
X173506161Y-61130449D02*
X173458542Y-61035211D01*
X173458542Y-61035211D02*
X173410923Y-60844735D01*
X173410923Y-60844735D02*
X173410923Y-60701878D01*
X173410923Y-60701878D02*
X173458542Y-60511402D01*
X173458542Y-60511402D02*
X173506161Y-60416164D01*
X173506161Y-60416164D02*
X173601399Y-60320926D01*
X173601399Y-60320926D02*
X173744256Y-60273307D01*
X173744256Y-60273307D02*
X173839494Y-60273307D01*
X173839494Y-60273307D02*
X173982351Y-60320926D01*
X173982351Y-60320926D02*
X174029970Y-60368545D01*
X174410923Y-60368545D02*
X174458542Y-60320926D01*
X174458542Y-60320926D02*
X174553780Y-60273307D01*
X174553780Y-60273307D02*
X174791875Y-60273307D01*
X174791875Y-60273307D02*
X174887113Y-60320926D01*
X174887113Y-60320926D02*
X174934732Y-60368545D01*
X174934732Y-60368545D02*
X174982351Y-60463783D01*
X174982351Y-60463783D02*
X174982351Y-60559021D01*
X174982351Y-60559021D02*
X174934732Y-60701878D01*
X174934732Y-60701878D02*
X174363304Y-61273307D01*
X174363304Y-61273307D02*
X174982351Y-61273307D01*
X165839493Y-61930870D02*
X165744255Y-61883251D01*
X165744255Y-61883251D02*
X165601398Y-61883251D01*
X165601398Y-61883251D02*
X165458541Y-61930870D01*
X165458541Y-61930870D02*
X165363303Y-62026108D01*
X165363303Y-62026108D02*
X165315684Y-62121346D01*
X165315684Y-62121346D02*
X165268065Y-62311822D01*
X165268065Y-62311822D02*
X165268065Y-62454679D01*
X165268065Y-62454679D02*
X165315684Y-62645155D01*
X165315684Y-62645155D02*
X165363303Y-62740393D01*
X165363303Y-62740393D02*
X165458541Y-62835632D01*
X165458541Y-62835632D02*
X165601398Y-62883251D01*
X165601398Y-62883251D02*
X165696636Y-62883251D01*
X165696636Y-62883251D02*
X165839493Y-62835632D01*
X165839493Y-62835632D02*
X165887112Y-62788012D01*
X165887112Y-62788012D02*
X165887112Y-62454679D01*
X165887112Y-62454679D02*
X165696636Y-62454679D01*
X166315684Y-62883251D02*
X166315684Y-61883251D01*
X166315684Y-61883251D02*
X166887112Y-62883251D01*
X166887112Y-62883251D02*
X166887112Y-61883251D01*
X167363303Y-62883251D02*
X167363303Y-61883251D01*
X167363303Y-61883251D02*
X167601398Y-61883251D01*
X167601398Y-61883251D02*
X167744255Y-61930870D01*
X167744255Y-61930870D02*
X167839493Y-62026108D01*
X167839493Y-62026108D02*
X167887112Y-62121346D01*
X167887112Y-62121346D02*
X167934731Y-62311822D01*
X167934731Y-62311822D02*
X167934731Y-62454679D01*
X167934731Y-62454679D02*
X167887112Y-62645155D01*
X167887112Y-62645155D02*
X167839493Y-62740393D01*
X167839493Y-62740393D02*
X167744255Y-62835632D01*
X167744255Y-62835632D02*
X167601398Y-62883251D01*
X167601398Y-62883251D02*
X167363303Y-62883251D01*
X171887113Y-61883251D02*
X171410923Y-61883251D01*
X171410923Y-61883251D02*
X171363304Y-62359441D01*
X171363304Y-62359441D02*
X171410923Y-62311822D01*
X171410923Y-62311822D02*
X171506161Y-62264203D01*
X171506161Y-62264203D02*
X171744256Y-62264203D01*
X171744256Y-62264203D02*
X171839494Y-62311822D01*
X171839494Y-62311822D02*
X171887113Y-62359441D01*
X171887113Y-62359441D02*
X171934732Y-62454679D01*
X171934732Y-62454679D02*
X171934732Y-62692774D01*
X171934732Y-62692774D02*
X171887113Y-62788012D01*
X171887113Y-62788012D02*
X171839494Y-62835632D01*
X171839494Y-62835632D02*
X171744256Y-62883251D01*
X171744256Y-62883251D02*
X171506161Y-62883251D01*
X171506161Y-62883251D02*
X171410923Y-62835632D01*
X171410923Y-62835632D02*
X171363304Y-62788012D01*
X172220447Y-61883251D02*
X172553780Y-62883251D01*
X172553780Y-62883251D02*
X172887113Y-61883251D01*
X164261800Y-56261000D02*
X181635400Y-56261000D01*
X181635400Y-63627000D01*
X164261800Y-63627000D01*
X164261800Y-56261000D01*
X115756572Y-65089219D02*
X115756572Y-64089219D01*
X115756572Y-64089219D02*
X116042286Y-65089219D01*
X116042286Y-65089219D02*
X116042286Y-64089219D01*
X116566096Y-64993980D02*
X116542287Y-65041600D01*
X116542287Y-65041600D02*
X116470858Y-65089219D01*
X116470858Y-65089219D02*
X116423239Y-65089219D01*
X116423239Y-65089219D02*
X116351811Y-65041600D01*
X116351811Y-65041600D02*
X116304192Y-64946361D01*
X116304192Y-64946361D02*
X116280382Y-64851123D01*
X116280382Y-64851123D02*
X116256573Y-64660647D01*
X116256573Y-64660647D02*
X116256573Y-64517790D01*
X116256573Y-64517790D02*
X116280382Y-64327314D01*
X116280382Y-64327314D02*
X116304192Y-64232076D01*
X116304192Y-64232076D02*
X116351811Y-64136838D01*
X116351811Y-64136838D02*
X116423239Y-64089219D01*
X116423239Y-64089219D02*
X116470858Y-64089219D01*
X116470858Y-64089219D02*
X116542287Y-64136838D01*
X116542287Y-64136838D02*
X116566096Y-64184457D01*
X118470857Y-64565409D02*
X118542285Y-64613028D01*
X118542285Y-64613028D02*
X118566095Y-64660647D01*
X118566095Y-64660647D02*
X118589904Y-64755885D01*
X118589904Y-64755885D02*
X118589904Y-64898742D01*
X118589904Y-64898742D02*
X118566095Y-64993980D01*
X118566095Y-64993980D02*
X118542285Y-65041600D01*
X118542285Y-65041600D02*
X118494666Y-65089219D01*
X118494666Y-65089219D02*
X118304190Y-65089219D01*
X118304190Y-65089219D02*
X118304190Y-64089219D01*
X118304190Y-64089219D02*
X118470857Y-64089219D01*
X118470857Y-64089219D02*
X118518476Y-64136838D01*
X118518476Y-64136838D02*
X118542285Y-64184457D01*
X118542285Y-64184457D02*
X118566095Y-64279695D01*
X118566095Y-64279695D02*
X118566095Y-64374933D01*
X118566095Y-64374933D02*
X118542285Y-64470171D01*
X118542285Y-64470171D02*
X118518476Y-64517790D01*
X118518476Y-64517790D02*
X118470857Y-64565409D01*
X118470857Y-64565409D02*
X118304190Y-64565409D01*
X118899428Y-64089219D02*
X118994666Y-64089219D01*
X118994666Y-64089219D02*
X119042285Y-64136838D01*
X119042285Y-64136838D02*
X119089904Y-64232076D01*
X119089904Y-64232076D02*
X119113714Y-64422552D01*
X119113714Y-64422552D02*
X119113714Y-64755885D01*
X119113714Y-64755885D02*
X119089904Y-64946361D01*
X119089904Y-64946361D02*
X119042285Y-65041600D01*
X119042285Y-65041600D02*
X118994666Y-65089219D01*
X118994666Y-65089219D02*
X118899428Y-65089219D01*
X118899428Y-65089219D02*
X118851809Y-65041600D01*
X118851809Y-65041600D02*
X118804190Y-64946361D01*
X118804190Y-64946361D02*
X118780381Y-64755885D01*
X118780381Y-64755885D02*
X118780381Y-64422552D01*
X118780381Y-64422552D02*
X118804190Y-64232076D01*
X118804190Y-64232076D02*
X118851809Y-64136838D01*
X118851809Y-64136838D02*
X118899428Y-64089219D01*
X119423238Y-64089219D02*
X119518476Y-64089219D01*
X119518476Y-64089219D02*
X119566095Y-64136838D01*
X119566095Y-64136838D02*
X119613714Y-64232076D01*
X119613714Y-64232076D02*
X119637524Y-64422552D01*
X119637524Y-64422552D02*
X119637524Y-64755885D01*
X119637524Y-64755885D02*
X119613714Y-64946361D01*
X119613714Y-64946361D02*
X119566095Y-65041600D01*
X119566095Y-65041600D02*
X119518476Y-65089219D01*
X119518476Y-65089219D02*
X119423238Y-65089219D01*
X119423238Y-65089219D02*
X119375619Y-65041600D01*
X119375619Y-65041600D02*
X119328000Y-64946361D01*
X119328000Y-64946361D02*
X119304191Y-64755885D01*
X119304191Y-64755885D02*
X119304191Y-64422552D01*
X119304191Y-64422552D02*
X119328000Y-64232076D01*
X119328000Y-64232076D02*
X119375619Y-64136838D01*
X119375619Y-64136838D02*
X119423238Y-64089219D01*
X119780382Y-64089219D02*
X120066096Y-64089219D01*
X119923239Y-65089219D02*
X119923239Y-64089219D01*
X120328000Y-64089219D02*
X120375619Y-64089219D01*
X120375619Y-64089219D02*
X120423238Y-64136838D01*
X120423238Y-64136838D02*
X120447048Y-64184457D01*
X120447048Y-64184457D02*
X120470857Y-64279695D01*
X120470857Y-64279695D02*
X120494667Y-64470171D01*
X120494667Y-64470171D02*
X120494667Y-64708266D01*
X120494667Y-64708266D02*
X120470857Y-64898742D01*
X120470857Y-64898742D02*
X120447048Y-64993980D01*
X120447048Y-64993980D02*
X120423238Y-65041600D01*
X120423238Y-65041600D02*
X120375619Y-65089219D01*
X120375619Y-65089219D02*
X120328000Y-65089219D01*
X120328000Y-65089219D02*
X120280381Y-65041600D01*
X120280381Y-65041600D02*
X120256572Y-64993980D01*
X120256572Y-64993980D02*
X120232762Y-64898742D01*
X120232762Y-64898742D02*
X120208953Y-64708266D01*
X120208953Y-64708266D02*
X120208953Y-64470171D01*
X120208953Y-64470171D02*
X120232762Y-64279695D01*
X120232762Y-64279695D02*
X120256572Y-64184457D01*
X120256572Y-64184457D02*
X120280381Y-64136838D01*
X120280381Y-64136838D02*
X120328000Y-64089219D01*
X115732763Y-66651544D02*
X115804191Y-66699163D01*
X115804191Y-66699163D02*
X115923239Y-66699163D01*
X115923239Y-66699163D02*
X115970858Y-66651544D01*
X115970858Y-66651544D02*
X115994667Y-66603924D01*
X115994667Y-66603924D02*
X116018477Y-66508686D01*
X116018477Y-66508686D02*
X116018477Y-66413448D01*
X116018477Y-66413448D02*
X115994667Y-66318210D01*
X115994667Y-66318210D02*
X115970858Y-66270591D01*
X115970858Y-66270591D02*
X115923239Y-66222972D01*
X115923239Y-66222972D02*
X115828001Y-66175353D01*
X115828001Y-66175353D02*
X115780382Y-66127734D01*
X115780382Y-66127734D02*
X115756572Y-66080115D01*
X115756572Y-66080115D02*
X115732763Y-65984877D01*
X115732763Y-65984877D02*
X115732763Y-65889639D01*
X115732763Y-65889639D02*
X115756572Y-65794401D01*
X115756572Y-65794401D02*
X115780382Y-65746782D01*
X115780382Y-65746782D02*
X115828001Y-65699163D01*
X115828001Y-65699163D02*
X115947048Y-65699163D01*
X115947048Y-65699163D02*
X116018477Y-65746782D01*
X116185143Y-65699163D02*
X116304191Y-66699163D01*
X116304191Y-66699163D02*
X116399429Y-65984877D01*
X116399429Y-65984877D02*
X116494667Y-66699163D01*
X116494667Y-66699163D02*
X116613715Y-65699163D01*
X116804191Y-66699163D02*
X116804191Y-65699163D01*
X116804191Y-65699163D02*
X116923239Y-65699163D01*
X116923239Y-65699163D02*
X116994667Y-65746782D01*
X116994667Y-65746782D02*
X117042286Y-65842020D01*
X117042286Y-65842020D02*
X117066096Y-65937258D01*
X117066096Y-65937258D02*
X117089905Y-66127734D01*
X117089905Y-66127734D02*
X117089905Y-66270591D01*
X117089905Y-66270591D02*
X117066096Y-66461067D01*
X117066096Y-66461067D02*
X117042286Y-66556305D01*
X117042286Y-66556305D02*
X116994667Y-66651544D01*
X116994667Y-66651544D02*
X116923239Y-66699163D01*
X116923239Y-66699163D02*
X116804191Y-66699163D01*
X117304191Y-66699163D02*
X117304191Y-65699163D01*
X117637524Y-65699163D02*
X117732762Y-65699163D01*
X117732762Y-65699163D02*
X117780381Y-65746782D01*
X117780381Y-65746782D02*
X117828000Y-65842020D01*
X117828000Y-65842020D02*
X117851810Y-66032496D01*
X117851810Y-66032496D02*
X117851810Y-66365829D01*
X117851810Y-66365829D02*
X117828000Y-66556305D01*
X117828000Y-66556305D02*
X117780381Y-66651544D01*
X117780381Y-66651544D02*
X117732762Y-66699163D01*
X117732762Y-66699163D02*
X117637524Y-66699163D01*
X117637524Y-66699163D02*
X117589905Y-66651544D01*
X117589905Y-66651544D02*
X117542286Y-66556305D01*
X117542286Y-66556305D02*
X117518477Y-66365829D01*
X117518477Y-66365829D02*
X117518477Y-66032496D01*
X117518477Y-66032496D02*
X117542286Y-65842020D01*
X117542286Y-65842020D02*
X117589905Y-65746782D01*
X117589905Y-65746782D02*
X117637524Y-65699163D01*
X118399429Y-65699163D02*
X118708953Y-65699163D01*
X118708953Y-65699163D02*
X118542286Y-66080115D01*
X118542286Y-66080115D02*
X118613715Y-66080115D01*
X118613715Y-66080115D02*
X118661334Y-66127734D01*
X118661334Y-66127734D02*
X118685143Y-66175353D01*
X118685143Y-66175353D02*
X118708953Y-66270591D01*
X118708953Y-66270591D02*
X118708953Y-66508686D01*
X118708953Y-66508686D02*
X118685143Y-66603924D01*
X118685143Y-66603924D02*
X118661334Y-66651544D01*
X118661334Y-66651544D02*
X118613715Y-66699163D01*
X118613715Y-66699163D02*
X118470858Y-66699163D01*
X118470858Y-66699163D02*
X118423239Y-66651544D01*
X118423239Y-66651544D02*
X118399429Y-66603924D01*
X118851810Y-65699163D02*
X119018476Y-66699163D01*
X119018476Y-66699163D02*
X119185143Y-65699163D01*
X119304190Y-65699163D02*
X119613714Y-65699163D01*
X119613714Y-65699163D02*
X119447047Y-66080115D01*
X119447047Y-66080115D02*
X119518476Y-66080115D01*
X119518476Y-66080115D02*
X119566095Y-66127734D01*
X119566095Y-66127734D02*
X119589904Y-66175353D01*
X119589904Y-66175353D02*
X119613714Y-66270591D01*
X119613714Y-66270591D02*
X119613714Y-66508686D01*
X119613714Y-66508686D02*
X119589904Y-66603924D01*
X119589904Y-66603924D02*
X119566095Y-66651544D01*
X119566095Y-66651544D02*
X119518476Y-66699163D01*
X119518476Y-66699163D02*
X119375619Y-66699163D01*
X119375619Y-66699163D02*
X119328000Y-66651544D01*
X119328000Y-66651544D02*
X119304190Y-66603924D01*
X115732763Y-68261488D02*
X115804191Y-68309107D01*
X115804191Y-68309107D02*
X115923239Y-68309107D01*
X115923239Y-68309107D02*
X115970858Y-68261488D01*
X115970858Y-68261488D02*
X115994667Y-68213868D01*
X115994667Y-68213868D02*
X116018477Y-68118630D01*
X116018477Y-68118630D02*
X116018477Y-68023392D01*
X116018477Y-68023392D02*
X115994667Y-67928154D01*
X115994667Y-67928154D02*
X115970858Y-67880535D01*
X115970858Y-67880535D02*
X115923239Y-67832916D01*
X115923239Y-67832916D02*
X115828001Y-67785297D01*
X115828001Y-67785297D02*
X115780382Y-67737678D01*
X115780382Y-67737678D02*
X115756572Y-67690059D01*
X115756572Y-67690059D02*
X115732763Y-67594821D01*
X115732763Y-67594821D02*
X115732763Y-67499583D01*
X115732763Y-67499583D02*
X115756572Y-67404345D01*
X115756572Y-67404345D02*
X115780382Y-67356726D01*
X115780382Y-67356726D02*
X115828001Y-67309107D01*
X115828001Y-67309107D02*
X115947048Y-67309107D01*
X115947048Y-67309107D02*
X116018477Y-67356726D01*
X116185143Y-67309107D02*
X116304191Y-68309107D01*
X116304191Y-68309107D02*
X116399429Y-67594821D01*
X116399429Y-67594821D02*
X116494667Y-68309107D01*
X116494667Y-68309107D02*
X116613715Y-67309107D01*
X117089905Y-68213868D02*
X117066096Y-68261488D01*
X117066096Y-68261488D02*
X116994667Y-68309107D01*
X116994667Y-68309107D02*
X116947048Y-68309107D01*
X116947048Y-68309107D02*
X116875620Y-68261488D01*
X116875620Y-68261488D02*
X116828001Y-68166249D01*
X116828001Y-68166249D02*
X116804191Y-68071011D01*
X116804191Y-68071011D02*
X116780382Y-67880535D01*
X116780382Y-67880535D02*
X116780382Y-67737678D01*
X116780382Y-67737678D02*
X116804191Y-67547202D01*
X116804191Y-67547202D02*
X116828001Y-67451964D01*
X116828001Y-67451964D02*
X116875620Y-67356726D01*
X116875620Y-67356726D02*
X116947048Y-67309107D01*
X116947048Y-67309107D02*
X116994667Y-67309107D01*
X116994667Y-67309107D02*
X117066096Y-67356726D01*
X117066096Y-67356726D02*
X117089905Y-67404345D01*
X117542286Y-68309107D02*
X117304191Y-68309107D01*
X117304191Y-68309107D02*
X117304191Y-67309107D01*
X117708953Y-68309107D02*
X117708953Y-67309107D01*
X117994667Y-68309107D02*
X117780382Y-67737678D01*
X117994667Y-67309107D02*
X117708953Y-67880535D01*
X118518477Y-67309107D02*
X118804191Y-67309107D01*
X118661334Y-68309107D02*
X118661334Y-67309107D01*
X118923238Y-67309107D02*
X119256571Y-68309107D01*
X119256571Y-67309107D02*
X118923238Y-68309107D01*
X115994667Y-68919051D02*
X115756572Y-68919051D01*
X115756572Y-68919051D02*
X115732763Y-69395241D01*
X115732763Y-69395241D02*
X115756572Y-69347622D01*
X115756572Y-69347622D02*
X115804191Y-69300003D01*
X115804191Y-69300003D02*
X115923239Y-69300003D01*
X115923239Y-69300003D02*
X115970858Y-69347622D01*
X115970858Y-69347622D02*
X115994667Y-69395241D01*
X115994667Y-69395241D02*
X116018477Y-69490479D01*
X116018477Y-69490479D02*
X116018477Y-69728574D01*
X116018477Y-69728574D02*
X115994667Y-69823812D01*
X115994667Y-69823812D02*
X115970858Y-69871432D01*
X115970858Y-69871432D02*
X115923239Y-69919051D01*
X115923239Y-69919051D02*
X115804191Y-69919051D01*
X115804191Y-69919051D02*
X115756572Y-69871432D01*
X115756572Y-69871432D02*
X115732763Y-69823812D01*
X116161334Y-68919051D02*
X116328000Y-69919051D01*
X116328000Y-69919051D02*
X116494667Y-68919051D01*
X118851807Y-69919051D02*
X118685141Y-69442860D01*
X118566093Y-69919051D02*
X118566093Y-68919051D01*
X118566093Y-68919051D02*
X118756569Y-68919051D01*
X118756569Y-68919051D02*
X118804188Y-68966670D01*
X118804188Y-68966670D02*
X118827998Y-69014289D01*
X118827998Y-69014289D02*
X118851807Y-69109527D01*
X118851807Y-69109527D02*
X118851807Y-69252384D01*
X118851807Y-69252384D02*
X118827998Y-69347622D01*
X118827998Y-69347622D02*
X118804188Y-69395241D01*
X118804188Y-69395241D02*
X118756569Y-69442860D01*
X118756569Y-69442860D02*
X118566093Y-69442860D01*
X119018474Y-68919051D02*
X119351807Y-69919051D01*
X119351807Y-68919051D02*
X119018474Y-69919051D01*
X116018477Y-70576614D02*
X115970858Y-70528995D01*
X115970858Y-70528995D02*
X115899429Y-70528995D01*
X115899429Y-70528995D02*
X115828001Y-70576614D01*
X115828001Y-70576614D02*
X115780382Y-70671852D01*
X115780382Y-70671852D02*
X115756572Y-70767090D01*
X115756572Y-70767090D02*
X115732763Y-70957566D01*
X115732763Y-70957566D02*
X115732763Y-71100423D01*
X115732763Y-71100423D02*
X115756572Y-71290899D01*
X115756572Y-71290899D02*
X115780382Y-71386137D01*
X115780382Y-71386137D02*
X115828001Y-71481376D01*
X115828001Y-71481376D02*
X115899429Y-71528995D01*
X115899429Y-71528995D02*
X115947048Y-71528995D01*
X115947048Y-71528995D02*
X116018477Y-71481376D01*
X116018477Y-71481376D02*
X116042286Y-71433756D01*
X116042286Y-71433756D02*
X116042286Y-71100423D01*
X116042286Y-71100423D02*
X115947048Y-71100423D01*
X116256572Y-71528995D02*
X116256572Y-70528995D01*
X116256572Y-70528995D02*
X116542286Y-71528995D01*
X116542286Y-71528995D02*
X116542286Y-70528995D01*
X116780382Y-71528995D02*
X116780382Y-70528995D01*
X116780382Y-70528995D02*
X116899430Y-70528995D01*
X116899430Y-70528995D02*
X116970858Y-70576614D01*
X116970858Y-70576614D02*
X117018477Y-70671852D01*
X117018477Y-70671852D02*
X117042287Y-70767090D01*
X117042287Y-70767090D02*
X117066096Y-70957566D01*
X117066096Y-70957566D02*
X117066096Y-71100423D01*
X117066096Y-71100423D02*
X117042287Y-71290899D01*
X117042287Y-71290899D02*
X117018477Y-71386137D01*
X117018477Y-71386137D02*
X116970858Y-71481376D01*
X116970858Y-71481376D02*
X116899430Y-71528995D01*
X116899430Y-71528995D02*
X116780382Y-71528995D01*
X118423238Y-71528995D02*
X118423238Y-70528995D01*
X118423238Y-70528995D02*
X118708952Y-71528995D01*
X118708952Y-71528995D02*
X118708952Y-70528995D01*
X119232762Y-71528995D02*
X119066096Y-71052804D01*
X118947048Y-71528995D02*
X118947048Y-70528995D01*
X118947048Y-70528995D02*
X119137524Y-70528995D01*
X119137524Y-70528995D02*
X119185143Y-70576614D01*
X119185143Y-70576614D02*
X119208953Y-70624233D01*
X119208953Y-70624233D02*
X119232762Y-70719471D01*
X119232762Y-70719471D02*
X119232762Y-70862328D01*
X119232762Y-70862328D02*
X119208953Y-70957566D01*
X119208953Y-70957566D02*
X119185143Y-71005185D01*
X119185143Y-71005185D02*
X119137524Y-71052804D01*
X119137524Y-71052804D02*
X118947048Y-71052804D01*
X119423239Y-71481376D02*
X119494667Y-71528995D01*
X119494667Y-71528995D02*
X119613715Y-71528995D01*
X119613715Y-71528995D02*
X119661334Y-71481376D01*
X119661334Y-71481376D02*
X119685143Y-71433756D01*
X119685143Y-71433756D02*
X119708953Y-71338518D01*
X119708953Y-71338518D02*
X119708953Y-71243280D01*
X119708953Y-71243280D02*
X119685143Y-71148042D01*
X119685143Y-71148042D02*
X119661334Y-71100423D01*
X119661334Y-71100423D02*
X119613715Y-71052804D01*
X119613715Y-71052804D02*
X119518477Y-71005185D01*
X119518477Y-71005185D02*
X119470858Y-70957566D01*
X119470858Y-70957566D02*
X119447048Y-70909947D01*
X119447048Y-70909947D02*
X119423239Y-70814709D01*
X119423239Y-70814709D02*
X119423239Y-70719471D01*
X119423239Y-70719471D02*
X119447048Y-70624233D01*
X119447048Y-70624233D02*
X119470858Y-70576614D01*
X119470858Y-70576614D02*
X119518477Y-70528995D01*
X119518477Y-70528995D02*
X119637524Y-70528995D01*
X119637524Y-70528995D02*
X119708953Y-70576614D01*
X119851810Y-70528995D02*
X120137524Y-70528995D01*
X119994667Y-71528995D02*
X119994667Y-70528995D01*
X114821736Y-63296800D02*
X121499863Y-63296800D01*
X121499863Y-71778327D01*
X114821736Y-71778327D01*
X114821736Y-63296800D01*
D11*
X114055095Y-91675719D02*
X114055095Y-90675719D01*
X114055095Y-90675719D02*
X114436047Y-90675719D01*
X114436047Y-90675719D02*
X114531285Y-90723338D01*
X114531285Y-90723338D02*
X114578904Y-90770957D01*
X114578904Y-90770957D02*
X114626523Y-90866195D01*
X114626523Y-90866195D02*
X114626523Y-91009052D01*
X114626523Y-91009052D02*
X114578904Y-91104290D01*
X114578904Y-91104290D02*
X114531285Y-91151909D01*
X114531285Y-91151909D02*
X114436047Y-91199528D01*
X114436047Y-91199528D02*
X114055095Y-91199528D01*
X115055095Y-90675719D02*
X115055095Y-91485242D01*
X115055095Y-91485242D02*
X115102714Y-91580480D01*
X115102714Y-91580480D02*
X115150333Y-91628100D01*
X115150333Y-91628100D02*
X115245571Y-91675719D01*
X115245571Y-91675719D02*
X115436047Y-91675719D01*
X115436047Y-91675719D02*
X115531285Y-91628100D01*
X115531285Y-91628100D02*
X115578904Y-91580480D01*
X115578904Y-91580480D02*
X115626523Y-91485242D01*
X115626523Y-91485242D02*
X115626523Y-90675719D01*
X116578904Y-90675719D02*
X116102714Y-90675719D01*
X116102714Y-90675719D02*
X116055095Y-91151909D01*
X116055095Y-91151909D02*
X116102714Y-91104290D01*
X116102714Y-91104290D02*
X116197952Y-91056671D01*
X116197952Y-91056671D02*
X116436047Y-91056671D01*
X116436047Y-91056671D02*
X116531285Y-91104290D01*
X116531285Y-91104290D02*
X116578904Y-91151909D01*
X116578904Y-91151909D02*
X116626523Y-91247147D01*
X116626523Y-91247147D02*
X116626523Y-91485242D01*
X116626523Y-91485242D02*
X116578904Y-91580480D01*
X116578904Y-91580480D02*
X116531285Y-91628100D01*
X116531285Y-91628100D02*
X116436047Y-91675719D01*
X116436047Y-91675719D02*
X116197952Y-91675719D01*
X116197952Y-91675719D02*
X116102714Y-91628100D01*
X116102714Y-91628100D02*
X116055095Y-91580480D01*
X146899333Y-77563580D02*
X146851714Y-77611200D01*
X146851714Y-77611200D02*
X146708857Y-77658819D01*
X146708857Y-77658819D02*
X146613619Y-77658819D01*
X146613619Y-77658819D02*
X146470762Y-77611200D01*
X146470762Y-77611200D02*
X146375524Y-77515961D01*
X146375524Y-77515961D02*
X146327905Y-77420723D01*
X146327905Y-77420723D02*
X146280286Y-77230247D01*
X146280286Y-77230247D02*
X146280286Y-77087390D01*
X146280286Y-77087390D02*
X146327905Y-76896914D01*
X146327905Y-76896914D02*
X146375524Y-76801676D01*
X146375524Y-76801676D02*
X146470762Y-76706438D01*
X146470762Y-76706438D02*
X146613619Y-76658819D01*
X146613619Y-76658819D02*
X146708857Y-76658819D01*
X146708857Y-76658819D02*
X146851714Y-76706438D01*
X146851714Y-76706438D02*
X146899333Y-76754057D01*
X147756476Y-76992152D02*
X147756476Y-77658819D01*
X147518381Y-76611200D02*
X147280286Y-77325485D01*
X147280286Y-77325485D02*
X147899333Y-77325485D01*
X185294692Y-67869569D02*
X184961359Y-67393378D01*
X184723264Y-67869569D02*
X184723264Y-66869569D01*
X184723264Y-66869569D02*
X185104216Y-66869569D01*
X185104216Y-66869569D02*
X185199454Y-66917188D01*
X185199454Y-66917188D02*
X185247073Y-66964807D01*
X185247073Y-66964807D02*
X185294692Y-67060045D01*
X185294692Y-67060045D02*
X185294692Y-67202902D01*
X185294692Y-67202902D02*
X185247073Y-67298140D01*
X185247073Y-67298140D02*
X185199454Y-67345759D01*
X185199454Y-67345759D02*
X185104216Y-67393378D01*
X185104216Y-67393378D02*
X184723264Y-67393378D01*
X185675645Y-66964807D02*
X185723264Y-66917188D01*
X185723264Y-66917188D02*
X185818502Y-66869569D01*
X185818502Y-66869569D02*
X186056597Y-66869569D01*
X186056597Y-66869569D02*
X186151835Y-66917188D01*
X186151835Y-66917188D02*
X186199454Y-66964807D01*
X186199454Y-66964807D02*
X186247073Y-67060045D01*
X186247073Y-67060045D02*
X186247073Y-67155283D01*
X186247073Y-67155283D02*
X186199454Y-67298140D01*
X186199454Y-67298140D02*
X185628026Y-67869569D01*
X185628026Y-67869569D02*
X186247073Y-67869569D01*
X186866121Y-66869569D02*
X186961359Y-66869569D01*
X186961359Y-66869569D02*
X187056597Y-66917188D01*
X187056597Y-66917188D02*
X187104216Y-66964807D01*
X187104216Y-66964807D02*
X187151835Y-67060045D01*
X187151835Y-67060045D02*
X187199454Y-67250521D01*
X187199454Y-67250521D02*
X187199454Y-67488616D01*
X187199454Y-67488616D02*
X187151835Y-67679092D01*
X187151835Y-67679092D02*
X187104216Y-67774330D01*
X187104216Y-67774330D02*
X187056597Y-67821950D01*
X187056597Y-67821950D02*
X186961359Y-67869569D01*
X186961359Y-67869569D02*
X186866121Y-67869569D01*
X186866121Y-67869569D02*
X186770883Y-67821950D01*
X186770883Y-67821950D02*
X186723264Y-67774330D01*
X186723264Y-67774330D02*
X186675645Y-67679092D01*
X186675645Y-67679092D02*
X186628026Y-67488616D01*
X186628026Y-67488616D02*
X186628026Y-67250521D01*
X186628026Y-67250521D02*
X186675645Y-67060045D01*
X186675645Y-67060045D02*
X186723264Y-66964807D01*
X186723264Y-66964807D02*
X186770883Y-66917188D01*
X186770883Y-66917188D02*
X186866121Y-66869569D01*
D12*
X142012667Y-93306543D02*
X142012667Y-94213686D01*
X142012667Y-94213686D02*
X141952190Y-94395114D01*
X141952190Y-94395114D02*
X141831238Y-94516067D01*
X141831238Y-94516067D02*
X141649809Y-94576543D01*
X141649809Y-94576543D02*
X141528857Y-94576543D01*
X142496476Y-93306543D02*
X143343143Y-93306543D01*
X143343143Y-93306543D02*
X142798857Y-94576543D01*
D11*
X185507333Y-89437380D02*
X185459714Y-89485000D01*
X185459714Y-89485000D02*
X185316857Y-89532619D01*
X185316857Y-89532619D02*
X185221619Y-89532619D01*
X185221619Y-89532619D02*
X185078762Y-89485000D01*
X185078762Y-89485000D02*
X184983524Y-89389761D01*
X184983524Y-89389761D02*
X184935905Y-89294523D01*
X184935905Y-89294523D02*
X184888286Y-89104047D01*
X184888286Y-89104047D02*
X184888286Y-88961190D01*
X184888286Y-88961190D02*
X184935905Y-88770714D01*
X184935905Y-88770714D02*
X184983524Y-88675476D01*
X184983524Y-88675476D02*
X185078762Y-88580238D01*
X185078762Y-88580238D02*
X185221619Y-88532619D01*
X185221619Y-88532619D02*
X185316857Y-88532619D01*
X185316857Y-88532619D02*
X185459714Y-88580238D01*
X185459714Y-88580238D02*
X185507333Y-88627857D01*
X186459714Y-89532619D02*
X185888286Y-89532619D01*
X186174000Y-89532619D02*
X186174000Y-88532619D01*
X186174000Y-88532619D02*
X186078762Y-88675476D01*
X186078762Y-88675476D02*
X185983524Y-88770714D01*
X185983524Y-88770714D02*
X185888286Y-88818333D01*
D12*
X198650980Y-68128642D02*
X198832409Y-68189118D01*
X198832409Y-68189118D02*
X199134790Y-68189118D01*
X199134790Y-68189118D02*
X199255742Y-68128642D01*
X199255742Y-68128642D02*
X199316218Y-68068165D01*
X199316218Y-68068165D02*
X199376695Y-67947213D01*
X199376695Y-67947213D02*
X199376695Y-67826261D01*
X199376695Y-67826261D02*
X199316218Y-67705308D01*
X199316218Y-67705308D02*
X199255742Y-67644832D01*
X199255742Y-67644832D02*
X199134790Y-67584356D01*
X199134790Y-67584356D02*
X198892885Y-67523880D01*
X198892885Y-67523880D02*
X198771933Y-67463403D01*
X198771933Y-67463403D02*
X198711456Y-67402927D01*
X198711456Y-67402927D02*
X198650980Y-67281975D01*
X198650980Y-67281975D02*
X198650980Y-67161022D01*
X198650980Y-67161022D02*
X198711456Y-67040070D01*
X198711456Y-67040070D02*
X198771933Y-66979594D01*
X198771933Y-66979594D02*
X198892885Y-66919118D01*
X198892885Y-66919118D02*
X199195266Y-66919118D01*
X199195266Y-66919118D02*
X199376695Y-66979594D01*
X200465266Y-67342451D02*
X200465266Y-68189118D01*
X200162885Y-66858642D02*
X199860504Y-67765784D01*
X199860504Y-67765784D02*
X200646695Y-67765784D01*
D11*
X127199561Y-99025857D02*
X127104323Y-98978238D01*
X127104323Y-98978238D02*
X127009085Y-98883000D01*
X127009085Y-98883000D02*
X126866228Y-98740142D01*
X126866228Y-98740142D02*
X126770990Y-98692523D01*
X126770990Y-98692523D02*
X126675752Y-98692523D01*
X126723371Y-98930619D02*
X126628133Y-98883000D01*
X126628133Y-98883000D02*
X126532895Y-98787761D01*
X126532895Y-98787761D02*
X126485276Y-98597285D01*
X126485276Y-98597285D02*
X126485276Y-98263952D01*
X126485276Y-98263952D02*
X126532895Y-98073476D01*
X126532895Y-98073476D02*
X126628133Y-97978238D01*
X126628133Y-97978238D02*
X126723371Y-97930619D01*
X126723371Y-97930619D02*
X126913847Y-97930619D01*
X126913847Y-97930619D02*
X127009085Y-97978238D01*
X127009085Y-97978238D02*
X127104323Y-98073476D01*
X127104323Y-98073476D02*
X127151942Y-98263952D01*
X127151942Y-98263952D02*
X127151942Y-98597285D01*
X127151942Y-98597285D02*
X127104323Y-98787761D01*
X127104323Y-98787761D02*
X127009085Y-98883000D01*
X127009085Y-98883000D02*
X126913847Y-98930619D01*
X126913847Y-98930619D02*
X126723371Y-98930619D01*
X128056704Y-97930619D02*
X127580514Y-97930619D01*
X127580514Y-97930619D02*
X127532895Y-98406809D01*
X127532895Y-98406809D02*
X127580514Y-98359190D01*
X127580514Y-98359190D02*
X127675752Y-98311571D01*
X127675752Y-98311571D02*
X127913847Y-98311571D01*
X127913847Y-98311571D02*
X128009085Y-98359190D01*
X128009085Y-98359190D02*
X128056704Y-98406809D01*
X128056704Y-98406809D02*
X128104323Y-98502047D01*
X128104323Y-98502047D02*
X128104323Y-98740142D01*
X128104323Y-98740142D02*
X128056704Y-98835380D01*
X128056704Y-98835380D02*
X128009085Y-98883000D01*
X128009085Y-98883000D02*
X127913847Y-98930619D01*
X127913847Y-98930619D02*
X127675752Y-98930619D01*
X127675752Y-98930619D02*
X127580514Y-98883000D01*
X127580514Y-98883000D02*
X127532895Y-98835380D01*
X135299723Y-106753819D02*
X134966390Y-106277628D01*
X134728295Y-106753819D02*
X134728295Y-105753819D01*
X134728295Y-105753819D02*
X135109247Y-105753819D01*
X135109247Y-105753819D02*
X135204485Y-105801438D01*
X135204485Y-105801438D02*
X135252104Y-105849057D01*
X135252104Y-105849057D02*
X135299723Y-105944295D01*
X135299723Y-105944295D02*
X135299723Y-106087152D01*
X135299723Y-106087152D02*
X135252104Y-106182390D01*
X135252104Y-106182390D02*
X135204485Y-106230009D01*
X135204485Y-106230009D02*
X135109247Y-106277628D01*
X135109247Y-106277628D02*
X134728295Y-106277628D01*
X135728295Y-106753819D02*
X135728295Y-105753819D01*
X135728295Y-105753819D02*
X136299723Y-106753819D01*
X136299723Y-106753819D02*
X136299723Y-105753819D01*
X137204485Y-106087152D02*
X137204485Y-106753819D01*
X136966390Y-105706200D02*
X136728295Y-106420485D01*
X136728295Y-106420485D02*
X137347342Y-106420485D01*
X127228061Y-95241257D02*
X127132823Y-95193638D01*
X127132823Y-95193638D02*
X127037585Y-95098400D01*
X127037585Y-95098400D02*
X126894728Y-94955542D01*
X126894728Y-94955542D02*
X126799490Y-94907923D01*
X126799490Y-94907923D02*
X126704252Y-94907923D01*
X126751871Y-95146019D02*
X126656633Y-95098400D01*
X126656633Y-95098400D02*
X126561395Y-95003161D01*
X126561395Y-95003161D02*
X126513776Y-94812685D01*
X126513776Y-94812685D02*
X126513776Y-94479352D01*
X126513776Y-94479352D02*
X126561395Y-94288876D01*
X126561395Y-94288876D02*
X126656633Y-94193638D01*
X126656633Y-94193638D02*
X126751871Y-94146019D01*
X126751871Y-94146019D02*
X126942347Y-94146019D01*
X126942347Y-94146019D02*
X127037585Y-94193638D01*
X127037585Y-94193638D02*
X127132823Y-94288876D01*
X127132823Y-94288876D02*
X127180442Y-94479352D01*
X127180442Y-94479352D02*
X127180442Y-94812685D01*
X127180442Y-94812685D02*
X127132823Y-95003161D01*
X127132823Y-95003161D02*
X127037585Y-95098400D01*
X127037585Y-95098400D02*
X126942347Y-95146019D01*
X126942347Y-95146019D02*
X126751871Y-95146019D01*
X128037585Y-94146019D02*
X127847109Y-94146019D01*
X127847109Y-94146019D02*
X127751871Y-94193638D01*
X127751871Y-94193638D02*
X127704252Y-94241257D01*
X127704252Y-94241257D02*
X127609014Y-94384114D01*
X127609014Y-94384114D02*
X127561395Y-94574590D01*
X127561395Y-94574590D02*
X127561395Y-94955542D01*
X127561395Y-94955542D02*
X127609014Y-95050780D01*
X127609014Y-95050780D02*
X127656633Y-95098400D01*
X127656633Y-95098400D02*
X127751871Y-95146019D01*
X127751871Y-95146019D02*
X127942347Y-95146019D01*
X127942347Y-95146019D02*
X128037585Y-95098400D01*
X128037585Y-95098400D02*
X128085204Y-95050780D01*
X128085204Y-95050780D02*
X128132823Y-94955542D01*
X128132823Y-94955542D02*
X128132823Y-94717447D01*
X128132823Y-94717447D02*
X128085204Y-94622209D01*
X128085204Y-94622209D02*
X128037585Y-94574590D01*
X128037585Y-94574590D02*
X127942347Y-94526971D01*
X127942347Y-94526971D02*
X127751871Y-94526971D01*
X127751871Y-94526971D02*
X127656633Y-94574590D01*
X127656633Y-94574590D02*
X127609014Y-94622209D01*
X127609014Y-94622209D02*
X127561395Y-94717447D01*
D12*
X198872118Y-70493466D02*
X198872118Y-71098228D01*
X198872118Y-71098228D02*
X197602118Y-71098228D01*
X197602118Y-69465371D02*
X197602118Y-70070133D01*
X197602118Y-70070133D02*
X198206880Y-70130609D01*
X198206880Y-70130609D02*
X198146403Y-70070133D01*
X198146403Y-70070133D02*
X198085927Y-69949180D01*
X198085927Y-69949180D02*
X198085927Y-69646799D01*
X198085927Y-69646799D02*
X198146403Y-69525847D01*
X198146403Y-69525847D02*
X198206880Y-69465371D01*
X198206880Y-69465371D02*
X198327832Y-69404894D01*
X198327832Y-69404894D02*
X198630213Y-69404894D01*
X198630213Y-69404894D02*
X198751165Y-69465371D01*
X198751165Y-69465371D02*
X198811642Y-69525847D01*
X198811642Y-69525847D02*
X198872118Y-69646799D01*
X198872118Y-69646799D02*
X198872118Y-69949180D01*
X198872118Y-69949180D02*
X198811642Y-70070133D01*
X198811642Y-70070133D02*
X198751165Y-70130609D01*
D11*
X140015317Y-77375580D02*
X139967698Y-77423200D01*
X139967698Y-77423200D02*
X139824841Y-77470819D01*
X139824841Y-77470819D02*
X139729603Y-77470819D01*
X139729603Y-77470819D02*
X139586746Y-77423200D01*
X139586746Y-77423200D02*
X139491508Y-77327961D01*
X139491508Y-77327961D02*
X139443889Y-77232723D01*
X139443889Y-77232723D02*
X139396270Y-77042247D01*
X139396270Y-77042247D02*
X139396270Y-76899390D01*
X139396270Y-76899390D02*
X139443889Y-76708914D01*
X139443889Y-76708914D02*
X139491508Y-76613676D01*
X139491508Y-76613676D02*
X139586746Y-76518438D01*
X139586746Y-76518438D02*
X139729603Y-76470819D01*
X139729603Y-76470819D02*
X139824841Y-76470819D01*
X139824841Y-76470819D02*
X139967698Y-76518438D01*
X139967698Y-76518438D02*
X140015317Y-76566057D01*
X140396270Y-76566057D02*
X140443889Y-76518438D01*
X140443889Y-76518438D02*
X140539127Y-76470819D01*
X140539127Y-76470819D02*
X140777222Y-76470819D01*
X140777222Y-76470819D02*
X140872460Y-76518438D01*
X140872460Y-76518438D02*
X140920079Y-76566057D01*
X140920079Y-76566057D02*
X140967698Y-76661295D01*
X140967698Y-76661295D02*
X140967698Y-76756533D01*
X140967698Y-76756533D02*
X140920079Y-76899390D01*
X140920079Y-76899390D02*
X140348651Y-77470819D01*
X140348651Y-77470819D02*
X140967698Y-77470819D01*
X141586746Y-76470819D02*
X141681984Y-76470819D01*
X141681984Y-76470819D02*
X141777222Y-76518438D01*
X141777222Y-76518438D02*
X141824841Y-76566057D01*
X141824841Y-76566057D02*
X141872460Y-76661295D01*
X141872460Y-76661295D02*
X141920079Y-76851771D01*
X141920079Y-76851771D02*
X141920079Y-77089866D01*
X141920079Y-77089866D02*
X141872460Y-77280342D01*
X141872460Y-77280342D02*
X141824841Y-77375580D01*
X141824841Y-77375580D02*
X141777222Y-77423200D01*
X141777222Y-77423200D02*
X141681984Y-77470819D01*
X141681984Y-77470819D02*
X141586746Y-77470819D01*
X141586746Y-77470819D02*
X141491508Y-77423200D01*
X141491508Y-77423200D02*
X141443889Y-77375580D01*
X141443889Y-77375580D02*
X141396270Y-77280342D01*
X141396270Y-77280342D02*
X141348651Y-77089866D01*
X141348651Y-77089866D02*
X141348651Y-76851771D01*
X141348651Y-76851771D02*
X141396270Y-76661295D01*
X141396270Y-76661295D02*
X141443889Y-76566057D01*
X141443889Y-76566057D02*
X141491508Y-76518438D01*
X141491508Y-76518438D02*
X141586746Y-76470819D01*
X136491742Y-70996980D02*
X136444123Y-71044600D01*
X136444123Y-71044600D02*
X136301266Y-71092219D01*
X136301266Y-71092219D02*
X136206028Y-71092219D01*
X136206028Y-71092219D02*
X136063171Y-71044600D01*
X136063171Y-71044600D02*
X135967933Y-70949361D01*
X135967933Y-70949361D02*
X135920314Y-70854123D01*
X135920314Y-70854123D02*
X135872695Y-70663647D01*
X135872695Y-70663647D02*
X135872695Y-70520790D01*
X135872695Y-70520790D02*
X135920314Y-70330314D01*
X135920314Y-70330314D02*
X135967933Y-70235076D01*
X135967933Y-70235076D02*
X136063171Y-70139838D01*
X136063171Y-70139838D02*
X136206028Y-70092219D01*
X136206028Y-70092219D02*
X136301266Y-70092219D01*
X136301266Y-70092219D02*
X136444123Y-70139838D01*
X136444123Y-70139838D02*
X136491742Y-70187457D01*
X137444123Y-71092219D02*
X136872695Y-71092219D01*
X137158409Y-71092219D02*
X137158409Y-70092219D01*
X137158409Y-70092219D02*
X137063171Y-70235076D01*
X137063171Y-70235076D02*
X136967933Y-70330314D01*
X136967933Y-70330314D02*
X136872695Y-70377933D01*
X137777457Y-70092219D02*
X138444123Y-70092219D01*
X138444123Y-70092219D02*
X138015552Y-71092219D01*
X112918505Y-103975644D02*
X112918505Y-102975644D01*
X112918505Y-102975644D02*
X113299457Y-102975644D01*
X113299457Y-102975644D02*
X113394695Y-103023263D01*
X113394695Y-103023263D02*
X113442314Y-103070882D01*
X113442314Y-103070882D02*
X113489933Y-103166120D01*
X113489933Y-103166120D02*
X113489933Y-103308977D01*
X113489933Y-103308977D02*
X113442314Y-103404215D01*
X113442314Y-103404215D02*
X113394695Y-103451834D01*
X113394695Y-103451834D02*
X113299457Y-103499453D01*
X113299457Y-103499453D02*
X112918505Y-103499453D01*
X113918505Y-102975644D02*
X113918505Y-103785167D01*
X113918505Y-103785167D02*
X113966124Y-103880405D01*
X113966124Y-103880405D02*
X114013743Y-103928025D01*
X114013743Y-103928025D02*
X114108981Y-103975644D01*
X114108981Y-103975644D02*
X114299457Y-103975644D01*
X114299457Y-103975644D02*
X114394695Y-103928025D01*
X114394695Y-103928025D02*
X114442314Y-103880405D01*
X114442314Y-103880405D02*
X114489933Y-103785167D01*
X114489933Y-103785167D02*
X114489933Y-102975644D01*
X115489933Y-103975644D02*
X114918505Y-103975644D01*
X115204219Y-103975644D02*
X115204219Y-102975644D01*
X115204219Y-102975644D02*
X115108981Y-103118501D01*
X115108981Y-103118501D02*
X115013743Y-103213739D01*
X115013743Y-103213739D02*
X114918505Y-103261358D01*
X115870886Y-103070882D02*
X115918505Y-103023263D01*
X115918505Y-103023263D02*
X116013743Y-102975644D01*
X116013743Y-102975644D02*
X116251838Y-102975644D01*
X116251838Y-102975644D02*
X116347076Y-103023263D01*
X116347076Y-103023263D02*
X116394695Y-103070882D01*
X116394695Y-103070882D02*
X116442314Y-103166120D01*
X116442314Y-103166120D02*
X116442314Y-103261358D01*
X116442314Y-103261358D02*
X116394695Y-103404215D01*
X116394695Y-103404215D02*
X115823267Y-103975644D01*
X115823267Y-103975644D02*
X116442314Y-103975644D01*
X163180733Y-65053380D02*
X163133114Y-65101000D01*
X163133114Y-65101000D02*
X162990257Y-65148619D01*
X162990257Y-65148619D02*
X162895019Y-65148619D01*
X162895019Y-65148619D02*
X162752162Y-65101000D01*
X162752162Y-65101000D02*
X162656924Y-65005761D01*
X162656924Y-65005761D02*
X162609305Y-64910523D01*
X162609305Y-64910523D02*
X162561686Y-64720047D01*
X162561686Y-64720047D02*
X162561686Y-64577190D01*
X162561686Y-64577190D02*
X162609305Y-64386714D01*
X162609305Y-64386714D02*
X162656924Y-64291476D01*
X162656924Y-64291476D02*
X162752162Y-64196238D01*
X162752162Y-64196238D02*
X162895019Y-64148619D01*
X162895019Y-64148619D02*
X162990257Y-64148619D01*
X162990257Y-64148619D02*
X163133114Y-64196238D01*
X163133114Y-64196238D02*
X163180733Y-64243857D01*
X164037876Y-64148619D02*
X163847400Y-64148619D01*
X163847400Y-64148619D02*
X163752162Y-64196238D01*
X163752162Y-64196238D02*
X163704543Y-64243857D01*
X163704543Y-64243857D02*
X163609305Y-64386714D01*
X163609305Y-64386714D02*
X163561686Y-64577190D01*
X163561686Y-64577190D02*
X163561686Y-64958142D01*
X163561686Y-64958142D02*
X163609305Y-65053380D01*
X163609305Y-65053380D02*
X163656924Y-65101000D01*
X163656924Y-65101000D02*
X163752162Y-65148619D01*
X163752162Y-65148619D02*
X163942638Y-65148619D01*
X163942638Y-65148619D02*
X164037876Y-65101000D01*
X164037876Y-65101000D02*
X164085495Y-65053380D01*
X164085495Y-65053380D02*
X164133114Y-64958142D01*
X164133114Y-64958142D02*
X164133114Y-64720047D01*
X164133114Y-64720047D02*
X164085495Y-64624809D01*
X164085495Y-64624809D02*
X164037876Y-64577190D01*
X164037876Y-64577190D02*
X163942638Y-64529571D01*
X163942638Y-64529571D02*
X163752162Y-64529571D01*
X163752162Y-64529571D02*
X163656924Y-64577190D01*
X163656924Y-64577190D02*
X163609305Y-64624809D01*
X163609305Y-64624809D02*
X163561686Y-64720047D01*
D12*
X198650980Y-59137042D02*
X198832409Y-59197518D01*
X198832409Y-59197518D02*
X199134790Y-59197518D01*
X199134790Y-59197518D02*
X199255742Y-59137042D01*
X199255742Y-59137042D02*
X199316218Y-59076565D01*
X199316218Y-59076565D02*
X199376695Y-58955613D01*
X199376695Y-58955613D02*
X199376695Y-58834661D01*
X199376695Y-58834661D02*
X199316218Y-58713708D01*
X199316218Y-58713708D02*
X199255742Y-58653232D01*
X199255742Y-58653232D02*
X199134790Y-58592756D01*
X199134790Y-58592756D02*
X198892885Y-58532280D01*
X198892885Y-58532280D02*
X198771933Y-58471803D01*
X198771933Y-58471803D02*
X198711456Y-58411327D01*
X198711456Y-58411327D02*
X198650980Y-58290375D01*
X198650980Y-58290375D02*
X198650980Y-58169422D01*
X198650980Y-58169422D02*
X198711456Y-58048470D01*
X198711456Y-58048470D02*
X198771933Y-57987994D01*
X198771933Y-57987994D02*
X198892885Y-57927518D01*
X198892885Y-57927518D02*
X199195266Y-57927518D01*
X199195266Y-57927518D02*
X199376695Y-57987994D01*
X199800028Y-57927518D02*
X200586219Y-57927518D01*
X200586219Y-57927518D02*
X200162885Y-58411327D01*
X200162885Y-58411327D02*
X200344314Y-58411327D01*
X200344314Y-58411327D02*
X200465266Y-58471803D01*
X200465266Y-58471803D02*
X200525742Y-58532280D01*
X200525742Y-58532280D02*
X200586219Y-58653232D01*
X200586219Y-58653232D02*
X200586219Y-58955613D01*
X200586219Y-58955613D02*
X200525742Y-59076565D01*
X200525742Y-59076565D02*
X200465266Y-59137042D01*
X200465266Y-59137042D02*
X200344314Y-59197518D01*
X200344314Y-59197518D02*
X199981457Y-59197518D01*
X199981457Y-59197518D02*
X199860504Y-59137042D01*
X199860504Y-59137042D02*
X199800028Y-59076565D01*
D11*
X123737905Y-111224219D02*
X123737905Y-110224219D01*
X123737905Y-110224219D02*
X124118857Y-110224219D01*
X124118857Y-110224219D02*
X124214095Y-110271838D01*
X124214095Y-110271838D02*
X124261714Y-110319457D01*
X124261714Y-110319457D02*
X124309333Y-110414695D01*
X124309333Y-110414695D02*
X124309333Y-110557552D01*
X124309333Y-110557552D02*
X124261714Y-110652790D01*
X124261714Y-110652790D02*
X124214095Y-110700409D01*
X124214095Y-110700409D02*
X124118857Y-110748028D01*
X124118857Y-110748028D02*
X123737905Y-110748028D01*
X124737905Y-110224219D02*
X124737905Y-111033742D01*
X124737905Y-111033742D02*
X124785524Y-111128980D01*
X124785524Y-111128980D02*
X124833143Y-111176600D01*
X124833143Y-111176600D02*
X124928381Y-111224219D01*
X124928381Y-111224219D02*
X125118857Y-111224219D01*
X125118857Y-111224219D02*
X125214095Y-111176600D01*
X125214095Y-111176600D02*
X125261714Y-111128980D01*
X125261714Y-111128980D02*
X125309333Y-111033742D01*
X125309333Y-111033742D02*
X125309333Y-110224219D01*
X126309333Y-111224219D02*
X125737905Y-111224219D01*
X126023619Y-111224219D02*
X126023619Y-110224219D01*
X126023619Y-110224219D02*
X125928381Y-110367076D01*
X125928381Y-110367076D02*
X125833143Y-110462314D01*
X125833143Y-110462314D02*
X125737905Y-110509933D01*
X126642667Y-110224219D02*
X127261714Y-110224219D01*
X127261714Y-110224219D02*
X126928381Y-110605171D01*
X126928381Y-110605171D02*
X127071238Y-110605171D01*
X127071238Y-110605171D02*
X127166476Y-110652790D01*
X127166476Y-110652790D02*
X127214095Y-110700409D01*
X127214095Y-110700409D02*
X127261714Y-110795647D01*
X127261714Y-110795647D02*
X127261714Y-111033742D01*
X127261714Y-111033742D02*
X127214095Y-111128980D01*
X127214095Y-111128980D02*
X127166476Y-111176600D01*
X127166476Y-111176600D02*
X127071238Y-111224219D01*
X127071238Y-111224219D02*
X126785524Y-111224219D01*
X126785524Y-111224219D02*
X126690286Y-111176600D01*
X126690286Y-111176600D02*
X126642667Y-111128980D01*
X114663695Y-78813819D02*
X114663695Y-77813819D01*
X114663695Y-77813819D02*
X115044647Y-77813819D01*
X115044647Y-77813819D02*
X115139885Y-77861438D01*
X115139885Y-77861438D02*
X115187504Y-77909057D01*
X115187504Y-77909057D02*
X115235123Y-78004295D01*
X115235123Y-78004295D02*
X115235123Y-78147152D01*
X115235123Y-78147152D02*
X115187504Y-78242390D01*
X115187504Y-78242390D02*
X115139885Y-78290009D01*
X115139885Y-78290009D02*
X115044647Y-78337628D01*
X115044647Y-78337628D02*
X114663695Y-78337628D01*
X115663695Y-77813819D02*
X115663695Y-78623342D01*
X115663695Y-78623342D02*
X115711314Y-78718580D01*
X115711314Y-78718580D02*
X115758933Y-78766200D01*
X115758933Y-78766200D02*
X115854171Y-78813819D01*
X115854171Y-78813819D02*
X116044647Y-78813819D01*
X116044647Y-78813819D02*
X116139885Y-78766200D01*
X116139885Y-78766200D02*
X116187504Y-78718580D01*
X116187504Y-78718580D02*
X116235123Y-78623342D01*
X116235123Y-78623342D02*
X116235123Y-77813819D01*
X116663695Y-77909057D02*
X116711314Y-77861438D01*
X116711314Y-77861438D02*
X116806552Y-77813819D01*
X116806552Y-77813819D02*
X117044647Y-77813819D01*
X117044647Y-77813819D02*
X117139885Y-77861438D01*
X117139885Y-77861438D02*
X117187504Y-77909057D01*
X117187504Y-77909057D02*
X117235123Y-78004295D01*
X117235123Y-78004295D02*
X117235123Y-78099533D01*
X117235123Y-78099533D02*
X117187504Y-78242390D01*
X117187504Y-78242390D02*
X116616076Y-78813819D01*
X116616076Y-78813819D02*
X117235123Y-78813819D01*
X113191555Y-100921319D02*
X113191555Y-99921319D01*
X113191555Y-99921319D02*
X113572507Y-99921319D01*
X113572507Y-99921319D02*
X113667745Y-99968938D01*
X113667745Y-99968938D02*
X113715364Y-100016557D01*
X113715364Y-100016557D02*
X113762983Y-100111795D01*
X113762983Y-100111795D02*
X113762983Y-100254652D01*
X113762983Y-100254652D02*
X113715364Y-100349890D01*
X113715364Y-100349890D02*
X113667745Y-100397509D01*
X113667745Y-100397509D02*
X113572507Y-100445128D01*
X113572507Y-100445128D02*
X113191555Y-100445128D01*
X114191555Y-99921319D02*
X114191555Y-100730842D01*
X114191555Y-100730842D02*
X114239174Y-100826080D01*
X114239174Y-100826080D02*
X114286793Y-100873700D01*
X114286793Y-100873700D02*
X114382031Y-100921319D01*
X114382031Y-100921319D02*
X114572507Y-100921319D01*
X114572507Y-100921319D02*
X114667745Y-100873700D01*
X114667745Y-100873700D02*
X114715364Y-100826080D01*
X114715364Y-100826080D02*
X114762983Y-100730842D01*
X114762983Y-100730842D02*
X114762983Y-99921319D01*
X115762983Y-100921319D02*
X115191555Y-100921319D01*
X115477269Y-100921319D02*
X115477269Y-99921319D01*
X115477269Y-99921319D02*
X115382031Y-100064176D01*
X115382031Y-100064176D02*
X115286793Y-100159414D01*
X115286793Y-100159414D02*
X115191555Y-100207033D01*
X116715364Y-100921319D02*
X116143936Y-100921319D01*
X116429650Y-100921319D02*
X116429650Y-99921319D01*
X116429650Y-99921319D02*
X116334412Y-100064176D01*
X116334412Y-100064176D02*
X116239174Y-100159414D01*
X116239174Y-100159414D02*
X116143936Y-100207033D01*
X123551961Y-86198857D02*
X123456723Y-86151238D01*
X123456723Y-86151238D02*
X123361485Y-86056000D01*
X123361485Y-86056000D02*
X123218628Y-85913142D01*
X123218628Y-85913142D02*
X123123390Y-85865523D01*
X123123390Y-85865523D02*
X123028152Y-85865523D01*
X123075771Y-86103619D02*
X122980533Y-86056000D01*
X122980533Y-86056000D02*
X122885295Y-85960761D01*
X122885295Y-85960761D02*
X122837676Y-85770285D01*
X122837676Y-85770285D02*
X122837676Y-85436952D01*
X122837676Y-85436952D02*
X122885295Y-85246476D01*
X122885295Y-85246476D02*
X122980533Y-85151238D01*
X122980533Y-85151238D02*
X123075771Y-85103619D01*
X123075771Y-85103619D02*
X123266247Y-85103619D01*
X123266247Y-85103619D02*
X123361485Y-85151238D01*
X123361485Y-85151238D02*
X123456723Y-85246476D01*
X123456723Y-85246476D02*
X123504342Y-85436952D01*
X123504342Y-85436952D02*
X123504342Y-85770285D01*
X123504342Y-85770285D02*
X123456723Y-85960761D01*
X123456723Y-85960761D02*
X123361485Y-86056000D01*
X123361485Y-86056000D02*
X123266247Y-86103619D01*
X123266247Y-86103619D02*
X123075771Y-86103619D01*
X123837676Y-85103619D02*
X124456723Y-85103619D01*
X124456723Y-85103619D02*
X124123390Y-85484571D01*
X124123390Y-85484571D02*
X124266247Y-85484571D01*
X124266247Y-85484571D02*
X124361485Y-85532190D01*
X124361485Y-85532190D02*
X124409104Y-85579809D01*
X124409104Y-85579809D02*
X124456723Y-85675047D01*
X124456723Y-85675047D02*
X124456723Y-85913142D01*
X124456723Y-85913142D02*
X124409104Y-86008380D01*
X124409104Y-86008380D02*
X124361485Y-86056000D01*
X124361485Y-86056000D02*
X124266247Y-86103619D01*
X124266247Y-86103619D02*
X123980533Y-86103619D01*
X123980533Y-86103619D02*
X123885295Y-86056000D01*
X123885295Y-86056000D02*
X123837676Y-86008380D01*
D12*
X108383917Y-83800593D02*
X108383917Y-84707736D01*
X108383917Y-84707736D02*
X108323440Y-84889164D01*
X108323440Y-84889164D02*
X108202488Y-85010117D01*
X108202488Y-85010117D02*
X108021059Y-85070593D01*
X108021059Y-85070593D02*
X107900107Y-85070593D01*
X109593440Y-83800593D02*
X108988678Y-83800593D01*
X108988678Y-83800593D02*
X108928202Y-84405355D01*
X108928202Y-84405355D02*
X108988678Y-84344878D01*
X108988678Y-84344878D02*
X109109631Y-84284402D01*
X109109631Y-84284402D02*
X109412012Y-84284402D01*
X109412012Y-84284402D02*
X109532964Y-84344878D01*
X109532964Y-84344878D02*
X109593440Y-84405355D01*
X109593440Y-84405355D02*
X109653917Y-84526307D01*
X109653917Y-84526307D02*
X109653917Y-84828688D01*
X109653917Y-84828688D02*
X109593440Y-84949640D01*
X109593440Y-84949640D02*
X109532964Y-85010117D01*
X109532964Y-85010117D02*
X109412012Y-85070593D01*
X109412012Y-85070593D02*
X109109631Y-85070593D01*
X109109631Y-85070593D02*
X108988678Y-85010117D01*
X108988678Y-85010117D02*
X108928202Y-84949640D01*
D11*
X113772520Y-97889169D02*
X113772520Y-96889169D01*
X113772520Y-96889169D02*
X114153472Y-96889169D01*
X114153472Y-96889169D02*
X114248710Y-96936788D01*
X114248710Y-96936788D02*
X114296329Y-96984407D01*
X114296329Y-96984407D02*
X114343948Y-97079645D01*
X114343948Y-97079645D02*
X114343948Y-97222502D01*
X114343948Y-97222502D02*
X114296329Y-97317740D01*
X114296329Y-97317740D02*
X114248710Y-97365359D01*
X114248710Y-97365359D02*
X114153472Y-97412978D01*
X114153472Y-97412978D02*
X113772520Y-97412978D01*
X114772520Y-96889169D02*
X114772520Y-97698692D01*
X114772520Y-97698692D02*
X114820139Y-97793930D01*
X114820139Y-97793930D02*
X114867758Y-97841550D01*
X114867758Y-97841550D02*
X114962996Y-97889169D01*
X114962996Y-97889169D02*
X115153472Y-97889169D01*
X115153472Y-97889169D02*
X115248710Y-97841550D01*
X115248710Y-97841550D02*
X115296329Y-97793930D01*
X115296329Y-97793930D02*
X115343948Y-97698692D01*
X115343948Y-97698692D02*
X115343948Y-96889169D01*
X115867758Y-97889169D02*
X116058234Y-97889169D01*
X116058234Y-97889169D02*
X116153472Y-97841550D01*
X116153472Y-97841550D02*
X116201091Y-97793930D01*
X116201091Y-97793930D02*
X116296329Y-97651073D01*
X116296329Y-97651073D02*
X116343948Y-97460597D01*
X116343948Y-97460597D02*
X116343948Y-97079645D01*
X116343948Y-97079645D02*
X116296329Y-96984407D01*
X116296329Y-96984407D02*
X116248710Y-96936788D01*
X116248710Y-96936788D02*
X116153472Y-96889169D01*
X116153472Y-96889169D02*
X115962996Y-96889169D01*
X115962996Y-96889169D02*
X115867758Y-96936788D01*
X115867758Y-96936788D02*
X115820139Y-96984407D01*
X115820139Y-96984407D02*
X115772520Y-97079645D01*
X115772520Y-97079645D02*
X115772520Y-97317740D01*
X115772520Y-97317740D02*
X115820139Y-97412978D01*
X115820139Y-97412978D02*
X115867758Y-97460597D01*
X115867758Y-97460597D02*
X115962996Y-97508216D01*
X115962996Y-97508216D02*
X116153472Y-97508216D01*
X116153472Y-97508216D02*
X116248710Y-97460597D01*
X116248710Y-97460597D02*
X116296329Y-97412978D01*
X116296329Y-97412978D02*
X116343948Y-97317740D01*
X127364661Y-102886657D02*
X127269423Y-102839038D01*
X127269423Y-102839038D02*
X127174185Y-102743800D01*
X127174185Y-102743800D02*
X127031328Y-102600942D01*
X127031328Y-102600942D02*
X126936090Y-102553323D01*
X126936090Y-102553323D02*
X126840852Y-102553323D01*
X126888471Y-102791419D02*
X126793233Y-102743800D01*
X126793233Y-102743800D02*
X126697995Y-102648561D01*
X126697995Y-102648561D02*
X126650376Y-102458085D01*
X126650376Y-102458085D02*
X126650376Y-102124752D01*
X126650376Y-102124752D02*
X126697995Y-101934276D01*
X126697995Y-101934276D02*
X126793233Y-101839038D01*
X126793233Y-101839038D02*
X126888471Y-101791419D01*
X126888471Y-101791419D02*
X127078947Y-101791419D01*
X127078947Y-101791419D02*
X127174185Y-101839038D01*
X127174185Y-101839038D02*
X127269423Y-101934276D01*
X127269423Y-101934276D02*
X127317042Y-102124752D01*
X127317042Y-102124752D02*
X127317042Y-102458085D01*
X127317042Y-102458085D02*
X127269423Y-102648561D01*
X127269423Y-102648561D02*
X127174185Y-102743800D01*
X127174185Y-102743800D02*
X127078947Y-102791419D01*
X127078947Y-102791419D02*
X126888471Y-102791419D01*
X128174185Y-102124752D02*
X128174185Y-102791419D01*
X127936090Y-101743800D02*
X127697995Y-102458085D01*
X127697995Y-102458085D02*
X128317042Y-102458085D01*
X132024523Y-76064294D02*
X131691190Y-75588103D01*
X131453095Y-76064294D02*
X131453095Y-75064294D01*
X131453095Y-75064294D02*
X131834047Y-75064294D01*
X131834047Y-75064294D02*
X131929285Y-75111913D01*
X131929285Y-75111913D02*
X131976904Y-75159532D01*
X131976904Y-75159532D02*
X132024523Y-75254770D01*
X132024523Y-75254770D02*
X132024523Y-75397627D01*
X132024523Y-75397627D02*
X131976904Y-75492865D01*
X131976904Y-75492865D02*
X131929285Y-75540484D01*
X131929285Y-75540484D02*
X131834047Y-75588103D01*
X131834047Y-75588103D02*
X131453095Y-75588103D01*
X132453095Y-76064294D02*
X132453095Y-75064294D01*
X132453095Y-75064294D02*
X133024523Y-76064294D01*
X133024523Y-76064294D02*
X133024523Y-75064294D01*
X133453095Y-75159532D02*
X133500714Y-75111913D01*
X133500714Y-75111913D02*
X133595952Y-75064294D01*
X133595952Y-75064294D02*
X133834047Y-75064294D01*
X133834047Y-75064294D02*
X133929285Y-75111913D01*
X133929285Y-75111913D02*
X133976904Y-75159532D01*
X133976904Y-75159532D02*
X134024523Y-75254770D01*
X134024523Y-75254770D02*
X134024523Y-75350008D01*
X134024523Y-75350008D02*
X133976904Y-75492865D01*
X133976904Y-75492865D02*
X133405476Y-76064294D01*
X133405476Y-76064294D02*
X134024523Y-76064294D01*
X123756895Y-108430219D02*
X123756895Y-107430219D01*
X123756895Y-107430219D02*
X124137847Y-107430219D01*
X124137847Y-107430219D02*
X124233085Y-107477838D01*
X124233085Y-107477838D02*
X124280704Y-107525457D01*
X124280704Y-107525457D02*
X124328323Y-107620695D01*
X124328323Y-107620695D02*
X124328323Y-107763552D01*
X124328323Y-107763552D02*
X124280704Y-107858790D01*
X124280704Y-107858790D02*
X124233085Y-107906409D01*
X124233085Y-107906409D02*
X124137847Y-107954028D01*
X124137847Y-107954028D02*
X123756895Y-107954028D01*
X124756895Y-107430219D02*
X124756895Y-108239742D01*
X124756895Y-108239742D02*
X124804514Y-108334980D01*
X124804514Y-108334980D02*
X124852133Y-108382600D01*
X124852133Y-108382600D02*
X124947371Y-108430219D01*
X124947371Y-108430219D02*
X125137847Y-108430219D01*
X125137847Y-108430219D02*
X125233085Y-108382600D01*
X125233085Y-108382600D02*
X125280704Y-108334980D01*
X125280704Y-108334980D02*
X125328323Y-108239742D01*
X125328323Y-108239742D02*
X125328323Y-107430219D01*
X125947371Y-107858790D02*
X125852133Y-107811171D01*
X125852133Y-107811171D02*
X125804514Y-107763552D01*
X125804514Y-107763552D02*
X125756895Y-107668314D01*
X125756895Y-107668314D02*
X125756895Y-107620695D01*
X125756895Y-107620695D02*
X125804514Y-107525457D01*
X125804514Y-107525457D02*
X125852133Y-107477838D01*
X125852133Y-107477838D02*
X125947371Y-107430219D01*
X125947371Y-107430219D02*
X126137847Y-107430219D01*
X126137847Y-107430219D02*
X126233085Y-107477838D01*
X126233085Y-107477838D02*
X126280704Y-107525457D01*
X126280704Y-107525457D02*
X126328323Y-107620695D01*
X126328323Y-107620695D02*
X126328323Y-107668314D01*
X126328323Y-107668314D02*
X126280704Y-107763552D01*
X126280704Y-107763552D02*
X126233085Y-107811171D01*
X126233085Y-107811171D02*
X126137847Y-107858790D01*
X126137847Y-107858790D02*
X125947371Y-107858790D01*
X125947371Y-107858790D02*
X125852133Y-107906409D01*
X125852133Y-107906409D02*
X125804514Y-107954028D01*
X125804514Y-107954028D02*
X125756895Y-108049266D01*
X125756895Y-108049266D02*
X125756895Y-108239742D01*
X125756895Y-108239742D02*
X125804514Y-108334980D01*
X125804514Y-108334980D02*
X125852133Y-108382600D01*
X125852133Y-108382600D02*
X125947371Y-108430219D01*
X125947371Y-108430219D02*
X126137847Y-108430219D01*
X126137847Y-108430219D02*
X126233085Y-108382600D01*
X126233085Y-108382600D02*
X126280704Y-108334980D01*
X126280704Y-108334980D02*
X126328323Y-108239742D01*
X126328323Y-108239742D02*
X126328323Y-108049266D01*
X126328323Y-108049266D02*
X126280704Y-107954028D01*
X126280704Y-107954028D02*
X126233085Y-107906409D01*
X126233085Y-107906409D02*
X126137847Y-107858790D01*
X137012467Y-75969005D02*
X136964848Y-76016625D01*
X136964848Y-76016625D02*
X136821991Y-76064244D01*
X136821991Y-76064244D02*
X136726753Y-76064244D01*
X136726753Y-76064244D02*
X136583896Y-76016625D01*
X136583896Y-76016625D02*
X136488658Y-75921386D01*
X136488658Y-75921386D02*
X136441039Y-75826148D01*
X136441039Y-75826148D02*
X136393420Y-75635672D01*
X136393420Y-75635672D02*
X136393420Y-75492815D01*
X136393420Y-75492815D02*
X136441039Y-75302339D01*
X136441039Y-75302339D02*
X136488658Y-75207101D01*
X136488658Y-75207101D02*
X136583896Y-75111863D01*
X136583896Y-75111863D02*
X136726753Y-75064244D01*
X136726753Y-75064244D02*
X136821991Y-75064244D01*
X136821991Y-75064244D02*
X136964848Y-75111863D01*
X136964848Y-75111863D02*
X137012467Y-75159482D01*
X137964848Y-76064244D02*
X137393420Y-76064244D01*
X137679134Y-76064244D02*
X137679134Y-75064244D01*
X137679134Y-75064244D02*
X137583896Y-75207101D01*
X137583896Y-75207101D02*
X137488658Y-75302339D01*
X137488658Y-75302339D02*
X137393420Y-75349958D01*
X138536277Y-75492815D02*
X138441039Y-75445196D01*
X138441039Y-75445196D02*
X138393420Y-75397577D01*
X138393420Y-75397577D02*
X138345801Y-75302339D01*
X138345801Y-75302339D02*
X138345801Y-75254720D01*
X138345801Y-75254720D02*
X138393420Y-75159482D01*
X138393420Y-75159482D02*
X138441039Y-75111863D01*
X138441039Y-75111863D02*
X138536277Y-75064244D01*
X138536277Y-75064244D02*
X138726753Y-75064244D01*
X138726753Y-75064244D02*
X138821991Y-75111863D01*
X138821991Y-75111863D02*
X138869610Y-75159482D01*
X138869610Y-75159482D02*
X138917229Y-75254720D01*
X138917229Y-75254720D02*
X138917229Y-75302339D01*
X138917229Y-75302339D02*
X138869610Y-75397577D01*
X138869610Y-75397577D02*
X138821991Y-75445196D01*
X138821991Y-75445196D02*
X138726753Y-75492815D01*
X138726753Y-75492815D02*
X138536277Y-75492815D01*
X138536277Y-75492815D02*
X138441039Y-75540434D01*
X138441039Y-75540434D02*
X138393420Y-75588053D01*
X138393420Y-75588053D02*
X138345801Y-75683291D01*
X138345801Y-75683291D02*
X138345801Y-75873767D01*
X138345801Y-75873767D02*
X138393420Y-75969005D01*
X138393420Y-75969005D02*
X138441039Y-76016625D01*
X138441039Y-76016625D02*
X138536277Y-76064244D01*
X138536277Y-76064244D02*
X138726753Y-76064244D01*
X138726753Y-76064244D02*
X138821991Y-76016625D01*
X138821991Y-76016625D02*
X138869610Y-75969005D01*
X138869610Y-75969005D02*
X138917229Y-75873767D01*
X138917229Y-75873767D02*
X138917229Y-75683291D01*
X138917229Y-75683291D02*
X138869610Y-75588053D01*
X138869610Y-75588053D02*
X138821991Y-75540434D01*
X138821991Y-75540434D02*
X138726753Y-75492815D01*
X149763183Y-77883505D02*
X149715564Y-77931125D01*
X149715564Y-77931125D02*
X149572707Y-77978744D01*
X149572707Y-77978744D02*
X149477469Y-77978744D01*
X149477469Y-77978744D02*
X149334612Y-77931125D01*
X149334612Y-77931125D02*
X149239374Y-77835886D01*
X149239374Y-77835886D02*
X149191755Y-77740648D01*
X149191755Y-77740648D02*
X149144136Y-77550172D01*
X149144136Y-77550172D02*
X149144136Y-77407315D01*
X149144136Y-77407315D02*
X149191755Y-77216839D01*
X149191755Y-77216839D02*
X149239374Y-77121601D01*
X149239374Y-77121601D02*
X149334612Y-77026363D01*
X149334612Y-77026363D02*
X149477469Y-76978744D01*
X149477469Y-76978744D02*
X149572707Y-76978744D01*
X149572707Y-76978744D02*
X149715564Y-77026363D01*
X149715564Y-77026363D02*
X149763183Y-77073982D01*
X150667945Y-76978744D02*
X150191755Y-76978744D01*
X150191755Y-76978744D02*
X150144136Y-77454934D01*
X150144136Y-77454934D02*
X150191755Y-77407315D01*
X150191755Y-77407315D02*
X150286993Y-77359696D01*
X150286993Y-77359696D02*
X150525088Y-77359696D01*
X150525088Y-77359696D02*
X150620326Y-77407315D01*
X150620326Y-77407315D02*
X150667945Y-77454934D01*
X150667945Y-77454934D02*
X150715564Y-77550172D01*
X150715564Y-77550172D02*
X150715564Y-77788267D01*
X150715564Y-77788267D02*
X150667945Y-77883505D01*
X150667945Y-77883505D02*
X150620326Y-77931125D01*
X150620326Y-77931125D02*
X150525088Y-77978744D01*
X150525088Y-77978744D02*
X150286993Y-77978744D01*
X150286993Y-77978744D02*
X150191755Y-77931125D01*
X150191755Y-77931125D02*
X150144136Y-77883505D01*
X172151745Y-86583194D02*
X172151745Y-87392717D01*
X172151745Y-87392717D02*
X172199364Y-87487955D01*
X172199364Y-87487955D02*
X172246983Y-87535575D01*
X172246983Y-87535575D02*
X172342221Y-87583194D01*
X172342221Y-87583194D02*
X172532697Y-87583194D01*
X172532697Y-87583194D02*
X172627935Y-87535575D01*
X172627935Y-87535575D02*
X172675554Y-87487955D01*
X172675554Y-87487955D02*
X172723173Y-87392717D01*
X172723173Y-87392717D02*
X172723173Y-86583194D01*
X173342221Y-87011765D02*
X173246983Y-86964146D01*
X173246983Y-86964146D02*
X173199364Y-86916527D01*
X173199364Y-86916527D02*
X173151745Y-86821289D01*
X173151745Y-86821289D02*
X173151745Y-86773670D01*
X173151745Y-86773670D02*
X173199364Y-86678432D01*
X173199364Y-86678432D02*
X173246983Y-86630813D01*
X173246983Y-86630813D02*
X173342221Y-86583194D01*
X173342221Y-86583194D02*
X173532697Y-86583194D01*
X173532697Y-86583194D02*
X173627935Y-86630813D01*
X173627935Y-86630813D02*
X173675554Y-86678432D01*
X173675554Y-86678432D02*
X173723173Y-86773670D01*
X173723173Y-86773670D02*
X173723173Y-86821289D01*
X173723173Y-86821289D02*
X173675554Y-86916527D01*
X173675554Y-86916527D02*
X173627935Y-86964146D01*
X173627935Y-86964146D02*
X173532697Y-87011765D01*
X173532697Y-87011765D02*
X173342221Y-87011765D01*
X173342221Y-87011765D02*
X173246983Y-87059384D01*
X173246983Y-87059384D02*
X173199364Y-87107003D01*
X173199364Y-87107003D02*
X173151745Y-87202241D01*
X173151745Y-87202241D02*
X173151745Y-87392717D01*
X173151745Y-87392717D02*
X173199364Y-87487955D01*
X173199364Y-87487955D02*
X173246983Y-87535575D01*
X173246983Y-87535575D02*
X173342221Y-87583194D01*
X173342221Y-87583194D02*
X173532697Y-87583194D01*
X173532697Y-87583194D02*
X173627935Y-87535575D01*
X173627935Y-87535575D02*
X173675554Y-87487955D01*
X173675554Y-87487955D02*
X173723173Y-87392717D01*
X173723173Y-87392717D02*
X173723173Y-87202241D01*
X173723173Y-87202241D02*
X173675554Y-87107003D01*
X173675554Y-87107003D02*
X173627935Y-87059384D01*
X173627935Y-87059384D02*
X173532697Y-87011765D01*
D12*
X143553392Y-59276893D02*
X143553392Y-60184036D01*
X143553392Y-60184036D02*
X143492915Y-60365464D01*
X143492915Y-60365464D02*
X143371963Y-60486417D01*
X143371963Y-60486417D02*
X143190534Y-60546893D01*
X143190534Y-60546893D02*
X143069582Y-60546893D01*
X144339582Y-59821178D02*
X144218630Y-59760702D01*
X144218630Y-59760702D02*
X144158153Y-59700226D01*
X144158153Y-59700226D02*
X144097677Y-59579274D01*
X144097677Y-59579274D02*
X144097677Y-59518797D01*
X144097677Y-59518797D02*
X144158153Y-59397845D01*
X144158153Y-59397845D02*
X144218630Y-59337369D01*
X144218630Y-59337369D02*
X144339582Y-59276893D01*
X144339582Y-59276893D02*
X144581487Y-59276893D01*
X144581487Y-59276893D02*
X144702439Y-59337369D01*
X144702439Y-59337369D02*
X144762915Y-59397845D01*
X144762915Y-59397845D02*
X144823392Y-59518797D01*
X144823392Y-59518797D02*
X144823392Y-59579274D01*
X144823392Y-59579274D02*
X144762915Y-59700226D01*
X144762915Y-59700226D02*
X144702439Y-59760702D01*
X144702439Y-59760702D02*
X144581487Y-59821178D01*
X144581487Y-59821178D02*
X144339582Y-59821178D01*
X144339582Y-59821178D02*
X144218630Y-59881655D01*
X144218630Y-59881655D02*
X144158153Y-59942131D01*
X144158153Y-59942131D02*
X144097677Y-60063083D01*
X144097677Y-60063083D02*
X144097677Y-60304988D01*
X144097677Y-60304988D02*
X144158153Y-60425940D01*
X144158153Y-60425940D02*
X144218630Y-60486417D01*
X144218630Y-60486417D02*
X144339582Y-60546893D01*
X144339582Y-60546893D02*
X144581487Y-60546893D01*
X144581487Y-60546893D02*
X144702439Y-60486417D01*
X144702439Y-60486417D02*
X144762915Y-60425940D01*
X144762915Y-60425940D02*
X144823392Y-60304988D01*
X144823392Y-60304988D02*
X144823392Y-60063083D01*
X144823392Y-60063083D02*
X144762915Y-59942131D01*
X144762915Y-59942131D02*
X144702439Y-59881655D01*
X144702439Y-59881655D02*
X144581487Y-59821178D01*
D11*
X132024523Y-74775219D02*
X131691190Y-74299028D01*
X131453095Y-74775219D02*
X131453095Y-73775219D01*
X131453095Y-73775219D02*
X131834047Y-73775219D01*
X131834047Y-73775219D02*
X131929285Y-73822838D01*
X131929285Y-73822838D02*
X131976904Y-73870457D01*
X131976904Y-73870457D02*
X132024523Y-73965695D01*
X132024523Y-73965695D02*
X132024523Y-74108552D01*
X132024523Y-74108552D02*
X131976904Y-74203790D01*
X131976904Y-74203790D02*
X131929285Y-74251409D01*
X131929285Y-74251409D02*
X131834047Y-74299028D01*
X131834047Y-74299028D02*
X131453095Y-74299028D01*
X132453095Y-74775219D02*
X132453095Y-73775219D01*
X132453095Y-73775219D02*
X133024523Y-74775219D01*
X133024523Y-74775219D02*
X133024523Y-73775219D01*
X134024523Y-74775219D02*
X133453095Y-74775219D01*
X133738809Y-74775219D02*
X133738809Y-73775219D01*
X133738809Y-73775219D02*
X133643571Y-73918076D01*
X133643571Y-73918076D02*
X133548333Y-74013314D01*
X133548333Y-74013314D02*
X133453095Y-74060933D01*
D12*
X203837418Y-76520318D02*
X203837418Y-75250318D01*
X203837418Y-75250318D02*
X204321228Y-75250318D01*
X204321228Y-75250318D02*
X204442180Y-75310794D01*
X204442180Y-75310794D02*
X204502657Y-75371270D01*
X204502657Y-75371270D02*
X204563133Y-75492222D01*
X204563133Y-75492222D02*
X204563133Y-75673651D01*
X204563133Y-75673651D02*
X204502657Y-75794603D01*
X204502657Y-75794603D02*
X204442180Y-75855080D01*
X204442180Y-75855080D02*
X204321228Y-75915556D01*
X204321228Y-75915556D02*
X203837418Y-75915556D01*
X204986466Y-75250318D02*
X205772657Y-75250318D01*
X205772657Y-75250318D02*
X205349323Y-75734127D01*
X205349323Y-75734127D02*
X205530752Y-75734127D01*
X205530752Y-75734127D02*
X205651704Y-75794603D01*
X205651704Y-75794603D02*
X205712180Y-75855080D01*
X205712180Y-75855080D02*
X205772657Y-75976032D01*
X205772657Y-75976032D02*
X205772657Y-76278413D01*
X205772657Y-76278413D02*
X205712180Y-76399365D01*
X205712180Y-76399365D02*
X205651704Y-76459842D01*
X205651704Y-76459842D02*
X205530752Y-76520318D01*
X205530752Y-76520318D02*
X205167895Y-76520318D01*
X205167895Y-76520318D02*
X205046942Y-76459842D01*
X205046942Y-76459842D02*
X204986466Y-76399365D01*
D11*
X123450361Y-82109457D02*
X123355123Y-82061838D01*
X123355123Y-82061838D02*
X123259885Y-81966600D01*
X123259885Y-81966600D02*
X123117028Y-81823742D01*
X123117028Y-81823742D02*
X123021790Y-81776123D01*
X123021790Y-81776123D02*
X122926552Y-81776123D01*
X122974171Y-82014219D02*
X122878933Y-81966600D01*
X122878933Y-81966600D02*
X122783695Y-81871361D01*
X122783695Y-81871361D02*
X122736076Y-81680885D01*
X122736076Y-81680885D02*
X122736076Y-81347552D01*
X122736076Y-81347552D02*
X122783695Y-81157076D01*
X122783695Y-81157076D02*
X122878933Y-81061838D01*
X122878933Y-81061838D02*
X122974171Y-81014219D01*
X122974171Y-81014219D02*
X123164647Y-81014219D01*
X123164647Y-81014219D02*
X123259885Y-81061838D01*
X123259885Y-81061838D02*
X123355123Y-81157076D01*
X123355123Y-81157076D02*
X123402742Y-81347552D01*
X123402742Y-81347552D02*
X123402742Y-81680885D01*
X123402742Y-81680885D02*
X123355123Y-81871361D01*
X123355123Y-81871361D02*
X123259885Y-81966600D01*
X123259885Y-81966600D02*
X123164647Y-82014219D01*
X123164647Y-82014219D02*
X122974171Y-82014219D01*
X123783695Y-81109457D02*
X123831314Y-81061838D01*
X123831314Y-81061838D02*
X123926552Y-81014219D01*
X123926552Y-81014219D02*
X124164647Y-81014219D01*
X124164647Y-81014219D02*
X124259885Y-81061838D01*
X124259885Y-81061838D02*
X124307504Y-81109457D01*
X124307504Y-81109457D02*
X124355123Y-81204695D01*
X124355123Y-81204695D02*
X124355123Y-81299933D01*
X124355123Y-81299933D02*
X124307504Y-81442790D01*
X124307504Y-81442790D02*
X123736076Y-82014219D01*
X123736076Y-82014219D02*
X124355123Y-82014219D01*
X133958410Y-93799819D02*
X133958410Y-92799819D01*
X133958410Y-92799819D02*
X134196505Y-92799819D01*
X134196505Y-92799819D02*
X134339362Y-92847438D01*
X134339362Y-92847438D02*
X134434600Y-92942676D01*
X134434600Y-92942676D02*
X134482219Y-93037914D01*
X134482219Y-93037914D02*
X134529838Y-93228390D01*
X134529838Y-93228390D02*
X134529838Y-93371247D01*
X134529838Y-93371247D02*
X134482219Y-93561723D01*
X134482219Y-93561723D02*
X134434600Y-93656961D01*
X134434600Y-93656961D02*
X134339362Y-93752200D01*
X134339362Y-93752200D02*
X134196505Y-93799819D01*
X134196505Y-93799819D02*
X133958410Y-93799819D01*
X134958410Y-93799819D02*
X134958410Y-92799819D01*
X135434600Y-93799819D02*
X135434600Y-92799819D01*
X135434600Y-92799819D02*
X135672695Y-92799819D01*
X135672695Y-92799819D02*
X135815552Y-92847438D01*
X135815552Y-92847438D02*
X135910790Y-92942676D01*
X135910790Y-92942676D02*
X135958409Y-93037914D01*
X135958409Y-93037914D02*
X136006028Y-93228390D01*
X136006028Y-93228390D02*
X136006028Y-93371247D01*
X136006028Y-93371247D02*
X135958409Y-93561723D01*
X135958409Y-93561723D02*
X135910790Y-93656961D01*
X135910790Y-93656961D02*
X135815552Y-93752200D01*
X135815552Y-93752200D02*
X135672695Y-93799819D01*
X135672695Y-93799819D02*
X135434600Y-93799819D01*
X136958409Y-93799819D02*
X136386981Y-93799819D01*
X136672695Y-93799819D02*
X136672695Y-92799819D01*
X136672695Y-92799819D02*
X136577457Y-92942676D01*
X136577457Y-92942676D02*
X136482219Y-93037914D01*
X136482219Y-93037914D02*
X136386981Y-93085533D01*
X131999123Y-77289819D02*
X131665790Y-76813628D01*
X131427695Y-77289819D02*
X131427695Y-76289819D01*
X131427695Y-76289819D02*
X131808647Y-76289819D01*
X131808647Y-76289819D02*
X131903885Y-76337438D01*
X131903885Y-76337438D02*
X131951504Y-76385057D01*
X131951504Y-76385057D02*
X131999123Y-76480295D01*
X131999123Y-76480295D02*
X131999123Y-76623152D01*
X131999123Y-76623152D02*
X131951504Y-76718390D01*
X131951504Y-76718390D02*
X131903885Y-76766009D01*
X131903885Y-76766009D02*
X131808647Y-76813628D01*
X131808647Y-76813628D02*
X131427695Y-76813628D01*
X132427695Y-77289819D02*
X132427695Y-76289819D01*
X132427695Y-76289819D02*
X132999123Y-77289819D01*
X132999123Y-77289819D02*
X132999123Y-76289819D01*
X133380076Y-76289819D02*
X133999123Y-76289819D01*
X133999123Y-76289819D02*
X133665790Y-76670771D01*
X133665790Y-76670771D02*
X133808647Y-76670771D01*
X133808647Y-76670771D02*
X133903885Y-76718390D01*
X133903885Y-76718390D02*
X133951504Y-76766009D01*
X133951504Y-76766009D02*
X133999123Y-76861247D01*
X133999123Y-76861247D02*
X133999123Y-77099342D01*
X133999123Y-77099342D02*
X133951504Y-77194580D01*
X133951504Y-77194580D02*
X133903885Y-77242200D01*
X133903885Y-77242200D02*
X133808647Y-77289819D01*
X133808647Y-77289819D02*
X133522933Y-77289819D01*
X133522933Y-77289819D02*
X133427695Y-77242200D01*
X133427695Y-77242200D02*
X133380076Y-77194580D01*
X134690123Y-92352019D02*
X134356790Y-91875828D01*
X134118695Y-92352019D02*
X134118695Y-91352019D01*
X134118695Y-91352019D02*
X134499647Y-91352019D01*
X134499647Y-91352019D02*
X134594885Y-91399638D01*
X134594885Y-91399638D02*
X134642504Y-91447257D01*
X134642504Y-91447257D02*
X134690123Y-91542495D01*
X134690123Y-91542495D02*
X134690123Y-91685352D01*
X134690123Y-91685352D02*
X134642504Y-91780590D01*
X134642504Y-91780590D02*
X134594885Y-91828209D01*
X134594885Y-91828209D02*
X134499647Y-91875828D01*
X134499647Y-91875828D02*
X134118695Y-91875828D01*
X135118695Y-92352019D02*
X135118695Y-91352019D01*
X135118695Y-91352019D02*
X135690123Y-92352019D01*
X135690123Y-92352019D02*
X135690123Y-91352019D01*
X136642504Y-91352019D02*
X136166314Y-91352019D01*
X136166314Y-91352019D02*
X136118695Y-91828209D01*
X136118695Y-91828209D02*
X136166314Y-91780590D01*
X136166314Y-91780590D02*
X136261552Y-91732971D01*
X136261552Y-91732971D02*
X136499647Y-91732971D01*
X136499647Y-91732971D02*
X136594885Y-91780590D01*
X136594885Y-91780590D02*
X136642504Y-91828209D01*
X136642504Y-91828209D02*
X136690123Y-91923447D01*
X136690123Y-91923447D02*
X136690123Y-92161542D01*
X136690123Y-92161542D02*
X136642504Y-92256780D01*
X136642504Y-92256780D02*
X136594885Y-92304400D01*
X136594885Y-92304400D02*
X136499647Y-92352019D01*
X136499647Y-92352019D02*
X136261552Y-92352019D01*
X136261552Y-92352019D02*
X136166314Y-92304400D01*
X136166314Y-92304400D02*
X136118695Y-92256780D01*
D12*
X198999118Y-65616666D02*
X198999118Y-66221428D01*
X198999118Y-66221428D02*
X197729118Y-66221428D01*
X197729118Y-65314285D02*
X197729118Y-64528094D01*
X197729118Y-64528094D02*
X198212927Y-64951428D01*
X198212927Y-64951428D02*
X198212927Y-64769999D01*
X198212927Y-64769999D02*
X198273403Y-64649047D01*
X198273403Y-64649047D02*
X198333880Y-64588571D01*
X198333880Y-64588571D02*
X198454832Y-64528094D01*
X198454832Y-64528094D02*
X198757213Y-64528094D01*
X198757213Y-64528094D02*
X198878165Y-64588571D01*
X198878165Y-64588571D02*
X198938642Y-64649047D01*
X198938642Y-64649047D02*
X198999118Y-64769999D01*
X198999118Y-64769999D02*
X198999118Y-65132856D01*
X198999118Y-65132856D02*
X198938642Y-65253809D01*
X198938642Y-65253809D02*
X198878165Y-65314285D01*
D11*
X149667933Y-66069380D02*
X149620314Y-66117000D01*
X149620314Y-66117000D02*
X149477457Y-66164619D01*
X149477457Y-66164619D02*
X149382219Y-66164619D01*
X149382219Y-66164619D02*
X149239362Y-66117000D01*
X149239362Y-66117000D02*
X149144124Y-66021761D01*
X149144124Y-66021761D02*
X149096505Y-65926523D01*
X149096505Y-65926523D02*
X149048886Y-65736047D01*
X149048886Y-65736047D02*
X149048886Y-65593190D01*
X149048886Y-65593190D02*
X149096505Y-65402714D01*
X149096505Y-65402714D02*
X149144124Y-65307476D01*
X149144124Y-65307476D02*
X149239362Y-65212238D01*
X149239362Y-65212238D02*
X149382219Y-65164619D01*
X149382219Y-65164619D02*
X149477457Y-65164619D01*
X149477457Y-65164619D02*
X149620314Y-65212238D01*
X149620314Y-65212238D02*
X149667933Y-65259857D01*
X150001267Y-65164619D02*
X150620314Y-65164619D01*
X150620314Y-65164619D02*
X150286981Y-65545571D01*
X150286981Y-65545571D02*
X150429838Y-65545571D01*
X150429838Y-65545571D02*
X150525076Y-65593190D01*
X150525076Y-65593190D02*
X150572695Y-65640809D01*
X150572695Y-65640809D02*
X150620314Y-65736047D01*
X150620314Y-65736047D02*
X150620314Y-65974142D01*
X150620314Y-65974142D02*
X150572695Y-66069380D01*
X150572695Y-66069380D02*
X150525076Y-66117000D01*
X150525076Y-66117000D02*
X150429838Y-66164619D01*
X150429838Y-66164619D02*
X150144124Y-66164619D01*
X150144124Y-66164619D02*
X150048886Y-66117000D01*
X150048886Y-66117000D02*
X150001267Y-66069380D01*
X158099220Y-71559044D02*
X158099220Y-72368567D01*
X158099220Y-72368567D02*
X158146839Y-72463805D01*
X158146839Y-72463805D02*
X158194458Y-72511425D01*
X158194458Y-72511425D02*
X158289696Y-72559044D01*
X158289696Y-72559044D02*
X158480172Y-72559044D01*
X158480172Y-72559044D02*
X158575410Y-72511425D01*
X158575410Y-72511425D02*
X158623029Y-72463805D01*
X158623029Y-72463805D02*
X158670648Y-72368567D01*
X158670648Y-72368567D02*
X158670648Y-71559044D01*
X159051601Y-71559044D02*
X159670648Y-71559044D01*
X159670648Y-71559044D02*
X159337315Y-71939996D01*
X159337315Y-71939996D02*
X159480172Y-71939996D01*
X159480172Y-71939996D02*
X159575410Y-71987615D01*
X159575410Y-71987615D02*
X159623029Y-72035234D01*
X159623029Y-72035234D02*
X159670648Y-72130472D01*
X159670648Y-72130472D02*
X159670648Y-72368567D01*
X159670648Y-72368567D02*
X159623029Y-72463805D01*
X159623029Y-72463805D02*
X159575410Y-72511425D01*
X159575410Y-72511425D02*
X159480172Y-72559044D01*
X159480172Y-72559044D02*
X159194458Y-72559044D01*
X159194458Y-72559044D02*
X159099220Y-72511425D01*
X159099220Y-72511425D02*
X159051601Y-72463805D01*
X114612895Y-76375419D02*
X114612895Y-75375419D01*
X114612895Y-75375419D02*
X114993847Y-75375419D01*
X114993847Y-75375419D02*
X115089085Y-75423038D01*
X115089085Y-75423038D02*
X115136704Y-75470657D01*
X115136704Y-75470657D02*
X115184323Y-75565895D01*
X115184323Y-75565895D02*
X115184323Y-75708752D01*
X115184323Y-75708752D02*
X115136704Y-75803990D01*
X115136704Y-75803990D02*
X115089085Y-75851609D01*
X115089085Y-75851609D02*
X114993847Y-75899228D01*
X114993847Y-75899228D02*
X114612895Y-75899228D01*
X115612895Y-75375419D02*
X115612895Y-76184942D01*
X115612895Y-76184942D02*
X115660514Y-76280180D01*
X115660514Y-76280180D02*
X115708133Y-76327800D01*
X115708133Y-76327800D02*
X115803371Y-76375419D01*
X115803371Y-76375419D02*
X115993847Y-76375419D01*
X115993847Y-76375419D02*
X116089085Y-76327800D01*
X116089085Y-76327800D02*
X116136704Y-76280180D01*
X116136704Y-76280180D02*
X116184323Y-76184942D01*
X116184323Y-76184942D02*
X116184323Y-75375419D01*
X117184323Y-76375419D02*
X116612895Y-76375419D01*
X116898609Y-76375419D02*
X116898609Y-75375419D01*
X116898609Y-75375419D02*
X116803371Y-75518276D01*
X116803371Y-75518276D02*
X116708133Y-75613514D01*
X116708133Y-75613514D02*
X116612895Y-75661133D01*
X124614042Y-63852455D02*
X124566423Y-63900075D01*
X124566423Y-63900075D02*
X124423566Y-63947694D01*
X124423566Y-63947694D02*
X124328328Y-63947694D01*
X124328328Y-63947694D02*
X124185471Y-63900075D01*
X124185471Y-63900075D02*
X124090233Y-63804836D01*
X124090233Y-63804836D02*
X124042614Y-63709598D01*
X124042614Y-63709598D02*
X123994995Y-63519122D01*
X123994995Y-63519122D02*
X123994995Y-63376265D01*
X123994995Y-63376265D02*
X124042614Y-63185789D01*
X124042614Y-63185789D02*
X124090233Y-63090551D01*
X124090233Y-63090551D02*
X124185471Y-62995313D01*
X124185471Y-62995313D02*
X124328328Y-62947694D01*
X124328328Y-62947694D02*
X124423566Y-62947694D01*
X124423566Y-62947694D02*
X124566423Y-62995313D01*
X124566423Y-62995313D02*
X124614042Y-63042932D01*
X124994995Y-63042932D02*
X125042614Y-62995313D01*
X125042614Y-62995313D02*
X125137852Y-62947694D01*
X125137852Y-62947694D02*
X125375947Y-62947694D01*
X125375947Y-62947694D02*
X125471185Y-62995313D01*
X125471185Y-62995313D02*
X125518804Y-63042932D01*
X125518804Y-63042932D02*
X125566423Y-63138170D01*
X125566423Y-63138170D02*
X125566423Y-63233408D01*
X125566423Y-63233408D02*
X125518804Y-63376265D01*
X125518804Y-63376265D02*
X124947376Y-63947694D01*
X124947376Y-63947694D02*
X125566423Y-63947694D01*
X125899757Y-62947694D02*
X126518804Y-62947694D01*
X126518804Y-62947694D02*
X126185471Y-63328646D01*
X126185471Y-63328646D02*
X126328328Y-63328646D01*
X126328328Y-63328646D02*
X126423566Y-63376265D01*
X126423566Y-63376265D02*
X126471185Y-63423884D01*
X126471185Y-63423884D02*
X126518804Y-63519122D01*
X126518804Y-63519122D02*
X126518804Y-63757217D01*
X126518804Y-63757217D02*
X126471185Y-63852455D01*
X126471185Y-63852455D02*
X126423566Y-63900075D01*
X126423566Y-63900075D02*
X126328328Y-63947694D01*
X126328328Y-63947694D02*
X126042614Y-63947694D01*
X126042614Y-63947694D02*
X125947376Y-63900075D01*
X125947376Y-63900075D02*
X125899757Y-63852455D01*
X123731495Y-107185619D02*
X123731495Y-106185619D01*
X123731495Y-106185619D02*
X124112447Y-106185619D01*
X124112447Y-106185619D02*
X124207685Y-106233238D01*
X124207685Y-106233238D02*
X124255304Y-106280857D01*
X124255304Y-106280857D02*
X124302923Y-106376095D01*
X124302923Y-106376095D02*
X124302923Y-106518952D01*
X124302923Y-106518952D02*
X124255304Y-106614190D01*
X124255304Y-106614190D02*
X124207685Y-106661809D01*
X124207685Y-106661809D02*
X124112447Y-106709428D01*
X124112447Y-106709428D02*
X123731495Y-106709428D01*
X124731495Y-106185619D02*
X124731495Y-106995142D01*
X124731495Y-106995142D02*
X124779114Y-107090380D01*
X124779114Y-107090380D02*
X124826733Y-107138000D01*
X124826733Y-107138000D02*
X124921971Y-107185619D01*
X124921971Y-107185619D02*
X125112447Y-107185619D01*
X125112447Y-107185619D02*
X125207685Y-107138000D01*
X125207685Y-107138000D02*
X125255304Y-107090380D01*
X125255304Y-107090380D02*
X125302923Y-106995142D01*
X125302923Y-106995142D02*
X125302923Y-106185619D01*
X126207685Y-106185619D02*
X126017209Y-106185619D01*
X126017209Y-106185619D02*
X125921971Y-106233238D01*
X125921971Y-106233238D02*
X125874352Y-106280857D01*
X125874352Y-106280857D02*
X125779114Y-106423714D01*
X125779114Y-106423714D02*
X125731495Y-106614190D01*
X125731495Y-106614190D02*
X125731495Y-106995142D01*
X125731495Y-106995142D02*
X125779114Y-107090380D01*
X125779114Y-107090380D02*
X125826733Y-107138000D01*
X125826733Y-107138000D02*
X125921971Y-107185619D01*
X125921971Y-107185619D02*
X126112447Y-107185619D01*
X126112447Y-107185619D02*
X126207685Y-107138000D01*
X126207685Y-107138000D02*
X126255304Y-107090380D01*
X126255304Y-107090380D02*
X126302923Y-106995142D01*
X126302923Y-106995142D02*
X126302923Y-106757047D01*
X126302923Y-106757047D02*
X126255304Y-106661809D01*
X126255304Y-106661809D02*
X126207685Y-106614190D01*
X126207685Y-106614190D02*
X126112447Y-106566571D01*
X126112447Y-106566571D02*
X125921971Y-106566571D01*
X125921971Y-106566571D02*
X125826733Y-106614190D01*
X125826733Y-106614190D02*
X125779114Y-106661809D01*
X125779114Y-106661809D02*
X125731495Y-106757047D01*
X134715523Y-91031219D02*
X134382190Y-90555028D01*
X134144095Y-91031219D02*
X134144095Y-90031219D01*
X134144095Y-90031219D02*
X134525047Y-90031219D01*
X134525047Y-90031219D02*
X134620285Y-90078838D01*
X134620285Y-90078838D02*
X134667904Y-90126457D01*
X134667904Y-90126457D02*
X134715523Y-90221695D01*
X134715523Y-90221695D02*
X134715523Y-90364552D01*
X134715523Y-90364552D02*
X134667904Y-90459790D01*
X134667904Y-90459790D02*
X134620285Y-90507409D01*
X134620285Y-90507409D02*
X134525047Y-90555028D01*
X134525047Y-90555028D02*
X134144095Y-90555028D01*
X135144095Y-91031219D02*
X135144095Y-90031219D01*
X135144095Y-90031219D02*
X135715523Y-91031219D01*
X135715523Y-91031219D02*
X135715523Y-90031219D01*
X136620285Y-90031219D02*
X136429809Y-90031219D01*
X136429809Y-90031219D02*
X136334571Y-90078838D01*
X136334571Y-90078838D02*
X136286952Y-90126457D01*
X136286952Y-90126457D02*
X136191714Y-90269314D01*
X136191714Y-90269314D02*
X136144095Y-90459790D01*
X136144095Y-90459790D02*
X136144095Y-90840742D01*
X136144095Y-90840742D02*
X136191714Y-90935980D01*
X136191714Y-90935980D02*
X136239333Y-90983600D01*
X136239333Y-90983600D02*
X136334571Y-91031219D01*
X136334571Y-91031219D02*
X136525047Y-91031219D01*
X136525047Y-91031219D02*
X136620285Y-90983600D01*
X136620285Y-90983600D02*
X136667904Y-90935980D01*
X136667904Y-90935980D02*
X136715523Y-90840742D01*
X136715523Y-90840742D02*
X136715523Y-90602647D01*
X136715523Y-90602647D02*
X136667904Y-90507409D01*
X136667904Y-90507409D02*
X136620285Y-90459790D01*
X136620285Y-90459790D02*
X136525047Y-90412171D01*
X136525047Y-90412171D02*
X136334571Y-90412171D01*
X136334571Y-90412171D02*
X136239333Y-90459790D01*
X136239333Y-90459790D02*
X136191714Y-90507409D01*
X136191714Y-90507409D02*
X136144095Y-90602647D01*
X185491433Y-86960819D02*
X185158100Y-86484628D01*
X184920005Y-86960819D02*
X184920005Y-85960819D01*
X184920005Y-85960819D02*
X185300957Y-85960819D01*
X185300957Y-85960819D02*
X185396195Y-86008438D01*
X185396195Y-86008438D02*
X185443814Y-86056057D01*
X185443814Y-86056057D02*
X185491433Y-86151295D01*
X185491433Y-86151295D02*
X185491433Y-86294152D01*
X185491433Y-86294152D02*
X185443814Y-86389390D01*
X185443814Y-86389390D02*
X185396195Y-86437009D01*
X185396195Y-86437009D02*
X185300957Y-86484628D01*
X185300957Y-86484628D02*
X184920005Y-86484628D01*
X185872386Y-86056057D02*
X185920005Y-86008438D01*
X185920005Y-86008438D02*
X186015243Y-85960819D01*
X186015243Y-85960819D02*
X186253338Y-85960819D01*
X186253338Y-85960819D02*
X186348576Y-86008438D01*
X186348576Y-86008438D02*
X186396195Y-86056057D01*
X186396195Y-86056057D02*
X186443814Y-86151295D01*
X186443814Y-86151295D02*
X186443814Y-86246533D01*
X186443814Y-86246533D02*
X186396195Y-86389390D01*
X186396195Y-86389390D02*
X185824767Y-86960819D01*
X185824767Y-86960819D02*
X186443814Y-86960819D01*
X158227733Y-88827780D02*
X158180114Y-88875400D01*
X158180114Y-88875400D02*
X158037257Y-88923019D01*
X158037257Y-88923019D02*
X157942019Y-88923019D01*
X157942019Y-88923019D02*
X157799162Y-88875400D01*
X157799162Y-88875400D02*
X157703924Y-88780161D01*
X157703924Y-88780161D02*
X157656305Y-88684923D01*
X157656305Y-88684923D02*
X157608686Y-88494447D01*
X157608686Y-88494447D02*
X157608686Y-88351590D01*
X157608686Y-88351590D02*
X157656305Y-88161114D01*
X157656305Y-88161114D02*
X157703924Y-88065876D01*
X157703924Y-88065876D02*
X157799162Y-87970638D01*
X157799162Y-87970638D02*
X157942019Y-87923019D01*
X157942019Y-87923019D02*
X158037257Y-87923019D01*
X158037257Y-87923019D02*
X158180114Y-87970638D01*
X158180114Y-87970638D02*
X158227733Y-88018257D01*
X158799162Y-88351590D02*
X158703924Y-88303971D01*
X158703924Y-88303971D02*
X158656305Y-88256352D01*
X158656305Y-88256352D02*
X158608686Y-88161114D01*
X158608686Y-88161114D02*
X158608686Y-88113495D01*
X158608686Y-88113495D02*
X158656305Y-88018257D01*
X158656305Y-88018257D02*
X158703924Y-87970638D01*
X158703924Y-87970638D02*
X158799162Y-87923019D01*
X158799162Y-87923019D02*
X158989638Y-87923019D01*
X158989638Y-87923019D02*
X159084876Y-87970638D01*
X159084876Y-87970638D02*
X159132495Y-88018257D01*
X159132495Y-88018257D02*
X159180114Y-88113495D01*
X159180114Y-88113495D02*
X159180114Y-88161114D01*
X159180114Y-88161114D02*
X159132495Y-88256352D01*
X159132495Y-88256352D02*
X159084876Y-88303971D01*
X159084876Y-88303971D02*
X158989638Y-88351590D01*
X158989638Y-88351590D02*
X158799162Y-88351590D01*
X158799162Y-88351590D02*
X158703924Y-88399209D01*
X158703924Y-88399209D02*
X158656305Y-88446828D01*
X158656305Y-88446828D02*
X158608686Y-88542066D01*
X158608686Y-88542066D02*
X158608686Y-88732542D01*
X158608686Y-88732542D02*
X158656305Y-88827780D01*
X158656305Y-88827780D02*
X158703924Y-88875400D01*
X158703924Y-88875400D02*
X158799162Y-88923019D01*
X158799162Y-88923019D02*
X158989638Y-88923019D01*
X158989638Y-88923019D02*
X159084876Y-88875400D01*
X159084876Y-88875400D02*
X159132495Y-88827780D01*
X159132495Y-88827780D02*
X159180114Y-88732542D01*
X159180114Y-88732542D02*
X159180114Y-88542066D01*
X159180114Y-88542066D02*
X159132495Y-88446828D01*
X159132495Y-88446828D02*
X159084876Y-88399209D01*
X159084876Y-88399209D02*
X158989638Y-88351590D01*
X146550142Y-66215419D02*
X146216809Y-65739228D01*
X145978714Y-66215419D02*
X145978714Y-65215419D01*
X145978714Y-65215419D02*
X146359666Y-65215419D01*
X146359666Y-65215419D02*
X146454904Y-65263038D01*
X146454904Y-65263038D02*
X146502523Y-65310657D01*
X146502523Y-65310657D02*
X146550142Y-65405895D01*
X146550142Y-65405895D02*
X146550142Y-65548752D01*
X146550142Y-65548752D02*
X146502523Y-65643990D01*
X146502523Y-65643990D02*
X146454904Y-65691609D01*
X146454904Y-65691609D02*
X146359666Y-65739228D01*
X146359666Y-65739228D02*
X145978714Y-65739228D01*
X147502523Y-66215419D02*
X146931095Y-66215419D01*
X147216809Y-66215419D02*
X147216809Y-65215419D01*
X147216809Y-65215419D02*
X147121571Y-65358276D01*
X147121571Y-65358276D02*
X147026333Y-65453514D01*
X147026333Y-65453514D02*
X146931095Y-65501133D01*
X148121571Y-65215419D02*
X148216809Y-65215419D01*
X148216809Y-65215419D02*
X148312047Y-65263038D01*
X148312047Y-65263038D02*
X148359666Y-65310657D01*
X148359666Y-65310657D02*
X148407285Y-65405895D01*
X148407285Y-65405895D02*
X148454904Y-65596371D01*
X148454904Y-65596371D02*
X148454904Y-65834466D01*
X148454904Y-65834466D02*
X148407285Y-66024942D01*
X148407285Y-66024942D02*
X148359666Y-66120180D01*
X148359666Y-66120180D02*
X148312047Y-66167800D01*
X148312047Y-66167800D02*
X148216809Y-66215419D01*
X148216809Y-66215419D02*
X148121571Y-66215419D01*
X148121571Y-66215419D02*
X148026333Y-66167800D01*
X148026333Y-66167800D02*
X147978714Y-66120180D01*
X147978714Y-66120180D02*
X147931095Y-66024942D01*
X147931095Y-66024942D02*
X147883476Y-65834466D01*
X147883476Y-65834466D02*
X147883476Y-65596371D01*
X147883476Y-65596371D02*
X147931095Y-65405895D01*
X147931095Y-65405895D02*
X147978714Y-65310657D01*
X147978714Y-65310657D02*
X148026333Y-65263038D01*
X148026333Y-65263038D02*
X148121571Y-65215419D01*
D12*
X155163556Y-73324961D02*
X155768318Y-73324961D01*
X154498318Y-73748294D02*
X155163556Y-73324961D01*
X155163556Y-73324961D02*
X154498318Y-72901627D01*
X155768318Y-71813056D02*
X155768318Y-72538771D01*
X155768318Y-72175914D02*
X154498318Y-72175914D01*
X154498318Y-72175914D02*
X154679746Y-72296866D01*
X154679746Y-72296866D02*
X154800699Y-72417818D01*
X154800699Y-72417818D02*
X154861175Y-72538771D01*
X101947317Y-55593893D02*
X101947317Y-56501036D01*
X101947317Y-56501036D02*
X101886840Y-56682464D01*
X101886840Y-56682464D02*
X101765888Y-56803417D01*
X101765888Y-56803417D02*
X101584459Y-56863893D01*
X101584459Y-56863893D02*
X101463507Y-56863893D01*
X103217317Y-56863893D02*
X102491602Y-56863893D01*
X102854459Y-56863893D02*
X102854459Y-55593893D01*
X102854459Y-55593893D02*
X102733507Y-55775321D01*
X102733507Y-55775321D02*
X102612555Y-55896274D01*
X102612555Y-55896274D02*
X102491602Y-55956750D01*
X109076667Y-55908218D02*
X109076667Y-56815361D01*
X109076667Y-56815361D02*
X109016190Y-56996789D01*
X109016190Y-56996789D02*
X108895238Y-57117742D01*
X108895238Y-57117742D02*
X108713809Y-57178218D01*
X108713809Y-57178218D02*
X108592857Y-57178218D01*
X110225714Y-56331551D02*
X110225714Y-57178218D01*
X109923333Y-55847742D02*
X109620952Y-56754884D01*
X109620952Y-56754884D02*
X110407143Y-56754884D01*
D11*
X135128895Y-57242619D02*
X135128895Y-58052142D01*
X135128895Y-58052142D02*
X135176514Y-58147380D01*
X135176514Y-58147380D02*
X135224133Y-58195000D01*
X135224133Y-58195000D02*
X135319371Y-58242619D01*
X135319371Y-58242619D02*
X135509847Y-58242619D01*
X135509847Y-58242619D02*
X135605085Y-58195000D01*
X135605085Y-58195000D02*
X135652704Y-58147380D01*
X135652704Y-58147380D02*
X135700323Y-58052142D01*
X135700323Y-58052142D02*
X135700323Y-57242619D01*
X136605085Y-57575952D02*
X136605085Y-58242619D01*
X136366990Y-57195000D02*
X136128895Y-57909285D01*
X136128895Y-57909285D02*
X136747942Y-57909285D01*
X123788705Y-109878019D02*
X123788705Y-108878019D01*
X123788705Y-108878019D02*
X124169657Y-108878019D01*
X124169657Y-108878019D02*
X124264895Y-108925638D01*
X124264895Y-108925638D02*
X124312514Y-108973257D01*
X124312514Y-108973257D02*
X124360133Y-109068495D01*
X124360133Y-109068495D02*
X124360133Y-109211352D01*
X124360133Y-109211352D02*
X124312514Y-109306590D01*
X124312514Y-109306590D02*
X124264895Y-109354209D01*
X124264895Y-109354209D02*
X124169657Y-109401828D01*
X124169657Y-109401828D02*
X123788705Y-109401828D01*
X124788705Y-108878019D02*
X124788705Y-109687542D01*
X124788705Y-109687542D02*
X124836324Y-109782780D01*
X124836324Y-109782780D02*
X124883943Y-109830400D01*
X124883943Y-109830400D02*
X124979181Y-109878019D01*
X124979181Y-109878019D02*
X125169657Y-109878019D01*
X125169657Y-109878019D02*
X125264895Y-109830400D01*
X125264895Y-109830400D02*
X125312514Y-109782780D01*
X125312514Y-109782780D02*
X125360133Y-109687542D01*
X125360133Y-109687542D02*
X125360133Y-108878019D01*
X126360133Y-109878019D02*
X125788705Y-109878019D01*
X126074419Y-109878019D02*
X126074419Y-108878019D01*
X126074419Y-108878019D02*
X125979181Y-109020876D01*
X125979181Y-109020876D02*
X125883943Y-109116114D01*
X125883943Y-109116114D02*
X125788705Y-109163733D01*
X126979181Y-108878019D02*
X127074419Y-108878019D01*
X127074419Y-108878019D02*
X127169657Y-108925638D01*
X127169657Y-108925638D02*
X127217276Y-108973257D01*
X127217276Y-108973257D02*
X127264895Y-109068495D01*
X127264895Y-109068495D02*
X127312514Y-109258971D01*
X127312514Y-109258971D02*
X127312514Y-109497066D01*
X127312514Y-109497066D02*
X127264895Y-109687542D01*
X127264895Y-109687542D02*
X127217276Y-109782780D01*
X127217276Y-109782780D02*
X127169657Y-109830400D01*
X127169657Y-109830400D02*
X127074419Y-109878019D01*
X127074419Y-109878019D02*
X126979181Y-109878019D01*
X126979181Y-109878019D02*
X126883943Y-109830400D01*
X126883943Y-109830400D02*
X126836324Y-109782780D01*
X126836324Y-109782780D02*
X126788705Y-109687542D01*
X126788705Y-109687542D02*
X126741086Y-109497066D01*
X126741086Y-109497066D02*
X126741086Y-109258971D01*
X126741086Y-109258971D02*
X126788705Y-109068495D01*
X126788705Y-109068495D02*
X126836324Y-108973257D01*
X126836324Y-108973257D02*
X126883943Y-108925638D01*
X126883943Y-108925638D02*
X126979181Y-108878019D01*
X115181142Y-73581419D02*
X114847809Y-73105228D01*
X114609714Y-73581419D02*
X114609714Y-72581419D01*
X114609714Y-72581419D02*
X114990666Y-72581419D01*
X114990666Y-72581419D02*
X115085904Y-72629038D01*
X115085904Y-72629038D02*
X115133523Y-72676657D01*
X115133523Y-72676657D02*
X115181142Y-72771895D01*
X115181142Y-72771895D02*
X115181142Y-72914752D01*
X115181142Y-72914752D02*
X115133523Y-73009990D01*
X115133523Y-73009990D02*
X115085904Y-73057609D01*
X115085904Y-73057609D02*
X114990666Y-73105228D01*
X114990666Y-73105228D02*
X114609714Y-73105228D01*
X116133523Y-73581419D02*
X115562095Y-73581419D01*
X115847809Y-73581419D02*
X115847809Y-72581419D01*
X115847809Y-72581419D02*
X115752571Y-72724276D01*
X115752571Y-72724276D02*
X115657333Y-72819514D01*
X115657333Y-72819514D02*
X115562095Y-72867133D01*
X116466857Y-72581419D02*
X117085904Y-72581419D01*
X117085904Y-72581419D02*
X116752571Y-72962371D01*
X116752571Y-72962371D02*
X116895428Y-72962371D01*
X116895428Y-72962371D02*
X116990666Y-73009990D01*
X116990666Y-73009990D02*
X117038285Y-73057609D01*
X117038285Y-73057609D02*
X117085904Y-73152847D01*
X117085904Y-73152847D02*
X117085904Y-73390942D01*
X117085904Y-73390942D02*
X117038285Y-73486180D01*
X117038285Y-73486180D02*
X116990666Y-73533800D01*
X116990666Y-73533800D02*
X116895428Y-73581419D01*
X116895428Y-73581419D02*
X116609714Y-73581419D01*
X116609714Y-73581419D02*
X116514476Y-73533800D01*
X116514476Y-73533800D02*
X116466857Y-73486180D01*
X123602761Y-78426457D02*
X123507523Y-78378838D01*
X123507523Y-78378838D02*
X123412285Y-78283600D01*
X123412285Y-78283600D02*
X123269428Y-78140742D01*
X123269428Y-78140742D02*
X123174190Y-78093123D01*
X123174190Y-78093123D02*
X123078952Y-78093123D01*
X123126571Y-78331219D02*
X123031333Y-78283600D01*
X123031333Y-78283600D02*
X122936095Y-78188361D01*
X122936095Y-78188361D02*
X122888476Y-77997885D01*
X122888476Y-77997885D02*
X122888476Y-77664552D01*
X122888476Y-77664552D02*
X122936095Y-77474076D01*
X122936095Y-77474076D02*
X123031333Y-77378838D01*
X123031333Y-77378838D02*
X123126571Y-77331219D01*
X123126571Y-77331219D02*
X123317047Y-77331219D01*
X123317047Y-77331219D02*
X123412285Y-77378838D01*
X123412285Y-77378838D02*
X123507523Y-77474076D01*
X123507523Y-77474076D02*
X123555142Y-77664552D01*
X123555142Y-77664552D02*
X123555142Y-77997885D01*
X123555142Y-77997885D02*
X123507523Y-78188361D01*
X123507523Y-78188361D02*
X123412285Y-78283600D01*
X123412285Y-78283600D02*
X123317047Y-78331219D01*
X123317047Y-78331219D02*
X123126571Y-78331219D01*
X124507523Y-78331219D02*
X123936095Y-78331219D01*
X124221809Y-78331219D02*
X124221809Y-77331219D01*
X124221809Y-77331219D02*
X124126571Y-77474076D01*
X124126571Y-77474076D02*
X124031333Y-77569314D01*
X124031333Y-77569314D02*
X123936095Y-77616933D01*
D12*
X199151518Y-60765266D02*
X199151518Y-61370028D01*
X199151518Y-61370028D02*
X197881518Y-61370028D01*
X198304851Y-59797647D02*
X199151518Y-59797647D01*
X197821042Y-60100028D02*
X198728184Y-60402409D01*
X198728184Y-60402409D02*
X198728184Y-59616218D01*
D11*
X113857305Y-84401819D02*
X113857305Y-83401819D01*
X113857305Y-83401819D02*
X114238257Y-83401819D01*
X114238257Y-83401819D02*
X114333495Y-83449438D01*
X114333495Y-83449438D02*
X114381114Y-83497057D01*
X114381114Y-83497057D02*
X114428733Y-83592295D01*
X114428733Y-83592295D02*
X114428733Y-83735152D01*
X114428733Y-83735152D02*
X114381114Y-83830390D01*
X114381114Y-83830390D02*
X114333495Y-83878009D01*
X114333495Y-83878009D02*
X114238257Y-83925628D01*
X114238257Y-83925628D02*
X113857305Y-83925628D01*
X114857305Y-83401819D02*
X114857305Y-84211342D01*
X114857305Y-84211342D02*
X114904924Y-84306580D01*
X114904924Y-84306580D02*
X114952543Y-84354200D01*
X114952543Y-84354200D02*
X115047781Y-84401819D01*
X115047781Y-84401819D02*
X115238257Y-84401819D01*
X115238257Y-84401819D02*
X115333495Y-84354200D01*
X115333495Y-84354200D02*
X115381114Y-84306580D01*
X115381114Y-84306580D02*
X115428733Y-84211342D01*
X115428733Y-84211342D02*
X115428733Y-83401819D01*
X116428733Y-84401819D02*
X115857305Y-84401819D01*
X116143019Y-84401819D02*
X116143019Y-83401819D01*
X116143019Y-83401819D02*
X116047781Y-83544676D01*
X116047781Y-83544676D02*
X115952543Y-83639914D01*
X115952543Y-83639914D02*
X115857305Y-83687533D01*
X117285876Y-83735152D02*
X117285876Y-84401819D01*
X117047781Y-83354200D02*
X116809686Y-84068485D01*
X116809686Y-84068485D02*
X117428733Y-84068485D01*
X141408270Y-80715719D02*
X141408270Y-81525242D01*
X141408270Y-81525242D02*
X141455889Y-81620480D01*
X141455889Y-81620480D02*
X141503508Y-81668100D01*
X141503508Y-81668100D02*
X141598746Y-81715719D01*
X141598746Y-81715719D02*
X141789222Y-81715719D01*
X141789222Y-81715719D02*
X141884460Y-81668100D01*
X141884460Y-81668100D02*
X141932079Y-81620480D01*
X141932079Y-81620480D02*
X141979698Y-81525242D01*
X141979698Y-81525242D02*
X141979698Y-80715719D01*
X142979698Y-81715719D02*
X142408270Y-81715719D01*
X142693984Y-81715719D02*
X142693984Y-80715719D01*
X142693984Y-80715719D02*
X142598746Y-80858576D01*
X142598746Y-80858576D02*
X142503508Y-80953814D01*
X142503508Y-80953814D02*
X142408270Y-81001433D01*
X185380383Y-84617719D02*
X185047050Y-84141528D01*
X184808955Y-84617719D02*
X184808955Y-83617719D01*
X184808955Y-83617719D02*
X185189907Y-83617719D01*
X185189907Y-83617719D02*
X185285145Y-83665338D01*
X185285145Y-83665338D02*
X185332764Y-83712957D01*
X185332764Y-83712957D02*
X185380383Y-83808195D01*
X185380383Y-83808195D02*
X185380383Y-83951052D01*
X185380383Y-83951052D02*
X185332764Y-84046290D01*
X185332764Y-84046290D02*
X185285145Y-84093909D01*
X185285145Y-84093909D02*
X185189907Y-84141528D01*
X185189907Y-84141528D02*
X184808955Y-84141528D01*
X186332764Y-84617719D02*
X185761336Y-84617719D01*
X186047050Y-84617719D02*
X186047050Y-83617719D01*
X186047050Y-83617719D02*
X185951812Y-83760576D01*
X185951812Y-83760576D02*
X185856574Y-83855814D01*
X185856574Y-83855814D02*
X185761336Y-83903433D01*
X185459792Y-70660394D02*
X185126459Y-70184203D01*
X184888364Y-70660394D02*
X184888364Y-69660394D01*
X184888364Y-69660394D02*
X185269316Y-69660394D01*
X185269316Y-69660394D02*
X185364554Y-69708013D01*
X185364554Y-69708013D02*
X185412173Y-69755632D01*
X185412173Y-69755632D02*
X185459792Y-69850870D01*
X185459792Y-69850870D02*
X185459792Y-69993727D01*
X185459792Y-69993727D02*
X185412173Y-70088965D01*
X185412173Y-70088965D02*
X185364554Y-70136584D01*
X185364554Y-70136584D02*
X185269316Y-70184203D01*
X185269316Y-70184203D02*
X184888364Y-70184203D01*
X185840745Y-69755632D02*
X185888364Y-69708013D01*
X185888364Y-69708013D02*
X185983602Y-69660394D01*
X185983602Y-69660394D02*
X186221697Y-69660394D01*
X186221697Y-69660394D02*
X186316935Y-69708013D01*
X186316935Y-69708013D02*
X186364554Y-69755632D01*
X186364554Y-69755632D02*
X186412173Y-69850870D01*
X186412173Y-69850870D02*
X186412173Y-69946108D01*
X186412173Y-69946108D02*
X186364554Y-70088965D01*
X186364554Y-70088965D02*
X185793126Y-70660394D01*
X185793126Y-70660394D02*
X186412173Y-70660394D01*
X187364554Y-70660394D02*
X186793126Y-70660394D01*
X187078840Y-70660394D02*
X187078840Y-69660394D01*
X187078840Y-69660394D02*
X186983602Y-69803251D01*
X186983602Y-69803251D02*
X186888364Y-69898489D01*
X186888364Y-69898489D02*
X186793126Y-69946108D01*
X152614333Y-83823980D02*
X152566714Y-83871600D01*
X152566714Y-83871600D02*
X152423857Y-83919219D01*
X152423857Y-83919219D02*
X152328619Y-83919219D01*
X152328619Y-83919219D02*
X152185762Y-83871600D01*
X152185762Y-83871600D02*
X152090524Y-83776361D01*
X152090524Y-83776361D02*
X152042905Y-83681123D01*
X152042905Y-83681123D02*
X151995286Y-83490647D01*
X151995286Y-83490647D02*
X151995286Y-83347790D01*
X151995286Y-83347790D02*
X152042905Y-83157314D01*
X152042905Y-83157314D02*
X152090524Y-83062076D01*
X152090524Y-83062076D02*
X152185762Y-82966838D01*
X152185762Y-82966838D02*
X152328619Y-82919219D01*
X152328619Y-82919219D02*
X152423857Y-82919219D01*
X152423857Y-82919219D02*
X152566714Y-82966838D01*
X152566714Y-82966838D02*
X152614333Y-83014457D01*
X153090524Y-83919219D02*
X153281000Y-83919219D01*
X153281000Y-83919219D02*
X153376238Y-83871600D01*
X153376238Y-83871600D02*
X153423857Y-83823980D01*
X153423857Y-83823980D02*
X153519095Y-83681123D01*
X153519095Y-83681123D02*
X153566714Y-83490647D01*
X153566714Y-83490647D02*
X153566714Y-83109695D01*
X153566714Y-83109695D02*
X153519095Y-83014457D01*
X153519095Y-83014457D02*
X153471476Y-82966838D01*
X153471476Y-82966838D02*
X153376238Y-82919219D01*
X153376238Y-82919219D02*
X153185762Y-82919219D01*
X153185762Y-82919219D02*
X153090524Y-82966838D01*
X153090524Y-82966838D02*
X153042905Y-83014457D01*
X153042905Y-83014457D02*
X152995286Y-83109695D01*
X152995286Y-83109695D02*
X152995286Y-83347790D01*
X152995286Y-83347790D02*
X153042905Y-83443028D01*
X153042905Y-83443028D02*
X153090524Y-83490647D01*
X153090524Y-83490647D02*
X153185762Y-83538266D01*
X153185762Y-83538266D02*
X153376238Y-83538266D01*
X153376238Y-83538266D02*
X153471476Y-83490647D01*
X153471476Y-83490647D02*
X153519095Y-83443028D01*
X153519095Y-83443028D02*
X153566714Y-83347790D01*
X123731495Y-105915619D02*
X123731495Y-104915619D01*
X123731495Y-104915619D02*
X124112447Y-104915619D01*
X124112447Y-104915619D02*
X124207685Y-104963238D01*
X124207685Y-104963238D02*
X124255304Y-105010857D01*
X124255304Y-105010857D02*
X124302923Y-105106095D01*
X124302923Y-105106095D02*
X124302923Y-105248952D01*
X124302923Y-105248952D02*
X124255304Y-105344190D01*
X124255304Y-105344190D02*
X124207685Y-105391809D01*
X124207685Y-105391809D02*
X124112447Y-105439428D01*
X124112447Y-105439428D02*
X123731495Y-105439428D01*
X124731495Y-104915619D02*
X124731495Y-105725142D01*
X124731495Y-105725142D02*
X124779114Y-105820380D01*
X124779114Y-105820380D02*
X124826733Y-105868000D01*
X124826733Y-105868000D02*
X124921971Y-105915619D01*
X124921971Y-105915619D02*
X125112447Y-105915619D01*
X125112447Y-105915619D02*
X125207685Y-105868000D01*
X125207685Y-105868000D02*
X125255304Y-105820380D01*
X125255304Y-105820380D02*
X125302923Y-105725142D01*
X125302923Y-105725142D02*
X125302923Y-104915619D01*
X126207685Y-105248952D02*
X126207685Y-105915619D01*
X125969590Y-104868000D02*
X125731495Y-105582285D01*
X125731495Y-105582285D02*
X126350542Y-105582285D01*
X124147342Y-71123980D02*
X124099723Y-71171600D01*
X124099723Y-71171600D02*
X123956866Y-71219219D01*
X123956866Y-71219219D02*
X123861628Y-71219219D01*
X123861628Y-71219219D02*
X123718771Y-71171600D01*
X123718771Y-71171600D02*
X123623533Y-71076361D01*
X123623533Y-71076361D02*
X123575914Y-70981123D01*
X123575914Y-70981123D02*
X123528295Y-70790647D01*
X123528295Y-70790647D02*
X123528295Y-70647790D01*
X123528295Y-70647790D02*
X123575914Y-70457314D01*
X123575914Y-70457314D02*
X123623533Y-70362076D01*
X123623533Y-70362076D02*
X123718771Y-70266838D01*
X123718771Y-70266838D02*
X123861628Y-70219219D01*
X123861628Y-70219219D02*
X123956866Y-70219219D01*
X123956866Y-70219219D02*
X124099723Y-70266838D01*
X124099723Y-70266838D02*
X124147342Y-70314457D01*
X125099723Y-71219219D02*
X124528295Y-71219219D01*
X124814009Y-71219219D02*
X124814009Y-70219219D01*
X124814009Y-70219219D02*
X124718771Y-70362076D01*
X124718771Y-70362076D02*
X124623533Y-70457314D01*
X124623533Y-70457314D02*
X124528295Y-70504933D01*
X125575914Y-71219219D02*
X125766390Y-71219219D01*
X125766390Y-71219219D02*
X125861628Y-71171600D01*
X125861628Y-71171600D02*
X125909247Y-71123980D01*
X125909247Y-71123980D02*
X126004485Y-70981123D01*
X126004485Y-70981123D02*
X126052104Y-70790647D01*
X126052104Y-70790647D02*
X126052104Y-70409695D01*
X126052104Y-70409695D02*
X126004485Y-70314457D01*
X126004485Y-70314457D02*
X125956866Y-70266838D01*
X125956866Y-70266838D02*
X125861628Y-70219219D01*
X125861628Y-70219219D02*
X125671152Y-70219219D01*
X125671152Y-70219219D02*
X125575914Y-70266838D01*
X125575914Y-70266838D02*
X125528295Y-70314457D01*
X125528295Y-70314457D02*
X125480676Y-70409695D01*
X125480676Y-70409695D02*
X125480676Y-70647790D01*
X125480676Y-70647790D02*
X125528295Y-70743028D01*
X125528295Y-70743028D02*
X125575914Y-70790647D01*
X125575914Y-70790647D02*
X125671152Y-70838266D01*
X125671152Y-70838266D02*
X125861628Y-70838266D01*
X125861628Y-70838266D02*
X125956866Y-70790647D01*
X125956866Y-70790647D02*
X126004485Y-70743028D01*
X126004485Y-70743028D02*
X126052104Y-70647790D01*
X114612895Y-81506219D02*
X114612895Y-80506219D01*
X114612895Y-80506219D02*
X114993847Y-80506219D01*
X114993847Y-80506219D02*
X115089085Y-80553838D01*
X115089085Y-80553838D02*
X115136704Y-80601457D01*
X115136704Y-80601457D02*
X115184323Y-80696695D01*
X115184323Y-80696695D02*
X115184323Y-80839552D01*
X115184323Y-80839552D02*
X115136704Y-80934790D01*
X115136704Y-80934790D02*
X115089085Y-80982409D01*
X115089085Y-80982409D02*
X114993847Y-81030028D01*
X114993847Y-81030028D02*
X114612895Y-81030028D01*
X115612895Y-80506219D02*
X115612895Y-81315742D01*
X115612895Y-81315742D02*
X115660514Y-81410980D01*
X115660514Y-81410980D02*
X115708133Y-81458600D01*
X115708133Y-81458600D02*
X115803371Y-81506219D01*
X115803371Y-81506219D02*
X115993847Y-81506219D01*
X115993847Y-81506219D02*
X116089085Y-81458600D01*
X116089085Y-81458600D02*
X116136704Y-81410980D01*
X116136704Y-81410980D02*
X116184323Y-81315742D01*
X116184323Y-81315742D02*
X116184323Y-80506219D01*
X116565276Y-80506219D02*
X117184323Y-80506219D01*
X117184323Y-80506219D02*
X116850990Y-80887171D01*
X116850990Y-80887171D02*
X116993847Y-80887171D01*
X116993847Y-80887171D02*
X117089085Y-80934790D01*
X117089085Y-80934790D02*
X117136704Y-80982409D01*
X117136704Y-80982409D02*
X117184323Y-81077647D01*
X117184323Y-81077647D02*
X117184323Y-81315742D01*
X117184323Y-81315742D02*
X117136704Y-81410980D01*
X117136704Y-81410980D02*
X117089085Y-81458600D01*
X117089085Y-81458600D02*
X116993847Y-81506219D01*
X116993847Y-81506219D02*
X116708133Y-81506219D01*
X116708133Y-81506219D02*
X116612895Y-81458600D01*
X116612895Y-81458600D02*
X116565276Y-81410980D01*
X114112245Y-94631669D02*
X114112245Y-93631669D01*
X114112245Y-93631669D02*
X114493197Y-93631669D01*
X114493197Y-93631669D02*
X114588435Y-93679288D01*
X114588435Y-93679288D02*
X114636054Y-93726907D01*
X114636054Y-93726907D02*
X114683673Y-93822145D01*
X114683673Y-93822145D02*
X114683673Y-93965002D01*
X114683673Y-93965002D02*
X114636054Y-94060240D01*
X114636054Y-94060240D02*
X114588435Y-94107859D01*
X114588435Y-94107859D02*
X114493197Y-94155478D01*
X114493197Y-94155478D02*
X114112245Y-94155478D01*
X115112245Y-93631669D02*
X115112245Y-94441192D01*
X115112245Y-94441192D02*
X115159864Y-94536430D01*
X115159864Y-94536430D02*
X115207483Y-94584050D01*
X115207483Y-94584050D02*
X115302721Y-94631669D01*
X115302721Y-94631669D02*
X115493197Y-94631669D01*
X115493197Y-94631669D02*
X115588435Y-94584050D01*
X115588435Y-94584050D02*
X115636054Y-94536430D01*
X115636054Y-94536430D02*
X115683673Y-94441192D01*
X115683673Y-94441192D02*
X115683673Y-93631669D01*
X116064626Y-93631669D02*
X116731292Y-93631669D01*
X116731292Y-93631669D02*
X116302721Y-94631669D01*
X180198767Y-86033805D02*
X180151148Y-86081425D01*
X180151148Y-86081425D02*
X180008291Y-86129044D01*
X180008291Y-86129044D02*
X179913053Y-86129044D01*
X179913053Y-86129044D02*
X179770196Y-86081425D01*
X179770196Y-86081425D02*
X179674958Y-85986186D01*
X179674958Y-85986186D02*
X179627339Y-85890948D01*
X179627339Y-85890948D02*
X179579720Y-85700472D01*
X179579720Y-85700472D02*
X179579720Y-85557615D01*
X179579720Y-85557615D02*
X179627339Y-85367139D01*
X179627339Y-85367139D02*
X179674958Y-85271901D01*
X179674958Y-85271901D02*
X179770196Y-85176663D01*
X179770196Y-85176663D02*
X179913053Y-85129044D01*
X179913053Y-85129044D02*
X180008291Y-85129044D01*
X180008291Y-85129044D02*
X180151148Y-85176663D01*
X180151148Y-85176663D02*
X180198767Y-85224282D01*
X181151148Y-86129044D02*
X180579720Y-86129044D01*
X180865434Y-86129044D02*
X180865434Y-85129044D01*
X180865434Y-85129044D02*
X180770196Y-85271901D01*
X180770196Y-85271901D02*
X180674958Y-85367139D01*
X180674958Y-85367139D02*
X180579720Y-85414758D01*
X182008291Y-85129044D02*
X181817815Y-85129044D01*
X181817815Y-85129044D02*
X181722577Y-85176663D01*
X181722577Y-85176663D02*
X181674958Y-85224282D01*
X181674958Y-85224282D02*
X181579720Y-85367139D01*
X181579720Y-85367139D02*
X181532101Y-85557615D01*
X181532101Y-85557615D02*
X181532101Y-85938567D01*
X181532101Y-85938567D02*
X181579720Y-86033805D01*
X181579720Y-86033805D02*
X181627339Y-86081425D01*
X181627339Y-86081425D02*
X181722577Y-86129044D01*
X181722577Y-86129044D02*
X181913053Y-86129044D01*
X181913053Y-86129044D02*
X182008291Y-86081425D01*
X182008291Y-86081425D02*
X182055910Y-86033805D01*
X182055910Y-86033805D02*
X182103529Y-85938567D01*
X182103529Y-85938567D02*
X182103529Y-85700472D01*
X182103529Y-85700472D02*
X182055910Y-85605234D01*
X182055910Y-85605234D02*
X182008291Y-85557615D01*
X182008291Y-85557615D02*
X181913053Y-85509996D01*
X181913053Y-85509996D02*
X181722577Y-85509996D01*
X181722577Y-85509996D02*
X181627339Y-85557615D01*
X181627339Y-85557615D02*
X181579720Y-85605234D01*
X181579720Y-85605234D02*
X181532101Y-85700472D01*
D13*
%TO.C,PU5*%
X118772936Y-90663700D02*
X119227064Y-90663700D01*
X118772936Y-92133700D02*
X119227064Y-92133700D01*
%TO.C,C4*%
X146572300Y-73653448D02*
X146572300Y-74175952D01*
X148042300Y-73653448D02*
X148042300Y-74175952D01*
%TO.C,R20*%
X189933236Y-66292400D02*
X190387364Y-66292400D01*
X189933236Y-67762400D02*
X190387364Y-67762400D01*
D10*
%TO.C,J7*%
X147630000Y-95167450D02*
X150170000Y-95167450D01*
X147630000Y-102787450D02*
X147630000Y-95167450D01*
X150170000Y-95167450D02*
X150170000Y-102787450D01*
X150170000Y-102787450D02*
X147630000Y-102787450D01*
D14*
X144645000Y-102667450D02*
G75*
G02*
X144545000Y-102667450I-50000J0D01*
G01*
X144545000Y-102667450D02*
G75*
G02*
X144645000Y-102667450I50000J0D01*
G01*
D13*
%TO.C,C1*%
X184609800Y-93534200D02*
X188994800Y-93534200D01*
X188994800Y-90514200D02*
X184609800Y-90514200D01*
X188994800Y-93534200D02*
X188994800Y-90514200D01*
D14*
%TO.C,S4*%
X202458000Y-64680000D02*
X203908000Y-64680000D01*
X202458000Y-65780000D02*
X202458000Y-64680000D01*
X202458000Y-69980000D02*
X202458000Y-67180000D01*
X202458000Y-72480000D02*
X202458000Y-71380000D01*
X203908000Y-72480000D02*
X202458000Y-72480000D01*
X204958000Y-70080000D02*
X205958000Y-70080000D01*
X204958000Y-70980000D02*
X204958000Y-66180000D01*
D10*
X205908000Y-71955000D02*
X205908000Y-71955000D01*
D14*
X205958000Y-67080000D02*
X204958000Y-67080000D01*
X205958000Y-70080000D02*
X205958000Y-67080000D01*
D10*
X206008000Y-71955000D02*
X206008000Y-71955000D01*
X205908000Y-71955000D02*
G75*
G02*
X206008000Y-71955000I50000J0D01*
G01*
X206008000Y-71955000D02*
G75*
G02*
X205908000Y-71955000I-50000J0D01*
G01*
D14*
%TO.C,Q5*%
X130400000Y-97216300D02*
X131600000Y-97216300D01*
X130400000Y-100116300D02*
X130400000Y-97216300D01*
X131600000Y-97216300D02*
X131600000Y-100116300D01*
X131600000Y-100116300D02*
X130400000Y-100116300D01*
X132850000Y-100166300D02*
X131950000Y-100166300D01*
D13*
%TO.C,RN4*%
X135772936Y-103436700D02*
X136227064Y-103436700D01*
X135772936Y-104906700D02*
X136227064Y-104906700D01*
D14*
%TO.C,Q6*%
X130400000Y-93285600D02*
X131600000Y-93285600D01*
X130400000Y-96185600D02*
X130400000Y-93285600D01*
X131600000Y-93285600D02*
X131600000Y-96185600D01*
X131600000Y-96185600D02*
X130400000Y-96185600D01*
X132850000Y-96235600D02*
X131950000Y-96235600D01*
D10*
%TO.C,L5*%
X196519800Y-72407200D02*
X196519800Y-72407200D01*
X196519800Y-72507200D02*
X196519800Y-72507200D01*
X196519800Y-72407200D02*
G75*
G02*
X196519800Y-72507200I0J-50000D01*
G01*
X196519800Y-72507200D02*
G75*
G02*
X196519800Y-72407200I0J50000D01*
G01*
D13*
%TO.C,C20*%
X141654948Y-78147900D02*
X142177452Y-78147900D01*
X141654948Y-79617900D02*
X142177452Y-79617900D01*
%TO.C,C17*%
X135333800Y-69582000D02*
X139718800Y-69582000D01*
X139718800Y-66562000D02*
X135333800Y-66562000D01*
X139718800Y-69582000D02*
X139718800Y-66562000D01*
%TO.C,PU12*%
X118772936Y-102662000D02*
X119227064Y-102662000D01*
X118772936Y-104132000D02*
X119227064Y-104132000D01*
%TO.C,C6*%
X159942148Y-63838100D02*
X160464652Y-63838100D01*
X159942148Y-65308100D02*
X160464652Y-65308100D01*
D14*
%TO.C,S3*%
X202458000Y-57060000D02*
X203908000Y-57060000D01*
X202458000Y-58160000D02*
X202458000Y-57060000D01*
X202458000Y-62360000D02*
X202458000Y-59560000D01*
X202458000Y-64860000D02*
X202458000Y-63760000D01*
X203908000Y-64860000D02*
X202458000Y-64860000D01*
X204958000Y-62460000D02*
X205958000Y-62460000D01*
X204958000Y-63360000D02*
X204958000Y-58560000D01*
D10*
X205908000Y-64335000D02*
X205908000Y-64335000D01*
D14*
X205958000Y-59460000D02*
X204958000Y-59460000D01*
X205958000Y-62460000D02*
X205958000Y-59460000D01*
D10*
X206008000Y-64335000D02*
X206008000Y-64335000D01*
X205908000Y-64335000D02*
G75*
G02*
X206008000Y-64335000I50000J0D01*
G01*
X206008000Y-64335000D02*
G75*
G02*
X205908000Y-64335000I-50000J0D01*
G01*
D13*
%TO.C,PU13*%
X124772936Y-102697000D02*
X125227064Y-102697000D01*
X124772936Y-104167000D02*
X125227064Y-104167000D01*
%TO.C,PU2*%
X119272936Y-77697000D02*
X119727064Y-77697000D01*
X119272936Y-79167000D02*
X119727064Y-79167000D01*
%TO.C,PU11*%
X118772936Y-99731500D02*
X119227064Y-99731500D01*
X118772936Y-101201500D02*
X119227064Y-101201500D01*
D14*
%TO.C,Q3*%
X126901700Y-84100400D02*
X128101700Y-84100400D01*
X126901700Y-87000400D02*
X126901700Y-84100400D01*
X128101700Y-84100400D02*
X128101700Y-87000400D01*
X128101700Y-87000400D02*
X126901700Y-87000400D01*
X129351700Y-87050400D02*
X128451700Y-87050400D01*
D15*
%TO.C,P1*%
X96560000Y-77110032D02*
X96560000Y-109109968D01*
X96560000Y-109109968D02*
X97989961Y-109109968D01*
X97989961Y-77110032D02*
X96560000Y-77110032D01*
X99930040Y-109109968D02*
X101860000Y-109109968D01*
X101860000Y-77110032D02*
X99930040Y-77110032D01*
X101860000Y-80089960D02*
X101860000Y-77110032D01*
X101860000Y-109109968D02*
X101860000Y-106130040D01*
X103946000Y-79777032D02*
X102930000Y-80539032D01*
X103946000Y-79777032D02*
X103946000Y-81301032D01*
X103946000Y-81301032D02*
X102930000Y-80539032D01*
D10*
%TO.C,J5*%
X106222800Y-72542400D02*
X111302800Y-72542400D01*
X111302800Y-82702400D02*
X106222800Y-82702400D01*
D14*
X104037800Y-73762400D02*
G75*
G02*
X103937800Y-73762400I-50000J0D01*
G01*
X103937800Y-73762400D02*
G75*
G02*
X104037800Y-73762400I50000J0D01*
G01*
D13*
%TO.C,PU9*%
X118772936Y-96591400D02*
X119227064Y-96591400D01*
X118772936Y-98061400D02*
X119227064Y-98061400D01*
D14*
%TO.C,Q4*%
X130400000Y-100886600D02*
X131600000Y-100886600D01*
X130400000Y-103786600D02*
X130400000Y-100886600D01*
X131600000Y-100886600D02*
X131600000Y-103786600D01*
X131600000Y-103786600D02*
X130400000Y-103786600D01*
X132850000Y-103836600D02*
X131950000Y-103836600D01*
D13*
%TO.C,RN2*%
X132772936Y-80865700D02*
X133227064Y-80865700D01*
X132772936Y-82335700D02*
X133227064Y-82335700D01*
%TO.C,PU8*%
X124772936Y-96486700D02*
X125227064Y-96486700D01*
X124772936Y-97956700D02*
X125227064Y-97956700D01*
%TO.C,C18*%
X137244848Y-73010700D02*
X137767352Y-73010700D01*
X137244848Y-74480700D02*
X137767352Y-74480700D01*
%TO.C,C5*%
X149417100Y-73798748D02*
X149417100Y-74321252D01*
X150887100Y-73798748D02*
X150887100Y-74321252D01*
D14*
%TO.C,U8*%
X171238200Y-88088900D02*
X172888200Y-88088900D01*
X173238200Y-88055900D02*
X178088200Y-88055900D01*
X173238200Y-93331900D02*
X173238200Y-88055900D01*
X178088200Y-88055900D02*
X178088200Y-93331900D01*
X178088200Y-93331900D02*
X173238200Y-93331900D01*
D10*
%TO.C,J8*%
X154955075Y-56175275D02*
X157495075Y-56175275D01*
X154955075Y-63795275D02*
X154955075Y-56175275D01*
X157495075Y-56175275D02*
X157495075Y-63795275D01*
X157495075Y-63795275D02*
X154955075Y-63795275D01*
D14*
X151970075Y-63675275D02*
G75*
G02*
X151870075Y-63675275I-50000J0D01*
G01*
X151870075Y-63675275D02*
G75*
G02*
X151970075Y-63675275I50000J0D01*
G01*
D13*
%TO.C,RN1*%
X132772936Y-77970100D02*
X133227064Y-77970100D01*
X132772936Y-79440100D02*
X133227064Y-79440100D01*
D14*
%TO.C,P3*%
X192604800Y-88563800D02*
X192604800Y-88563800D01*
X192604800Y-88563800D02*
X192604800Y-88563800D01*
X192704800Y-88563800D02*
X192704800Y-88563800D01*
X195304800Y-77813800D02*
X195304800Y-80563800D01*
X195304800Y-89563800D02*
X195304800Y-92313800D01*
X195304800Y-92313800D02*
X195304800Y-92313800D01*
X195304800Y-92313800D02*
X196304800Y-92313800D01*
X196304800Y-77813800D02*
X195304800Y-77813800D01*
X200504800Y-92313800D02*
X208704800Y-92313800D01*
X208704800Y-77813800D02*
X200504800Y-77813800D01*
X208704800Y-92313800D02*
X208704800Y-77813800D01*
X192604800Y-88563800D02*
G75*
G02*
X192704800Y-88563800I50000J0D01*
G01*
X192704800Y-88563800D02*
G75*
G02*
X192604800Y-88563800I-50000J0D01*
G01*
X192704800Y-88563800D02*
G75*
G02*
X192604800Y-88563800I-50000J0D01*
G01*
%TO.C,Q2*%
X126901700Y-80538000D02*
X128101700Y-80538000D01*
X126901700Y-83438000D02*
X126901700Y-80538000D01*
X128101700Y-80538000D02*
X128101700Y-83438000D01*
X128101700Y-83438000D02*
X126901700Y-83438000D01*
X129351700Y-83488000D02*
X128451700Y-83488000D01*
%TO.C,DID1*%
X136650000Y-100308200D02*
X134950000Y-100308200D01*
X137360000Y-101558200D02*
X134950000Y-101558200D01*
D13*
%TO.C,RN3*%
X132772936Y-83726300D02*
X133227064Y-83726300D01*
X132772936Y-85196300D02*
X133227064Y-85196300D01*
%TO.C,RN5*%
X135772936Y-97407400D02*
X136227064Y-97407400D01*
X135772936Y-98877400D02*
X136227064Y-98877400D01*
D14*
%TO.C,L3*%
X195920200Y-65674600D02*
X195920200Y-65274600D01*
D10*
X196545200Y-67674600D02*
X196545200Y-67674600D01*
X196545200Y-67774600D02*
X196545200Y-67774600D01*
D14*
X197170200Y-65674600D02*
X197170200Y-65274600D01*
D10*
X196545200Y-67674600D02*
G75*
G02*
X196545200Y-67774600I0J-50000D01*
G01*
X196545200Y-67774600D02*
G75*
G02*
X196545200Y-67674600I0J50000D01*
G01*
D13*
%TO.C,C3*%
X149306000Y-68271148D02*
X149306000Y-68793652D01*
X150776000Y-68271148D02*
X150776000Y-68793652D01*
D14*
%TO.C,U3*%
X161694600Y-73350200D02*
X170994600Y-73350200D01*
X161694600Y-82650200D02*
X161694600Y-73350200D01*
X170994600Y-73350200D02*
X170994600Y-82650200D01*
X170994600Y-82650200D02*
X161694600Y-82650200D01*
D16*
X160244600Y-73500200D02*
G75*
G02*
X159994600Y-73500200I-125000J0D01*
G01*
X159994600Y-73500200D02*
G75*
G02*
X160244600Y-73500200I125000J0D01*
G01*
D13*
%TO.C,PU1*%
X119272936Y-74903000D02*
X119727064Y-74903000D01*
X119272936Y-76373000D02*
X119727064Y-76373000D01*
%TO.C,C23*%
X124674300Y-59638248D02*
X124674300Y-60160752D01*
X126144300Y-59638248D02*
X126144300Y-60160752D01*
%TO.C,PU6*%
X124772936Y-93587900D02*
X125227064Y-93587900D01*
X124772936Y-95057900D02*
X125227064Y-95057900D01*
%TO.C,RN6*%
X135772936Y-94559400D02*
X136227064Y-94559400D01*
X135772936Y-96029400D02*
X136227064Y-96029400D01*
%TO.C,R2*%
X188834636Y-85885300D02*
X189288764Y-85885300D01*
X188834636Y-87355300D02*
X189288764Y-87355300D01*
%TO.C,C8*%
X162021152Y-87841100D02*
X161498648Y-87841100D01*
X162021152Y-89311100D02*
X161498648Y-89311100D01*
%TO.C,R10*%
X146515200Y-68305336D02*
X146515200Y-68759464D01*
X147985200Y-68305336D02*
X147985200Y-68759464D01*
D14*
%TO.C,Y1*%
X152744000Y-78420200D02*
X152794000Y-67020200D01*
X152794000Y-67020200D02*
X153794000Y-67020200D01*
X153794000Y-78420200D02*
X152744000Y-78420200D01*
D10*
X155194000Y-80620200D02*
X155194000Y-80620200D01*
X155194000Y-80720200D02*
X155194000Y-80720200D01*
D14*
X156594000Y-67020200D02*
X157644000Y-67020200D01*
X157644000Y-67020200D02*
X157644000Y-78420200D01*
X157644000Y-78420200D02*
X156594000Y-78420200D01*
D10*
X155194000Y-80620200D02*
G75*
G02*
X155194000Y-80720200I0J-50000D01*
G01*
X155194000Y-80720200D02*
G75*
G02*
X155194000Y-80620200I0J50000D01*
G01*
%TO.C,J1*%
X95700000Y-56896000D02*
X98240000Y-56896000D01*
X95700000Y-74676000D02*
X95700000Y-56896000D01*
X98240000Y-56896000D02*
X98240000Y-74676000D01*
X98240000Y-74676000D02*
X95700000Y-74676000D01*
D14*
X104300000Y-73406000D02*
G75*
G02*
X104200000Y-73406000I-50000J0D01*
G01*
X104200000Y-73406000D02*
G75*
G02*
X104300000Y-73406000I50000J0D01*
G01*
D10*
%TO.C,J4*%
X106960000Y-57835800D02*
X112040000Y-57835800D01*
X112040000Y-70535800D02*
X106960000Y-70535800D01*
D14*
X104775000Y-59055800D02*
G75*
G02*
X104675000Y-59055800I-50000J0D01*
G01*
X104675000Y-59055800D02*
G75*
G02*
X104775000Y-59055800I50000J0D01*
G01*
%TO.C,U4*%
X127977900Y-59515600D02*
X134481900Y-59515600D01*
X127977900Y-63019600D02*
X127977900Y-59515600D01*
X128114900Y-65267600D02*
X128114900Y-63967600D01*
X134481900Y-59515600D02*
X134481900Y-63019600D01*
X134481900Y-63019600D02*
X127977900Y-63019600D01*
D13*
%TO.C,PU10*%
X124772936Y-99661700D02*
X125227064Y-99661700D01*
X124772936Y-101131700D02*
X125227064Y-101131700D01*
%TO.C,R13*%
X119727064Y-72356700D02*
X119272936Y-72356700D01*
X119727064Y-73826700D02*
X119272936Y-73826700D01*
D14*
%TO.C,Q1*%
X126920700Y-76737500D02*
X128120700Y-76737500D01*
X126920700Y-79637500D02*
X126920700Y-76737500D01*
X128120700Y-76737500D02*
X128120700Y-79637500D01*
X128120700Y-79637500D02*
X126920700Y-79637500D01*
X129370700Y-79687500D02*
X128470700Y-79687500D01*
%TO.C,L4*%
X195996400Y-60252000D02*
X195996400Y-60652000D01*
D10*
X196621400Y-58152000D02*
X196621400Y-58152000D01*
X196621400Y-58252000D02*
X196621400Y-58252000D01*
D14*
X197246400Y-60252000D02*
X197246400Y-60652000D01*
D10*
X196621400Y-58152000D02*
G75*
G02*
X196621400Y-58252000I0J-50000D01*
G01*
X196621400Y-58252000D02*
G75*
G02*
X196621400Y-58152000I0J50000D01*
G01*
D13*
%TO.C,PU14*%
X119272936Y-82999300D02*
X119727064Y-82999300D01*
X119272936Y-84469300D02*
X119727064Y-84469300D01*
%TO.C,U1*%
X142459100Y-82502800D02*
X140509100Y-82502800D01*
X142459100Y-82502800D02*
X144409100Y-82502800D01*
X142459100Y-91372800D02*
X140509100Y-91372800D01*
X142459100Y-91372800D02*
X144409100Y-91372800D01*
X139759100Y-82567800D02*
X139519100Y-82237800D01*
X139999100Y-82237800D01*
X139759100Y-82567800D01*
G36*
X139759100Y-82567800D02*
G01*
X139519100Y-82237800D01*
X139999100Y-82237800D01*
X139759100Y-82567800D01*
G37*
%TO.C,R1*%
X188942536Y-83148500D02*
X189396664Y-83148500D01*
X188942536Y-84618500D02*
X189396664Y-84618500D01*
%TO.C,R21*%
X190250736Y-69022900D02*
X190704864Y-69022900D01*
X190250736Y-70492900D02*
X190704864Y-70492900D01*
%TO.C,C9*%
X154586000Y-83029248D02*
X154586000Y-83551752D01*
X156056000Y-83029248D02*
X156056000Y-83551752D01*
%TO.C,PU4*%
X124772936Y-90552600D02*
X125227064Y-90552600D01*
X124772936Y-92022600D02*
X125227064Y-92022600D01*
%TO.C,C19*%
X122761400Y-69582000D02*
X127146400Y-69582000D01*
X127146400Y-66562000D02*
X122761400Y-66562000D01*
X127146400Y-69582000D02*
X127146400Y-66562000D01*
%TO.C,PU3*%
X119272936Y-80243400D02*
X119727064Y-80243400D01*
X119272936Y-81713400D02*
X119727064Y-81713400D01*
%TO.C,PU7*%
X118772936Y-93511700D02*
X119227064Y-93511700D01*
X118772936Y-94981700D02*
X119227064Y-94981700D01*
%TO.C,C16*%
X176240148Y-84878900D02*
X176762652Y-84878900D01*
X176240148Y-86348900D02*
X176762652Y-86348900D01*
%TD*%
M02*
