%TF.GenerationSoftware,KiCad,Pcbnew,9.0.5*%
%TF.CreationDate,2025-10-23T11:37:32+01:00*%
%TF.ProjectId,Gotek,476f7465-6b2e-46b6-9963-61645f706362,rev?*%
%TF.SameCoordinates,Original*%
%TF.FileFunction,Copper,L2,Bot*%
%TF.FilePolarity,Positive*%
%FSLAX46Y46*%
G04 Gerber Fmt 4.6, Leading zero omitted, Abs format (unit mm)*
G04 Created by KiCad (PCBNEW 9.0.5) date 2025-10-23 11:37:32*
%MOMM*%
%LPD*%
G01*
G04 APERTURE LIST*
%TA.AperFunction,ComponentPad*%
%ADD10C,5.000000*%
%TD*%
%TA.AperFunction,ComponentPad*%
%ADD11C,3.570000*%
%TD*%
%TA.AperFunction,ViaPad*%
%ADD12C,0.600000*%
%TD*%
%TA.AperFunction,Conductor*%
%ADD13C,0.200000*%
%TD*%
%TA.AperFunction,Conductor*%
%ADD14C,0.500000*%
%TD*%
%TA.AperFunction,Conductor*%
%ADD15C,1.000000*%
%TD*%
G04 APERTURE END LIST*
D10*
%TO.P,H1,1,1*%
%TO.N,GND*%
X118491000Y-60642500D03*
%TD*%
%TO.P,H2,1,1*%
%TO.N,GND*%
X139573000Y-60642500D03*
%TD*%
%TO.P,H3,1,1*%
%TO.N,GND*%
X118491000Y-110363000D03*
%TD*%
%TO.P,H4,1,1*%
%TO.N,GND*%
X139573000Y-110363000D03*
%TD*%
%TO.P,H5,1,1*%
%TO.N,GND*%
X189357000Y-60642500D03*
%TD*%
D11*
%TO.P,P3,MH1,MH1*%
%TO.N,GND*%
X198424800Y-91463800D03*
%TO.P,P3,MH2,MH2*%
X198424800Y-78663800D03*
%TD*%
D12*
%TO.N,GND*%
X145262600Y-71958200D03*
X105740200Y-87299800D03*
X192887600Y-72593200D03*
X148005800Y-78841600D03*
X115671600Y-88976200D03*
X121920000Y-93954600D03*
X123371000Y-67687800D03*
X128762000Y-75904700D03*
X124876000Y-89046100D03*
X130225800Y-90474800D03*
X107619800Y-95351600D03*
X161163000Y-82981800D03*
X138125000Y-78654300D03*
X175349000Y-87229900D03*
X134347000Y-91405100D03*
X134645000Y-75669800D03*
X102037800Y-60706000D03*
X111287800Y-76352400D03*
X140941000Y-68821300D03*
X174498000Y-93248900D03*
X185064400Y-92329000D03*
X163372800Y-77958900D03*
X122478800Y-80264000D03*
X111353600Y-78867000D03*
X114503200Y-101269800D03*
X105841800Y-92760800D03*
X106343800Y-69271800D03*
X102037800Y-65786000D03*
X98874200Y-76297900D03*
X160249000Y-68021200D03*
X167665000Y-87620500D03*
X116113000Y-71434300D03*
X199986000Y-71475600D03*
X147955000Y-62687200D03*
X169291000Y-88541200D03*
X144158000Y-74079100D03*
X158292800Y-89458800D03*
X137163000Y-85169200D03*
%TO.N,NRST*%
X141049000Y-70065900D03*
X111252000Y-69215000D03*
%TO.N,+3.3V*%
X188204000Y-78495500D03*
X138897300Y-67828100D03*
X147370800Y-99339400D03*
X148130000Y-88973000D03*
X191795000Y-74549000D03*
X153720800Y-88973000D03*
X144195800Y-93802200D03*
X120726000Y-67494100D03*
X180975000Y-88376100D03*
X171256000Y-85601200D03*
X144754600Y-101549200D03*
%TO.N,J3_BOOT0*%
X115338225Y-68491100D03*
X123514000Y-74291800D03*
X161236000Y-66179700D03*
X111290100Y-59093100D03*
X115227100Y-66354325D03*
%TO.N,USART1_TX*%
X178102000Y-78130400D03*
X122894725Y-70929600D03*
%TO.N,USART1_RX*%
X122310111Y-71475700D03*
X176447000Y-77355700D03*
%TO.N,SWDIO*%
X106197400Y-61595000D03*
X179638000Y-76260300D03*
%TO.N,SWCLK*%
X175793000Y-66475000D03*
X106222800Y-64160400D03*
%TO.N,MTRON*%
X103305000Y-89610000D03*
X102069900Y-68313300D03*
%TO.N,ENC1*%
X174320200Y-63882600D03*
X184848000Y-77019100D03*
X164941000Y-88284100D03*
X147878800Y-60020200D03*
%TO.N,DIR*%
X110392000Y-95329400D03*
X151206200Y-91055800D03*
%TO.N,ENCSW*%
X147500850Y-57604150D03*
X179130000Y-72958300D03*
%TO.N,READY*%
X103242000Y-102314000D03*
X100224000Y-87610000D03*
%TO.N,JA*%
X165760400Y-81635600D03*
X114731800Y-75996800D03*
%TO.N,JB*%
X163677600Y-79654400D03*
X114476000Y-80592600D03*
%TO.N,JC*%
X166751000Y-80645000D03*
X113706000Y-78187600D03*
%TO.N,SPI2_MISO*%
X182804000Y-90624000D03*
X177393600Y-90986000D03*
%TO.N,Net-(RN4-Pad2)*%
X137100000Y-104171640D03*
X140436600Y-94719775D03*
%TO.N,ENC2*%
X151879300Y-60134500D03*
X174345600Y-65074800D03*
%TO.N,U3-40-PC9*%
X177155000Y-79609900D03*
X151765000Y-57556400D03*
%TO.N,JKA1-1*%
X150339000Y-84743900D03*
X169802000Y-69329300D03*
%TO.N,JKA1-2*%
X151358600Y-85115400D03*
X168251000Y-70286600D03*
%TO.N,WPROT_3V3*%
X141694000Y-86296500D03*
X167078000Y-68726100D03*
%TO.N,SEL*%
X158613400Y-82702400D03*
X127555625Y-97697900D03*
X101930200Y-70967600D03*
X105537000Y-94175200D03*
X112265000Y-94913400D03*
X196399200Y-61409500D03*
%TO.N,STEP*%
X158589700Y-85082100D03*
X114892000Y-95350000D03*
%TO.N,WGATE*%
X128177925Y-95967500D03*
X128574000Y-88974300D03*
X102685000Y-97531000D03*
X165176200Y-75387200D03*
X122873000Y-96389400D03*
%TO.N,INDEX*%
X105918000Y-84099400D03*
X122796000Y-82321400D03*
X116615000Y-82407100D03*
%TO.N,WPROT*%
X121834000Y-88871400D03*
X121109000Y-100047000D03*
X111843000Y-101504000D03*
%TO.N,RDATA*%
X120394000Y-101932000D03*
X110590000Y-103610000D03*
X127052000Y-99510500D03*
X110590000Y-100891000D03*
%TO.N,TRK0*%
X110096000Y-99610000D03*
X120094000Y-88614200D03*
%TO.N,SIDE1*%
X155300000Y-89838200D03*
X166180556Y-74484517D03*
X129052000Y-105622000D03*
X156115935Y-86850135D03*
%TO.N,WDATA*%
X129590800Y-88315800D03*
X116941600Y-94056200D03*
X169265600Y-75666600D03*
X122428000Y-90059000D03*
%TO.N,BUT_L*%
X160645000Y-86912400D03*
X202808000Y-66480000D03*
%TO.N,BUT_R*%
X163887000Y-86931500D03*
X202808000Y-63060000D03*
%TO.N,INDEX_3V3*%
X142072000Y-83404100D03*
X162931000Y-68338700D03*
%TO.N,TRK0_3V3*%
X144158000Y-81397400D03*
X167484000Y-66621000D03*
%TO.N,READY_3V3*%
X168481000Y-67840200D03*
X148879000Y-83004000D03*
%TO.N,CHNG*%
X130899000Y-86410800D03*
X122736000Y-76638000D03*
%TO.N,HDOUT*%
X109586201Y-88609999D03*
X97093200Y-88610000D03*
X101752400Y-58166000D03*
X115646200Y-83367800D03*
%TO.N,CHNG_3V3*%
X149203000Y-80971900D03*
X165095000Y-67008400D03*
%TO.N,DRVSEL*%
X102662000Y-83610000D03*
X102057200Y-73380600D03*
%TO.N,SPI2_SS*%
X173122000Y-84429700D03*
X170936000Y-87914000D03*
%TO.N,I2C2_DTA*%
X167221000Y-90576400D03*
X196545200Y-71424800D03*
%TO.N,I2C2_CLK*%
X196485000Y-64039800D03*
X168634000Y-90862100D03*
%TD*%
D13*
%TO.N,GND*%
X124813182Y-66245800D02*
X123371182Y-67687800D01*
X134312000Y-91440000D02*
X127000000Y-91440000D01*
X123371182Y-67687800D02*
X123371000Y-67687800D01*
X169291000Y-88541200D02*
X168392000Y-88541200D01*
X137846000Y-78654300D02*
X134861000Y-75669800D01*
X199986000Y-71475600D02*
X199986000Y-71383600D01*
X111287800Y-78801200D02*
X111353600Y-78867000D01*
X102037800Y-60522200D02*
X102006400Y-60553600D01*
X103746800Y-67614800D02*
X103809800Y-67614800D01*
X124606000Y-89046100D02*
X124876000Y-89046100D01*
X199986000Y-75630400D02*
X199986000Y-73444100D01*
X199986000Y-73444100D02*
X199986000Y-71475600D01*
X111287800Y-76352400D02*
X111287800Y-78801200D01*
X186148500Y-93413100D02*
X185064400Y-92329000D01*
X138106000Y-78673300D02*
X138001000Y-78673300D01*
X162082900Y-93248900D02*
X158292800Y-89458800D01*
X119294000Y-66351100D02*
X122035000Y-66351100D01*
X124814000Y-66245800D02*
X125178600Y-65881200D01*
X167942000Y-88090400D02*
X167942000Y-87896700D01*
X198424800Y-91463800D02*
X196475500Y-93413100D01*
X174498000Y-93248900D02*
X162082900Y-93248900D01*
X137020000Y-79480300D02*
X137846000Y-78654300D01*
X138106000Y-78673300D02*
X138106000Y-84226200D01*
X111287800Y-76259500D02*
X116113000Y-71434300D01*
X161163000Y-81257200D02*
X163372800Y-79047400D01*
X199417000Y-78386600D02*
X199986000Y-77817600D01*
X199986000Y-75630800D02*
X199986000Y-75630400D01*
X99385400Y-64470000D02*
X100602000Y-64470000D01*
X138106000Y-84226200D02*
X137163000Y-85169200D01*
X134347000Y-91405100D02*
X134312000Y-91440000D01*
X163372800Y-79047400D02*
X163372800Y-77958900D01*
X116113000Y-71434300D02*
X116113000Y-69532500D01*
X101854000Y-60706000D02*
X102037800Y-60706000D01*
X139573000Y-60642500D02*
X118491000Y-60642500D01*
X174038000Y-88541200D02*
X169291000Y-88541200D01*
X100602000Y-61958000D02*
X101854000Y-60706000D01*
X145262600Y-75498300D02*
X145034000Y-75726900D01*
X138125000Y-78654300D02*
X137846000Y-78654300D01*
X199416500Y-78386600D02*
X199417000Y-78386600D01*
X138125000Y-78654300D02*
X138106000Y-78673300D01*
X129115000Y-75552300D02*
X134528000Y-75552300D01*
X127000000Y-91440000D02*
X124876000Y-89315900D01*
X140941000Y-67855200D02*
X140941000Y-68821300D01*
X137163000Y-85169200D02*
X137020000Y-85312200D01*
X145262600Y-71958200D02*
X145262600Y-75498300D01*
X106343800Y-69271800D02*
X102858000Y-65786000D01*
X144158000Y-74850600D02*
X145034000Y-75726900D01*
X156312000Y-71958200D02*
X145262600Y-71958200D01*
X104502000Y-68307000D02*
X105379000Y-68307000D01*
X147137200Y-61869400D02*
X140800000Y-61869400D01*
X160249000Y-68021200D02*
X156312000Y-71958200D01*
X140800000Y-61869400D02*
X139573000Y-60642500D01*
X138125000Y-78654300D02*
X141691000Y-75088800D01*
X100602000Y-64470000D02*
X103746800Y-67614800D01*
X123371000Y-67687800D02*
X124814000Y-66245800D01*
X103809800Y-67614800D02*
X104502000Y-68307000D01*
X199416000Y-78386600D02*
X199416500Y-78386600D01*
X144104000Y-74079100D02*
X144158000Y-74079100D01*
X98874200Y-76297900D02*
X97896600Y-75320300D01*
X125178600Y-65881200D02*
X138967000Y-65881200D01*
X102858000Y-65786000D02*
X102037800Y-65786000D01*
X138967000Y-65881200D02*
X140941000Y-67855200D01*
X122035000Y-66351100D02*
X123371000Y-67687800D01*
X199985600Y-71383600D02*
X199986000Y-71383600D01*
X134528000Y-75552300D02*
X134645000Y-75669800D01*
X198424800Y-78663800D02*
X198424800Y-91526800D01*
X145034000Y-75726900D02*
X148005800Y-78698700D01*
X100602000Y-64470000D02*
X100602000Y-61958000D01*
X102037800Y-60706000D02*
X102037800Y-60522200D01*
X128762000Y-75904700D02*
X129115000Y-75552300D01*
X141691000Y-75088800D02*
X143094000Y-75088800D01*
X148005800Y-78698700D02*
X148005800Y-78841600D01*
X168392000Y-88541200D02*
X167942000Y-88090400D01*
X118491000Y-110363000D02*
X139573000Y-110363000D01*
X196475500Y-93413100D02*
X186148500Y-93413100D01*
X143094000Y-75088800D02*
X144104000Y-74079100D01*
X134861000Y-75669800D02*
X134645000Y-75669800D01*
X147955000Y-62687200D02*
X147137200Y-61869400D01*
X175349000Y-87229900D02*
X174038000Y-88541200D01*
X97896600Y-65958800D02*
X99385400Y-64470000D01*
X199986000Y-75630800D02*
X199986000Y-75630400D01*
X111287800Y-76352400D02*
X111287800Y-76259500D01*
X167942000Y-87896700D02*
X167665000Y-87620500D01*
X124876000Y-89315900D02*
X124876000Y-89046100D01*
X116113000Y-69532500D02*
X119294000Y-66351100D01*
X137020000Y-85312200D02*
X137020000Y-79480300D01*
X161163000Y-82981800D02*
X161163000Y-81257200D01*
X199986000Y-75630400D02*
X199986000Y-73444100D01*
X124814000Y-66245800D02*
X124813182Y-66245800D01*
X144158000Y-74079100D02*
X144158000Y-74850600D01*
X97896600Y-75320300D02*
X97896600Y-65958800D01*
X199986000Y-77817600D02*
X199986000Y-75630800D01*
%TO.N,NRST*%
X113620550Y-69215000D02*
X111252000Y-69215000D01*
X118243350Y-64592200D02*
X113620550Y-69215000D01*
X138811400Y-64592200D02*
X118243350Y-64592200D01*
X111252000Y-69215000D02*
X111201200Y-69215000D01*
X141707000Y-69408700D02*
X141707000Y-67487800D01*
X141049000Y-70065900D02*
X141707000Y-69408700D01*
X141707000Y-67487800D02*
X138811400Y-64592200D01*
D14*
%TO.N,+3.3V*%
X144195800Y-100990400D02*
X144754600Y-101549200D01*
D13*
X154339050Y-90525600D02*
X155461129Y-90525600D01*
X156445000Y-89544100D02*
X156445000Y-89081000D01*
D14*
X123368000Y-70135800D02*
X136589600Y-70135800D01*
X120726000Y-67494100D02*
X123368000Y-70135800D01*
X159287000Y-86125100D02*
X170732000Y-86125100D01*
X156331000Y-89081000D02*
X159287000Y-86125100D01*
D13*
X147370800Y-99339400D02*
X147370800Y-97764600D01*
X156445000Y-89081000D02*
X156331000Y-89081000D01*
D14*
X153720800Y-88973000D02*
X148130000Y-88973000D01*
D13*
X149632051Y-95232599D02*
X154339050Y-90525600D01*
X147370800Y-99361600D02*
X147370800Y-99339400D01*
D14*
X153793800Y-88900000D02*
X156150000Y-88900000D01*
X144754600Y-101549200D02*
X144805400Y-101600000D01*
D13*
X180975000Y-87991900D02*
X180975000Y-88376100D01*
D14*
X170732000Y-86125100D02*
X171256000Y-85601200D01*
D15*
X180975000Y-87991900D02*
X180975000Y-86680700D01*
X180975000Y-86680700D02*
X188338000Y-79317900D01*
X188338000Y-79317900D02*
X188338000Y-78628900D01*
D13*
X149632051Y-95503349D02*
X149632051Y-95232599D01*
D14*
X144195800Y-93802200D02*
X144195800Y-100990400D01*
D15*
X191795000Y-74904600D02*
X191795000Y-74549000D01*
D13*
X188204000Y-78495500D02*
X188338000Y-78628900D01*
D14*
X153720800Y-88973000D02*
X153793800Y-88900000D01*
D13*
X147370800Y-97764600D02*
X149632051Y-95503349D01*
X155461129Y-90525600D02*
X156331000Y-89655729D01*
D14*
X156150000Y-88900000D02*
X156331000Y-89081000D01*
X136589600Y-70135800D02*
X138897300Y-67828100D01*
D15*
X188204000Y-78495500D02*
X191795000Y-74904600D01*
D13*
%TO.N,J3_BOOT0*%
X141602000Y-74295000D02*
X141453000Y-74295000D01*
X145690000Y-70206700D02*
X141602000Y-74295000D01*
X115338225Y-68491100D02*
X110534000Y-73295325D01*
X161214000Y-66157500D02*
X153562000Y-66157500D01*
X115141000Y-82318200D02*
X123168000Y-74291800D01*
X114173000Y-65786000D02*
X114173000Y-61976000D01*
X153562000Y-66157500D02*
X149513000Y-70206700D01*
X149513000Y-70206700D02*
X145690000Y-70206700D01*
X110534000Y-73295325D02*
X110534000Y-79469800D01*
X114741325Y-66354325D02*
X114173000Y-65786000D01*
X114173000Y-61976000D02*
X111290100Y-59093100D01*
X141453000Y-74295000D02*
X141449000Y-74291800D01*
X115227100Y-66354325D02*
X114741325Y-66354325D01*
X115037000Y-82213400D02*
X115141000Y-82318200D01*
X113277600Y-82213400D02*
X115037000Y-82213400D01*
X161236000Y-66179700D02*
X161214000Y-66157500D01*
X123168000Y-74291800D02*
X123514000Y-74291800D01*
X141449000Y-74291800D02*
X123514000Y-74291800D01*
X110534000Y-79469800D02*
X113277600Y-82213400D01*
%TO.N,USART1_TX*%
X152704800Y-63347600D02*
X169503600Y-63347600D01*
X176441000Y-74107700D02*
X177276000Y-74942700D01*
X149653600Y-66398800D02*
X152704800Y-63347600D01*
X140932000Y-71078700D02*
X145612000Y-66398800D01*
X177302000Y-74942700D02*
X177302000Y-77885900D01*
X123043825Y-71078700D02*
X140932000Y-71078700D01*
X176441000Y-70285000D02*
X176441000Y-74107700D01*
X177324000Y-77908100D02*
X177879000Y-77908100D01*
X145612000Y-66398800D02*
X149653600Y-66398800D01*
X177276000Y-74942700D02*
X177302000Y-74942700D01*
X177879000Y-77908100D02*
X178102000Y-78130400D01*
X169503600Y-63347600D02*
X176441000Y-70285000D01*
X122894725Y-70929600D02*
X123043825Y-71078700D01*
X177302000Y-77885900D02*
X177324000Y-77908100D01*
%TO.N,USART1_RX*%
X169446200Y-63855600D02*
X175819000Y-70228400D01*
X145850000Y-66849600D02*
X149939400Y-66849600D01*
X122310111Y-71475700D02*
X122364011Y-71529600D01*
X141170000Y-71529600D02*
X145850000Y-66849600D01*
X152933400Y-63855600D02*
X169446200Y-63855600D01*
X122364011Y-71529600D02*
X141170000Y-71529600D01*
X175819000Y-70228400D02*
X175819000Y-76727100D01*
X175819000Y-76727100D02*
X176447000Y-77355700D01*
X149939400Y-66849600D02*
X152933400Y-63855600D01*
%TO.N,SWDIO*%
X106197400Y-61595000D02*
X106248200Y-61595000D01*
X115242445Y-63871454D02*
X142484854Y-63871454D01*
X114703000Y-57216700D02*
X114703000Y-63332009D01*
X142484854Y-63871454D02*
X143812000Y-65198600D01*
X170049400Y-62839600D02*
X177209000Y-69999200D01*
X152495000Y-62839600D02*
X170049400Y-62839600D01*
X177209000Y-69999200D02*
X177209000Y-73831300D01*
X143812000Y-65198600D02*
X150136000Y-65198600D01*
X106248200Y-61595000D02*
X110626500Y-57216700D01*
X114703000Y-63332009D02*
X115242445Y-63871454D01*
X150136000Y-65198600D02*
X152495000Y-62839600D01*
X177209000Y-73831300D02*
X179638000Y-76260300D01*
X110626500Y-57216700D02*
X114703000Y-57216700D01*
%TO.N,SWCLK*%
X173629000Y-65852700D02*
X168815000Y-61039400D01*
X154536300Y-60020200D02*
X150031000Y-64525500D01*
X150031000Y-64525500D02*
X143796000Y-64525500D01*
X115103000Y-56606800D02*
X115033400Y-56537200D01*
X104394000Y-56537200D02*
X104216200Y-56715000D01*
X115103000Y-63166600D02*
X115103000Y-56606800D01*
X143796000Y-64525500D02*
X142742000Y-63471400D01*
X104216200Y-62153800D02*
X106222800Y-64160400D01*
X168694000Y-61039400D02*
X167674800Y-60020200D01*
X168815000Y-61039400D02*
X168694000Y-61039400D01*
X142742000Y-63471400D02*
X115408000Y-63471400D01*
X104216200Y-56715000D02*
X104216200Y-62153800D01*
X115408000Y-63471400D02*
X115103000Y-63166600D01*
X167674800Y-60020200D02*
X154536300Y-60020200D01*
X175793000Y-66475000D02*
X175171000Y-65852700D01*
X115033400Y-56537200D02*
X104394000Y-56537200D01*
X175171000Y-65852700D02*
X173629000Y-65852700D01*
%TO.N,MTRON*%
X104038400Y-70281800D02*
X104038400Y-88876600D01*
X102069900Y-68313300D02*
X104038400Y-70281800D01*
X102057200Y-68300600D02*
X102069900Y-68313300D01*
X104038400Y-88876600D02*
X103305000Y-89610000D01*
%TO.N,ENC1*%
X176476000Y-87903100D02*
X174904400Y-89474700D01*
X148894800Y-59004200D02*
X147878800Y-60020200D01*
X174904400Y-89474700D02*
X165729000Y-89474700D01*
X165729000Y-89474700D02*
X164941000Y-88687300D01*
X153136600Y-59004200D02*
X148894800Y-59004200D01*
X184499000Y-77054100D02*
X176476000Y-85077300D01*
X174320200Y-63677800D02*
X167690800Y-57048400D01*
X167690800Y-57048400D02*
X155092400Y-57048400D01*
X174320200Y-63882600D02*
X174320200Y-63677800D01*
X176476000Y-85077300D02*
X176476000Y-87903100D01*
X155092400Y-57048400D02*
X153136600Y-59004200D01*
X184814000Y-77054100D02*
X184499000Y-77054100D01*
X184848000Y-77019100D02*
X184814000Y-77054100D01*
X164941000Y-88687300D02*
X164941000Y-88284100D01*
%TO.N,DIR*%
X110392000Y-95986600D02*
X110392000Y-95329400D01*
X113313000Y-98907600D02*
X110392000Y-95986600D01*
X151206200Y-91055800D02*
X141976500Y-91055800D01*
X134124700Y-98907600D02*
X113313000Y-98907600D01*
X141976500Y-91055800D02*
X134124700Y-98907600D01*
%TO.N,ENCSW*%
X154940000Y-56565800D02*
X152984200Y-58521600D01*
X148418300Y-58521600D02*
X147500850Y-57604150D01*
X177660000Y-71488300D02*
X177660000Y-65497100D01*
X171561000Y-59216800D02*
X168910000Y-56565800D01*
X168910000Y-56565800D02*
X154940000Y-56565800D01*
X152984200Y-58521600D02*
X148418300Y-58521600D01*
X147500850Y-57604150D02*
X147463000Y-57566300D01*
X171561000Y-59398100D02*
X171561000Y-59216800D01*
X177660000Y-65497100D02*
X171561000Y-59398100D01*
X179130000Y-72958300D02*
X177660000Y-71488300D01*
%TO.N,READY*%
X100224000Y-99296300D02*
X100224000Y-87610000D01*
X103242000Y-102314000D02*
X100224000Y-99296300D01*
%TO.N,JA*%
X150182000Y-67297300D02*
X146349000Y-67297300D01*
X172152000Y-67126900D02*
X169363300Y-64338200D01*
X167373000Y-82299200D02*
X172152000Y-77520800D01*
X166424000Y-82299200D02*
X167373000Y-82299200D01*
X117059000Y-72075700D02*
X114731800Y-74402900D01*
X165760400Y-81635600D02*
X166424000Y-82299200D01*
X141571000Y-72075700D02*
X117059000Y-72075700D01*
X114731800Y-74402900D02*
X114731800Y-75996800D01*
X153141100Y-64338200D02*
X150182000Y-67297300D01*
X169363300Y-64338200D02*
X153141100Y-64338200D01*
X146349000Y-67297300D02*
X141571000Y-72075700D01*
X172152000Y-77520800D02*
X172152000Y-67126900D01*
%TO.N,JB*%
X117415000Y-73399600D02*
X116052600Y-74762000D01*
X116052600Y-74762000D02*
X116052600Y-78229400D01*
X114476000Y-79806000D02*
X114476000Y-80592600D01*
X116052600Y-78229400D02*
X114476000Y-79806000D01*
X171298000Y-76971500D02*
X171298000Y-67686300D01*
X141529000Y-73399600D02*
X117415000Y-73399600D01*
X171298000Y-67686300D02*
X169042100Y-65430400D01*
X150601000Y-68319600D02*
X146609000Y-68319600D01*
X153490200Y-65430400D02*
X150601000Y-68319600D01*
X168396000Y-79873500D02*
X171298000Y-76971500D01*
X163677600Y-79654400D02*
X163896700Y-79873500D01*
X169042100Y-65430400D02*
X153490200Y-65430400D01*
X163896700Y-79873500D02*
X168396000Y-79873500D01*
X146609000Y-68319600D02*
X141529000Y-73399600D01*
%TO.N,JC*%
X168332500Y-80645000D02*
X171698000Y-77279500D01*
X169189400Y-64846200D02*
X169164000Y-64820800D01*
X171698000Y-77279500D02*
X171698000Y-67238600D01*
X150293000Y-67751300D02*
X146612000Y-67751300D01*
X115519200Y-74279100D02*
X115519200Y-76374400D01*
X166751000Y-80645000D02*
X168332500Y-80645000D01*
X117094000Y-72704300D02*
X115519200Y-74279100D01*
X169164000Y-64820800D02*
X153223500Y-64820800D01*
X153223500Y-64820800D02*
X150293000Y-67751300D01*
X146612000Y-67751300D02*
X141659000Y-72704300D01*
X171698000Y-67238600D02*
X169305600Y-64846200D01*
X169305600Y-64846200D02*
X169189400Y-64846200D01*
X141659000Y-72704300D02*
X117094000Y-72704300D01*
X115519200Y-76374400D02*
X113706000Y-78187600D01*
%TO.N,SPI2_MISO*%
X177393600Y-90986000D02*
X182442000Y-90986000D01*
X182442000Y-90986000D02*
X182804000Y-90624000D01*
%TO.N,Net-(RN4-Pad2)*%
X140398500Y-102273200D02*
X138500060Y-104171640D01*
X140398500Y-94757875D02*
X140398500Y-102273200D01*
X140436600Y-94719775D02*
X140398500Y-94757875D01*
X138500060Y-104171640D02*
X137100000Y-104171640D01*
%TO.N,ENC2*%
X152857200Y-60147200D02*
X151892000Y-60147200D01*
X151879300Y-60134500D02*
X151790400Y-60045600D01*
X166751000Y-57480200D02*
X155524200Y-57480200D01*
X174345600Y-65074800D02*
X166751000Y-57480200D01*
X155524200Y-57480200D02*
X152857200Y-60147200D01*
X151892000Y-60147200D02*
X151879300Y-60134500D01*
%TO.N,U3-40-PC9*%
X179905000Y-72167800D02*
X179889000Y-72167800D01*
X180102000Y-76949300D02*
X180238000Y-76812900D01*
X180238000Y-72501100D02*
X179905000Y-72167800D01*
X179889000Y-72167800D02*
X178286000Y-70564400D01*
X177471000Y-79609900D02*
X180102000Y-76978700D01*
X178286000Y-70564400D02*
X178286000Y-65214000D01*
X153314400Y-57556400D02*
X151765000Y-57556400D01*
X154762200Y-56108600D02*
X153314400Y-57556400D01*
X180238000Y-76812900D02*
X180238000Y-72501100D01*
X178286000Y-65214000D02*
X169180600Y-56108600D01*
X180102000Y-76978700D02*
X180102000Y-76949300D01*
X169180600Y-56108600D02*
X154762200Y-56108600D01*
X177155000Y-79609900D02*
X177471000Y-79609900D01*
%TO.N,JKA1-1*%
X150339000Y-84588633D02*
X150339000Y-84743900D01*
X155162206Y-81260994D02*
X153666639Y-81260994D01*
X167323300Y-69329300D02*
X163449000Y-73203600D01*
X163219600Y-73203600D02*
X155162206Y-81260994D01*
X163449000Y-73203600D02*
X163219600Y-73203600D01*
X169800500Y-69330800D02*
X169802000Y-69329300D01*
X169802000Y-69329300D02*
X167323300Y-69329300D01*
X153666639Y-81260994D02*
X150339000Y-84588633D01*
%TO.N,JKA1-2*%
X163230000Y-74079100D02*
X167022000Y-70286600D01*
X162953700Y-74079100D02*
X163230000Y-74079100D01*
X167022000Y-70286600D02*
X168251000Y-70286600D01*
X151358600Y-85115400D02*
X151358600Y-84134719D01*
X152898081Y-84134719D02*
X162953700Y-74079100D01*
X151358600Y-84134719D02*
X152898081Y-84134719D01*
%TO.N,WPROT_3V3*%
X141694000Y-86296500D02*
X142919000Y-85070900D01*
X165522000Y-68691100D02*
X164684000Y-68691100D01*
X142919000Y-85070900D02*
X148304000Y-85070900D01*
X148908000Y-84467700D02*
X149184000Y-84191500D01*
X164684000Y-68691100D02*
X149184000Y-84190800D01*
X167078000Y-68726100D02*
X165557000Y-68726100D01*
X149184000Y-84190800D02*
X149184000Y-84191500D01*
X165557000Y-68726100D02*
X165522000Y-68691100D01*
X148304000Y-85070900D02*
X148908000Y-84467700D01*
%TO.N,SEL*%
X175260000Y-83820000D02*
X182880000Y-76200000D01*
X158613400Y-82702400D02*
X160020000Y-82702400D01*
X195130500Y-61409500D02*
X196399200Y-61409500D01*
X112265000Y-95885000D02*
X112265000Y-94913400D01*
X161137600Y-83820000D02*
X175260000Y-83820000D01*
X98298300Y-72975000D02*
X101875000Y-76551500D01*
X98302300Y-70967600D02*
X98298300Y-70971600D01*
X144272000Y-88303100D02*
X144551000Y-88023700D01*
X114078000Y-97697900D02*
X112265000Y-95885000D01*
X127555625Y-97697900D02*
X128466800Y-97697900D01*
X128466800Y-97697900D02*
X128470000Y-97701100D01*
X182880000Y-76200000D02*
X182880000Y-73660000D01*
X101875000Y-76551500D02*
X101875000Y-90538800D01*
X144161000Y-88303100D02*
X144272000Y-88303100D01*
X182880000Y-73660000D02*
X195130500Y-61409500D01*
X128470000Y-97701100D02*
X134763000Y-97701100D01*
X127555625Y-97697900D02*
X114078000Y-97697900D01*
X98298300Y-70971600D02*
X98298300Y-72975000D01*
X160020000Y-82702400D02*
X161137600Y-83820000D01*
X159207200Y-85366500D02*
X159207200Y-83296200D01*
X101875000Y-90538800D02*
X105511000Y-94175200D01*
X159207200Y-83296200D02*
X158613400Y-82702400D01*
X101930200Y-70967600D02*
X98302300Y-70967600D01*
X156550000Y-88023700D02*
X159207200Y-85366500D01*
X144551000Y-88023700D02*
X156550000Y-88023700D01*
X134763000Y-97701100D02*
X144161000Y-88303100D01*
%TO.N,STEP*%
X144104000Y-87576000D02*
X136330000Y-95350000D01*
X156238600Y-87576000D02*
X144104000Y-87576000D01*
X158589700Y-85224900D02*
X156238600Y-87576000D01*
X136330000Y-95350000D02*
X114892000Y-95350000D01*
X158589700Y-85082100D02*
X158589700Y-85224900D01*
%TO.N,WGATE*%
X112538000Y-88401400D02*
X112538000Y-86874400D01*
X155515935Y-86601606D02*
X155515935Y-86622265D01*
X143415000Y-86658500D02*
X141099200Y-88974300D01*
X125145000Y-85545300D02*
X128574000Y-88974300D01*
X102685000Y-97531000D02*
X103408400Y-97531000D01*
X157613400Y-80812700D02*
X157613400Y-84524800D01*
X157613400Y-84524800D02*
X155888065Y-86250135D01*
X155867406Y-86250135D02*
X155515935Y-86601606D01*
X164490400Y-75387200D02*
X164173000Y-75704600D01*
X112538000Y-86874400D02*
X113867000Y-85545300D01*
X155515935Y-86622265D02*
X155479700Y-86658500D01*
X113867000Y-85545300D02*
X125145000Y-85545300D01*
X164109000Y-75774600D02*
X163338000Y-76546100D01*
X123295000Y-95967500D02*
X122873000Y-96389400D01*
X155888065Y-86250135D02*
X155867406Y-86250135D01*
X155479700Y-86658500D02*
X143415000Y-86658500D01*
X141099200Y-88974300D02*
X128574000Y-88974300D01*
X103408400Y-97531000D02*
X112538000Y-88401400D01*
X128177925Y-95967500D02*
X123295000Y-95967500D01*
X163338000Y-76546100D02*
X161880000Y-76546100D01*
X165176200Y-75387200D02*
X164490400Y-75387200D01*
X161880000Y-76546100D02*
X157613400Y-80812700D01*
%TO.N,INDEX*%
X116615000Y-82407100D02*
X122711000Y-82407100D01*
X116254300Y-82767800D02*
X116615000Y-82407100D01*
X105994200Y-84023200D02*
X113607314Y-84023200D01*
X114862714Y-82767800D02*
X116254300Y-82767800D01*
X122711000Y-82407100D02*
X122796000Y-82321400D01*
X113607314Y-84023200D02*
X114862714Y-82767800D01*
X105918000Y-84099400D02*
X105994200Y-84023200D01*
%TO.N,WPROT*%
X111001000Y-92521200D02*
X118384770Y-92521200D01*
X118384770Y-92521200D02*
X118737185Y-92168785D01*
X111843000Y-100047000D02*
X121109000Y-100047000D01*
X111843000Y-100047000D02*
X111843000Y-101504000D01*
X111843000Y-100047000D02*
X110951000Y-99154500D01*
X110951000Y-98586600D02*
X109374000Y-97009600D01*
X109374000Y-97009600D02*
X109374000Y-94148100D01*
X121834000Y-88871400D02*
X121834000Y-89071400D01*
X110951000Y-99154500D02*
X110951000Y-98586600D01*
X121834000Y-89071400D02*
X118577000Y-92329000D01*
X109374000Y-94148100D02*
X111001000Y-92521200D01*
%TO.N,RDATA*%
X127052000Y-99510500D02*
X124631000Y-101932000D01*
X124631000Y-101932000D02*
X120394000Y-101932000D01*
X110590000Y-100891000D02*
X110590000Y-103610000D01*
%TO.N,TRK0*%
X120094000Y-88614200D02*
X120094000Y-88550800D01*
X108918000Y-98431400D02*
X108918000Y-93998500D01*
X110096000Y-99610000D02*
X108918000Y-98431400D01*
X108918000Y-93998500D02*
X110825000Y-92090900D01*
X116618000Y-92090900D02*
X120094000Y-88614200D01*
X110825000Y-92090900D02*
X116618000Y-92090900D01*
%TO.N,SIDE1*%
X158013400Y-84809871D02*
X158013400Y-80978500D01*
X161633000Y-77358900D02*
X164182000Y-77358900D01*
X129052000Y-104551800D02*
X140563600Y-93040200D01*
X150266400Y-93040200D02*
X153468400Y-89838200D01*
X129052000Y-105622000D02*
X129052000Y-104551800D01*
X164182000Y-77358900D02*
X166180556Y-75360344D01*
X158013400Y-80978500D02*
X161633000Y-77358900D01*
X157989700Y-84976370D02*
X157989700Y-84833571D01*
X156115935Y-86850135D02*
X157989700Y-84976370D01*
X157989700Y-84833571D02*
X158013400Y-84809871D01*
X153468400Y-89838200D02*
X155300000Y-89838200D01*
X166180556Y-75360344D02*
X166180556Y-74484517D01*
X140563600Y-93040200D02*
X150266400Y-93040200D01*
%TO.N,WDATA*%
X165001600Y-73561600D02*
X164998400Y-73558400D01*
X116687600Y-94056200D02*
X116941600Y-94056200D01*
X163097000Y-74571200D02*
X157175200Y-80493000D01*
X157175200Y-84397314D02*
X155722379Y-85850135D01*
X169008400Y-75923800D02*
X168469000Y-75923800D01*
X157175200Y-80493000D02*
X157175200Y-84397314D01*
X168469000Y-75923800D02*
X166106000Y-73561600D01*
X122428000Y-90059000D02*
X118430800Y-94056200D01*
X155722379Y-85850135D02*
X155701720Y-85850135D01*
X163985600Y-74571200D02*
X163097000Y-74571200D01*
X166106000Y-73561600D02*
X165001600Y-73561600D01*
X164998400Y-73558400D02*
X163985600Y-74571200D01*
X129581600Y-88315800D02*
X129590800Y-88315800D01*
X118430800Y-94056200D02*
X116941600Y-94056200D01*
X141153700Y-88315800D02*
X129590800Y-88315800D01*
X155293355Y-86258500D02*
X143211000Y-86258500D01*
X169265600Y-75666600D02*
X169008400Y-75923800D01*
X143211000Y-86258500D02*
X141153700Y-88315800D01*
X155701720Y-85850135D02*
X155293355Y-86258500D01*
%TO.N,BUT_L*%
X202808000Y-66480000D02*
X202607600Y-66480000D01*
X174872700Y-92513100D02*
X166246000Y-92513100D01*
X198475600Y-72856500D02*
X181143000Y-90189100D01*
X198475600Y-70612000D02*
X198475600Y-72856500D01*
X181143000Y-90189100D02*
X177196700Y-90189100D01*
X177196700Y-90189100D02*
X174872700Y-92513100D01*
X202607600Y-66480000D02*
X198475600Y-70612000D01*
X166246000Y-92513100D02*
X160645000Y-86912400D01*
%TO.N,BUT_R*%
X176834800Y-89738200D02*
X174459900Y-92113100D01*
X167801000Y-92113100D02*
X163887000Y-88198900D01*
X201244200Y-65557200D02*
X197672000Y-69129400D01*
X174459900Y-92113100D02*
X167801000Y-92113100D01*
X202471600Y-63060000D02*
X201244200Y-64287400D01*
X197672000Y-69129400D02*
X197672000Y-72793400D01*
X163887000Y-88198900D02*
X163887000Y-86931500D01*
X180727000Y-89738200D02*
X176834800Y-89738200D01*
X197672000Y-72793400D02*
X180727000Y-89738200D01*
X201244200Y-64287400D02*
X201244200Y-65557200D01*
X202808000Y-63060000D02*
X202471600Y-63060000D01*
%TO.N,INDEX_3V3*%
X151086000Y-80333900D02*
X162931000Y-68487900D01*
X162931000Y-68487900D02*
X162931000Y-68338700D01*
X148387000Y-80333900D02*
X151086000Y-80333900D01*
X145386000Y-83404100D02*
X145386000Y-83334200D01*
X142072000Y-83404100D02*
X145386000Y-83404100D01*
X145386000Y-83334200D02*
X148387000Y-80333900D01*
%TO.N,TRK0_3V3*%
X146415000Y-81397400D02*
X148142000Y-79670300D01*
X144158000Y-81397400D02*
X146415000Y-81397400D01*
X163379000Y-65852700D02*
X166697000Y-65852700D01*
X161785000Y-68922900D02*
X161785000Y-67446500D01*
X161785000Y-67446500D02*
X163379000Y-65852700D01*
X151038000Y-79670300D02*
X161785000Y-68922900D01*
X166697000Y-65852700D02*
X167465000Y-66621000D01*
X167465000Y-66621000D02*
X167484000Y-66621000D01*
X148142000Y-79670300D02*
X151038000Y-79670300D01*
%TO.N,READY_3V3*%
X168481000Y-67840200D02*
X168446000Y-67875100D01*
X164932000Y-67875100D02*
X149803000Y-83004000D01*
X149803000Y-83004000D02*
X148879000Y-83004000D01*
X168446000Y-67875100D02*
X164932000Y-67875100D01*
%TO.N,CHNG*%
X122736000Y-78247900D02*
X130899000Y-86410800D01*
X122736000Y-76638000D02*
X122736000Y-78247900D01*
%TO.N,HDOUT*%
X114828400Y-83367800D02*
X109586201Y-88609999D01*
X115646200Y-83367800D02*
X114828400Y-83367800D01*
X101752400Y-58166000D02*
X101548100Y-57961700D01*
X97093200Y-59526700D02*
X97093200Y-88610000D01*
X98658200Y-57961700D02*
X97093200Y-59526700D01*
X101548100Y-57961700D02*
X98658200Y-57961700D01*
%TO.N,CHNG_3V3*%
X151270000Y-80971900D02*
X165095000Y-67147100D01*
X149203000Y-80971900D02*
X151270000Y-80971900D01*
X165095000Y-67147100D02*
X165095000Y-67008400D01*
%TO.N,DRVSEL*%
X102662000Y-73985400D02*
X102662000Y-83610000D01*
X102057200Y-73380600D02*
X102662000Y-73985400D01*
%TO.N,SPI2_SS*%
X170936000Y-87914000D02*
X173122000Y-85728700D01*
X173122000Y-85728700D02*
X173122000Y-84429700D01*
%TO.N,I2C2_DTA*%
X186433000Y-77200100D02*
X186433000Y-74701400D01*
X189709600Y-71424800D02*
X196545200Y-71424800D01*
X167221000Y-90576400D02*
X167221000Y-90728800D01*
X167221000Y-90728800D02*
X168205000Y-91713100D01*
X177933000Y-85699600D02*
X186433000Y-77200100D01*
X177933000Y-87852600D02*
X177933000Y-85699600D01*
X168205000Y-91713100D02*
X174072500Y-91713100D01*
X186433000Y-74701400D02*
X189709600Y-71424800D01*
X174072500Y-91713100D02*
X177933000Y-87852600D01*
%TO.N,I2C2_CLK*%
X195180000Y-64039800D02*
X195199000Y-64039800D01*
X196484900Y-64039700D02*
X195199000Y-64039700D01*
X195199000Y-64039700D02*
X195199000Y-64039800D01*
X196485000Y-64039700D02*
X196484900Y-64039700D01*
X174282100Y-90766900D02*
X177387000Y-87662000D01*
X195199000Y-64039800D02*
X196485000Y-64039800D01*
X185448000Y-73809100D02*
X185430000Y-73790200D01*
X185430000Y-73790200D02*
X195180000Y-64039800D01*
X168729000Y-90766900D02*
X174282100Y-90766900D01*
X177387000Y-85328900D02*
X185448000Y-77267700D01*
X185448000Y-77267700D02*
X185448000Y-73809100D01*
X177387000Y-87662000D02*
X177387000Y-85328900D01*
X168634000Y-90862100D02*
X168729000Y-90766900D01*
%TD*%
%TA.AperFunction,Conductor*%
%TO.N,GND*%
G36*
X103969141Y-55900185D02*
G01*
X104014896Y-55952989D01*
X104024840Y-56022147D01*
X103995815Y-56085703D01*
X103989783Y-56092181D01*
X103735681Y-56346282D01*
X103735677Y-56346287D01*
X103728120Y-56359378D01*
X103719092Y-56375016D01*
X103656623Y-56483215D01*
X103615699Y-56635943D01*
X103615699Y-56635945D01*
X103615699Y-56804046D01*
X103615700Y-56804059D01*
X103615700Y-62067130D01*
X103615699Y-62067148D01*
X103615699Y-62232854D01*
X103615698Y-62232854D01*
X103652291Y-62369420D01*
X103656623Y-62385585D01*
X103672814Y-62413628D01*
X103735679Y-62522514D01*
X103735681Y-62522517D01*
X103854549Y-62641385D01*
X103854555Y-62641390D01*
X105388225Y-64175060D01*
X105421710Y-64236383D01*
X105422161Y-64238549D01*
X105453061Y-64393891D01*
X105453064Y-64393901D01*
X105513402Y-64539572D01*
X105513409Y-64539585D01*
X105601010Y-64670688D01*
X105601013Y-64670692D01*
X105712507Y-64782186D01*
X105712511Y-64782189D01*
X105843614Y-64869790D01*
X105843627Y-64869797D01*
X105989298Y-64930135D01*
X105989303Y-64930137D01*
X106143953Y-64960899D01*
X106143956Y-64960900D01*
X106143958Y-64960900D01*
X106301644Y-64960900D01*
X106301645Y-64960899D01*
X106456297Y-64930137D01*
X106601979Y-64869794D01*
X106733089Y-64782189D01*
X106844589Y-64670689D01*
X106932194Y-64539579D01*
X106992537Y-64393897D01*
X107023300Y-64239242D01*
X107023300Y-64081558D01*
X107023300Y-64081555D01*
X107023299Y-64081553D01*
X107005426Y-63991699D01*
X106992537Y-63926903D01*
X106976705Y-63888681D01*
X106932197Y-63781227D01*
X106932190Y-63781214D01*
X106844589Y-63650111D01*
X106844586Y-63650107D01*
X106733092Y-63538613D01*
X106733088Y-63538610D01*
X106601985Y-63451009D01*
X106601972Y-63451002D01*
X106456301Y-63390664D01*
X106456291Y-63390661D01*
X106300949Y-63359761D01*
X106239038Y-63327376D01*
X106237460Y-63325825D01*
X104853019Y-61941384D01*
X104819534Y-61880061D01*
X104816700Y-61853703D01*
X104816700Y-57261700D01*
X104836385Y-57194661D01*
X104889189Y-57148906D01*
X104940700Y-57137700D01*
X109556903Y-57137700D01*
X109623942Y-57157385D01*
X109669697Y-57210189D01*
X109679641Y-57279347D01*
X109650616Y-57342903D01*
X109644584Y-57349381D01*
X106235784Y-60758181D01*
X106174461Y-60791666D01*
X106148103Y-60794500D01*
X106118555Y-60794500D01*
X105963910Y-60825261D01*
X105963898Y-60825264D01*
X105818227Y-60885602D01*
X105818214Y-60885609D01*
X105687111Y-60973210D01*
X105687107Y-60973213D01*
X105575613Y-61084707D01*
X105575610Y-61084711D01*
X105488009Y-61215814D01*
X105488002Y-61215827D01*
X105427664Y-61361498D01*
X105427661Y-61361510D01*
X105396900Y-61516153D01*
X105396900Y-61673846D01*
X105427661Y-61828489D01*
X105427664Y-61828501D01*
X105488002Y-61974172D01*
X105488009Y-61974185D01*
X105575610Y-62105288D01*
X105575613Y-62105292D01*
X105687107Y-62216786D01*
X105687111Y-62216789D01*
X105818214Y-62304390D01*
X105818227Y-62304397D01*
X105963898Y-62364735D01*
X105963903Y-62364737D01*
X106118553Y-62395499D01*
X106118556Y-62395500D01*
X106118558Y-62395500D01*
X106276244Y-62395500D01*
X106276245Y-62395499D01*
X106430897Y-62364737D01*
X106576579Y-62304394D01*
X106707689Y-62216789D01*
X106819189Y-62105289D01*
X106906794Y-61974179D01*
X106967137Y-61828497D01*
X106985423Y-61736562D01*
X107017805Y-61674655D01*
X107019300Y-61673133D01*
X110838916Y-57853519D01*
X110900239Y-57820034D01*
X110926597Y-57817200D01*
X113978500Y-57817200D01*
X114045539Y-57836885D01*
X114091294Y-57889689D01*
X114102500Y-57941200D01*
X114102500Y-60756903D01*
X114082815Y-60823942D01*
X114030011Y-60869697D01*
X113960853Y-60879641D01*
X113897297Y-60850616D01*
X113890819Y-60844584D01*
X112124674Y-59078439D01*
X112091189Y-59017116D01*
X112090738Y-59014949D01*
X112065946Y-58890316D01*
X112059837Y-58859603D01*
X112030090Y-58787786D01*
X111999497Y-58713927D01*
X111999490Y-58713914D01*
X111911889Y-58582811D01*
X111911886Y-58582807D01*
X111800392Y-58471313D01*
X111800388Y-58471310D01*
X111669285Y-58383709D01*
X111669272Y-58383702D01*
X111523601Y-58323364D01*
X111523589Y-58323361D01*
X111368945Y-58292600D01*
X111368942Y-58292600D01*
X111211258Y-58292600D01*
X111211255Y-58292600D01*
X111056610Y-58323361D01*
X111056598Y-58323364D01*
X110910927Y-58383702D01*
X110910914Y-58383709D01*
X110779811Y-58471310D01*
X110779807Y-58471313D01*
X110668313Y-58582807D01*
X110668310Y-58582811D01*
X110580709Y-58713914D01*
X110580702Y-58713927D01*
X110520364Y-58859598D01*
X110520361Y-58859610D01*
X110489600Y-59014253D01*
X110489600Y-59171946D01*
X110520361Y-59326589D01*
X110520364Y-59326601D01*
X110580702Y-59472272D01*
X110580709Y-59472285D01*
X110668310Y-59603388D01*
X110668313Y-59603392D01*
X110779807Y-59714886D01*
X110779811Y-59714889D01*
X110910914Y-59802490D01*
X110910927Y-59802497D01*
X111056598Y-59862835D01*
X111056603Y-59862837D01*
X111121247Y-59875695D01*
X111211949Y-59893738D01*
X111273860Y-59926123D01*
X111275439Y-59927674D01*
X113536181Y-62188416D01*
X113569666Y-62249739D01*
X113572500Y-62276097D01*
X113572500Y-65699330D01*
X113572499Y-65699348D01*
X113572499Y-65865054D01*
X113572498Y-65865054D01*
X113613423Y-66017785D01*
X113635876Y-66056673D01*
X113635877Y-66056677D01*
X113635878Y-66056677D01*
X113658477Y-66095821D01*
X113692479Y-66154714D01*
X113692481Y-66154717D01*
X113811349Y-66273585D01*
X113811355Y-66273590D01*
X114256464Y-66718699D01*
X114256474Y-66718710D01*
X114260804Y-66723040D01*
X114260805Y-66723041D01*
X114372609Y-66834845D01*
X114433299Y-66869884D01*
X114509540Y-66913902D01*
X114662268Y-66954826D01*
X114662271Y-66954826D01*
X114670119Y-66956929D01*
X114669886Y-66957794D01*
X114673655Y-66959213D01*
X114682718Y-66959375D01*
X114714556Y-66974608D01*
X114767054Y-67009686D01*
X114811859Y-67063298D01*
X114820566Y-67132623D01*
X114790412Y-67195650D01*
X114785844Y-67200469D01*
X113408134Y-68578181D01*
X113346811Y-68611666D01*
X113320453Y-68614500D01*
X111831766Y-68614500D01*
X111764727Y-68594815D01*
X111762875Y-68593602D01*
X111631185Y-68505609D01*
X111631172Y-68505602D01*
X111485501Y-68445264D01*
X111485489Y-68445261D01*
X111330845Y-68414500D01*
X111330842Y-68414500D01*
X111173158Y-68414500D01*
X111173155Y-68414500D01*
X111018510Y-68445261D01*
X111018498Y-68445264D01*
X110872827Y-68505602D01*
X110872814Y-68505609D01*
X110741711Y-68593210D01*
X110741707Y-68593213D01*
X110630213Y-68704707D01*
X110630210Y-68704711D01*
X110542609Y-68835814D01*
X110542602Y-68835827D01*
X110482264Y-68981498D01*
X110482261Y-68981510D01*
X110451500Y-69136153D01*
X110451500Y-69293846D01*
X110482261Y-69448489D01*
X110482264Y-69448501D01*
X110542602Y-69594172D01*
X110542609Y-69594185D01*
X110630210Y-69725288D01*
X110630213Y-69725292D01*
X110741707Y-69836786D01*
X110741711Y-69836789D01*
X110872814Y-69924390D01*
X110872827Y-69924397D01*
X110989194Y-69972597D01*
X111018503Y-69984737D01*
X111173153Y-70015499D01*
X111173156Y-70015500D01*
X111173158Y-70015500D01*
X111330844Y-70015500D01*
X111330845Y-70015499D01*
X111485497Y-69984737D01*
X111631179Y-69924394D01*
X111759392Y-69838725D01*
X111762875Y-69836398D01*
X111829553Y-69815520D01*
X111831766Y-69815500D01*
X112865228Y-69815500D01*
X112932267Y-69835185D01*
X112978022Y-69887989D01*
X112987966Y-69957147D01*
X112958941Y-70020703D01*
X112952909Y-70027179D01*
X111542786Y-71437303D01*
X110165286Y-72814803D01*
X110053481Y-72926607D01*
X110053475Y-72926615D01*
X110011788Y-72998821D01*
X110011788Y-72998822D01*
X109974423Y-73063539D01*
X109974423Y-73063540D01*
X109933499Y-73216268D01*
X109933499Y-73216270D01*
X109933499Y-73384371D01*
X109933500Y-73384384D01*
X109933500Y-79383130D01*
X109933499Y-79383148D01*
X109933499Y-79548854D01*
X109933498Y-79548854D01*
X109974423Y-79701586D01*
X109974424Y-79701587D01*
X109992700Y-79733242D01*
X110002011Y-79749369D01*
X110045387Y-79824499D01*
X110053481Y-79838517D01*
X110172349Y-79957385D01*
X110172355Y-79957390D01*
X112792739Y-82577774D01*
X112792749Y-82577785D01*
X112797079Y-82582115D01*
X112797080Y-82582116D01*
X112908884Y-82693920D01*
X112908886Y-82693921D01*
X112908890Y-82693924D01*
X113035969Y-82767292D01*
X113045816Y-82772977D01*
X113141838Y-82798706D01*
X113141837Y-82798706D01*
X113149537Y-82800769D01*
X113198542Y-82813900D01*
X113198543Y-82813900D01*
X113668016Y-82813900D01*
X113735055Y-82833585D01*
X113780810Y-82886389D01*
X113790754Y-82955547D01*
X113761729Y-83019103D01*
X113755697Y-83025581D01*
X113394898Y-83386381D01*
X113333575Y-83419866D01*
X113307217Y-83422700D01*
X106383725Y-83422700D01*
X106316686Y-83403015D01*
X106314834Y-83401802D01*
X106297185Y-83390009D01*
X106297172Y-83390002D01*
X106151501Y-83329664D01*
X106151489Y-83329661D01*
X105996845Y-83298900D01*
X105996842Y-83298900D01*
X105839158Y-83298900D01*
X105839155Y-83298900D01*
X105684510Y-83329661D01*
X105684498Y-83329664D01*
X105538827Y-83390002D01*
X105538814Y-83390009D01*
X105407711Y-83477610D01*
X105407707Y-83477613D01*
X105296213Y-83589107D01*
X105296210Y-83589111D01*
X105208609Y-83720214D01*
X105208602Y-83720227D01*
X105148264Y-83865898D01*
X105148261Y-83865910D01*
X105117500Y-84020553D01*
X105117500Y-84178246D01*
X105148261Y-84332889D01*
X105148264Y-84332901D01*
X105208602Y-84478572D01*
X105208609Y-84478585D01*
X105296210Y-84609688D01*
X105296213Y-84609692D01*
X105407707Y-84721186D01*
X105407711Y-84721189D01*
X105538814Y-84808790D01*
X105538827Y-84808797D01*
X105627493Y-84845523D01*
X105684503Y-84869137D01*
X105803786Y-84892864D01*
X105839153Y-84899899D01*
X105839156Y-84899900D01*
X105839158Y-84899900D01*
X105996844Y-84899900D01*
X105996845Y-84899899D01*
X106151497Y-84869137D01*
X106264166Y-84822467D01*
X106297172Y-84808797D01*
X106297172Y-84808796D01*
X106297179Y-84808794D01*
X106428289Y-84721189D01*
X106489460Y-84660017D01*
X106550781Y-84626534D01*
X106577140Y-84623700D01*
X112423903Y-84623700D01*
X112490942Y-84643385D01*
X112536697Y-84696189D01*
X112546641Y-84765347D01*
X112517616Y-84828903D01*
X112511584Y-84835381D01*
X109571540Y-87775424D01*
X109510217Y-87808909D01*
X109508051Y-87809360D01*
X109352709Y-87840260D01*
X109352699Y-87840263D01*
X109207028Y-87900601D01*
X109207015Y-87900608D01*
X109075912Y-87988209D01*
X109075908Y-87988212D01*
X108964414Y-88099706D01*
X108964411Y-88099710D01*
X108876810Y-88230813D01*
X108876803Y-88230826D01*
X108816465Y-88376497D01*
X108816462Y-88376509D01*
X108785701Y-88531152D01*
X108785701Y-88688845D01*
X108816462Y-88843488D01*
X108816465Y-88843500D01*
X108876803Y-88989171D01*
X108876810Y-88989184D01*
X108964411Y-89120287D01*
X108964414Y-89120291D01*
X109075908Y-89231785D01*
X109075912Y-89231788D01*
X109207015Y-89319389D01*
X109207028Y-89319396D01*
X109331963Y-89371145D01*
X109352704Y-89379736D01*
X109505077Y-89410045D01*
X109507354Y-89410498D01*
X109507357Y-89410499D01*
X109507359Y-89410499D01*
X109665045Y-89410499D01*
X109665046Y-89410498D01*
X109819698Y-89379736D01*
X109955238Y-89323594D01*
X109965373Y-89319396D01*
X109965373Y-89319395D01*
X109965380Y-89319393D01*
X110096490Y-89231788D01*
X110207990Y-89120288D01*
X110295595Y-88989178D01*
X110296356Y-88987342D01*
X110334953Y-88894158D01*
X110355938Y-88843496D01*
X110378983Y-88727640D01*
X110386839Y-88688149D01*
X110419224Y-88626238D01*
X110420719Y-88624715D01*
X111725819Y-87319616D01*
X111787142Y-87286131D01*
X111856834Y-87291115D01*
X111912767Y-87332987D01*
X111937184Y-87398451D01*
X111937500Y-87407297D01*
X111937500Y-88101302D01*
X111917815Y-88168341D01*
X111901181Y-88188983D01*
X106372359Y-93717804D01*
X106311036Y-93751289D01*
X106241344Y-93746305D01*
X106185411Y-93704433D01*
X106181575Y-93699013D01*
X106158787Y-93664908D01*
X106047292Y-93553413D01*
X106047288Y-93553410D01*
X105916185Y-93465809D01*
X105916172Y-93465802D01*
X105770501Y-93405464D01*
X105770489Y-93405461D01*
X105615845Y-93374700D01*
X105615842Y-93374700D01*
X105611142Y-93374700D01*
X105544103Y-93355015D01*
X105523456Y-93338376D01*
X102511814Y-90326402D01*
X102497112Y-90299474D01*
X102480523Y-90273661D01*
X102479630Y-90267455D01*
X102478332Y-90265077D01*
X102475500Y-90238726D01*
X102475500Y-90211941D01*
X102495185Y-90144902D01*
X102547989Y-90099147D01*
X102617147Y-90089203D01*
X102680703Y-90118228D01*
X102687181Y-90124260D01*
X102794707Y-90231786D01*
X102794711Y-90231789D01*
X102925814Y-90319390D01*
X102925827Y-90319397D01*
X103026226Y-90360983D01*
X103071503Y-90379737D01*
X103226153Y-90410499D01*
X103226156Y-90410500D01*
X103226158Y-90410500D01*
X103383844Y-90410500D01*
X103383845Y-90410499D01*
X103538497Y-90379737D01*
X103684179Y-90319394D01*
X103815289Y-90231789D01*
X103926789Y-90120289D01*
X104014394Y-89989179D01*
X104074737Y-89843497D01*
X104098606Y-89723500D01*
X104105638Y-89688150D01*
X104138023Y-89626239D01*
X104139524Y-89624710D01*
X104396906Y-89367327D01*
X104396911Y-89367324D01*
X104407114Y-89357120D01*
X104407116Y-89357120D01*
X104518920Y-89245316D01*
X104581052Y-89137699D01*
X104597977Y-89108385D01*
X104638900Y-88955658D01*
X104638900Y-88797543D01*
X104638900Y-70202743D01*
X104637592Y-70197863D01*
X104627410Y-70159863D01*
X104597977Y-70050016D01*
X104589973Y-70036153D01*
X104518924Y-69913090D01*
X104518921Y-69913086D01*
X104518920Y-69913084D01*
X104407116Y-69801280D01*
X104407115Y-69801279D01*
X104402785Y-69796949D01*
X104402774Y-69796939D01*
X102904474Y-68298639D01*
X102870989Y-68237316D01*
X102870538Y-68235149D01*
X102839638Y-68079810D01*
X102839637Y-68079803D01*
X102839635Y-68079798D01*
X102779297Y-67934127D01*
X102779290Y-67934114D01*
X102691689Y-67803011D01*
X102691686Y-67803007D01*
X102580192Y-67691513D01*
X102580188Y-67691510D01*
X102449085Y-67603909D01*
X102449072Y-67603902D01*
X102303401Y-67543564D01*
X102303389Y-67543561D01*
X102148745Y-67512800D01*
X102148742Y-67512800D01*
X101991058Y-67512800D01*
X101991055Y-67512800D01*
X101836410Y-67543561D01*
X101836398Y-67543564D01*
X101690727Y-67603902D01*
X101690714Y-67603909D01*
X101559611Y-67691510D01*
X101559607Y-67691513D01*
X101448113Y-67803007D01*
X101448110Y-67803011D01*
X101360509Y-67934114D01*
X101360502Y-67934127D01*
X101300164Y-68079798D01*
X101300161Y-68079810D01*
X101269400Y-68234453D01*
X101269400Y-68392146D01*
X101300161Y-68546789D01*
X101300164Y-68546801D01*
X101360502Y-68692472D01*
X101360509Y-68692485D01*
X101448110Y-68823588D01*
X101448113Y-68823592D01*
X101559607Y-68935086D01*
X101559611Y-68935089D01*
X101690714Y-69022690D01*
X101690727Y-69022697D01*
X101836398Y-69083035D01*
X101836403Y-69083037D01*
X101900582Y-69095803D01*
X101991749Y-69113938D01*
X102053660Y-69146323D01*
X102055239Y-69147874D01*
X103401581Y-70494216D01*
X103435066Y-70555539D01*
X103437900Y-70581897D01*
X103437900Y-73665523D01*
X103418215Y-73732562D01*
X103365411Y-73778317D01*
X103296253Y-73788261D01*
X103232697Y-73759236D01*
X103206513Y-73727523D01*
X103142522Y-73616687D01*
X103142521Y-73616686D01*
X103142520Y-73616684D01*
X103030716Y-73504880D01*
X103030715Y-73504879D01*
X103026385Y-73500549D01*
X103026374Y-73500539D01*
X102891774Y-73365939D01*
X102858289Y-73304616D01*
X102857838Y-73302449D01*
X102826938Y-73147110D01*
X102826937Y-73147103D01*
X102817593Y-73124544D01*
X102766597Y-73001427D01*
X102766590Y-73001414D01*
X102678989Y-72870311D01*
X102678986Y-72870307D01*
X102567492Y-72758813D01*
X102567488Y-72758810D01*
X102436381Y-72671207D01*
X102436372Y-72671202D01*
X102290701Y-72610864D01*
X102290689Y-72610861D01*
X102136045Y-72580100D01*
X102136042Y-72580100D01*
X101978358Y-72580100D01*
X101978355Y-72580100D01*
X101823710Y-72610861D01*
X101823698Y-72610864D01*
X101678027Y-72671202D01*
X101678019Y-72671207D01*
X101546911Y-72758810D01*
X101546907Y-72758813D01*
X101435413Y-72870307D01*
X101435410Y-72870311D01*
X101347809Y-73001414D01*
X101347802Y-73001427D01*
X101287464Y-73147098D01*
X101287461Y-73147110D01*
X101256700Y-73301753D01*
X101256700Y-73459446D01*
X101287461Y-73614089D01*
X101287464Y-73614101D01*
X101347802Y-73759772D01*
X101347809Y-73759785D01*
X101435410Y-73890888D01*
X101435413Y-73890892D01*
X101546907Y-74002386D01*
X101546911Y-74002389D01*
X101678014Y-74089990D01*
X101678027Y-74089997D01*
X101823698Y-74150335D01*
X101823703Y-74150337D01*
X101902495Y-74166009D01*
X101961691Y-74177785D01*
X102023602Y-74210170D01*
X102058176Y-74270885D01*
X102061500Y-74299402D01*
X102061500Y-75589426D01*
X102041815Y-75656465D01*
X101989011Y-75702220D01*
X101919853Y-75712164D01*
X101856297Y-75683139D01*
X101849821Y-75677110D01*
X98935121Y-72762573D01*
X98901635Y-72701250D01*
X98898800Y-72674889D01*
X98898800Y-71692100D01*
X98918485Y-71625061D01*
X98971289Y-71579306D01*
X99022800Y-71568100D01*
X101350434Y-71568100D01*
X101417473Y-71587785D01*
X101419325Y-71588998D01*
X101551014Y-71676990D01*
X101551027Y-71676997D01*
X101696698Y-71737335D01*
X101696703Y-71737337D01*
X101851353Y-71768099D01*
X101851356Y-71768100D01*
X101851358Y-71768100D01*
X102009044Y-71768100D01*
X102009045Y-71768099D01*
X102163697Y-71737337D01*
X102309379Y-71676994D01*
X102440489Y-71589389D01*
X102551989Y-71477889D01*
X102639594Y-71346779D01*
X102699937Y-71201097D01*
X102730700Y-71046442D01*
X102730700Y-70888758D01*
X102730700Y-70888755D01*
X102730699Y-70888753D01*
X102717874Y-70824280D01*
X102699937Y-70734103D01*
X102686846Y-70702498D01*
X102639597Y-70588427D01*
X102639590Y-70588414D01*
X102551989Y-70457311D01*
X102551986Y-70457307D01*
X102440492Y-70345813D01*
X102440488Y-70345810D01*
X102309385Y-70258209D01*
X102309372Y-70258202D01*
X102163701Y-70197864D01*
X102163689Y-70197861D01*
X102009045Y-70167100D01*
X102009042Y-70167100D01*
X101851358Y-70167100D01*
X101851355Y-70167100D01*
X101696710Y-70197861D01*
X101696698Y-70197864D01*
X101551027Y-70258202D01*
X101551014Y-70258209D01*
X101419325Y-70346202D01*
X101352647Y-70367080D01*
X101350434Y-70367100D01*
X98388969Y-70367100D01*
X98388953Y-70367099D01*
X98381357Y-70367099D01*
X98223243Y-70367099D01*
X98108697Y-70397792D01*
X98070514Y-70408023D01*
X98029387Y-70431768D01*
X98029381Y-70431771D01*
X98024961Y-70434324D01*
X97933584Y-70487080D01*
X97929584Y-70491080D01*
X97897492Y-70523171D01*
X97888330Y-70529521D01*
X97865325Y-70537154D01*
X97844058Y-70548768D01*
X97832764Y-70547960D01*
X97822016Y-70551527D01*
X97798538Y-70545512D01*
X97774366Y-70543784D01*
X97765301Y-70536998D01*
X97754332Y-70534188D01*
X97737832Y-70516434D01*
X97718433Y-70501912D01*
X97714475Y-70491302D01*
X97706767Y-70483008D01*
X97702484Y-70459153D01*
X97694016Y-70436448D01*
X97693700Y-70427602D01*
X97693700Y-59826797D01*
X97713385Y-59759758D01*
X97730019Y-59739116D01*
X98870616Y-58598519D01*
X98931939Y-58565034D01*
X98958297Y-58562200D01*
X100988100Y-58562200D01*
X101055139Y-58581885D01*
X101091201Y-58617308D01*
X101116370Y-58654976D01*
X101130612Y-58676291D01*
X101242107Y-58787786D01*
X101242111Y-58787789D01*
X101373214Y-58875390D01*
X101373227Y-58875397D01*
X101465150Y-58913472D01*
X101518903Y-58935737D01*
X101673553Y-58966499D01*
X101673556Y-58966500D01*
X101673558Y-58966500D01*
X101831244Y-58966500D01*
X101831245Y-58966499D01*
X101985897Y-58935737D01*
X102131579Y-58875394D01*
X102262689Y-58787789D01*
X102374189Y-58676289D01*
X102461794Y-58545179D01*
X102522137Y-58399497D01*
X102552900Y-58244842D01*
X102552900Y-58087158D01*
X102552900Y-58087155D01*
X102552899Y-58087153D01*
X102532247Y-57983329D01*
X102522137Y-57932503D01*
X102484857Y-57842500D01*
X102461797Y-57786827D01*
X102461790Y-57786814D01*
X102374189Y-57655711D01*
X102374186Y-57655707D01*
X102262692Y-57544213D01*
X102262688Y-57544210D01*
X102131585Y-57456609D01*
X102131572Y-57456602D01*
X101985901Y-57396264D01*
X101985889Y-57396261D01*
X101831245Y-57365500D01*
X101831242Y-57365500D01*
X101673558Y-57365500D01*
X101673136Y-57365500D01*
X101658651Y-57366034D01*
X101643860Y-57365674D01*
X101627157Y-57361199D01*
X101469043Y-57361199D01*
X101469039Y-57361200D01*
X98737257Y-57361200D01*
X98579142Y-57361200D01*
X98426415Y-57402123D01*
X98400447Y-57417116D01*
X98344965Y-57449148D01*
X98289485Y-57481179D01*
X98289482Y-57481181D01*
X96612681Y-59157982D01*
X96612679Y-59157985D01*
X96577050Y-59219698D01*
X96577049Y-59219700D01*
X96533623Y-59294914D01*
X96533623Y-59294915D01*
X96492699Y-59447643D01*
X96492699Y-59447645D01*
X96492699Y-59615746D01*
X96492700Y-59615759D01*
X96492700Y-88030234D01*
X96473015Y-88097273D01*
X96471802Y-88099125D01*
X96383809Y-88230814D01*
X96383802Y-88230827D01*
X96323464Y-88376498D01*
X96323461Y-88376510D01*
X96292700Y-88531153D01*
X96292700Y-88688846D01*
X96323461Y-88843489D01*
X96323464Y-88843501D01*
X96383802Y-88989172D01*
X96383809Y-88989185D01*
X96471410Y-89120288D01*
X96471413Y-89120292D01*
X96582907Y-89231786D01*
X96582911Y-89231789D01*
X96714014Y-89319390D01*
X96714027Y-89319397D01*
X96829735Y-89367324D01*
X96859703Y-89379737D01*
X97012071Y-89410045D01*
X97014353Y-89410499D01*
X97014356Y-89410500D01*
X97014358Y-89410500D01*
X97172044Y-89410500D01*
X97172045Y-89410499D01*
X97326697Y-89379737D01*
X97472379Y-89319394D01*
X97603489Y-89231789D01*
X97714989Y-89120289D01*
X97802594Y-88989179D01*
X97862937Y-88843497D01*
X97893700Y-88688842D01*
X97893700Y-88531158D01*
X97893700Y-88531157D01*
X97893700Y-88531155D01*
X97893699Y-88531153D01*
X97893699Y-88531152D01*
X97862937Y-88376503D01*
X97857320Y-88362942D01*
X97802597Y-88230827D01*
X97802590Y-88230814D01*
X97714598Y-88099125D01*
X97693720Y-88032447D01*
X97693700Y-88030234D01*
X97693700Y-87531153D01*
X99423500Y-87531153D01*
X99423500Y-87688846D01*
X99454261Y-87843489D01*
X99454264Y-87843501D01*
X99514602Y-87989172D01*
X99514609Y-87989185D01*
X99602602Y-88120874D01*
X99623480Y-88187551D01*
X99623500Y-88189765D01*
X99623500Y-99217257D01*
X99623496Y-99217272D01*
X99623500Y-99296142D01*
X99623500Y-99375378D01*
X99645130Y-99456081D01*
X99645132Y-99456088D01*
X99664424Y-99528088D01*
X99664431Y-99528104D01*
X99664434Y-99528109D01*
X99664435Y-99528112D01*
X99699787Y-99589338D01*
X99699789Y-99589343D01*
X99699791Y-99589343D01*
X99743480Y-99665016D01*
X99743483Y-99665020D01*
X99743497Y-99665039D01*
X99792530Y-99714067D01*
X99792545Y-99714081D01*
X99861095Y-99782631D01*
X99861148Y-99782678D01*
X101071716Y-100993125D01*
X102383222Y-102304500D01*
X102407432Y-102328707D01*
X102440920Y-102390029D01*
X102441372Y-102392202D01*
X102472261Y-102547489D01*
X102472264Y-102547501D01*
X102532602Y-102693172D01*
X102532609Y-102693185D01*
X102620210Y-102824288D01*
X102620213Y-102824292D01*
X102731707Y-102935786D01*
X102731711Y-102935789D01*
X102862814Y-103023390D01*
X102862827Y-103023397D01*
X102995671Y-103078422D01*
X103008503Y-103083737D01*
X103163153Y-103114499D01*
X103163156Y-103114500D01*
X103163158Y-103114500D01*
X103320844Y-103114500D01*
X103320845Y-103114499D01*
X103475497Y-103083737D01*
X103621179Y-103023394D01*
X103752289Y-102935789D01*
X103863789Y-102824289D01*
X103951394Y-102693179D01*
X104011737Y-102547497D01*
X104042500Y-102392842D01*
X104042500Y-102235158D01*
X104042500Y-102235155D01*
X104042499Y-102235153D01*
X104034341Y-102194142D01*
X104011737Y-102080503D01*
X103984312Y-102014292D01*
X103951397Y-101934827D01*
X103951390Y-101934814D01*
X103863789Y-101803711D01*
X103863786Y-101803707D01*
X103752292Y-101692213D01*
X103752288Y-101692210D01*
X103621185Y-101604609D01*
X103621172Y-101604602D01*
X103475501Y-101544264D01*
X103475489Y-101544261D01*
X103320101Y-101513352D01*
X103258190Y-101480967D01*
X103256649Y-101479454D01*
X101496793Y-99719772D01*
X100860823Y-99083865D01*
X100827335Y-99022543D01*
X100824500Y-98996179D01*
X100824500Y-88189765D01*
X100844185Y-88122726D01*
X100845398Y-88120874D01*
X100858235Y-88101663D01*
X100933394Y-87989179D01*
X100993737Y-87843497D01*
X101024500Y-87688842D01*
X101024500Y-87531158D01*
X101024500Y-87531155D01*
X101024499Y-87531153D01*
X101015040Y-87483600D01*
X100993737Y-87376503D01*
X100975712Y-87332987D01*
X100933397Y-87230827D01*
X100933390Y-87230814D01*
X100845789Y-87099711D01*
X100845786Y-87099707D01*
X100734292Y-86988213D01*
X100734288Y-86988210D01*
X100603185Y-86900609D01*
X100603172Y-86900602D01*
X100457501Y-86840264D01*
X100457489Y-86840261D01*
X100302845Y-86809500D01*
X100302842Y-86809500D01*
X100145158Y-86809500D01*
X100145155Y-86809500D01*
X99990510Y-86840261D01*
X99990498Y-86840264D01*
X99844827Y-86900602D01*
X99844814Y-86900609D01*
X99713711Y-86988210D01*
X99713707Y-86988213D01*
X99602213Y-87099707D01*
X99602210Y-87099711D01*
X99514609Y-87230814D01*
X99514602Y-87230827D01*
X99454264Y-87376498D01*
X99454261Y-87376510D01*
X99423500Y-87531153D01*
X97693700Y-87531153D01*
X97693700Y-73518998D01*
X97699937Y-73497755D01*
X97701516Y-73475670D01*
X97709589Y-73464883D01*
X97713385Y-73451959D01*
X97730116Y-73437460D01*
X97743385Y-73419735D01*
X97756007Y-73415026D01*
X97766189Y-73406204D01*
X97788102Y-73403053D01*
X97808848Y-73395314D01*
X97822012Y-73398177D01*
X97835347Y-73396260D01*
X97855487Y-73405457D01*
X97877121Y-73410163D01*
X97894851Y-73423434D01*
X97898903Y-73425285D01*
X97905362Y-73431298D01*
X97929584Y-73455520D01*
X97929591Y-73455524D01*
X97935707Y-73461639D01*
X97935709Y-73461641D01*
X101238179Y-76763926D01*
X101271665Y-76825249D01*
X101274500Y-76851610D01*
X101274500Y-90529988D01*
X101274495Y-90617827D01*
X101274499Y-90617857D01*
X101274537Y-90617995D01*
X101293253Y-90687843D01*
X101293254Y-90687848D01*
X101315409Y-90770548D01*
X101315421Y-90770577D01*
X101315423Y-90770584D01*
X101315426Y-90770589D01*
X101315431Y-90770601D01*
X101358520Y-90845231D01*
X101358575Y-90845326D01*
X101394460Y-90907489D01*
X101394470Y-90907499D01*
X101394480Y-90907516D01*
X101394643Y-90907679D01*
X101457986Y-90971022D01*
X104708876Y-94222270D01*
X104742358Y-94283595D01*
X104742807Y-94285754D01*
X104767261Y-94408691D01*
X104767264Y-94408701D01*
X104827602Y-94554372D01*
X104827609Y-94554385D01*
X104915210Y-94685488D01*
X104915213Y-94685492D01*
X105026708Y-94796987D01*
X105060813Y-94819775D01*
X105105619Y-94873388D01*
X105114326Y-94942713D01*
X105084172Y-95005740D01*
X105079604Y-95010559D01*
X103258653Y-96831510D01*
X103197330Y-96864995D01*
X103127638Y-96860011D01*
X103102081Y-96846931D01*
X103064184Y-96821609D01*
X103064172Y-96821602D01*
X102918501Y-96761264D01*
X102918489Y-96761261D01*
X102763845Y-96730500D01*
X102763842Y-96730500D01*
X102606158Y-96730500D01*
X102606155Y-96730500D01*
X102451510Y-96761261D01*
X102451498Y-96761264D01*
X102305827Y-96821602D01*
X102305814Y-96821609D01*
X102174711Y-96909210D01*
X102174707Y-96909213D01*
X102063213Y-97020707D01*
X102063210Y-97020711D01*
X101975609Y-97151814D01*
X101975602Y-97151827D01*
X101915264Y-97297498D01*
X101915261Y-97297510D01*
X101884500Y-97452153D01*
X101884500Y-97609846D01*
X101915261Y-97764489D01*
X101915264Y-97764501D01*
X101975602Y-97910172D01*
X101975609Y-97910185D01*
X102063210Y-98041288D01*
X102063213Y-98041292D01*
X102174707Y-98152786D01*
X102174711Y-98152789D01*
X102305814Y-98240390D01*
X102305827Y-98240397D01*
X102445861Y-98298400D01*
X102451503Y-98300737D01*
X102606153Y-98331499D01*
X102606156Y-98331500D01*
X102606158Y-98331500D01*
X102763844Y-98331500D01*
X102763845Y-98331499D01*
X102918497Y-98300737D01*
X103064179Y-98240394D01*
X103064185Y-98240390D01*
X103195875Y-98152398D01*
X103213921Y-98146747D01*
X103229831Y-98136523D01*
X103260792Y-98132071D01*
X103262553Y-98131520D01*
X103264766Y-98131500D01*
X103321731Y-98131500D01*
X103321747Y-98131501D01*
X103329343Y-98131501D01*
X103487454Y-98131501D01*
X103487457Y-98131501D01*
X103640185Y-98090577D01*
X103690304Y-98061639D01*
X103777116Y-98011520D01*
X103888920Y-97899716D01*
X103888920Y-97899714D01*
X103899128Y-97889507D01*
X103899130Y-97889504D01*
X108155526Y-93633107D01*
X108164507Y-93628203D01*
X108170798Y-93620126D01*
X108194655Y-93611741D01*
X108216847Y-93599624D01*
X108227057Y-93600354D01*
X108236715Y-93596960D01*
X108261315Y-93602804D01*
X108286539Y-93604608D01*
X108294734Y-93610743D01*
X108304693Y-93613109D01*
X108322229Y-93631326D01*
X108342472Y-93646480D01*
X108346049Y-93656070D01*
X108353149Y-93663446D01*
X108358052Y-93688252D01*
X108366889Y-93711944D01*
X108365073Y-93723771D01*
X108366698Y-93731989D01*
X108359818Y-93759349D01*
X108360495Y-93759545D01*
X108360135Y-93760789D01*
X108359514Y-93762592D01*
X108358576Y-93766094D01*
X108358541Y-93766328D01*
X108358457Y-93766538D01*
X108356332Y-93774475D01*
X108337524Y-93844708D01*
X108337524Y-93844709D01*
X108317499Y-93919443D01*
X108317487Y-93919536D01*
X108317487Y-93919537D01*
X108317500Y-94001756D01*
X108317500Y-98429318D01*
X108317479Y-98510304D01*
X108317500Y-98510382D01*
X108317500Y-98510457D01*
X108318676Y-98514849D01*
X108318677Y-98514850D01*
X108337436Y-98584862D01*
X108337439Y-98584892D01*
X108337444Y-98584891D01*
X108358363Y-98663040D01*
X108358402Y-98663133D01*
X108358403Y-98663136D01*
X108358423Y-98663185D01*
X108359851Y-98665658D01*
X108398223Y-98732121D01*
X108398231Y-98732152D01*
X108398239Y-98732148D01*
X108437387Y-98799994D01*
X108437477Y-98800112D01*
X108437480Y-98800116D01*
X108437483Y-98800119D01*
X108494294Y-98856930D01*
X108494310Y-98856959D01*
X108494317Y-98856953D01*
X109261397Y-99624424D01*
X109294866Y-99685755D01*
X109295310Y-99687890D01*
X109326261Y-99843491D01*
X109326264Y-99843501D01*
X109386602Y-99989172D01*
X109386609Y-99989185D01*
X109474210Y-100120288D01*
X109474213Y-100120292D01*
X109585707Y-100231786D01*
X109585711Y-100231789D01*
X109716814Y-100319390D01*
X109716821Y-100319394D01*
X109810092Y-100358028D01*
X109864494Y-100401867D01*
X109886560Y-100468161D01*
X109877201Y-100520040D01*
X109861771Y-100557292D01*
X109820263Y-100657503D01*
X109820262Y-100657506D01*
X109820262Y-100657507D01*
X109820261Y-100657510D01*
X109789500Y-100812153D01*
X109789500Y-100969846D01*
X109820261Y-101124489D01*
X109820264Y-101124501D01*
X109880602Y-101270172D01*
X109880609Y-101270185D01*
X109968602Y-101401874D01*
X109989480Y-101468551D01*
X109989500Y-101470765D01*
X109989500Y-103030234D01*
X109969815Y-103097273D01*
X109968602Y-103099125D01*
X109880609Y-103230814D01*
X109880602Y-103230827D01*
X109820264Y-103376498D01*
X109820261Y-103376510D01*
X109789500Y-103531153D01*
X109789500Y-103688846D01*
X109820261Y-103843489D01*
X109820264Y-103843501D01*
X109880602Y-103989172D01*
X109880609Y-103989185D01*
X109968210Y-104120288D01*
X109968213Y-104120292D01*
X110079707Y-104231786D01*
X110079711Y-104231789D01*
X110210814Y-104319390D01*
X110210827Y-104319397D01*
X110356498Y-104379735D01*
X110356503Y-104379737D01*
X110484197Y-104405137D01*
X110511153Y-104410499D01*
X110511156Y-104410500D01*
X110511158Y-104410500D01*
X110668844Y-104410500D01*
X110668845Y-104410499D01*
X110823497Y-104379737D01*
X110969179Y-104319394D01*
X111100289Y-104231789D01*
X111211789Y-104120289D01*
X111299394Y-103989179D01*
X111359737Y-103843497D01*
X111390500Y-103688842D01*
X111390500Y-103531158D01*
X111390500Y-103531155D01*
X111390499Y-103531153D01*
X111376792Y-103462246D01*
X111359737Y-103376503D01*
X111357516Y-103371140D01*
X111299397Y-103230827D01*
X111299390Y-103230814D01*
X111211398Y-103099125D01*
X111190520Y-103032447D01*
X111190500Y-103030234D01*
X111190500Y-102262754D01*
X111210185Y-102195715D01*
X111262989Y-102149960D01*
X111332147Y-102140016D01*
X111383388Y-102159650D01*
X111463821Y-102213394D01*
X111463823Y-102213395D01*
X111463827Y-102213397D01*
X111588615Y-102265085D01*
X111609503Y-102273737D01*
X111744979Y-102300685D01*
X111764153Y-102304499D01*
X111764156Y-102304500D01*
X111764158Y-102304500D01*
X111921844Y-102304500D01*
X111921845Y-102304499D01*
X112076497Y-102273737D01*
X112222179Y-102213394D01*
X112353289Y-102125789D01*
X112464789Y-102014289D01*
X112552394Y-101883179D01*
X112612737Y-101737497D01*
X112643500Y-101582842D01*
X112643500Y-101425158D01*
X112643500Y-101425155D01*
X112643499Y-101425153D01*
X112637526Y-101395127D01*
X112612737Y-101270503D01*
X112587393Y-101209317D01*
X112552397Y-101124827D01*
X112552390Y-101124814D01*
X112464398Y-100993125D01*
X112458747Y-100975078D01*
X112448523Y-100959169D01*
X112444071Y-100928207D01*
X112443520Y-100926447D01*
X112443500Y-100924234D01*
X112443500Y-100771500D01*
X112463185Y-100704461D01*
X112515989Y-100658706D01*
X112567500Y-100647500D01*
X120529234Y-100647500D01*
X120596273Y-100667185D01*
X120598125Y-100668398D01*
X120729814Y-100756390D01*
X120729827Y-100756397D01*
X120842645Y-100803127D01*
X120875503Y-100816737D01*
X120991478Y-100839806D01*
X121030153Y-100847499D01*
X121030156Y-100847500D01*
X121030158Y-100847500D01*
X121187844Y-100847500D01*
X121187845Y-100847499D01*
X121342497Y-100816737D01*
X121488179Y-100756394D01*
X121619289Y-100668789D01*
X121730789Y-100557289D01*
X121818394Y-100426179D01*
X121878737Y-100280497D01*
X121909500Y-100125842D01*
X121909500Y-99968158D01*
X121909500Y-99968155D01*
X121909499Y-99968153D01*
X121895274Y-99896638D01*
X121878737Y-99813503D01*
X121865969Y-99782678D01*
X121823254Y-99679552D01*
X121815785Y-99610083D01*
X121847061Y-99547604D01*
X121907150Y-99511952D01*
X121937815Y-99508100D01*
X125905934Y-99508100D01*
X125972973Y-99527785D01*
X126018728Y-99580589D01*
X126028672Y-99649747D01*
X125999647Y-99713303D01*
X125993627Y-99719768D01*
X125692670Y-100020788D01*
X124418549Y-101295172D01*
X124357230Y-101328663D01*
X124330859Y-101331500D01*
X120973766Y-101331500D01*
X120906727Y-101311815D01*
X120904875Y-101310602D01*
X120773185Y-101222609D01*
X120773172Y-101222602D01*
X120627501Y-101162264D01*
X120627489Y-101162261D01*
X120472845Y-101131500D01*
X120472842Y-101131500D01*
X120315158Y-101131500D01*
X120315155Y-101131500D01*
X120160510Y-101162261D01*
X120160498Y-101162264D01*
X120014827Y-101222602D01*
X120014814Y-101222609D01*
X119883711Y-101310210D01*
X119883707Y-101310213D01*
X119772213Y-101421707D01*
X119772210Y-101421711D01*
X119684609Y-101552814D01*
X119684602Y-101552827D01*
X119624264Y-101698498D01*
X119624261Y-101698510D01*
X119593500Y-101853153D01*
X119593500Y-102010846D01*
X119624261Y-102165489D01*
X119624264Y-102165501D01*
X119684602Y-102311172D01*
X119684609Y-102311185D01*
X119772210Y-102442288D01*
X119772213Y-102442292D01*
X119883707Y-102553786D01*
X119883711Y-102553789D01*
X120014814Y-102641390D01*
X120014827Y-102641397D01*
X120139825Y-102693172D01*
X120160503Y-102701737D01*
X120315153Y-102732499D01*
X120315156Y-102732500D01*
X120315158Y-102732500D01*
X120472844Y-102732500D01*
X120472845Y-102732499D01*
X120627497Y-102701737D01*
X120740166Y-102655067D01*
X120773172Y-102641397D01*
X120773172Y-102641396D01*
X120773179Y-102641394D01*
X120773185Y-102641390D01*
X120904875Y-102553398D01*
X120971553Y-102532520D01*
X120973766Y-102532500D01*
X124551971Y-102532500D01*
X124552005Y-102532509D01*
X124635712Y-102532500D01*
X124710057Y-102532500D01*
X124710062Y-102532500D01*
X124710113Y-102532493D01*
X124710117Y-102532492D01*
X124710119Y-102532492D01*
X124787157Y-102511841D01*
X124787167Y-102511841D01*
X124787167Y-102511838D01*
X124787168Y-102511838D01*
X124862784Y-102491577D01*
X124862790Y-102491573D01*
X124862810Y-102491568D01*
X124862819Y-102491565D01*
X124862837Y-102491554D01*
X124862842Y-102491553D01*
X124927143Y-102454419D01*
X124927155Y-102454416D01*
X124927154Y-102454413D01*
X124998630Y-102413147D01*
X124998658Y-102413130D01*
X124999716Y-102412520D01*
X124999716Y-102412519D01*
X124999738Y-102412507D01*
X124999762Y-102412482D01*
X124999765Y-102412481D01*
X125048275Y-102363959D01*
X125048287Y-102363953D01*
X125048285Y-102363951D01*
X125081372Y-102330862D01*
X125111520Y-102300716D01*
X125111521Y-102300713D01*
X125117687Y-102294548D01*
X125117776Y-102294444D01*
X127066759Y-100345060D01*
X127128076Y-100311570D01*
X127130256Y-100311117D01*
X127208076Y-100295637D01*
X127285497Y-100280237D01*
X127431179Y-100219894D01*
X127562289Y-100132289D01*
X127673789Y-100020789D01*
X127761394Y-99889679D01*
X127821737Y-99743997D01*
X127845522Y-99624423D01*
X127848807Y-99607909D01*
X127881192Y-99545998D01*
X127941907Y-99511424D01*
X127970424Y-99508100D01*
X132947103Y-99508100D01*
X133014142Y-99527785D01*
X133059897Y-99580589D01*
X133069841Y-99649747D01*
X133040816Y-99713303D01*
X133034784Y-99719780D01*
X130849843Y-101904721D01*
X128683286Y-104071278D01*
X128571481Y-104183082D01*
X128571480Y-104183084D01*
X128532568Y-104250482D01*
X128500907Y-104305319D01*
X128492782Y-104319394D01*
X128492423Y-104320015D01*
X128451499Y-104472743D01*
X128451499Y-104472745D01*
X128451499Y-104640846D01*
X128451500Y-104640859D01*
X128451500Y-105042234D01*
X128431815Y-105109273D01*
X128430602Y-105111125D01*
X128342609Y-105242814D01*
X128342602Y-105242827D01*
X128282264Y-105388498D01*
X128282261Y-105388510D01*
X128251500Y-105543153D01*
X128251500Y-105700846D01*
X128282261Y-105855489D01*
X128282264Y-105855501D01*
X128342602Y-106001172D01*
X128342609Y-106001185D01*
X128430210Y-106132288D01*
X128430213Y-106132292D01*
X128541707Y-106243786D01*
X128541711Y-106243789D01*
X128672814Y-106331390D01*
X128672827Y-106331397D01*
X128818498Y-106391735D01*
X128818503Y-106391737D01*
X128973153Y-106422499D01*
X128973156Y-106422500D01*
X128973158Y-106422500D01*
X129130844Y-106422500D01*
X129130845Y-106422499D01*
X129285497Y-106391737D01*
X129431179Y-106331394D01*
X129562289Y-106243789D01*
X129673789Y-106132289D01*
X129761394Y-106001179D01*
X129821737Y-105855497D01*
X129852500Y-105700842D01*
X129852500Y-105543158D01*
X129852500Y-105543155D01*
X129852499Y-105543153D01*
X129821738Y-105388510D01*
X129821737Y-105388503D01*
X129821735Y-105388498D01*
X129761397Y-105242827D01*
X129761390Y-105242814D01*
X129673398Y-105111125D01*
X129667747Y-105093078D01*
X129657523Y-105077169D01*
X129653071Y-105046207D01*
X129652520Y-105044447D01*
X129652500Y-105042234D01*
X129652500Y-104851896D01*
X129672185Y-104784857D01*
X129688814Y-104764220D01*
X139486697Y-94966336D01*
X139548018Y-94932853D01*
X139617710Y-94937837D01*
X139673643Y-94979709D01*
X139688937Y-95006566D01*
X139725940Y-95095898D01*
X139727206Y-95098954D01*
X139777102Y-95173629D01*
X139797980Y-95240305D01*
X139798000Y-95242519D01*
X139798000Y-101973102D01*
X139778315Y-102040141D01*
X139761681Y-102060783D01*
X138287644Y-103534821D01*
X138226321Y-103568306D01*
X138199963Y-103571140D01*
X137679766Y-103571140D01*
X137612727Y-103551455D01*
X137610875Y-103550242D01*
X137479185Y-103462249D01*
X137479172Y-103462242D01*
X137333501Y-103401904D01*
X137333489Y-103401901D01*
X137178845Y-103371140D01*
X137178842Y-103371140D01*
X137021158Y-103371140D01*
X137021155Y-103371140D01*
X136866510Y-103401901D01*
X136866498Y-103401904D01*
X136720827Y-103462242D01*
X136720814Y-103462249D01*
X136589711Y-103549850D01*
X136589707Y-103549853D01*
X136478213Y-103661347D01*
X136478210Y-103661351D01*
X136390609Y-103792454D01*
X136390602Y-103792467D01*
X136330264Y-103938138D01*
X136330261Y-103938150D01*
X136299500Y-104092793D01*
X136299500Y-104250483D01*
X136330261Y-104405129D01*
X136330264Y-104405141D01*
X136390602Y-104550812D01*
X136390609Y-104550825D01*
X136478210Y-104681928D01*
X136478213Y-104681932D01*
X136589707Y-104793426D01*
X136589711Y-104793429D01*
X136720814Y-104881030D01*
X136720827Y-104881037D01*
X136866498Y-104941375D01*
X136866503Y-104941377D01*
X137021153Y-104972139D01*
X137021156Y-104972140D01*
X137021158Y-104972140D01*
X137178844Y-104972140D01*
X137178845Y-104972139D01*
X137333497Y-104941377D01*
X137479179Y-104881034D01*
X137522787Y-104851896D01*
X137610875Y-104793038D01*
X137677553Y-104772160D01*
X137679766Y-104772140D01*
X138413391Y-104772140D01*
X138413407Y-104772141D01*
X138421003Y-104772141D01*
X138579114Y-104772141D01*
X138579117Y-104772141D01*
X138731845Y-104731217D01*
X138781964Y-104702279D01*
X138868776Y-104652160D01*
X138980580Y-104540356D01*
X138980580Y-104540354D01*
X138990788Y-104530147D01*
X138990789Y-104530144D01*
X140879020Y-102641916D01*
X140958077Y-102504984D01*
X140999001Y-102352257D01*
X140999001Y-102194142D01*
X140999001Y-102186547D01*
X140999000Y-102186529D01*
X140999000Y-95340815D01*
X141018685Y-95273776D01*
X141035315Y-95253137D01*
X141058389Y-95230064D01*
X141145994Y-95098954D01*
X141206337Y-94953272D01*
X141237100Y-94798617D01*
X141237100Y-94640933D01*
X141237100Y-94640930D01*
X141237099Y-94640928D01*
X141232937Y-94620006D01*
X141206337Y-94486278D01*
X141204649Y-94482203D01*
X141145997Y-94340602D01*
X141145990Y-94340589D01*
X141058389Y-94209486D01*
X141058386Y-94209482D01*
X140946892Y-94097988D01*
X140946888Y-94097985D01*
X140815785Y-94010384D01*
X140815772Y-94010377D01*
X140723392Y-93972113D01*
X140697849Y-93951530D01*
X140671576Y-93931862D01*
X140670774Y-93929712D01*
X140668988Y-93928273D01*
X140658625Y-93897139D01*
X140647160Y-93866397D01*
X140647647Y-93864155D01*
X140646923Y-93861978D01*
X140655037Y-93830184D01*
X140662012Y-93798125D01*
X140663845Y-93795675D01*
X140664202Y-93794279D01*
X140683157Y-93769876D01*
X140776017Y-93677016D01*
X140837340Y-93643534D01*
X140863697Y-93640700D01*
X143271300Y-93640700D01*
X143338339Y-93660385D01*
X143384094Y-93713189D01*
X143395300Y-93764700D01*
X143395300Y-93881046D01*
X143426061Y-94035689D01*
X143426063Y-94035697D01*
X143435861Y-94059351D01*
X143445300Y-94106804D01*
X143445300Y-101064318D01*
X143445300Y-101064320D01*
X143445299Y-101064320D01*
X143474140Y-101209307D01*
X143474143Y-101209317D01*
X143530714Y-101345892D01*
X143563612Y-101395127D01*
X143563613Y-101395130D01*
X143612846Y-101468814D01*
X143612852Y-101468821D01*
X144008527Y-101864495D01*
X144035406Y-101904721D01*
X144045206Y-101928379D01*
X144045207Y-101928381D01*
X144132807Y-102059484D01*
X144132813Y-102059492D01*
X144244307Y-102170986D01*
X144244311Y-102170989D01*
X144375414Y-102258590D01*
X144375427Y-102258597D01*
X144502356Y-102311172D01*
X144521103Y-102318937D01*
X144675753Y-102349699D01*
X144675756Y-102349700D01*
X144675758Y-102349700D01*
X144717268Y-102349700D01*
X144729421Y-102350297D01*
X144731482Y-102350500D01*
X144731483Y-102350500D01*
X144879319Y-102350500D01*
X144988875Y-102328707D01*
X145024312Y-102321658D01*
X145160894Y-102265084D01*
X145283816Y-102182952D01*
X145388352Y-102078416D01*
X145470484Y-101955494D01*
X145527058Y-101818912D01*
X145543253Y-101737497D01*
X145555900Y-101673919D01*
X145555900Y-101526080D01*
X145555697Y-101524019D01*
X145555100Y-101511867D01*
X145555100Y-101470355D01*
X145555099Y-101470353D01*
X145546109Y-101425158D01*
X145524337Y-101315703D01*
X145505483Y-101270185D01*
X145463997Y-101170027D01*
X145463990Y-101170014D01*
X145376389Y-101038911D01*
X145376386Y-101038907D01*
X145264892Y-100927413D01*
X145264884Y-100927407D01*
X145133781Y-100839807D01*
X145133779Y-100839806D01*
X145110121Y-100830006D01*
X145103189Y-100825374D01*
X145098149Y-100824278D01*
X145069895Y-100803127D01*
X144982619Y-100715851D01*
X144949134Y-100654528D01*
X144946300Y-100628170D01*
X144946300Y-94106804D01*
X144955739Y-94059351D01*
X144965537Y-94035697D01*
X144996300Y-93881042D01*
X144996300Y-93764700D01*
X145015985Y-93697661D01*
X145068789Y-93651906D01*
X145120300Y-93640700D01*
X150075352Y-93640700D01*
X150142391Y-93660385D01*
X150188146Y-93713189D01*
X150198090Y-93782347D01*
X150169065Y-93845903D01*
X150163033Y-93852381D01*
X149151532Y-94863881D01*
X149151528Y-94863886D01*
X149104735Y-94944936D01*
X149104735Y-94944937D01*
X149072474Y-95000813D01*
X149069863Y-95010559D01*
X149031550Y-95153542D01*
X149031550Y-95153544D01*
X149031550Y-95203252D01*
X149011865Y-95270291D01*
X148995231Y-95290933D01*
X146890281Y-97395882D01*
X146890280Y-97395884D01*
X146857791Y-97452158D01*
X146840161Y-97482694D01*
X146840159Y-97482696D01*
X146811225Y-97532809D01*
X146811224Y-97532810D01*
X146811223Y-97532815D01*
X146770299Y-97685543D01*
X146770299Y-97685545D01*
X146770299Y-97853646D01*
X146770300Y-97853659D01*
X146770300Y-98759634D01*
X146750615Y-98826673D01*
X146749402Y-98828525D01*
X146661409Y-98960214D01*
X146661402Y-98960227D01*
X146601064Y-99105898D01*
X146601061Y-99105910D01*
X146570300Y-99260553D01*
X146570300Y-99418246D01*
X146601061Y-99572889D01*
X146601064Y-99572901D01*
X146661402Y-99718572D01*
X146661409Y-99718585D01*
X146749010Y-99849688D01*
X146749013Y-99849692D01*
X146860507Y-99961186D01*
X146860511Y-99961189D01*
X146991614Y-100048790D01*
X146991627Y-100048797D01*
X147121492Y-100102588D01*
X147137303Y-100109137D01*
X147291953Y-100139899D01*
X147291956Y-100139900D01*
X147291958Y-100139900D01*
X147449644Y-100139900D01*
X147449645Y-100139899D01*
X147604297Y-100109137D01*
X147749979Y-100048794D01*
X147881089Y-99961189D01*
X147992589Y-99849689D01*
X148080194Y-99718579D01*
X148140537Y-99572897D01*
X148171300Y-99418242D01*
X148171300Y-99260558D01*
X148171300Y-99260555D01*
X148171299Y-99260553D01*
X148140538Y-99105910D01*
X148140537Y-99105903D01*
X148116365Y-99047546D01*
X148080197Y-98960227D01*
X148080190Y-98960214D01*
X147992198Y-98828525D01*
X147971320Y-98761847D01*
X147971300Y-98759634D01*
X147971300Y-98064697D01*
X147990985Y-97997658D01*
X148007619Y-97977016D01*
X149528819Y-96455816D01*
X149590142Y-96422331D01*
X149659834Y-96427315D01*
X149715767Y-96469187D01*
X149740184Y-96534651D01*
X149740500Y-96543497D01*
X149740500Y-113531907D01*
X149739903Y-113544061D01*
X149739903Y-113544062D01*
X149726911Y-113675967D01*
X149722169Y-113699807D01*
X149685469Y-113820790D01*
X149676166Y-113843248D01*
X149616573Y-113954738D01*
X149603069Y-113974949D01*
X149522867Y-114072677D01*
X149505677Y-114089867D01*
X149407949Y-114170069D01*
X149387738Y-114183573D01*
X149276248Y-114243166D01*
X149253790Y-114252469D01*
X149132807Y-114289169D01*
X149108967Y-114293911D01*
X149011698Y-114303491D01*
X148977060Y-114306903D01*
X148964907Y-114307500D01*
X96526093Y-114307500D01*
X96513939Y-114306903D01*
X96382033Y-114293911D01*
X96358192Y-114289169D01*
X96237209Y-114252469D01*
X96214751Y-114243166D01*
X96103261Y-114183573D01*
X96083050Y-114170069D01*
X95985322Y-114089867D01*
X95968132Y-114072677D01*
X95887930Y-113974949D01*
X95874426Y-113954738D01*
X95814833Y-113843248D01*
X95805530Y-113820790D01*
X95768828Y-113699801D01*
X95764089Y-113675973D01*
X95751097Y-113544061D01*
X95750500Y-113531907D01*
X95750500Y-56715747D01*
X95750502Y-56706748D01*
X95750789Y-56705661D01*
X95750520Y-56645579D01*
X95750521Y-56645338D01*
X95750553Y-56645226D01*
X95751075Y-56633664D01*
X95763473Y-56503092D01*
X95768200Y-56479010D01*
X95804284Y-56359372D01*
X95813657Y-56336701D01*
X95872604Y-56226504D01*
X95886259Y-56206125D01*
X95965752Y-56109702D01*
X95983152Y-56092412D01*
X96080083Y-56013532D01*
X96100552Y-56000005D01*
X96211114Y-55941765D01*
X96233848Y-55932534D01*
X96353718Y-55897212D01*
X96377825Y-55892640D01*
X96509075Y-55881019D01*
X96519939Y-55880537D01*
X96520649Y-55880536D01*
X96580471Y-55881184D01*
X96583118Y-55880505D01*
X96593534Y-55880500D01*
X96593544Y-55880503D01*
X96593596Y-55880500D01*
X103902102Y-55880500D01*
X103969141Y-55900185D01*
G37*
%TD.AperFunction*%
%TA.AperFunction,Conductor*%
G36*
X124911942Y-86165485D02*
G01*
X124932584Y-86182119D01*
X127739425Y-88988960D01*
X127772910Y-89050283D01*
X127773361Y-89052449D01*
X127804261Y-89207791D01*
X127804264Y-89207801D01*
X127864602Y-89353472D01*
X127864609Y-89353485D01*
X127952210Y-89484588D01*
X127952213Y-89484592D01*
X128063707Y-89596086D01*
X128063711Y-89596089D01*
X128194814Y-89683690D01*
X128194827Y-89683697D01*
X128337364Y-89742737D01*
X128340503Y-89744037D01*
X128488623Y-89773500D01*
X128495153Y-89774799D01*
X128495156Y-89774800D01*
X128495158Y-89774800D01*
X128652844Y-89774800D01*
X128652845Y-89774799D01*
X128807497Y-89744037D01*
X128953179Y-89683694D01*
X128990533Y-89658735D01*
X129084875Y-89595698D01*
X129151553Y-89574820D01*
X129153766Y-89574800D01*
X140956602Y-89574800D01*
X141023641Y-89594485D01*
X141069396Y-89647289D01*
X141079340Y-89716447D01*
X141050315Y-89780003D01*
X141044283Y-89786481D01*
X136117584Y-94713181D01*
X136056261Y-94746666D01*
X136029903Y-94749500D01*
X118886099Y-94749500D01*
X118864853Y-94743261D01*
X118842767Y-94741682D01*
X118831983Y-94733609D01*
X118819060Y-94729815D01*
X118804561Y-94713082D01*
X118786833Y-94699812D01*
X118782124Y-94687189D01*
X118773305Y-94677011D01*
X118770153Y-94655095D01*
X118762415Y-94634348D01*
X118765278Y-94621185D01*
X118763361Y-94607853D01*
X118772559Y-94587710D01*
X118777266Y-94566075D01*
X118790536Y-94548346D01*
X118792386Y-94544297D01*
X118798416Y-94537820D01*
X118807336Y-94528900D01*
X118911320Y-94424916D01*
X118911321Y-94424913D01*
X122442662Y-90893572D01*
X122503983Y-90860089D01*
X122506150Y-90859638D01*
X122578099Y-90845326D01*
X122661497Y-90828737D01*
X122807179Y-90768394D01*
X122938289Y-90680789D01*
X123049789Y-90569289D01*
X123137394Y-90438179D01*
X123138959Y-90434402D01*
X123169369Y-90360983D01*
X123197737Y-90292497D01*
X123228500Y-90137842D01*
X123228500Y-89980158D01*
X123228500Y-89980155D01*
X123228499Y-89980153D01*
X123215103Y-89912809D01*
X123197737Y-89825503D01*
X123181320Y-89785868D01*
X123137397Y-89679827D01*
X123137390Y-89679814D01*
X123049789Y-89548711D01*
X123049786Y-89548707D01*
X122938292Y-89437213D01*
X122938288Y-89437210D01*
X122807185Y-89349609D01*
X122807176Y-89349604D01*
X122661573Y-89289294D01*
X122607170Y-89245453D01*
X122585105Y-89179159D01*
X122594466Y-89127279D01*
X122595725Y-89124241D01*
X122603737Y-89104897D01*
X122634500Y-88950242D01*
X122634500Y-88792558D01*
X122634500Y-88792555D01*
X122634499Y-88792553D01*
X122625194Y-88745774D01*
X122603737Y-88637903D01*
X122600987Y-88631264D01*
X122543397Y-88492227D01*
X122543390Y-88492214D01*
X122455789Y-88361111D01*
X122455786Y-88361107D01*
X122344292Y-88249613D01*
X122344288Y-88249610D01*
X122213185Y-88162009D01*
X122213172Y-88162002D01*
X122067501Y-88101664D01*
X122067489Y-88101661D01*
X121912845Y-88070900D01*
X121912842Y-88070900D01*
X121755158Y-88070900D01*
X121755155Y-88070900D01*
X121600510Y-88101661D01*
X121600498Y-88101664D01*
X121454827Y-88162002D01*
X121454814Y-88162009D01*
X121323711Y-88249610D01*
X121323707Y-88249613D01*
X121212213Y-88361107D01*
X121212210Y-88361111D01*
X121124609Y-88492214D01*
X121124605Y-88492222D01*
X121119783Y-88503863D01*
X121075939Y-88558264D01*
X121009644Y-88580325D01*
X120941945Y-88563043D01*
X120894337Y-88511903D01*
X120883607Y-88480595D01*
X120873679Y-88430684D01*
X120863737Y-88380703D01*
X120823572Y-88283735D01*
X120803397Y-88235027D01*
X120803390Y-88235014D01*
X120715789Y-88103911D01*
X120715786Y-88103907D01*
X120604292Y-87992413D01*
X120604288Y-87992410D01*
X120473185Y-87904809D01*
X120473172Y-87904802D01*
X120327501Y-87844464D01*
X120327489Y-87844461D01*
X120172845Y-87813700D01*
X120172842Y-87813700D01*
X120015158Y-87813700D01*
X120015155Y-87813700D01*
X119860510Y-87844461D01*
X119860498Y-87844464D01*
X119714827Y-87904802D01*
X119714814Y-87904809D01*
X119583711Y-87992410D01*
X119583707Y-87992413D01*
X119472213Y-88103907D01*
X119472210Y-88103911D01*
X119384609Y-88235014D01*
X119384602Y-88235027D01*
X119324264Y-88380698D01*
X119324261Y-88380708D01*
X119293341Y-88536152D01*
X119260956Y-88598063D01*
X119259414Y-88599632D01*
X117263665Y-90595784D01*
X116412781Y-91446840D01*
X116405550Y-91454072D01*
X116344230Y-91487564D01*
X116317860Y-91490400D01*
X110904012Y-91490400D01*
X110903963Y-91490387D01*
X110821743Y-91490400D01*
X110745925Y-91490400D01*
X110745855Y-91490409D01*
X110666452Y-91511699D01*
X110666434Y-91511704D01*
X110586572Y-91533103D01*
X110586275Y-91533254D01*
X110585663Y-91533424D01*
X110585179Y-91531683D01*
X110560566Y-91534044D01*
X110526764Y-91537814D01*
X110525872Y-91537372D01*
X110524882Y-91537467D01*
X110494646Y-91521896D01*
X110464161Y-91506787D01*
X110463649Y-91505933D01*
X110462766Y-91505478D01*
X110445756Y-91476046D01*
X110428271Y-91446840D01*
X110428302Y-91445844D01*
X110427805Y-91444984D01*
X110429407Y-91411042D01*
X110430488Y-91377005D01*
X110431058Y-91376077D01*
X110431100Y-91375192D01*
X110434810Y-91369976D01*
X110460614Y-91328019D01*
X112896506Y-88892128D01*
X112896511Y-88892124D01*
X112906714Y-88881920D01*
X112906716Y-88881920D01*
X113018520Y-88770116D01*
X113040207Y-88732553D01*
X113073973Y-88674069D01*
X113073974Y-88674067D01*
X113097574Y-88633190D01*
X113097573Y-88633190D01*
X113097577Y-88633185D01*
X113138500Y-88480457D01*
X113138500Y-88322343D01*
X113138500Y-87174481D01*
X113158185Y-87107442D01*
X113174816Y-87086803D01*
X114079430Y-86182122D01*
X114140751Y-86148635D01*
X114167114Y-86145800D01*
X124844903Y-86145800D01*
X124911942Y-86165485D01*
G37*
%TD.AperFunction*%
%TA.AperFunction,Conductor*%
G36*
X205586061Y-55881097D02*
G01*
X205591795Y-55881661D01*
X205717973Y-55894089D01*
X205741801Y-55898828D01*
X205862793Y-55935531D01*
X205885245Y-55944832D01*
X205940993Y-55974629D01*
X205996738Y-56004426D01*
X206016949Y-56017930D01*
X206064167Y-56056680D01*
X206107425Y-56092181D01*
X206114677Y-56098132D01*
X206131867Y-56115322D01*
X206212069Y-56213050D01*
X206225573Y-56233261D01*
X206285166Y-56344751D01*
X206294469Y-56367209D01*
X206331169Y-56488192D01*
X206335911Y-56512032D01*
X206337480Y-56527959D01*
X206348115Y-56635943D01*
X206348903Y-56643937D01*
X206349500Y-56656092D01*
X206349500Y-93473907D01*
X206348903Y-93486062D01*
X206335911Y-93617967D01*
X206331169Y-93641807D01*
X206294469Y-93762790D01*
X206285166Y-93785248D01*
X206225573Y-93896738D01*
X206212069Y-93916949D01*
X206131867Y-94014677D01*
X206114677Y-94031867D01*
X206016949Y-94112069D01*
X205996738Y-94125573D01*
X205885248Y-94185166D01*
X205862790Y-94194469D01*
X205741807Y-94231169D01*
X205717967Y-94235911D01*
X205620698Y-94245491D01*
X205586060Y-94248903D01*
X205573907Y-94249500D01*
X151763747Y-94249500D01*
X151696708Y-94229815D01*
X151650953Y-94177011D01*
X151641009Y-94107853D01*
X151670034Y-94044297D01*
X151676066Y-94037819D01*
X154551466Y-91162419D01*
X154612789Y-91128934D01*
X154639147Y-91126100D01*
X155374460Y-91126100D01*
X155374476Y-91126101D01*
X155382072Y-91126101D01*
X155540183Y-91126101D01*
X155540186Y-91126101D01*
X155692914Y-91085177D01*
X155753722Y-91050069D01*
X155829845Y-91006120D01*
X155941649Y-90894316D01*
X155941649Y-90894314D01*
X155951853Y-90884111D01*
X155951857Y-90884106D01*
X156797777Y-90038185D01*
X156809971Y-90027493D01*
X156813710Y-90024623D01*
X156813716Y-90024620D01*
X156925520Y-89912816D01*
X157004577Y-89775884D01*
X157045500Y-89623157D01*
X157045500Y-89479237D01*
X157065185Y-89412198D01*
X157081820Y-89391554D01*
X157093637Y-89379738D01*
X158758131Y-87715300D01*
X159561542Y-86911917D01*
X159588476Y-86897210D01*
X159614287Y-86880623D01*
X159620488Y-86879731D01*
X159622866Y-86878433D01*
X159649222Y-86875600D01*
X159720723Y-86875600D01*
X159787762Y-86895285D01*
X159833517Y-86948089D01*
X159844126Y-86987446D01*
X159844500Y-86991247D01*
X159875261Y-87145889D01*
X159875264Y-87145901D01*
X159935602Y-87291572D01*
X159935609Y-87291585D01*
X160023210Y-87422688D01*
X160023213Y-87422692D01*
X160134707Y-87534186D01*
X160134711Y-87534189D01*
X160265814Y-87621790D01*
X160265827Y-87621797D01*
X160407546Y-87680498D01*
X160411503Y-87682137D01*
X160473163Y-87694402D01*
X160566875Y-87713043D01*
X160628786Y-87745428D01*
X160630353Y-87746966D01*
X161167145Y-88283729D01*
X165802178Y-92918515D01*
X165802231Y-92918567D01*
X165802619Y-92918955D01*
X165877284Y-92993620D01*
X165877293Y-92993625D01*
X165877297Y-92993629D01*
X165934503Y-93026655D01*
X166014216Y-93072677D01*
X166014217Y-93072677D01*
X166015014Y-93073137D01*
X166015066Y-93073158D01*
X166019972Y-93074221D01*
X166111360Y-93098706D01*
X166166943Y-93113600D01*
X166166944Y-93113600D01*
X166166952Y-93113602D01*
X166166955Y-93113601D01*
X166166959Y-93113603D01*
X166261827Y-93113600D01*
X174786031Y-93113600D01*
X174786047Y-93113601D01*
X174793643Y-93113601D01*
X174951754Y-93113601D01*
X174951757Y-93113601D01*
X175104485Y-93072677D01*
X175174137Y-93032463D01*
X175241416Y-92993620D01*
X175353220Y-92881816D01*
X175353220Y-92881814D01*
X175363424Y-92871611D01*
X175363428Y-92871606D01*
X176667598Y-91567435D01*
X176728919Y-91533952D01*
X176798611Y-91538936D01*
X176842958Y-91567437D01*
X176883307Y-91607786D01*
X176883311Y-91607789D01*
X177014414Y-91695390D01*
X177014427Y-91695397D01*
X177160098Y-91755735D01*
X177160103Y-91755737D01*
X177277320Y-91779053D01*
X177314753Y-91786499D01*
X177314756Y-91786500D01*
X177314758Y-91786500D01*
X177472444Y-91786500D01*
X177472445Y-91786499D01*
X177627097Y-91755737D01*
X177772779Y-91695394D01*
X177827046Y-91659134D01*
X177904475Y-91607398D01*
X177971153Y-91586520D01*
X177973366Y-91586500D01*
X182355331Y-91586500D01*
X182355347Y-91586501D01*
X182362943Y-91586501D01*
X182521054Y-91586501D01*
X182521057Y-91586501D01*
X182673785Y-91545577D01*
X182730902Y-91512600D01*
X182810716Y-91466520D01*
X182827865Y-91449370D01*
X182838767Y-91442285D01*
X182860276Y-91435849D01*
X182879980Y-91425089D01*
X182882152Y-91424637D01*
X182882841Y-91424500D01*
X182882842Y-91424500D01*
X183037497Y-91393737D01*
X183183179Y-91333394D01*
X183212146Y-91314039D01*
X196139800Y-91314039D01*
X196139800Y-91613560D01*
X196139801Y-91613576D01*
X196178896Y-91910536D01*
X196256422Y-92199867D01*
X196371045Y-92476591D01*
X196371049Y-92476601D01*
X196520814Y-92736001D01*
X196641613Y-92893430D01*
X196641614Y-92893430D01*
X197424075Y-92110970D01*
X197517119Y-92239033D01*
X197649567Y-92371481D01*
X197777628Y-92464524D01*
X196995168Y-93246984D01*
X196995168Y-93246985D01*
X197152593Y-93367781D01*
X197411999Y-93517550D01*
X197412008Y-93517554D01*
X197688732Y-93632177D01*
X197978063Y-93709703D01*
X198275023Y-93748798D01*
X198275040Y-93748800D01*
X198574560Y-93748800D01*
X198574576Y-93748798D01*
X198871536Y-93709703D01*
X199160867Y-93632177D01*
X199437591Y-93517554D01*
X199437600Y-93517550D01*
X199696995Y-93367788D01*
X199697002Y-93367783D01*
X199854430Y-93246984D01*
X199071970Y-92464524D01*
X199200033Y-92371481D01*
X199332481Y-92239033D01*
X199425524Y-92110970D01*
X200207984Y-92893430D01*
X200328783Y-92736002D01*
X200328788Y-92735995D01*
X200478550Y-92476600D01*
X200478554Y-92476591D01*
X200593177Y-92199867D01*
X200670703Y-91910536D01*
X200709798Y-91613576D01*
X200709800Y-91613560D01*
X200709800Y-91314039D01*
X200709798Y-91314023D01*
X200670703Y-91017063D01*
X200593177Y-90727732D01*
X200478554Y-90451008D01*
X200478550Y-90450999D01*
X200328781Y-90191593D01*
X200207984Y-90034168D01*
X199425523Y-90816628D01*
X199332481Y-90688567D01*
X199200033Y-90556119D01*
X199071970Y-90463075D01*
X199854430Y-89680614D01*
X199854430Y-89680613D01*
X199697001Y-89559814D01*
X199437601Y-89410049D01*
X199437591Y-89410045D01*
X199160867Y-89295422D01*
X198871536Y-89217896D01*
X198574576Y-89178801D01*
X198574560Y-89178800D01*
X198275040Y-89178800D01*
X198275023Y-89178801D01*
X197978063Y-89217896D01*
X197688732Y-89295422D01*
X197412008Y-89410045D01*
X197411998Y-89410049D01*
X197152598Y-89559814D01*
X196995168Y-89680613D01*
X196995168Y-89680614D01*
X197777629Y-90463075D01*
X197649567Y-90556119D01*
X197517119Y-90688567D01*
X197424075Y-90816629D01*
X196641614Y-90034168D01*
X196641613Y-90034168D01*
X196520814Y-90191598D01*
X196371049Y-90450998D01*
X196371045Y-90451008D01*
X196256422Y-90727732D01*
X196178896Y-91017063D01*
X196139801Y-91314023D01*
X196139800Y-91314039D01*
X183212146Y-91314039D01*
X183314289Y-91245789D01*
X183314292Y-91245786D01*
X183337786Y-91222293D01*
X183425786Y-91134292D01*
X183425789Y-91134289D01*
X183513394Y-91003179D01*
X183573737Y-90857497D01*
X183604500Y-90702842D01*
X183604500Y-90545158D01*
X183604500Y-90545155D01*
X183604499Y-90545153D01*
X183584780Y-90446020D01*
X183573737Y-90390503D01*
X183561510Y-90360983D01*
X183513397Y-90244827D01*
X183513390Y-90244814D01*
X183425789Y-90113711D01*
X183425786Y-90113707D01*
X183314292Y-90002213D01*
X183314288Y-90002210D01*
X183183185Y-89914609D01*
X183183172Y-89914602D01*
X183037501Y-89854264D01*
X183037489Y-89854261D01*
X183016993Y-89850184D01*
X183016992Y-89850184D01*
X182882844Y-89823500D01*
X182882842Y-89823500D01*
X182725158Y-89823500D01*
X182725153Y-89823500D01*
X182667545Y-89834959D01*
X182597953Y-89828732D01*
X182542776Y-89785868D01*
X182519532Y-89719979D01*
X182535600Y-89651982D01*
X182555669Y-89625665D01*
X193667294Y-78514039D01*
X196139800Y-78514039D01*
X196139800Y-78813560D01*
X196139801Y-78813576D01*
X196178896Y-79110536D01*
X196256422Y-79399867D01*
X196371045Y-79676591D01*
X196371049Y-79676601D01*
X196520814Y-79936001D01*
X196641613Y-80093430D01*
X196641614Y-80093430D01*
X197424075Y-79310970D01*
X197517119Y-79439033D01*
X197649567Y-79571481D01*
X197777628Y-79664524D01*
X196995168Y-80446984D01*
X196995168Y-80446985D01*
X197152593Y-80567781D01*
X197411999Y-80717550D01*
X197412008Y-80717554D01*
X197688732Y-80832177D01*
X197978063Y-80909703D01*
X198275023Y-80948798D01*
X198275040Y-80948800D01*
X198574560Y-80948800D01*
X198574576Y-80948798D01*
X198871536Y-80909703D01*
X199160867Y-80832177D01*
X199437591Y-80717554D01*
X199437600Y-80717550D01*
X199696995Y-80567788D01*
X199697002Y-80567783D01*
X199854430Y-80446984D01*
X199071970Y-79664524D01*
X199200033Y-79571481D01*
X199332481Y-79439033D01*
X199425524Y-79310970D01*
X200207984Y-80093430D01*
X200328783Y-79936002D01*
X200328788Y-79935995D01*
X200478550Y-79676600D01*
X200478554Y-79676591D01*
X200593177Y-79399867D01*
X200670703Y-79110536D01*
X200709798Y-78813576D01*
X200709800Y-78813560D01*
X200709800Y-78514039D01*
X200709798Y-78514023D01*
X200670703Y-78217063D01*
X200593177Y-77927732D01*
X200478554Y-77651008D01*
X200478550Y-77650999D01*
X200328781Y-77391593D01*
X200207984Y-77234168D01*
X199425523Y-78016628D01*
X199332481Y-77888567D01*
X199200033Y-77756119D01*
X199071970Y-77663075D01*
X199854430Y-76880614D01*
X199854430Y-76880613D01*
X199697001Y-76759814D01*
X199437601Y-76610049D01*
X199437591Y-76610045D01*
X199160867Y-76495422D01*
X198871536Y-76417896D01*
X198574576Y-76378801D01*
X198574560Y-76378800D01*
X198275040Y-76378800D01*
X198275023Y-76378801D01*
X197978063Y-76417896D01*
X197688732Y-76495422D01*
X197412008Y-76610045D01*
X197411998Y-76610049D01*
X197152598Y-76759814D01*
X196995168Y-76880613D01*
X196995168Y-76880614D01*
X197777629Y-77663075D01*
X197649567Y-77756119D01*
X197517119Y-77888567D01*
X197424075Y-78016629D01*
X196641614Y-77234168D01*
X196641613Y-77234168D01*
X196520814Y-77391598D01*
X196371049Y-77650998D01*
X196371045Y-77651008D01*
X196256422Y-77927732D01*
X196178896Y-78217063D01*
X196139801Y-78514023D01*
X196139800Y-78514039D01*
X193667294Y-78514039D01*
X198834106Y-73347227D01*
X198834111Y-73347224D01*
X198844314Y-73337020D01*
X198844316Y-73337020D01*
X198956120Y-73225216D01*
X199014243Y-73124543D01*
X199035177Y-73088285D01*
X199076101Y-72935557D01*
X199076101Y-72777443D01*
X199076101Y-72769848D01*
X199076100Y-72769830D01*
X199076100Y-70912096D01*
X199095785Y-70845057D01*
X199112414Y-70824420D01*
X200269972Y-69666862D01*
X203467000Y-69666862D01*
X203467000Y-69793137D01*
X203491631Y-69916965D01*
X203491634Y-69916977D01*
X203539950Y-70033624D01*
X203610103Y-70138616D01*
X203699383Y-70227896D01*
X203804375Y-70298049D01*
X203921022Y-70346365D01*
X203921027Y-70346367D01*
X204016925Y-70365442D01*
X204044862Y-70370999D01*
X204044866Y-70371000D01*
X204044867Y-70371000D01*
X204171134Y-70371000D01*
X204171135Y-70370999D01*
X204294973Y-70346367D01*
X204388056Y-70307811D01*
X204411624Y-70298049D01*
X204411625Y-70298048D01*
X204411628Y-70298047D01*
X204516614Y-70227898D01*
X204605898Y-70138614D01*
X204676047Y-70033628D01*
X204678718Y-70027181D01*
X204716973Y-69934823D01*
X204724367Y-69916973D01*
X204749000Y-69793133D01*
X204749000Y-69666867D01*
X204724367Y-69543027D01*
X204719718Y-69531803D01*
X204676049Y-69426375D01*
X204605896Y-69321383D01*
X204516616Y-69232103D01*
X204411624Y-69161950D01*
X204294977Y-69113634D01*
X204294965Y-69113631D01*
X204171137Y-69089000D01*
X204171133Y-69089000D01*
X204044867Y-69089000D01*
X204044862Y-69089000D01*
X203921034Y-69113631D01*
X203921022Y-69113634D01*
X203804375Y-69161950D01*
X203699383Y-69232103D01*
X203610103Y-69321383D01*
X203539950Y-69426375D01*
X203491634Y-69543022D01*
X203491631Y-69543034D01*
X203467000Y-69666862D01*
X200269972Y-69666862D01*
X202621551Y-67315282D01*
X202682872Y-67281799D01*
X202722938Y-67281450D01*
X202723091Y-67279903D01*
X202729154Y-67280500D01*
X202729158Y-67280500D01*
X202886844Y-67280500D01*
X202886845Y-67280499D01*
X203041497Y-67249737D01*
X203187179Y-67189394D01*
X203301695Y-67112876D01*
X203368369Y-67092000D01*
X203435749Y-67110484D01*
X203482439Y-67162462D01*
X203493616Y-67231432D01*
X203492201Y-67240170D01*
X203467000Y-67366868D01*
X203467000Y-67493137D01*
X203491631Y-67616965D01*
X203491634Y-67616977D01*
X203539950Y-67733624D01*
X203610103Y-67838616D01*
X203699383Y-67927896D01*
X203804375Y-67998049D01*
X203921022Y-68046365D01*
X203921027Y-68046367D01*
X204044862Y-68070999D01*
X204044866Y-68071000D01*
X204044867Y-68071000D01*
X204171134Y-68071000D01*
X204171135Y-68070999D01*
X204294973Y-68046367D01*
X204396310Y-68004392D01*
X204411624Y-67998049D01*
X204411625Y-67998048D01*
X204411628Y-67998047D01*
X204516614Y-67927898D01*
X204605898Y-67838614D01*
X204676047Y-67733628D01*
X204678544Y-67727601D01*
X204719257Y-67629309D01*
X204724367Y-67616973D01*
X204749000Y-67493133D01*
X204749000Y-67366867D01*
X204724367Y-67243027D01*
X204714171Y-67218411D01*
X204676049Y-67126375D01*
X204605896Y-67021383D01*
X204516616Y-66932103D01*
X204411624Y-66861950D01*
X204294977Y-66813634D01*
X204294965Y-66813631D01*
X204171137Y-66789000D01*
X204171133Y-66789000D01*
X204044867Y-66789000D01*
X204044862Y-66789000D01*
X203921034Y-66813631D01*
X203921022Y-66813634D01*
X203804375Y-66861950D01*
X203745865Y-66901046D01*
X203679188Y-66921923D01*
X203611808Y-66903438D01*
X203565118Y-66851459D01*
X203553942Y-66782489D01*
X203562414Y-66750491D01*
X203574822Y-66720535D01*
X203577737Y-66713497D01*
X203608500Y-66558842D01*
X203608500Y-66401158D01*
X203608500Y-66401155D01*
X203608499Y-66401153D01*
X203581719Y-66266521D01*
X203577737Y-66246503D01*
X203540712Y-66157115D01*
X203517397Y-66100827D01*
X203517390Y-66100814D01*
X203429789Y-65969711D01*
X203429786Y-65969707D01*
X203318292Y-65858213D01*
X203318288Y-65858210D01*
X203187185Y-65770609D01*
X203187172Y-65770602D01*
X203041501Y-65710264D01*
X203041489Y-65710261D01*
X202886845Y-65679500D01*
X202886842Y-65679500D01*
X202729158Y-65679500D01*
X202729155Y-65679500D01*
X202574510Y-65710261D01*
X202574498Y-65710264D01*
X202428827Y-65770602D01*
X202428814Y-65770609D01*
X202297711Y-65858210D01*
X202297707Y-65858213D01*
X202186213Y-65969707D01*
X202186210Y-65969711D01*
X202098609Y-66100814D01*
X202098601Y-66100829D01*
X202080510Y-66144505D01*
X202053631Y-66184732D01*
X198484181Y-69754183D01*
X198464744Y-69764795D01*
X198448011Y-69779296D01*
X198434679Y-69781212D01*
X198422858Y-69787668D01*
X198400771Y-69786088D01*
X198378853Y-69789240D01*
X198366601Y-69783644D01*
X198353166Y-69782684D01*
X198335439Y-69769413D01*
X198315297Y-69760215D01*
X198308014Y-69748883D01*
X198297233Y-69740812D01*
X198289495Y-69720066D01*
X198277523Y-69701437D01*
X198274371Y-69679518D01*
X198272816Y-69675348D01*
X198272500Y-69666502D01*
X198272500Y-69429497D01*
X198292185Y-69362458D01*
X198308819Y-69341816D01*
X199959125Y-67691510D01*
X201724720Y-65925916D01*
X201803777Y-65788984D01*
X201844701Y-65636257D01*
X201844701Y-65478142D01*
X201844701Y-65470547D01*
X201844700Y-65470529D01*
X201844700Y-64587497D01*
X201864385Y-64520458D01*
X201881019Y-64499816D01*
X202172492Y-64208343D01*
X202508116Y-63872718D01*
X202569437Y-63839235D01*
X202619985Y-63838784D01*
X202674115Y-63849551D01*
X202729156Y-63860500D01*
X202729158Y-63860500D01*
X202886844Y-63860500D01*
X202886845Y-63860499D01*
X203041497Y-63829737D01*
X203187179Y-63769394D01*
X203318289Y-63681789D01*
X203429789Y-63570289D01*
X203517394Y-63439179D01*
X203526042Y-63418302D01*
X203550290Y-63359761D01*
X203577737Y-63293497D01*
X203608500Y-63138842D01*
X203608500Y-62981158D01*
X203608500Y-62981155D01*
X203608499Y-62981153D01*
X203577737Y-62826503D01*
X203562413Y-62789507D01*
X203554945Y-62720038D01*
X203586221Y-62657559D01*
X203646310Y-62621907D01*
X203716136Y-62624402D01*
X203745861Y-62638951D01*
X203804372Y-62678047D01*
X203804373Y-62678047D01*
X203804374Y-62678048D01*
X203811069Y-62680821D01*
X203921027Y-62726367D01*
X204024255Y-62746900D01*
X204044862Y-62750999D01*
X204044866Y-62751000D01*
X204044867Y-62751000D01*
X204171134Y-62751000D01*
X204171135Y-62750999D01*
X204294973Y-62726367D01*
X204353300Y-62702207D01*
X204411624Y-62678049D01*
X204411625Y-62678048D01*
X204411628Y-62678047D01*
X204516614Y-62607898D01*
X204605898Y-62518614D01*
X204676047Y-62413628D01*
X204683557Y-62395499D01*
X204702150Y-62350609D01*
X204724367Y-62296973D01*
X204749000Y-62173133D01*
X204749000Y-62046867D01*
X204724367Y-61923027D01*
X204706570Y-61880061D01*
X204676049Y-61806375D01*
X204605896Y-61701383D01*
X204516616Y-61612103D01*
X204411624Y-61541950D01*
X204294977Y-61493634D01*
X204294965Y-61493631D01*
X204171137Y-61469000D01*
X204171133Y-61469000D01*
X204044867Y-61469000D01*
X204044862Y-61469000D01*
X203921034Y-61493631D01*
X203921022Y-61493634D01*
X203804375Y-61541950D01*
X203699383Y-61612103D01*
X203610103Y-61701383D01*
X203539950Y-61806375D01*
X203491634Y-61923022D01*
X203491631Y-61923034D01*
X203467000Y-62046862D01*
X203467000Y-62173137D01*
X203492200Y-62299828D01*
X203485973Y-62369420D01*
X203443109Y-62424597D01*
X203377219Y-62447841D01*
X203309222Y-62431773D01*
X203301692Y-62427121D01*
X203187185Y-62350609D01*
X203187172Y-62350602D01*
X203041501Y-62290264D01*
X203041489Y-62290261D01*
X202886845Y-62259500D01*
X202886842Y-62259500D01*
X202729158Y-62259500D01*
X202729155Y-62259500D01*
X202574510Y-62290261D01*
X202574498Y-62290264D01*
X202428827Y-62350602D01*
X202428814Y-62350609D01*
X202297714Y-62438208D01*
X202241142Y-62494779D01*
X202215462Y-62514483D01*
X202102882Y-62579481D01*
X200763681Y-63918682D01*
X200763679Y-63918685D01*
X200742602Y-63955191D01*
X200721525Y-63991699D01*
X200684623Y-64055615D01*
X200643699Y-64208343D01*
X200643699Y-64208345D01*
X200643699Y-64376446D01*
X200643700Y-64376459D01*
X200643700Y-65257102D01*
X200624015Y-65324141D01*
X200607381Y-65344783D01*
X197191481Y-68760682D01*
X197191477Y-68760687D01*
X197143392Y-68843975D01*
X197143392Y-68843976D01*
X197112423Y-68897614D01*
X197102382Y-68935089D01*
X197071499Y-69050343D01*
X197071499Y-69050345D01*
X197071499Y-69218446D01*
X197071500Y-69218459D01*
X197071500Y-70590766D01*
X197051815Y-70657805D01*
X196999011Y-70703560D01*
X196929853Y-70713504D01*
X196900048Y-70705327D01*
X196778701Y-70655064D01*
X196778689Y-70655061D01*
X196624045Y-70624300D01*
X196624042Y-70624300D01*
X196466358Y-70624300D01*
X196466355Y-70624300D01*
X196311710Y-70655061D01*
X196311698Y-70655064D01*
X196166027Y-70715402D01*
X196166014Y-70715409D01*
X196034325Y-70803402D01*
X195967647Y-70824280D01*
X195965434Y-70824300D01*
X189630543Y-70824300D01*
X189550870Y-70845648D01*
X189481020Y-70843985D01*
X189423158Y-70804822D01*
X189395654Y-70740593D01*
X189407241Y-70671691D01*
X189431092Y-70638195D01*
X195392424Y-64676620D01*
X195453745Y-64643134D01*
X195480106Y-64640300D01*
X195905234Y-64640300D01*
X195972273Y-64659985D01*
X195974125Y-64661198D01*
X196105814Y-64749190D01*
X196105827Y-64749197D01*
X196251498Y-64809535D01*
X196251503Y-64809537D01*
X196406153Y-64840299D01*
X196406156Y-64840300D01*
X196406158Y-64840300D01*
X196563844Y-64840300D01*
X196563845Y-64840299D01*
X196718497Y-64809537D01*
X196864179Y-64749194D01*
X196995289Y-64661589D01*
X197106789Y-64550089D01*
X197194394Y-64418979D01*
X197254737Y-64273297D01*
X197285500Y-64118642D01*
X197285500Y-63960958D01*
X197285500Y-63960955D01*
X197285499Y-63960953D01*
X197267948Y-63872720D01*
X197254737Y-63806303D01*
X197200522Y-63675415D01*
X197194397Y-63660627D01*
X197194390Y-63660614D01*
X197106789Y-63529511D01*
X197106786Y-63529507D01*
X196995292Y-63418013D01*
X196995288Y-63418010D01*
X196864185Y-63330409D01*
X196864172Y-63330402D01*
X196718501Y-63270064D01*
X196718489Y-63270061D01*
X196563845Y-63239300D01*
X196563842Y-63239300D01*
X196406158Y-63239300D01*
X196406155Y-63239300D01*
X196251510Y-63270061D01*
X196251498Y-63270064D01*
X196105827Y-63330402D01*
X196105814Y-63330409D01*
X195974275Y-63418302D01*
X195907598Y-63439180D01*
X195905384Y-63439200D01*
X195278057Y-63439200D01*
X195119943Y-63439200D01*
X195119570Y-63439300D01*
X195100943Y-63439300D01*
X195100939Y-63439300D01*
X195100930Y-63439301D01*
X195012065Y-63463114D01*
X195009018Y-63463930D01*
X195009006Y-63463933D01*
X194948211Y-63480224D01*
X194948204Y-63480227D01*
X194948204Y-63480228D01*
X194896813Y-63509900D01*
X194813520Y-63557988D01*
X194813517Y-63557990D01*
X194811284Y-63559280D01*
X194811278Y-63559285D01*
X194811274Y-63559288D01*
X194771822Y-63598742D01*
X194771359Y-63599205D01*
X194695149Y-63675415D01*
X194695136Y-63675429D01*
X185011651Y-73359311D01*
X185010559Y-73360405D01*
X184958614Y-73409877D01*
X184954736Y-73416230D01*
X184951232Y-73419735D01*
X184949471Y-73421496D01*
X184949470Y-73421497D01*
X184914387Y-73482266D01*
X184912844Y-73484866D01*
X184876241Y-73544840D01*
X184876239Y-73544845D01*
X184875163Y-73548500D01*
X184874138Y-73551983D01*
X184870419Y-73558427D01*
X184851872Y-73627647D01*
X184851436Y-73629130D01*
X184831606Y-73696521D01*
X184831605Y-73696525D01*
X184831423Y-73703966D01*
X184829498Y-73711155D01*
X184829498Y-73782838D01*
X184829461Y-73784396D01*
X184827927Y-73847316D01*
X184827750Y-73854592D01*
X184827751Y-73854596D01*
X184827782Y-73854887D01*
X184829500Y-73862155D01*
X184829501Y-73869270D01*
X184843752Y-73922452D01*
X184844175Y-73924239D01*
X184844050Y-73926563D01*
X184847500Y-73952763D01*
X184847500Y-76101252D01*
X184827815Y-76168291D01*
X184775011Y-76214046D01*
X184747692Y-76222869D01*
X184614508Y-76249361D01*
X184614498Y-76249364D01*
X184468827Y-76309702D01*
X184468814Y-76309709D01*
X184337711Y-76397310D01*
X184337707Y-76397313D01*
X184226205Y-76508815D01*
X184225871Y-76509223D01*
X184225241Y-76509779D01*
X184223670Y-76511350D01*
X184223195Y-76512374D01*
X184210927Y-76522433D01*
X184196367Y-76535306D01*
X184194198Y-76536678D01*
X184130284Y-76573580D01*
X184130280Y-76573583D01*
X184130278Y-76573585D01*
X184120553Y-76583310D01*
X184120552Y-76583311D01*
X184109202Y-76594662D01*
X184106564Y-76597300D01*
X184039948Y-76663916D01*
X184015368Y-76688496D01*
X184015355Y-76688509D01*
X176095682Y-84608381D01*
X176095666Y-84608397D01*
X176094375Y-84609689D01*
X175995480Y-84708584D01*
X175995477Y-84708588D01*
X175995476Y-84708590D01*
X175986381Y-84724342D01*
X175986378Y-84724346D01*
X175967766Y-84756585D01*
X175937575Y-84808879D01*
X175917086Y-84844369D01*
X175916931Y-84844638D01*
X175916419Y-84845523D01*
X175875498Y-84998247D01*
X175875498Y-84998248D01*
X175875500Y-85122840D01*
X175875500Y-87603003D01*
X175855815Y-87670042D01*
X175839181Y-87690684D01*
X174691984Y-88837881D01*
X174630661Y-88871366D01*
X174604303Y-88874200D01*
X171333070Y-88874200D01*
X171266031Y-88854515D01*
X171220276Y-88801711D01*
X171210332Y-88732553D01*
X171239357Y-88668997D01*
X171285618Y-88635639D01*
X171315172Y-88623397D01*
X171315172Y-88623396D01*
X171315179Y-88623394D01*
X171446289Y-88535789D01*
X171557789Y-88424289D01*
X171645394Y-88293179D01*
X171705737Y-88147497D01*
X171736500Y-87992842D01*
X171736500Y-87992841D01*
X171736605Y-87992314D01*
X171768990Y-87930403D01*
X171770506Y-87928859D01*
X173490671Y-86209245D01*
X173490716Y-86209220D01*
X173549385Y-86150550D01*
X173602460Y-86097493D01*
X173602462Y-86097488D01*
X173602485Y-86097466D01*
X173602505Y-86097440D01*
X173602517Y-86097418D01*
X173602520Y-86097416D01*
X173633984Y-86042918D01*
X173642757Y-86027723D01*
X173642758Y-86027718D01*
X173681540Y-85960574D01*
X173681541Y-85960568D01*
X173681563Y-85960531D01*
X173681574Y-85960488D01*
X173681577Y-85960484D01*
X173701766Y-85885137D01*
X173701766Y-85885136D01*
X173701770Y-85885137D01*
X173701770Y-85885119D01*
X173722488Y-85807853D01*
X173722488Y-85807852D01*
X173722500Y-85807761D01*
X173722500Y-85731958D01*
X173722513Y-85649739D01*
X173722500Y-85649690D01*
X173722500Y-85009465D01*
X173742185Y-84942426D01*
X173743398Y-84940574D01*
X173753728Y-84925115D01*
X173831394Y-84808879D01*
X173891737Y-84663197D01*
X173917337Y-84534500D01*
X173920160Y-84520309D01*
X173952545Y-84458398D01*
X174013261Y-84423824D01*
X174041777Y-84420500D01*
X175173331Y-84420500D01*
X175173347Y-84420501D01*
X175180943Y-84420501D01*
X175339054Y-84420501D01*
X175339057Y-84420501D01*
X175491785Y-84379577D01*
X175550525Y-84345663D01*
X175628716Y-84300520D01*
X175740520Y-84188716D01*
X175740520Y-84188714D01*
X175750724Y-84178511D01*
X175750728Y-84178506D01*
X183238506Y-76690728D01*
X183238511Y-76690724D01*
X183248714Y-76680520D01*
X183248716Y-76680520D01*
X183360520Y-76568716D01*
X183439577Y-76431784D01*
X183476894Y-76292516D01*
X183480500Y-76279058D01*
X183480500Y-76120943D01*
X183480500Y-73960097D01*
X183500185Y-73893058D01*
X183516819Y-73872416D01*
X195342916Y-62046319D01*
X195404239Y-62012834D01*
X195430597Y-62010000D01*
X195819434Y-62010000D01*
X195886473Y-62029685D01*
X195888325Y-62030898D01*
X196020014Y-62118890D01*
X196020027Y-62118897D01*
X196150969Y-62173134D01*
X196165703Y-62179237D01*
X196320353Y-62209999D01*
X196320356Y-62210000D01*
X196320358Y-62210000D01*
X196478044Y-62210000D01*
X196478045Y-62209999D01*
X196632697Y-62179237D01*
X196778379Y-62118894D01*
X196909489Y-62031289D01*
X197020989Y-61919789D01*
X197108594Y-61788679D01*
X197168937Y-61642997D01*
X197199700Y-61488342D01*
X197199700Y-61330658D01*
X197199700Y-61330655D01*
X197199699Y-61330653D01*
X197168937Y-61176003D01*
X197131123Y-61084711D01*
X197108597Y-61030327D01*
X197108590Y-61030314D01*
X197020989Y-60899211D01*
X197020986Y-60899207D01*
X196909492Y-60787713D01*
X196909488Y-60787710D01*
X196778385Y-60700109D01*
X196778372Y-60700102D01*
X196632701Y-60639764D01*
X196632689Y-60639761D01*
X196478045Y-60609000D01*
X196478042Y-60609000D01*
X196320358Y-60609000D01*
X196320355Y-60609000D01*
X196165710Y-60639761D01*
X196165698Y-60639764D01*
X196020027Y-60700102D01*
X196020014Y-60700109D01*
X195888325Y-60788102D01*
X195821647Y-60808980D01*
X195819434Y-60809000D01*
X195209557Y-60809000D01*
X195051442Y-60809000D01*
X194898715Y-60849923D01*
X194898714Y-60849923D01*
X194898712Y-60849924D01*
X194898709Y-60849925D01*
X194848596Y-60878859D01*
X194848595Y-60878860D01*
X194830431Y-60889347D01*
X194761785Y-60928979D01*
X194761782Y-60928981D01*
X182399479Y-73291284D01*
X182376051Y-73331865D01*
X182365130Y-73350781D01*
X182352320Y-73372969D01*
X182320423Y-73428214D01*
X182311467Y-73461639D01*
X182279499Y-73580943D01*
X182279499Y-73580945D01*
X182279499Y-73749046D01*
X182279500Y-73749059D01*
X182279500Y-75899903D01*
X182259815Y-75966942D01*
X182243181Y-75987584D01*
X180933037Y-77297727D01*
X180916202Y-77306919D01*
X180902337Y-77320179D01*
X180886167Y-77323319D01*
X180871714Y-77331212D01*
X180852581Y-77329843D01*
X180833749Y-77333502D01*
X180818449Y-77327402D01*
X180802022Y-77326228D01*
X180786664Y-77314731D01*
X180768847Y-77307628D01*
X180759274Y-77294226D01*
X180746089Y-77284356D01*
X180739385Y-77266383D01*
X180728235Y-77250773D01*
X180727427Y-77234322D01*
X180721672Y-77218892D01*
X180725749Y-77200147D01*
X180724809Y-77180988D01*
X180736054Y-77152777D01*
X180736524Y-77150619D01*
X180737841Y-77148267D01*
X180758024Y-77113190D01*
X180758103Y-77113055D01*
X180781278Y-77072914D01*
X180797577Y-77044684D01*
X180797579Y-77044676D01*
X180797732Y-77044307D01*
X180797740Y-77044289D01*
X180797781Y-77044187D01*
X180797783Y-77044183D01*
X180797912Y-77043869D01*
X180797916Y-77043863D01*
X180818176Y-76967804D01*
X180838500Y-76891957D01*
X180838500Y-76891514D01*
X180838612Y-76891094D01*
X180838613Y-76891086D01*
X180838616Y-76891076D01*
X180838500Y-76812018D01*
X180838500Y-72502483D01*
X180838536Y-72422313D01*
X180838500Y-72422178D01*
X180838500Y-72422043D01*
X180818219Y-72346356D01*
X180818219Y-72346355D01*
X180818222Y-72346353D01*
X180818206Y-72346307D01*
X180797681Y-72269567D01*
X180797612Y-72269448D01*
X180797577Y-72269316D01*
X180757881Y-72200560D01*
X180718685Y-72132600D01*
X180718682Y-72132597D01*
X180718678Y-72132590D01*
X180718520Y-72132384D01*
X180661475Y-72075339D01*
X180661447Y-72075288D01*
X180661436Y-72075300D01*
X180385590Y-71799205D01*
X180385520Y-71799084D01*
X180328414Y-71741978D01*
X180273932Y-71687447D01*
X180273930Y-71687446D01*
X180273720Y-71687284D01*
X180273716Y-71687280D01*
X180273709Y-71687276D01*
X180273708Y-71687275D01*
X180250045Y-71673613D01*
X180224353Y-71653896D01*
X178922808Y-70352025D01*
X178889330Y-70290698D01*
X178886500Y-70264355D01*
X178886500Y-65134944D01*
X178886499Y-65134940D01*
X178885108Y-65129747D01*
X178882374Y-65119543D01*
X178845577Y-64982215D01*
X178798027Y-64899857D01*
X178766520Y-64845284D01*
X178654716Y-64733480D01*
X178654715Y-64733479D01*
X178650385Y-64729149D01*
X178650374Y-64729139D01*
X173668097Y-59746862D01*
X203467000Y-59746862D01*
X203467000Y-59873137D01*
X203491631Y-59996965D01*
X203491634Y-59996977D01*
X203539950Y-60113624D01*
X203610103Y-60218616D01*
X203699383Y-60307896D01*
X203804375Y-60378049D01*
X203921022Y-60426365D01*
X203921027Y-60426367D01*
X204044862Y-60450999D01*
X204044866Y-60451000D01*
X204044867Y-60451000D01*
X204171134Y-60451000D01*
X204171135Y-60450999D01*
X204294973Y-60426367D01*
X204353300Y-60402207D01*
X204411624Y-60378049D01*
X204411625Y-60378048D01*
X204411628Y-60378047D01*
X204516614Y-60307898D01*
X204605898Y-60218614D01*
X204676047Y-60113628D01*
X204682376Y-60098350D01*
X204724365Y-59996977D01*
X204724367Y-59996973D01*
X204749000Y-59873133D01*
X204749000Y-59746867D01*
X204724367Y-59623027D01*
X204716232Y-59603388D01*
X204676049Y-59506375D01*
X204605896Y-59401383D01*
X204516616Y-59312103D01*
X204411624Y-59241950D01*
X204294977Y-59193634D01*
X204294965Y-59193631D01*
X204171137Y-59169000D01*
X204171133Y-59169000D01*
X204044867Y-59169000D01*
X204044862Y-59169000D01*
X203921034Y-59193631D01*
X203921022Y-59193634D01*
X203804375Y-59241950D01*
X203699383Y-59312103D01*
X203610103Y-59401383D01*
X203539950Y-59506375D01*
X203491634Y-59623022D01*
X203491631Y-59623034D01*
X203467000Y-59746862D01*
X173668097Y-59746862D01*
X170013416Y-56092181D01*
X169979931Y-56030858D01*
X169984915Y-55961166D01*
X170026787Y-55905233D01*
X170092251Y-55880816D01*
X170101097Y-55880500D01*
X205514108Y-55880500D01*
X205573907Y-55880500D01*
X205586061Y-55881097D01*
G37*
%TD.AperFunction*%
%TA.AperFunction,Conductor*%
G36*
X196032473Y-72044985D02*
G01*
X196034325Y-72046198D01*
X196166014Y-72134190D01*
X196166027Y-72134197D01*
X196311698Y-72194535D01*
X196311703Y-72194537D01*
X196459310Y-72223898D01*
X196466353Y-72225299D01*
X196466356Y-72225300D01*
X196466358Y-72225300D01*
X196624044Y-72225300D01*
X196624045Y-72225299D01*
X196778697Y-72194537D01*
X196900048Y-72144271D01*
X196932675Y-72140764D01*
X196965147Y-72136095D01*
X196967234Y-72137048D01*
X196969517Y-72136803D01*
X196998860Y-72151491D01*
X197028703Y-72165120D01*
X197029943Y-72167050D01*
X197031996Y-72168078D01*
X197048736Y-72196293D01*
X197066477Y-72223898D01*
X197066912Y-72226927D01*
X197067648Y-72228167D01*
X197071500Y-72258833D01*
X197071500Y-72493299D01*
X197051815Y-72560338D01*
X197035181Y-72580981D01*
X182187181Y-87428805D01*
X182125857Y-87462289D01*
X182056166Y-87457305D01*
X182000232Y-87415433D01*
X181975816Y-87349968D01*
X181975500Y-87341123D01*
X181975500Y-87146490D01*
X181995185Y-87079451D01*
X182011815Y-87058813D01*
X188975776Y-80095042D01*
X188975782Y-80095039D01*
X189058341Y-80012480D01*
X189108918Y-79961903D01*
X189110752Y-79960315D01*
X189113939Y-79956949D01*
X189113944Y-79956944D01*
X189115098Y-79955724D01*
X189115131Y-79955692D01*
X189115133Y-79955687D01*
X189115649Y-79955143D01*
X189117532Y-79952100D01*
X189118721Y-79950321D01*
X189183523Y-79853338D01*
X189220519Y-79797969D01*
X189222261Y-79795673D01*
X189223365Y-79793876D01*
X189224530Y-79792057D01*
X189224629Y-79791816D01*
X189224632Y-79791814D01*
X189267227Y-79688980D01*
X189300047Y-79609749D01*
X189300047Y-79609744D01*
X189300049Y-79609741D01*
X189300049Y-79609737D01*
X189300051Y-79609735D01*
X189312161Y-79548854D01*
X189316728Y-79525894D01*
X189316728Y-79525891D01*
X189338499Y-79416454D01*
X189338499Y-79416452D01*
X189338500Y-79416444D01*
X189338500Y-79325480D01*
X189338500Y-79301584D01*
X189338502Y-79219373D01*
X189338500Y-79219367D01*
X189338501Y-79213819D01*
X189338500Y-79213773D01*
X189338500Y-78827294D01*
X189358185Y-78760255D01*
X189374815Y-78739617D01*
X192432773Y-75681744D01*
X192432782Y-75681739D01*
X192537577Y-75576944D01*
X192537618Y-75576902D01*
X192568779Y-75545743D01*
X192571492Y-75543230D01*
X192571631Y-75543082D01*
X192572124Y-75542397D01*
X192572130Y-75542392D01*
X192572132Y-75542388D01*
X192572139Y-75542382D01*
X192572179Y-75542321D01*
X192573454Y-75540554D01*
X192573458Y-75540548D01*
X192575047Y-75538342D01*
X192576445Y-75535937D01*
X192645156Y-75433105D01*
X192655894Y-75417034D01*
X192681625Y-75378527D01*
X192681626Y-75378521D01*
X192681794Y-75378271D01*
X192682715Y-75376171D01*
X192683370Y-75374756D01*
X192684338Y-75371980D01*
X192693411Y-75350078D01*
X192719370Y-75287406D01*
X192753547Y-75204896D01*
X192754557Y-75202892D01*
X192756477Y-75197918D01*
X192757030Y-75196535D01*
X192757049Y-75196437D01*
X192757051Y-75196435D01*
X192778196Y-75090135D01*
X192795499Y-75003154D01*
X192795499Y-75003146D01*
X192795500Y-75003141D01*
X192795500Y-74857127D01*
X192795501Y-74806074D01*
X192795500Y-74806068D01*
X192795500Y-74450459D01*
X192795500Y-74450456D01*
X192757052Y-74257170D01*
X192757051Y-74257169D01*
X192757051Y-74257165D01*
X192747512Y-74234135D01*
X192681635Y-74075092D01*
X192681628Y-74075079D01*
X192572139Y-73911218D01*
X192572136Y-73911214D01*
X192432785Y-73771863D01*
X192432781Y-73771860D01*
X192268920Y-73662371D01*
X192268907Y-73662364D01*
X192086839Y-73586950D01*
X192086829Y-73586947D01*
X191893543Y-73548500D01*
X191893541Y-73548500D01*
X191696459Y-73548500D01*
X191696457Y-73548500D01*
X191503170Y-73586947D01*
X191503160Y-73586950D01*
X191321092Y-73662364D01*
X191321079Y-73662371D01*
X191157218Y-73771860D01*
X191157214Y-73771863D01*
X191017863Y-73911214D01*
X191017860Y-73911218D01*
X190908371Y-74075079D01*
X190908364Y-74075092D01*
X190832950Y-74257160D01*
X190832947Y-74257170D01*
X190793311Y-74456434D01*
X190792148Y-74456202D01*
X190768345Y-74515145D01*
X190758787Y-74525881D01*
X187426873Y-77857703D01*
X187426868Y-77857710D01*
X187317380Y-78021564D01*
X187317371Y-78021580D01*
X187241955Y-78203643D01*
X187241954Y-78203647D01*
X187203500Y-78396945D01*
X187203499Y-78508236D01*
X187203498Y-78594026D01*
X187217376Y-78663799D01*
X187241945Y-78787323D01*
X187241948Y-78787330D01*
X187272243Y-78860473D01*
X187279710Y-78929942D01*
X187248434Y-78992421D01*
X187245361Y-78995605D01*
X180339662Y-85901117D01*
X180284021Y-85956758D01*
X180197871Y-86042905D01*
X180197869Y-86042907D01*
X180197861Y-86042917D01*
X180197860Y-86042918D01*
X180197853Y-86042928D01*
X180151769Y-86111899D01*
X180151456Y-86112367D01*
X180088375Y-86206774D01*
X180088373Y-86206778D01*
X180088368Y-86206786D01*
X180088148Y-86207315D01*
X180088147Y-86207318D01*
X180072330Y-86245505D01*
X180053647Y-86290611D01*
X180041095Y-86320912D01*
X180012950Y-86388856D01*
X180012949Y-86388860D01*
X179996620Y-86470954D01*
X179996620Y-86470956D01*
X179974501Y-86582146D01*
X179974500Y-86582153D01*
X179974500Y-86582159D01*
X179974500Y-86616638D01*
X179974498Y-86779227D01*
X179974500Y-86779237D01*
X179974500Y-88090441D01*
X179974500Y-88090443D01*
X179974499Y-88090443D01*
X180012947Y-88283729D01*
X180012950Y-88283739D01*
X180088364Y-88465807D01*
X180088371Y-88465820D01*
X180197860Y-88629681D01*
X180197863Y-88629685D01*
X180207256Y-88639078D01*
X180234136Y-88679305D01*
X180265606Y-88755279D01*
X180265609Y-88755285D01*
X180353210Y-88886388D01*
X180353213Y-88886392D01*
X180392840Y-88926019D01*
X180426325Y-88987342D01*
X180421341Y-89057034D01*
X180379469Y-89112967D01*
X180314005Y-89137384D01*
X180305159Y-89137700D01*
X177796497Y-89137700D01*
X177729458Y-89118015D01*
X177683703Y-89065211D01*
X177673759Y-88996053D01*
X177702784Y-88932497D01*
X177708816Y-88926019D01*
X177851480Y-88783355D01*
X178291506Y-88343327D01*
X178291511Y-88343324D01*
X178301714Y-88333120D01*
X178301716Y-88333120D01*
X178413520Y-88221316D01*
X178492577Y-88084384D01*
X178528505Y-87950300D01*
X178533500Y-87931658D01*
X178533500Y-87773543D01*
X178533500Y-85999710D01*
X178553185Y-85932671D01*
X178569821Y-85912026D01*
X186801707Y-77680624D01*
X186801716Y-77680620D01*
X186868659Y-77613677D01*
X186910183Y-77572155D01*
X186912620Y-77569898D01*
X186913495Y-77568843D01*
X186913509Y-77568830D01*
X186913513Y-77568822D01*
X186913520Y-77568816D01*
X186913523Y-77568809D01*
X186913872Y-77568390D01*
X186915327Y-77565685D01*
X186953745Y-77499143D01*
X186989601Y-77437042D01*
X186992329Y-77432804D01*
X186992574Y-77431886D01*
X186992577Y-77431884D01*
X187011661Y-77360663D01*
X187014816Y-77348891D01*
X187014816Y-77348890D01*
X187023271Y-77317338D01*
X187033308Y-77279882D01*
X187033488Y-77279231D01*
X187033494Y-77279188D01*
X187033498Y-77279175D01*
X187033498Y-77279164D01*
X187033500Y-77279157D01*
X187033500Y-77200442D01*
X187033503Y-77121060D01*
X187033501Y-77121055D01*
X187033502Y-77113485D01*
X187033500Y-77113435D01*
X187033500Y-75001497D01*
X187053185Y-74934458D01*
X187069819Y-74913816D01*
X189922016Y-72061619D01*
X189983339Y-72028134D01*
X190009697Y-72025300D01*
X195965434Y-72025300D01*
X196032473Y-72044985D01*
G37*
%TD.AperFunction*%
%TA.AperFunction,Conductor*%
G36*
X170794148Y-86875606D02*
G01*
X170861186Y-86895297D01*
X170906935Y-86948105D01*
X170916872Y-87017265D01*
X170887841Y-87080818D01*
X170829059Y-87118586D01*
X170818328Y-87121223D01*
X170702508Y-87144261D01*
X170702498Y-87144264D01*
X170556827Y-87204602D01*
X170556814Y-87204609D01*
X170425711Y-87292210D01*
X170425707Y-87292213D01*
X170314213Y-87403707D01*
X170314210Y-87403711D01*
X170226609Y-87534814D01*
X170226602Y-87534827D01*
X170166264Y-87680498D01*
X170166261Y-87680510D01*
X170135500Y-87835153D01*
X170135500Y-87992846D01*
X170166261Y-88147489D01*
X170166264Y-88147501D01*
X170226602Y-88293172D01*
X170226609Y-88293185D01*
X170314210Y-88424288D01*
X170314213Y-88424292D01*
X170425707Y-88535786D01*
X170425711Y-88535789D01*
X170556814Y-88623390D01*
X170556827Y-88623397D01*
X170586382Y-88635639D01*
X170640786Y-88679480D01*
X170662851Y-88745774D01*
X170645572Y-88813473D01*
X170594435Y-88861084D01*
X170538930Y-88874200D01*
X166028937Y-88874200D01*
X165961898Y-88854515D01*
X165941289Y-88837915D01*
X165926510Y-88823147D01*
X165742395Y-88639173D01*
X165708888Y-88577863D01*
X165711052Y-88523871D01*
X165709549Y-88523572D01*
X165738801Y-88376509D01*
X165741500Y-88362942D01*
X165741500Y-88205258D01*
X165741500Y-88205255D01*
X165741499Y-88205253D01*
X165735953Y-88177373D01*
X165710737Y-88050603D01*
X165702300Y-88030234D01*
X165650397Y-87904927D01*
X165650390Y-87904914D01*
X165562789Y-87773811D01*
X165562786Y-87773807D01*
X165451292Y-87662313D01*
X165451288Y-87662310D01*
X165320185Y-87574709D01*
X165320172Y-87574702D01*
X165174501Y-87514364D01*
X165174489Y-87514361D01*
X165019845Y-87483600D01*
X165019842Y-87483600D01*
X164862158Y-87483600D01*
X164862155Y-87483600D01*
X164716015Y-87512669D01*
X164646424Y-87506442D01*
X164591246Y-87463579D01*
X164568002Y-87397689D01*
X164584070Y-87329692D01*
X164588724Y-87322158D01*
X164596391Y-87310683D01*
X164596394Y-87310679D01*
X164656737Y-87164997D01*
X164687500Y-87010342D01*
X164687500Y-86999600D01*
X164707185Y-86932561D01*
X164759989Y-86886806D01*
X164811500Y-86875600D01*
X170731928Y-86875600D01*
X170794148Y-86875606D01*
G37*
%TD.AperFunction*%
%TA.AperFunction,Conductor*%
G36*
X160660299Y-66766644D02*
G01*
X160690286Y-66773168D01*
X160695301Y-66776922D01*
X160697898Y-66777685D01*
X160718540Y-66794319D01*
X160725707Y-66801486D01*
X160725711Y-66801489D01*
X160856814Y-66889090D01*
X160856827Y-66889097D01*
X161002498Y-66949435D01*
X161002503Y-66949437D01*
X161157158Y-66980200D01*
X161157164Y-66980200D01*
X161158465Y-66980329D01*
X161159107Y-66980588D01*
X161163132Y-66981389D01*
X161162980Y-66982152D01*
X161190343Y-66993200D01*
X161222410Y-67005827D01*
X161222735Y-67006279D01*
X161223253Y-67006488D01*
X161243114Y-67034555D01*
X161263262Y-67062510D01*
X161263291Y-67063068D01*
X161263613Y-67063522D01*
X161265147Y-67097870D01*
X161266983Y-67132280D01*
X161266715Y-67132953D01*
X161266732Y-67133322D01*
X161254052Y-67165120D01*
X161253784Y-67165589D01*
X161225438Y-67214680D01*
X161225432Y-67214698D01*
X161225423Y-67214716D01*
X161206440Y-67285560D01*
X161184649Y-67366867D01*
X161184503Y-67367410D01*
X161184500Y-67367429D01*
X161184500Y-67367443D01*
X161184500Y-67430031D01*
X161184499Y-67461027D01*
X161184495Y-67533890D01*
X161184500Y-67533963D01*
X161184500Y-68622808D01*
X161164815Y-68689847D01*
X161148183Y-68710488D01*
X156075981Y-73782880D01*
X150863451Y-78995605D01*
X150825577Y-79033480D01*
X150764254Y-79066966D01*
X150737894Y-79069800D01*
X148221051Y-79069800D01*
X148221040Y-79069797D01*
X148102454Y-79069800D01*
X148062943Y-79069800D01*
X148062939Y-79069800D01*
X148062926Y-79069801D01*
X148062922Y-79069801D01*
X148062921Y-79069802D01*
X147972694Y-79093981D01*
X147972548Y-79094020D01*
X147972432Y-79094052D01*
X147910216Y-79110723D01*
X147910208Y-79110727D01*
X147910199Y-79110730D01*
X147909089Y-79111370D01*
X147909088Y-79111371D01*
X147893101Y-79120602D01*
X147849114Y-79146000D01*
X147809262Y-79169008D01*
X147774026Y-79189351D01*
X147774024Y-79189352D01*
X147773284Y-79189780D01*
X147773275Y-79189788D01*
X147773271Y-79189791D01*
X147743691Y-79219373D01*
X147743530Y-79219534D01*
X147655387Y-79307676D01*
X147655358Y-79307709D01*
X146202574Y-80760579D01*
X146141252Y-80794065D01*
X146114890Y-80796900D01*
X144737766Y-80796900D01*
X144670727Y-80777215D01*
X144668875Y-80776002D01*
X144537185Y-80688009D01*
X144537172Y-80688002D01*
X144391501Y-80627664D01*
X144391489Y-80627661D01*
X144236845Y-80596900D01*
X144236842Y-80596900D01*
X144079158Y-80596900D01*
X144079155Y-80596900D01*
X143924510Y-80627661D01*
X143924498Y-80627664D01*
X143778827Y-80688002D01*
X143778814Y-80688009D01*
X143647711Y-80775610D01*
X143647707Y-80775613D01*
X143536213Y-80887107D01*
X143536210Y-80887111D01*
X143448609Y-81018214D01*
X143448602Y-81018227D01*
X143388264Y-81163898D01*
X143388261Y-81163910D01*
X143357500Y-81318553D01*
X143357500Y-81476246D01*
X143388261Y-81630889D01*
X143388264Y-81630901D01*
X143448602Y-81776572D01*
X143448609Y-81776585D01*
X143536210Y-81907688D01*
X143536213Y-81907692D01*
X143647707Y-82019186D01*
X143647711Y-82019189D01*
X143778814Y-82106790D01*
X143778827Y-82106797D01*
X143924498Y-82167135D01*
X143924503Y-82167137D01*
X144079153Y-82197899D01*
X144079156Y-82197900D01*
X144079158Y-82197900D01*
X144236844Y-82197900D01*
X144236845Y-82197899D01*
X144391497Y-82167137D01*
X144537179Y-82106794D01*
X144565441Y-82087910D01*
X144668875Y-82018798D01*
X144735553Y-81997920D01*
X144737766Y-81997900D01*
X145573867Y-81997900D01*
X145640906Y-82017585D01*
X145686661Y-82070389D01*
X145696605Y-82139547D01*
X145667580Y-82203103D01*
X145661556Y-82209571D01*
X145103705Y-82767292D01*
X145042380Y-82800769D01*
X145016036Y-82803600D01*
X142651766Y-82803600D01*
X142584727Y-82783915D01*
X142582875Y-82782702D01*
X142451185Y-82694709D01*
X142451172Y-82694702D01*
X142305501Y-82634364D01*
X142305489Y-82634361D01*
X142150845Y-82603600D01*
X142150842Y-82603600D01*
X141993158Y-82603600D01*
X141993155Y-82603600D01*
X141838510Y-82634361D01*
X141838498Y-82634364D01*
X141692827Y-82694702D01*
X141692814Y-82694709D01*
X141561711Y-82782310D01*
X141561707Y-82782313D01*
X141450213Y-82893807D01*
X141450210Y-82893811D01*
X141362609Y-83024914D01*
X141362602Y-83024927D01*
X141302264Y-83170598D01*
X141302261Y-83170610D01*
X141271500Y-83325253D01*
X141271500Y-83482946D01*
X141302261Y-83637589D01*
X141302264Y-83637601D01*
X141362602Y-83783272D01*
X141362609Y-83783285D01*
X141450210Y-83914388D01*
X141450213Y-83914392D01*
X141561707Y-84025886D01*
X141561711Y-84025889D01*
X141692814Y-84113490D01*
X141692827Y-84113497D01*
X141825133Y-84168299D01*
X141838503Y-84173837D01*
X141993153Y-84204599D01*
X141993156Y-84204600D01*
X141993158Y-84204600D01*
X142150844Y-84204600D01*
X142150845Y-84204599D01*
X142305497Y-84173837D01*
X142451179Y-84113494D01*
X142475541Y-84097216D01*
X142582875Y-84025498D01*
X142649553Y-84004620D01*
X142651766Y-84004600D01*
X145465055Y-84004600D01*
X145465057Y-84004600D01*
X145617784Y-83963677D01*
X145754716Y-83884620D01*
X145866520Y-83772816D01*
X145945577Y-83635884D01*
X145945577Y-83635882D01*
X145949641Y-83628844D01*
X145950530Y-83629357D01*
X145971503Y-83597967D01*
X148281943Y-81288066D01*
X148343268Y-81254590D01*
X148412959Y-81259582D01*
X148468888Y-81301460D01*
X148484173Y-81328307D01*
X148493602Y-81351072D01*
X148493609Y-81351085D01*
X148581210Y-81482188D01*
X148581213Y-81482192D01*
X148692707Y-81593686D01*
X148692711Y-81593689D01*
X148823814Y-81681290D01*
X148823827Y-81681297D01*
X148969498Y-81741635D01*
X148969503Y-81741637D01*
X149113505Y-81770281D01*
X149124153Y-81772399D01*
X149124156Y-81772400D01*
X149124158Y-81772400D01*
X149281844Y-81772400D01*
X149281845Y-81772399D01*
X149436497Y-81741637D01*
X149582179Y-81681294D01*
X149636663Y-81644889D01*
X149713875Y-81593298D01*
X149780553Y-81572420D01*
X149782766Y-81572400D01*
X150086008Y-81572400D01*
X150153047Y-81592085D01*
X150198802Y-81644889D01*
X150208746Y-81714047D01*
X150179721Y-81777603D01*
X150173692Y-81784078D01*
X149954628Y-82003141D01*
X149590585Y-82367182D01*
X149563651Y-82381888D01*
X149537839Y-82398477D01*
X149531638Y-82399368D01*
X149529262Y-82400666D01*
X149502904Y-82403500D01*
X149458766Y-82403500D01*
X149391727Y-82383815D01*
X149389875Y-82382602D01*
X149258185Y-82294609D01*
X149258172Y-82294602D01*
X149112501Y-82234264D01*
X149112489Y-82234261D01*
X148957845Y-82203500D01*
X148957842Y-82203500D01*
X148800158Y-82203500D01*
X148800155Y-82203500D01*
X148645510Y-82234261D01*
X148645498Y-82234264D01*
X148499827Y-82294602D01*
X148499814Y-82294609D01*
X148368711Y-82382210D01*
X148368707Y-82382213D01*
X148257213Y-82493707D01*
X148257210Y-82493711D01*
X148169609Y-82624814D01*
X148169602Y-82624827D01*
X148109264Y-82770498D01*
X148109261Y-82770510D01*
X148078500Y-82925153D01*
X148078500Y-83082846D01*
X148109261Y-83237489D01*
X148109264Y-83237501D01*
X148169602Y-83383172D01*
X148169609Y-83383185D01*
X148257210Y-83514288D01*
X148257213Y-83514292D01*
X148368707Y-83625786D01*
X148368711Y-83625789D01*
X148499814Y-83713390D01*
X148499821Y-83713394D01*
X148549814Y-83734101D01*
X148575343Y-83754673D01*
X148601601Y-83774315D01*
X148602411Y-83776486D01*
X148604216Y-83777940D01*
X148614569Y-83809047D01*
X148626042Y-83839770D01*
X148625550Y-83842035D01*
X148626282Y-83844234D01*
X148618172Y-83876008D01*
X148611215Y-83908049D01*
X148609363Y-83910523D01*
X148609004Y-83911934D01*
X148590074Y-83936311D01*
X148483305Y-84043159D01*
X148091807Y-84434139D01*
X148030462Y-84467584D01*
X148004184Y-84470400D01*
X143006145Y-84470400D01*
X143005808Y-84470378D01*
X142916968Y-84470399D01*
X142916826Y-84470400D01*
X142839943Y-84470400D01*
X142839872Y-84470418D01*
X142839796Y-84470419D01*
X142839464Y-84470507D01*
X142839461Y-84470508D01*
X142762806Y-84491067D01*
X142762746Y-84491084D01*
X142687216Y-84511323D01*
X142687151Y-84511360D01*
X142687078Y-84511380D01*
X142686949Y-84511454D01*
X142686947Y-84511455D01*
X142647055Y-84534500D01*
X142619775Y-84550259D01*
X142550284Y-84590380D01*
X142550274Y-84590386D01*
X142550177Y-84590460D01*
X142497021Y-84643641D01*
X142497002Y-84643661D01*
X142433195Y-84707468D01*
X142432971Y-84707722D01*
X141679109Y-85461954D01*
X141617794Y-85495454D01*
X141615598Y-85495911D01*
X141460508Y-85526761D01*
X141460498Y-85526764D01*
X141314827Y-85587102D01*
X141314814Y-85587109D01*
X141183711Y-85674710D01*
X141183707Y-85674713D01*
X141072213Y-85786207D01*
X141072210Y-85786211D01*
X140984609Y-85917314D01*
X140984602Y-85917327D01*
X140924264Y-86062998D01*
X140924261Y-86063010D01*
X140893500Y-86217653D01*
X140893500Y-86375346D01*
X140924261Y-86529989D01*
X140924264Y-86530001D01*
X140984602Y-86675672D01*
X140984609Y-86675685D01*
X141072210Y-86806788D01*
X141072213Y-86806792D01*
X141183707Y-86918286D01*
X141183711Y-86918289D01*
X141314814Y-87005890D01*
X141314821Y-87005894D01*
X141355180Y-87022611D01*
X141409583Y-87066450D01*
X141431649Y-87132744D01*
X141414371Y-87200444D01*
X141395410Y-87224853D01*
X141309592Y-87310672D01*
X140941282Y-87678982D01*
X140879961Y-87712466D01*
X140853603Y-87715300D01*
X130170566Y-87715300D01*
X130103527Y-87695615D01*
X130101675Y-87694402D01*
X129969985Y-87606409D01*
X129969972Y-87606402D01*
X129824301Y-87546064D01*
X129824289Y-87546061D01*
X129669645Y-87515300D01*
X129669642Y-87515300D01*
X129511958Y-87515300D01*
X129511955Y-87515300D01*
X129357310Y-87546061D01*
X129357298Y-87546064D01*
X129211627Y-87606402D01*
X129211614Y-87606409D01*
X129080511Y-87694010D01*
X129080507Y-87694013D01*
X128969013Y-87805507D01*
X128969010Y-87805511D01*
X128881409Y-87936614D01*
X128881402Y-87936627D01*
X128821064Y-88082298D01*
X128819294Y-88088135D01*
X128817792Y-88087679D01*
X128817149Y-88088909D01*
X128816665Y-88097946D01*
X128801205Y-88119385D01*
X128788956Y-88142801D01*
X128781093Y-88147278D01*
X128775800Y-88154619D01*
X128751205Y-88164296D01*
X128728240Y-88177373D01*
X128717483Y-88177565D01*
X128710782Y-88180202D01*
X128675539Y-88178314D01*
X128652154Y-88173663D01*
X128590242Y-88141279D01*
X128588661Y-88139726D01*
X125632590Y-85183655D01*
X125632588Y-85183652D01*
X125513717Y-85064781D01*
X125513716Y-85064780D01*
X125412191Y-85006165D01*
X125376785Y-84985723D01*
X125224057Y-84944799D01*
X125065943Y-84944799D01*
X125058347Y-84944799D01*
X125058331Y-84944800D01*
X114399997Y-84944800D01*
X114332958Y-84925115D01*
X114287203Y-84872311D01*
X114277259Y-84803153D01*
X114306284Y-84739597D01*
X114312316Y-84733119D01*
X114656350Y-84389085D01*
X115015959Y-84029475D01*
X115077280Y-83995992D01*
X115146971Y-84000976D01*
X115172523Y-84014052D01*
X115267021Y-84077194D01*
X115267023Y-84077195D01*
X115267027Y-84077197D01*
X115371062Y-84120289D01*
X115412703Y-84137537D01*
X115547023Y-84164255D01*
X115567353Y-84168299D01*
X115567356Y-84168300D01*
X115567358Y-84168300D01*
X115725044Y-84168300D01*
X115725045Y-84168299D01*
X115879697Y-84137537D01*
X116025379Y-84077194D01*
X116156489Y-83989589D01*
X116267989Y-83878089D01*
X116355594Y-83746979D01*
X116415937Y-83601297D01*
X116446700Y-83446642D01*
X116446700Y-83421707D01*
X116450081Y-83410191D01*
X116448940Y-83398243D01*
X116459743Y-83377285D01*
X116466385Y-83354668D01*
X116476254Y-83345256D01*
X116480955Y-83336139D01*
X116508698Y-83314321D01*
X116552628Y-83288958D01*
X116623016Y-83248320D01*
X116629662Y-83241673D01*
X116690980Y-83208189D01*
X116693152Y-83207737D01*
X116693841Y-83207600D01*
X116693842Y-83207600D01*
X116848497Y-83176837D01*
X116994179Y-83116494D01*
X117032127Y-83091138D01*
X117125875Y-83028498D01*
X117192553Y-83007620D01*
X117194766Y-83007600D01*
X122344494Y-83007600D01*
X122411533Y-83027285D01*
X122413383Y-83028497D01*
X122413970Y-83028889D01*
X122416821Y-83030794D01*
X122416823Y-83030794D01*
X122416825Y-83030796D01*
X122562498Y-83091135D01*
X122562503Y-83091137D01*
X122717153Y-83121899D01*
X122717156Y-83121900D01*
X122717158Y-83121900D01*
X122874844Y-83121900D01*
X122874845Y-83121899D01*
X123029497Y-83091137D01*
X123175179Y-83030794D01*
X123306289Y-82943189D01*
X123417789Y-82831689D01*
X123505394Y-82700579D01*
X123565737Y-82554897D01*
X123596500Y-82400242D01*
X123596500Y-82242558D01*
X123596500Y-82242555D01*
X123596499Y-82242553D01*
X123576661Y-82142823D01*
X123565737Y-82087903D01*
X123535451Y-82014785D01*
X123505397Y-81942227D01*
X123505390Y-81942214D01*
X123417789Y-81811111D01*
X123417786Y-81811107D01*
X123306292Y-81699613D01*
X123306288Y-81699610D01*
X123175185Y-81612009D01*
X123175172Y-81612002D01*
X123029501Y-81551664D01*
X123029489Y-81551661D01*
X122874845Y-81520900D01*
X122874842Y-81520900D01*
X122717158Y-81520900D01*
X122717155Y-81520900D01*
X122562510Y-81551661D01*
X122562498Y-81551664D01*
X122416827Y-81612002D01*
X122416814Y-81612009D01*
X122285712Y-81699609D01*
X122250377Y-81734945D01*
X122215039Y-81770282D01*
X122153719Y-81803766D01*
X122127360Y-81806600D01*
X117194766Y-81806600D01*
X117127727Y-81786915D01*
X117125875Y-81785702D01*
X116994185Y-81697709D01*
X116994176Y-81697704D01*
X116894559Y-81656442D01*
X116840156Y-81612601D01*
X116818091Y-81546307D01*
X116835370Y-81478608D01*
X116854334Y-81454196D01*
X116863032Y-81445499D01*
X121723823Y-76585071D01*
X121785146Y-76551590D01*
X121854838Y-76556577D01*
X121910770Y-76598450D01*
X121935184Y-76663916D01*
X121935500Y-76672757D01*
X121935500Y-76716846D01*
X121966261Y-76871489D01*
X121966264Y-76871501D01*
X122026602Y-77017172D01*
X122026609Y-77017185D01*
X122114602Y-77148874D01*
X122135480Y-77215551D01*
X122135500Y-77217765D01*
X122135500Y-78161234D01*
X122135499Y-78161252D01*
X122135499Y-78326961D01*
X122135500Y-78326964D01*
X122152467Y-78390281D01*
X122152467Y-78390283D01*
X122152468Y-78390283D01*
X122176423Y-78479685D01*
X122176426Y-78479690D01*
X122255475Y-78616609D01*
X122255481Y-78616617D01*
X122377487Y-78738623D01*
X122377495Y-78738629D01*
X123651357Y-80012475D01*
X130027824Y-86388865D01*
X130064427Y-86425467D01*
X130097912Y-86486790D01*
X130098363Y-86488957D01*
X130129261Y-86644291D01*
X130129264Y-86644301D01*
X130189602Y-86789972D01*
X130189609Y-86789985D01*
X130277210Y-86921088D01*
X130277213Y-86921092D01*
X130388707Y-87032586D01*
X130388711Y-87032589D01*
X130519814Y-87120190D01*
X130519827Y-87120197D01*
X130627995Y-87165001D01*
X130665503Y-87180537D01*
X130820153Y-87211299D01*
X130820156Y-87211300D01*
X130820158Y-87211300D01*
X130977844Y-87211300D01*
X130977845Y-87211299D01*
X131132497Y-87180537D01*
X131278179Y-87120194D01*
X131409289Y-87032589D01*
X131520789Y-86921089D01*
X131608394Y-86789979D01*
X131612844Y-86779237D01*
X131668735Y-86644301D01*
X131668737Y-86644297D01*
X131699500Y-86489642D01*
X131699500Y-86331958D01*
X131699500Y-86331955D01*
X131699499Y-86331953D01*
X131691276Y-86290612D01*
X131668737Y-86177303D01*
X131657656Y-86150550D01*
X131608397Y-86031627D01*
X131608390Y-86031614D01*
X131520789Y-85900511D01*
X131520786Y-85900507D01*
X131409292Y-85789013D01*
X131409288Y-85789010D01*
X131278185Y-85701409D01*
X131278172Y-85701402D01*
X131132501Y-85641064D01*
X131132491Y-85641061D01*
X130977145Y-85610160D01*
X130915234Y-85577775D01*
X130913656Y-85576225D01*
X123372819Y-78035480D01*
X123339334Y-77974157D01*
X123336500Y-77947798D01*
X123336500Y-77217765D01*
X123356185Y-77150726D01*
X123357398Y-77148874D01*
X123445390Y-77017185D01*
X123445390Y-77017184D01*
X123445394Y-77017179D01*
X123448415Y-77009887D01*
X123465846Y-76967804D01*
X123505737Y-76871497D01*
X123536500Y-76716842D01*
X123536500Y-76559158D01*
X123536500Y-76559155D01*
X123536499Y-76559153D01*
X123532086Y-76536969D01*
X123505737Y-76404503D01*
X123477480Y-76336283D01*
X123445397Y-76258827D01*
X123445390Y-76258814D01*
X123357789Y-76127711D01*
X123357786Y-76127707D01*
X123246292Y-76016213D01*
X123246288Y-76016210D01*
X123115185Y-75928609D01*
X123115172Y-75928602D01*
X122969501Y-75868264D01*
X122969489Y-75868261D01*
X122814845Y-75837500D01*
X122814842Y-75837500D01*
X122770829Y-75837500D01*
X122703790Y-75817815D01*
X122658035Y-75765011D01*
X122648091Y-75695853D01*
X122677116Y-75632297D01*
X122683151Y-75625816D01*
X123193777Y-75115227D01*
X123206085Y-75102919D01*
X123267409Y-75069437D01*
X123317955Y-75068987D01*
X123435155Y-75092300D01*
X123435158Y-75092300D01*
X123592844Y-75092300D01*
X123592845Y-75092299D01*
X123747497Y-75061537D01*
X123888447Y-75003154D01*
X123893172Y-75001197D01*
X123893172Y-75001196D01*
X123893179Y-75001194D01*
X123933255Y-74974416D01*
X124024875Y-74913198D01*
X124091553Y-74892320D01*
X124093766Y-74892300D01*
X141345677Y-74892300D01*
X141353226Y-74892530D01*
X141365697Y-74893290D01*
X141373943Y-74895500D01*
X141401922Y-74895500D01*
X141405693Y-74895730D01*
X141406890Y-74896162D01*
X141416815Y-74896913D01*
X141440740Y-74900558D01*
X141475922Y-74896648D01*
X141479441Y-74896258D01*
X141493133Y-74895500D01*
X141514680Y-74895500D01*
X141514724Y-74895502D01*
X141522960Y-74895501D01*
X141522965Y-74895503D01*
X141617833Y-74895500D01*
X141681057Y-74895500D01*
X141681058Y-74895499D01*
X141681070Y-74895498D01*
X141681079Y-74895498D01*
X141681089Y-74895495D01*
X141681125Y-74895490D01*
X141681641Y-74895347D01*
X141762924Y-74873563D01*
X141828958Y-74855870D01*
X141832911Y-74854982D01*
X141833773Y-74854579D01*
X141833784Y-74854577D01*
X141833792Y-74854571D01*
X141833795Y-74854569D01*
X141833805Y-74854568D01*
X141833829Y-74854553D01*
X141835425Y-74853810D01*
X141838420Y-74851903D01*
X141897351Y-74817876D01*
X141970716Y-74775520D01*
X141970717Y-74775518D01*
X141970723Y-74775515D01*
X141970730Y-74775508D01*
X141970734Y-74775506D01*
X142028222Y-74718014D01*
X142082520Y-74663716D01*
X142082520Y-74663714D01*
X142089567Y-74656668D01*
X142089599Y-74656631D01*
X142128765Y-74617463D01*
X145150826Y-71595180D01*
X145902429Y-70843522D01*
X145963750Y-70810035D01*
X145990113Y-70807200D01*
X149433950Y-70807200D01*
X149433957Y-70807202D01*
X149539367Y-70807200D01*
X149592057Y-70807200D01*
X149592252Y-70807200D01*
X149592632Y-70807143D01*
X149595565Y-70806262D01*
X149679604Y-70783741D01*
X149737630Y-70768194D01*
X149741928Y-70767314D01*
X149744186Y-70766622D01*
X149744792Y-70766271D01*
X149744798Y-70766271D01*
X149800126Y-70734325D01*
X149881716Y-70687220D01*
X149881717Y-70687218D01*
X149881720Y-70687217D01*
X149881726Y-70687210D01*
X149881728Y-70687210D01*
X149926571Y-70642365D01*
X149993520Y-70575416D01*
X149993520Y-70575414D01*
X150001574Y-70567361D01*
X150001593Y-70567337D01*
X153352999Y-67215767D01*
X153774424Y-66794321D01*
X153835746Y-66760834D01*
X153862107Y-66758000D01*
X160630859Y-66758000D01*
X160660299Y-66766644D01*
G37*
%TD.AperFunction*%
%TA.AperFunction,Conductor*%
G36*
X172957703Y-68216784D02*
G01*
X172964181Y-68222816D01*
X175182181Y-70440816D01*
X175215666Y-70502139D01*
X175218500Y-70528497D01*
X175218500Y-76725759D01*
X175218462Y-76805871D01*
X175218500Y-76806013D01*
X175218500Y-76806157D01*
X175223616Y-76825249D01*
X175238846Y-76882090D01*
X175238861Y-76882145D01*
X175259314Y-76958622D01*
X175259422Y-76958883D01*
X175264573Y-76967804D01*
X175299696Y-77028640D01*
X175338305Y-77095586D01*
X175338397Y-77095678D01*
X175338467Y-77095799D01*
X175338478Y-77095814D01*
X175338480Y-77095816D01*
X175395771Y-77153107D01*
X175612371Y-77369914D01*
X175645826Y-77431251D01*
X175646264Y-77433359D01*
X175677261Y-77589191D01*
X175677264Y-77589201D01*
X175737602Y-77734872D01*
X175737609Y-77734885D01*
X175825210Y-77865988D01*
X175825213Y-77865992D01*
X175936707Y-77977486D01*
X175936711Y-77977489D01*
X176067814Y-78065090D01*
X176067827Y-78065097D01*
X176191562Y-78116349D01*
X176213503Y-78125437D01*
X176338713Y-78150343D01*
X176368153Y-78156199D01*
X176368156Y-78156200D01*
X176368158Y-78156200D01*
X176525844Y-78156200D01*
X176626800Y-78136118D01*
X176652876Y-78130931D01*
X176676688Y-78133061D01*
X176700488Y-78130780D01*
X176710853Y-78136118D01*
X176722468Y-78137158D01*
X176741348Y-78151825D01*
X176762603Y-78162772D01*
X176773726Y-78176976D01*
X176777645Y-78180021D01*
X176784431Y-78190507D01*
X176784629Y-78190850D01*
X176819817Y-78252438D01*
X176820779Y-78253409D01*
X176821474Y-78254611D01*
X176837082Y-78270218D01*
X176838511Y-78271847D01*
X176898165Y-78331501D01*
X176898561Y-78331898D01*
X176953112Y-78386945D01*
X176954408Y-78387949D01*
X176955246Y-78388598D01*
X176955283Y-78388619D01*
X176955284Y-78388620D01*
X176958164Y-78390283D01*
X177022207Y-78427258D01*
X177022691Y-78427539D01*
X177089683Y-78466621D01*
X177091171Y-78467245D01*
X177092176Y-78467666D01*
X177092215Y-78467676D01*
X177092216Y-78467677D01*
X177167273Y-78487788D01*
X177242226Y-78508236D01*
X177243607Y-78508242D01*
X177244943Y-78508600D01*
X177322268Y-78508600D01*
X177322813Y-78508601D01*
X177323365Y-78508603D01*
X177326229Y-78508616D01*
X177393180Y-78528595D01*
X177428786Y-78563726D01*
X177468027Y-78622456D01*
X177488904Y-78689133D01*
X177470419Y-78756513D01*
X177452608Y-78779023D01*
X177437846Y-78793786D01*
X177376524Y-78827273D01*
X177325971Y-78827725D01*
X177233845Y-78809400D01*
X177233842Y-78809400D01*
X177076158Y-78809400D01*
X177076155Y-78809400D01*
X176921510Y-78840161D01*
X176921498Y-78840164D01*
X176775827Y-78900502D01*
X176775814Y-78900509D01*
X176644711Y-78988110D01*
X176644707Y-78988113D01*
X176533213Y-79099607D01*
X176533210Y-79099611D01*
X176445609Y-79230714D01*
X176445602Y-79230727D01*
X176385264Y-79376398D01*
X176385261Y-79376410D01*
X176354500Y-79531053D01*
X176354500Y-79688746D01*
X176385261Y-79843389D01*
X176385264Y-79843401D01*
X176445602Y-79989072D01*
X176445609Y-79989085D01*
X176533210Y-80120188D01*
X176533213Y-80120192D01*
X176644707Y-80231686D01*
X176644711Y-80231689D01*
X176775814Y-80319290D01*
X176775827Y-80319297D01*
X176916501Y-80377565D01*
X176921503Y-80379637D01*
X177076153Y-80410399D01*
X177076156Y-80410400D01*
X177076158Y-80410400D01*
X177233844Y-80410400D01*
X177233845Y-80410399D01*
X177388497Y-80379637D01*
X177534179Y-80319294D01*
X177624400Y-80259009D01*
X177691075Y-80238133D01*
X177758455Y-80256617D01*
X177805145Y-80308595D01*
X177816322Y-80377565D01*
X177788437Y-80441629D01*
X177780970Y-80449794D01*
X175047584Y-83183181D01*
X174986261Y-83216666D01*
X174959903Y-83219500D01*
X161437697Y-83219500D01*
X161370658Y-83199815D01*
X161350016Y-83183181D01*
X160507590Y-82340755D01*
X160507588Y-82340752D01*
X160388717Y-82221881D01*
X160388716Y-82221880D01*
X160294178Y-82167299D01*
X160251785Y-82142823D01*
X160099057Y-82101899D01*
X159940943Y-82101899D01*
X159933347Y-82101899D01*
X159933331Y-82101900D01*
X159193166Y-82101900D01*
X159126127Y-82082215D01*
X159124275Y-82081002D01*
X158992585Y-81993009D01*
X158992572Y-81993002D01*
X158846901Y-81932664D01*
X158846891Y-81932661D01*
X158713708Y-81906169D01*
X158651797Y-81873784D01*
X158617223Y-81813068D01*
X158613900Y-81784552D01*
X158613900Y-81278597D01*
X158633585Y-81211558D01*
X158650219Y-81190916D01*
X161845416Y-77995719D01*
X161906739Y-77962234D01*
X161933097Y-77959400D01*
X164095331Y-77959400D01*
X164095347Y-77959401D01*
X164102943Y-77959401D01*
X164261054Y-77959401D01*
X164261057Y-77959401D01*
X164413785Y-77918477D01*
X164463946Y-77889516D01*
X164550716Y-77839420D01*
X164662520Y-77727616D01*
X164662520Y-77727614D01*
X164672724Y-77717411D01*
X164672728Y-77717406D01*
X166539062Y-75851072D01*
X166539067Y-75851068D01*
X166549270Y-75840864D01*
X166549272Y-75840864D01*
X166661076Y-75729060D01*
X166723639Y-75620697D01*
X166740133Y-75592129D01*
X166781057Y-75439401D01*
X166781057Y-75384810D01*
X166800742Y-75317771D01*
X166853546Y-75272016D01*
X166922704Y-75262072D01*
X166986260Y-75291097D01*
X166992716Y-75297107D01*
X168044186Y-76348222D01*
X168100284Y-76404320D01*
X168100328Y-76404345D01*
X168100365Y-76404382D01*
X168168110Y-76443479D01*
X168237216Y-76483377D01*
X168237226Y-76483379D01*
X168237300Y-76483410D01*
X168237310Y-76483416D01*
X168315788Y-76504429D01*
X168315806Y-76504440D01*
X168315808Y-76504435D01*
X168389943Y-76524300D01*
X168389951Y-76524300D01*
X168390031Y-76524310D01*
X168390044Y-76524314D01*
X168472030Y-76524300D01*
X168921731Y-76524300D01*
X168921747Y-76524301D01*
X168929343Y-76524301D01*
X169087454Y-76524301D01*
X169087457Y-76524301D01*
X169240185Y-76483377D01*
X169240193Y-76483371D01*
X169247689Y-76480268D01*
X169248165Y-76481417D01*
X169301603Y-76467100D01*
X169344444Y-76467100D01*
X169344445Y-76467099D01*
X169499097Y-76436337D01*
X169644779Y-76375994D01*
X169775889Y-76288389D01*
X169887389Y-76176889D01*
X169974994Y-76045779D01*
X170035337Y-75900097D01*
X170066100Y-75745442D01*
X170066100Y-75587758D01*
X170066100Y-75587755D01*
X170066099Y-75587753D01*
X170060698Y-75560603D01*
X170035337Y-75433103D01*
X170012625Y-75378271D01*
X169974997Y-75287427D01*
X169974990Y-75287414D01*
X169887389Y-75156311D01*
X169887386Y-75156307D01*
X169775892Y-75044813D01*
X169775888Y-75044810D01*
X169644785Y-74957209D01*
X169644772Y-74957202D01*
X169499101Y-74896864D01*
X169499089Y-74896861D01*
X169344445Y-74866100D01*
X169344442Y-74866100D01*
X169186758Y-74866100D01*
X169186755Y-74866100D01*
X169032110Y-74896861D01*
X169032098Y-74896864D01*
X168886427Y-74957202D01*
X168886414Y-74957209D01*
X168755311Y-75044810D01*
X168684894Y-75115227D01*
X168623570Y-75148711D01*
X168553879Y-75143726D01*
X168509547Y-75115241D01*
X166530813Y-73137177D01*
X166530811Y-73137175D01*
X166474716Y-73081080D01*
X166474675Y-73081056D01*
X166474644Y-73081025D01*
X166474638Y-73081020D01*
X166406240Y-73041545D01*
X166406224Y-73041536D01*
X166337781Y-73002021D01*
X166337697Y-73001986D01*
X166335609Y-73001427D01*
X166259191Y-72980964D01*
X166242781Y-72976567D01*
X166185047Y-72961097D01*
X166184961Y-72961086D01*
X166184956Y-72961086D01*
X166102970Y-72961100D01*
X165496366Y-72961100D01*
X165429327Y-72941415D01*
X165383572Y-72888611D01*
X165373628Y-72819453D01*
X165402653Y-72755897D01*
X165408679Y-72749425D01*
X167234438Y-70923425D01*
X167295759Y-70889936D01*
X167322125Y-70887100D01*
X167671234Y-70887100D01*
X167738273Y-70906785D01*
X167740125Y-70907998D01*
X167871814Y-70995990D01*
X167871827Y-70995997D01*
X168003790Y-71050657D01*
X168017503Y-71056337D01*
X168172153Y-71087099D01*
X168172156Y-71087100D01*
X168172158Y-71087100D01*
X168329844Y-71087100D01*
X168329845Y-71087099D01*
X168484497Y-71056337D01*
X168630179Y-70995994D01*
X168761289Y-70908389D01*
X168872789Y-70796889D01*
X168960394Y-70665779D01*
X168970092Y-70642367D01*
X169001173Y-70567329D01*
X169020737Y-70520097D01*
X169051500Y-70365442D01*
X169051500Y-70207758D01*
X169051500Y-70207755D01*
X169025688Y-70077992D01*
X169027565Y-70057007D01*
X169024567Y-70036153D01*
X169030617Y-70022905D01*
X169031915Y-70008400D01*
X169044839Y-69991762D01*
X169053592Y-69972597D01*
X169065844Y-69964722D01*
X169074778Y-69953223D01*
X169094644Y-69946214D01*
X169112370Y-69934823D01*
X169136953Y-69931288D01*
X169140668Y-69929978D01*
X169147305Y-69929800D01*
X169222234Y-69929800D01*
X169289273Y-69949485D01*
X169291125Y-69950698D01*
X169422814Y-70038690D01*
X169422827Y-70038697D01*
X169517695Y-70077992D01*
X169568503Y-70099037D01*
X169723153Y-70129799D01*
X169723156Y-70129800D01*
X169723158Y-70129800D01*
X169880844Y-70129800D01*
X169880845Y-70129799D01*
X170035497Y-70099037D01*
X170181179Y-70038694D01*
X170312289Y-69951089D01*
X170423789Y-69839589D01*
X170470398Y-69769834D01*
X170524010Y-69725029D01*
X170593335Y-69716322D01*
X170656362Y-69746476D01*
X170693082Y-69805919D01*
X170697500Y-69838725D01*
X170697500Y-76671402D01*
X170677815Y-76738441D01*
X170661181Y-76759083D01*
X168183584Y-79236681D01*
X168122261Y-79270166D01*
X168095903Y-79273000D01*
X164451789Y-79273000D01*
X164384750Y-79253315D01*
X164348687Y-79217891D01*
X164299389Y-79144111D01*
X164299387Y-79144108D01*
X164187892Y-79032613D01*
X164187888Y-79032610D01*
X164056785Y-78945009D01*
X164056772Y-78945002D01*
X163911101Y-78884664D01*
X163911089Y-78884661D01*
X163756445Y-78853900D01*
X163756442Y-78853900D01*
X163598758Y-78853900D01*
X163598755Y-78853900D01*
X163444110Y-78884661D01*
X163444098Y-78884664D01*
X163298427Y-78945002D01*
X163298414Y-78945009D01*
X163167311Y-79032610D01*
X163167307Y-79032613D01*
X163055813Y-79144107D01*
X163055810Y-79144111D01*
X162968209Y-79275214D01*
X162968202Y-79275227D01*
X162907864Y-79420898D01*
X162907861Y-79420910D01*
X162877100Y-79575553D01*
X162877100Y-79733246D01*
X162907861Y-79887889D01*
X162907864Y-79887901D01*
X162968202Y-80033572D01*
X162968209Y-80033585D01*
X163055810Y-80164688D01*
X163055813Y-80164692D01*
X163167307Y-80276186D01*
X163167311Y-80276189D01*
X163298414Y-80363790D01*
X163298427Y-80363797D01*
X163444098Y-80424135D01*
X163444103Y-80424137D01*
X163532041Y-80441629D01*
X163598753Y-80454899D01*
X163598756Y-80454900D01*
X163598758Y-80454900D01*
X163730034Y-80454900D01*
X163762127Y-80459125D01*
X163772689Y-80461955D01*
X163817642Y-80474000D01*
X163817643Y-80474000D01*
X165826500Y-80474000D01*
X165835185Y-80476550D01*
X165844147Y-80475262D01*
X165868187Y-80486240D01*
X165893539Y-80493685D01*
X165899466Y-80500525D01*
X165907703Y-80504287D01*
X165921992Y-80526521D01*
X165939294Y-80546489D01*
X165941581Y-80557003D01*
X165945477Y-80563065D01*
X165950500Y-80598000D01*
X165950500Y-80711100D01*
X165930815Y-80778139D01*
X165878011Y-80823894D01*
X165826500Y-80835100D01*
X165681555Y-80835100D01*
X165526910Y-80865861D01*
X165526898Y-80865864D01*
X165381227Y-80926202D01*
X165381214Y-80926209D01*
X165250111Y-81013810D01*
X165250107Y-81013813D01*
X165138613Y-81125307D01*
X165138610Y-81125311D01*
X165051009Y-81256414D01*
X165051002Y-81256427D01*
X164990664Y-81402098D01*
X164990661Y-81402110D01*
X164959900Y-81556753D01*
X164959900Y-81714446D01*
X164990661Y-81869089D01*
X164990664Y-81869101D01*
X165051002Y-82014772D01*
X165051009Y-82014785D01*
X165138610Y-82145888D01*
X165138613Y-82145892D01*
X165250107Y-82257386D01*
X165250111Y-82257389D01*
X165381214Y-82344990D01*
X165381227Y-82344997D01*
X165510341Y-82398477D01*
X165526903Y-82405337D01*
X165591547Y-82418195D01*
X165682249Y-82436238D01*
X165744160Y-82468623D01*
X165745739Y-82470174D01*
X165939139Y-82663574D01*
X165939149Y-82663585D01*
X165943479Y-82667915D01*
X165943480Y-82667916D01*
X166055284Y-82779720D01*
X166128116Y-82821769D01*
X166192215Y-82858777D01*
X166344943Y-82899700D01*
X166503057Y-82899700D01*
X167364178Y-82899700D01*
X167452020Y-82899705D01*
X167452039Y-82899700D01*
X167452057Y-82899700D01*
X167530576Y-82878661D01*
X167601631Y-82859626D01*
X167604324Y-82858982D01*
X167604739Y-82858793D01*
X167604750Y-82858791D01*
X167604758Y-82858785D01*
X167604770Y-82858779D01*
X167604784Y-82858777D01*
X167604810Y-82858761D01*
X167605669Y-82858373D01*
X167608146Y-82856836D01*
X167672895Y-82819453D01*
X167672900Y-82819449D01*
X167672915Y-82819441D01*
X167741686Y-82779743D01*
X167741689Y-82779739D01*
X167741702Y-82779732D01*
X167741711Y-82779722D01*
X167741716Y-82779720D01*
X167797530Y-82723904D01*
X167797536Y-82723901D01*
X167797535Y-82723900D01*
X168117975Y-82403500D01*
X172520697Y-78001330D01*
X172520716Y-78001320D01*
X172586631Y-77935405D01*
X172631217Y-77890823D01*
X172632454Y-77889626D01*
X172632514Y-77889520D01*
X172632520Y-77889516D01*
X172679340Y-77808421D01*
X172711562Y-77752620D01*
X172711563Y-77752615D01*
X172711568Y-77752607D01*
X172711575Y-77752591D01*
X172733754Y-77669822D01*
X172733754Y-77669819D01*
X172752495Y-77599895D01*
X172752495Y-77599891D01*
X172752497Y-77599884D01*
X172752500Y-77599857D01*
X172752500Y-77508611D01*
X172752505Y-77441781D01*
X172752500Y-77441762D01*
X172752500Y-68310497D01*
X172772185Y-68243458D01*
X172824989Y-68197703D01*
X172894147Y-68187759D01*
X172957703Y-68216784D01*
G37*
%TD.AperFunction*%
%TA.AperFunction,Conductor*%
G36*
X138578342Y-65212385D02*
G01*
X138598984Y-65229019D01*
X141070181Y-67700216D01*
X141103666Y-67761539D01*
X141106500Y-67787897D01*
X141106500Y-69108343D01*
X141097845Y-69137815D01*
X141091297Y-69167835D01*
X141087571Y-69172805D01*
X141086815Y-69175382D01*
X141070129Y-69196076D01*
X141034907Y-69231255D01*
X140973566Y-69264703D01*
X140971472Y-69265138D01*
X140815508Y-69296161D01*
X140815498Y-69296164D01*
X140669827Y-69356502D01*
X140669814Y-69356509D01*
X140538711Y-69444110D01*
X140538707Y-69444113D01*
X140427213Y-69555607D01*
X140427210Y-69555611D01*
X140339609Y-69686714D01*
X140339602Y-69686727D01*
X140279264Y-69832398D01*
X140279261Y-69832410D01*
X140248500Y-69987053D01*
X140248500Y-70144746D01*
X140279261Y-70299389D01*
X140279263Y-70299397D01*
X140282307Y-70306745D01*
X140289777Y-70376214D01*
X140258504Y-70438694D01*
X140198416Y-70474348D01*
X140167747Y-70478200D01*
X137607930Y-70478200D01*
X137540891Y-70458515D01*
X137495136Y-70405711D01*
X137485192Y-70336553D01*
X137514217Y-70272997D01*
X137520249Y-70266519D01*
X138360395Y-69426372D01*
X139212595Y-68574170D01*
X139252819Y-68547293D01*
X139276479Y-68537494D01*
X139407589Y-68449889D01*
X139519089Y-68338389D01*
X139606694Y-68207279D01*
X139608264Y-68203490D01*
X139663142Y-68071000D01*
X139667037Y-68061597D01*
X139697800Y-67906942D01*
X139697800Y-67749258D01*
X139697800Y-67749255D01*
X139697799Y-67749253D01*
X139691366Y-67716911D01*
X139667037Y-67594603D01*
X139659682Y-67576847D01*
X139606697Y-67448927D01*
X139606690Y-67448914D01*
X139519089Y-67317811D01*
X139519086Y-67317807D01*
X139407592Y-67206313D01*
X139407588Y-67206310D01*
X139276485Y-67118709D01*
X139276472Y-67118702D01*
X139130801Y-67058364D01*
X139130789Y-67058361D01*
X138976145Y-67027600D01*
X138976142Y-67027600D01*
X138818458Y-67027600D01*
X138818455Y-67027600D01*
X138663810Y-67058361D01*
X138663798Y-67058364D01*
X138518127Y-67118702D01*
X138518114Y-67118709D01*
X138387011Y-67206310D01*
X138387007Y-67206313D01*
X138275513Y-67317807D01*
X138275507Y-67317815D01*
X138187907Y-67448918D01*
X138187905Y-67448922D01*
X138178105Y-67472580D01*
X138151227Y-67512804D01*
X136315051Y-69348981D01*
X136253728Y-69382466D01*
X136227370Y-69385300D01*
X123730200Y-69385300D01*
X123663161Y-69365615D01*
X123642524Y-69348986D01*
X121472059Y-67178767D01*
X121445174Y-67138534D01*
X121435394Y-67114921D01*
X121432429Y-67110484D01*
X121347789Y-66983810D01*
X121236292Y-66872313D01*
X121236288Y-66872310D01*
X121105185Y-66784709D01*
X121105172Y-66784702D01*
X120959501Y-66724364D01*
X120959489Y-66724361D01*
X120804845Y-66693600D01*
X120804842Y-66693600D01*
X120647158Y-66693600D01*
X120647155Y-66693600D01*
X120492510Y-66724361D01*
X120492498Y-66724364D01*
X120346827Y-66784702D01*
X120346814Y-66784709D01*
X120215711Y-66872310D01*
X120215707Y-66872313D01*
X120104213Y-66983807D01*
X120104210Y-66983811D01*
X120016609Y-67114914D01*
X120016602Y-67114927D01*
X119956264Y-67260598D01*
X119956261Y-67260610D01*
X119925500Y-67415253D01*
X119925500Y-67572946D01*
X119956261Y-67727589D01*
X119956264Y-67727601D01*
X120016602Y-67873272D01*
X120016609Y-67873285D01*
X120104210Y-68004388D01*
X120104213Y-68004392D01*
X120215707Y-68115886D01*
X120215711Y-68115889D01*
X120346814Y-68203490D01*
X120346827Y-68203497D01*
X120370518Y-68213310D01*
X120410741Y-68240184D01*
X121935525Y-69764795D01*
X122343825Y-70173048D01*
X122377314Y-70234369D01*
X122372333Y-70304061D01*
X122343831Y-70348415D01*
X122272935Y-70419311D01*
X122185334Y-70550414D01*
X122185329Y-70550424D01*
X122149711Y-70636414D01*
X122105870Y-70690817D01*
X122081771Y-70702498D01*
X122082241Y-70703632D01*
X121930938Y-70766302D01*
X121930925Y-70766309D01*
X121799822Y-70853910D01*
X121799818Y-70853913D01*
X121688324Y-70965407D01*
X121688321Y-70965411D01*
X121600720Y-71096514D01*
X121600713Y-71096527D01*
X121540375Y-71242198D01*
X121540372Y-71242208D01*
X121513880Y-71375392D01*
X121481495Y-71437303D01*
X121420779Y-71471877D01*
X121392263Y-71475200D01*
X117145670Y-71475200D01*
X117145654Y-71475199D01*
X117138058Y-71475199D01*
X116979943Y-71475199D01*
X116827215Y-71516123D01*
X116700315Y-71589389D01*
X116690281Y-71595182D01*
X114251281Y-74034182D01*
X114251279Y-74034185D01*
X114210201Y-74105336D01*
X114210200Y-74105337D01*
X114172223Y-74171114D01*
X114172223Y-74171115D01*
X114131299Y-74323843D01*
X114131299Y-74323845D01*
X114131299Y-74491946D01*
X114131300Y-74491959D01*
X114131300Y-75417034D01*
X114111615Y-75484073D01*
X114110402Y-75485925D01*
X114022409Y-75617614D01*
X114022402Y-75617627D01*
X113962064Y-75763298D01*
X113962061Y-75763310D01*
X113931300Y-75917953D01*
X113931300Y-76075646D01*
X113962061Y-76230289D01*
X113962064Y-76230301D01*
X114022402Y-76375972D01*
X114022409Y-76375985D01*
X114110010Y-76507088D01*
X114110013Y-76507092D01*
X114221507Y-76618586D01*
X114226219Y-76622453D01*
X114224786Y-76624198D01*
X114263124Y-76670053D01*
X114271844Y-76739376D01*
X114241701Y-76802409D01*
X114237118Y-76807245D01*
X113691339Y-77353025D01*
X113630016Y-77386510D01*
X113627850Y-77386961D01*
X113472508Y-77417861D01*
X113472498Y-77417864D01*
X113326827Y-77478202D01*
X113326814Y-77478209D01*
X113195711Y-77565810D01*
X113195707Y-77565813D01*
X113084213Y-77677307D01*
X113084210Y-77677311D01*
X112996609Y-77808414D01*
X112996602Y-77808427D01*
X112936264Y-77954098D01*
X112936261Y-77954110D01*
X112905500Y-78108753D01*
X112905500Y-78266446D01*
X112936261Y-78421089D01*
X112936264Y-78421101D01*
X112996602Y-78566772D01*
X112996609Y-78566785D01*
X113084210Y-78697888D01*
X113084213Y-78697892D01*
X113195707Y-78809386D01*
X113195711Y-78809389D01*
X113326814Y-78896990D01*
X113326827Y-78896997D01*
X113423453Y-78937020D01*
X113472503Y-78957337D01*
X113627153Y-78988099D01*
X113627156Y-78988100D01*
X113627158Y-78988100D01*
X113784844Y-78988100D01*
X113784845Y-78988099D01*
X113939497Y-78957337D01*
X114085179Y-78896994D01*
X114216289Y-78809389D01*
X114327789Y-78697889D01*
X114415394Y-78566779D01*
X114475737Y-78421097D01*
X114498143Y-78308455D01*
X114506638Y-78265750D01*
X114539023Y-78203839D01*
X114540518Y-78202316D01*
X115240419Y-77502416D01*
X115301742Y-77468931D01*
X115371434Y-77473915D01*
X115427367Y-77515787D01*
X115451784Y-77581251D01*
X115452100Y-77590097D01*
X115452100Y-77929302D01*
X115432415Y-77996341D01*
X115415781Y-78016983D01*
X113995481Y-79437282D01*
X113995475Y-79437290D01*
X113956509Y-79504783D01*
X113956509Y-79504784D01*
X113916423Y-79574215D01*
X113875499Y-79726943D01*
X113875499Y-79726945D01*
X113875499Y-79895046D01*
X113875500Y-79895059D01*
X113875500Y-80012834D01*
X113855815Y-80079873D01*
X113854602Y-80081725D01*
X113766609Y-80213414D01*
X113766602Y-80213427D01*
X113706264Y-80359098D01*
X113706261Y-80359110D01*
X113675500Y-80513753D01*
X113675500Y-80671446D01*
X113706261Y-80826089D01*
X113706264Y-80826101D01*
X113766602Y-80971772D01*
X113766609Y-80971785D01*
X113854210Y-81102888D01*
X113854213Y-81102892D01*
X113965707Y-81214386D01*
X113965711Y-81214389D01*
X114096814Y-81301990D01*
X114096827Y-81301997D01*
X114242498Y-81362335D01*
X114242503Y-81362337D01*
X114242507Y-81362337D01*
X114242508Y-81362338D01*
X114267366Y-81367283D01*
X114329277Y-81399668D01*
X114363851Y-81460384D01*
X114360111Y-81530153D01*
X114319244Y-81586825D01*
X114254226Y-81612407D01*
X114243174Y-81612900D01*
X113577697Y-81612900D01*
X113510658Y-81593215D01*
X113490016Y-81576581D01*
X111170819Y-79257384D01*
X111137334Y-79196061D01*
X111134500Y-79169703D01*
X111134500Y-73595422D01*
X111154185Y-73528383D01*
X111170819Y-73507741D01*
X113241257Y-71437303D01*
X115352887Y-69325672D01*
X115414208Y-69292189D01*
X115416375Y-69291738D01*
X115474310Y-69280213D01*
X115571722Y-69260837D01*
X115698172Y-69208460D01*
X115717397Y-69200497D01*
X115717397Y-69200496D01*
X115717404Y-69200494D01*
X115848514Y-69112889D01*
X115960014Y-69001389D01*
X116047619Y-68870279D01*
X116107962Y-68724597D01*
X116138725Y-68569942D01*
X116138725Y-68412258D01*
X116138725Y-68412255D01*
X116138724Y-68412253D01*
X116118483Y-68310497D01*
X116107962Y-68257603D01*
X116092129Y-68219379D01*
X116047622Y-68111927D01*
X116047615Y-68111914D01*
X115960014Y-67980811D01*
X115960011Y-67980807D01*
X115919675Y-67940472D01*
X115886189Y-67879149D01*
X115891173Y-67809458D01*
X115919672Y-67765111D01*
X118455766Y-65229019D01*
X118517089Y-65195534D01*
X118543447Y-65192700D01*
X138511303Y-65192700D01*
X138578342Y-65212385D01*
G37*
%TD.AperFunction*%
%TA.AperFunction,Conductor*%
G36*
X153908742Y-55900185D02*
G01*
X153954497Y-55952989D01*
X153964441Y-56022147D01*
X153935416Y-56085703D01*
X153929384Y-56092181D01*
X153101984Y-56919581D01*
X153040661Y-56953066D01*
X153014303Y-56955900D01*
X152344766Y-56955900D01*
X152277727Y-56936215D01*
X152275875Y-56935002D01*
X152144185Y-56847009D01*
X152144172Y-56847002D01*
X151998501Y-56786664D01*
X151998489Y-56786661D01*
X151843845Y-56755900D01*
X151843842Y-56755900D01*
X151686158Y-56755900D01*
X151686155Y-56755900D01*
X151531510Y-56786661D01*
X151531498Y-56786664D01*
X151385827Y-56847002D01*
X151385814Y-56847009D01*
X151254711Y-56934610D01*
X151254707Y-56934613D01*
X151143213Y-57046107D01*
X151143210Y-57046111D01*
X151055609Y-57177214D01*
X151055602Y-57177227D01*
X150995264Y-57322898D01*
X150995261Y-57322910D01*
X150964500Y-57477553D01*
X150964500Y-57635246D01*
X150991883Y-57772909D01*
X150985656Y-57842500D01*
X150942793Y-57897678D01*
X150876903Y-57920922D01*
X150870266Y-57921100D01*
X148718397Y-57921100D01*
X148651358Y-57901415D01*
X148630716Y-57884781D01*
X148335424Y-57589489D01*
X148301939Y-57528166D01*
X148301488Y-57525999D01*
X148270588Y-57370660D01*
X148270587Y-57370653D01*
X148268453Y-57365500D01*
X148210247Y-57224977D01*
X148210240Y-57224964D01*
X148122639Y-57093861D01*
X148122636Y-57093857D01*
X148011142Y-56982363D01*
X148011138Y-56982360D01*
X147880035Y-56894759D01*
X147880022Y-56894752D01*
X147734351Y-56834414D01*
X147734339Y-56834411D01*
X147579695Y-56803650D01*
X147579692Y-56803650D01*
X147422008Y-56803650D01*
X147422005Y-56803650D01*
X147267360Y-56834411D01*
X147267348Y-56834414D01*
X147121677Y-56894752D01*
X147121664Y-56894759D01*
X146990561Y-56982360D01*
X146990557Y-56982363D01*
X146879063Y-57093857D01*
X146879060Y-57093861D01*
X146791459Y-57224964D01*
X146791452Y-57224977D01*
X146731114Y-57370648D01*
X146731111Y-57370660D01*
X146700350Y-57525303D01*
X146700350Y-57682996D01*
X146731111Y-57837639D01*
X146731114Y-57837651D01*
X146791452Y-57983322D01*
X146791459Y-57983335D01*
X146879060Y-58114438D01*
X146879063Y-58114442D01*
X146990557Y-58225936D01*
X146990561Y-58225939D01*
X147121664Y-58313540D01*
X147121677Y-58313547D01*
X147267348Y-58373885D01*
X147267353Y-58373887D01*
X147331997Y-58386745D01*
X147422699Y-58404788D01*
X147484610Y-58437173D01*
X147486189Y-58438724D01*
X147937778Y-58890313D01*
X147937780Y-58890316D01*
X147947188Y-58899724D01*
X147960935Y-58913472D01*
X147974364Y-58938068D01*
X147994417Y-58974792D01*
X147994416Y-58974793D01*
X147994418Y-58974796D01*
X147992614Y-59000009D01*
X147989433Y-59044484D01*
X147989431Y-59044487D01*
X147989431Y-59044488D01*
X147989426Y-59044493D01*
X147960932Y-59088831D01*
X147864138Y-59185625D01*
X147802815Y-59219110D01*
X147800649Y-59219561D01*
X147645308Y-59250461D01*
X147645298Y-59250464D01*
X147499627Y-59310802D01*
X147499614Y-59310809D01*
X147368511Y-59398410D01*
X147368507Y-59398413D01*
X147257013Y-59509907D01*
X147257010Y-59509911D01*
X147169409Y-59641014D01*
X147169402Y-59641027D01*
X147109064Y-59786698D01*
X147109061Y-59786710D01*
X147078300Y-59941353D01*
X147078300Y-60099046D01*
X147109061Y-60253689D01*
X147109064Y-60253701D01*
X147169402Y-60399372D01*
X147169409Y-60399385D01*
X147257010Y-60530488D01*
X147257013Y-60530492D01*
X147368507Y-60641986D01*
X147368511Y-60641989D01*
X147499614Y-60729590D01*
X147499627Y-60729597D01*
X147639929Y-60787711D01*
X147645303Y-60789937D01*
X147741139Y-60809000D01*
X147799953Y-60820699D01*
X147799956Y-60820700D01*
X147799958Y-60820700D01*
X147957644Y-60820700D01*
X147957645Y-60820699D01*
X148112297Y-60789937D01*
X148257979Y-60729594D01*
X148389089Y-60641989D01*
X148500589Y-60530489D01*
X148588194Y-60399379D01*
X148648537Y-60253697D01*
X148676399Y-60113628D01*
X148679438Y-60098350D01*
X148711823Y-60036439D01*
X148713318Y-60034916D01*
X149107216Y-59641019D01*
X149168539Y-59607534D01*
X149194897Y-59604700D01*
X151046716Y-59604700D01*
X151113755Y-59624385D01*
X151159510Y-59677189D01*
X151169454Y-59746347D01*
X151161277Y-59776152D01*
X151109564Y-59900998D01*
X151109561Y-59901010D01*
X151078800Y-60055653D01*
X151078800Y-60213346D01*
X151109561Y-60367989D01*
X151109564Y-60368001D01*
X151169902Y-60513672D01*
X151169909Y-60513685D01*
X151257510Y-60644788D01*
X151257513Y-60644792D01*
X151369007Y-60756286D01*
X151369011Y-60756289D01*
X151500114Y-60843890D01*
X151500127Y-60843897D01*
X151609855Y-60889347D01*
X151645803Y-60904237D01*
X151770189Y-60928979D01*
X151800453Y-60934999D01*
X151800456Y-60935000D01*
X151800458Y-60935000D01*
X151958144Y-60935000D01*
X151958145Y-60934999D01*
X152112797Y-60904237D01*
X152258479Y-60843894D01*
X152310702Y-60809000D01*
X152371168Y-60768598D01*
X152389214Y-60762947D01*
X152405124Y-60752723D01*
X152436085Y-60748271D01*
X152437846Y-60747720D01*
X152440059Y-60747700D01*
X152660202Y-60747700D01*
X152727241Y-60767385D01*
X152772996Y-60820189D01*
X152782940Y-60889347D01*
X152753915Y-60952903D01*
X152747883Y-60959381D01*
X149818584Y-63888681D01*
X149757261Y-63922166D01*
X149730903Y-63925000D01*
X144096117Y-63925000D01*
X144029078Y-63905315D01*
X144008432Y-63888677D01*
X143942643Y-63822882D01*
X143479567Y-63359761D01*
X143228935Y-63109105D01*
X143222526Y-63102695D01*
X143222520Y-63102684D01*
X143163252Y-63043416D01*
X143110739Y-62990898D01*
X143110736Y-62990896D01*
X143110735Y-62990895D01*
X143110713Y-62990878D01*
X143087576Y-62977520D01*
X143041303Y-62950804D01*
X143041297Y-62950798D01*
X143041296Y-62950801D01*
X142973816Y-62911836D01*
X142973797Y-62911828D01*
X142973785Y-62911823D01*
X142906440Y-62893778D01*
X142906440Y-62893776D01*
X142906433Y-62893776D01*
X142821080Y-62870901D01*
X142821073Y-62870900D01*
X142821057Y-62870900D01*
X142753322Y-62870900D01*
X142662971Y-62870896D01*
X142662969Y-62870896D01*
X142654916Y-62870896D01*
X142654854Y-62870900D01*
X115827500Y-62870900D01*
X115760461Y-62851215D01*
X115714706Y-62798411D01*
X115703500Y-62746900D01*
X115703500Y-56527743D01*
X115703499Y-56527739D01*
X115696034Y-56499878D01*
X115693072Y-56488823D01*
X115662577Y-56375015D01*
X115617712Y-56297307D01*
X115583520Y-56238084D01*
X115471716Y-56126280D01*
X115437617Y-56092181D01*
X115404132Y-56030858D01*
X115409116Y-55961166D01*
X115450988Y-55905233D01*
X115516452Y-55880816D01*
X115525298Y-55880500D01*
X153841703Y-55880500D01*
X153908742Y-55900185D01*
G37*
%TD.AperFunction*%
%TD*%
M02*
